  0
SECTION
  2
BLOCKS
  0
ENDSEC
  0
SECTION
  2
ENTITIES
  0
LINE
  8
0
 10
109.223
 20
-101.975
 11
109.434
 21
-101.901
  0
LINE
  8
0
 10
109.434
 20
-101.901
 11
109.623
 21
-101.782
  0
LINE
  8
0
 10
109.623
 20
-101.782
 11
109.782
 21
-101.623
  0
LINE
  8
0
 10
109.782
 20
-101.623
 11
109.901
 21
-101.434
  0
LINE
  8
0
 10
109.901
 20
-101.434
 11
109.975
 21
-101.223
  0
LINE
  8
0
 10
109.975
 20
-101.223
 11
110
 21
-101
  0
LINE
  8
0
 10
110
 20
-101
 11
110
 21
101
  0
LINE
  8
0
 10
110
 20
101
 11
109.975
 21
101.223
  0
LINE
  8
0
 10
109.975
 20
101.223
 11
109.901
 21
101.434
  0
LINE
  8
0
 10
109.901
 20
101.434
 11
109.782
 21
101.623
  0
LINE
  8
0
 10
109.782
 20
101.623
 11
109.623
 21
101.782
  0
LINE
  8
0
 10
109.623
 20
101.782
 11
109.434
 21
101.901
  0
LINE
  8
0
 10
109.434
 20
101.901
 11
109.223
 21
101.975
  0
LINE
  8
0
 10
109.223
 20
101.975
 11
109
 21
102
  0
LINE
  8
0
 10
109
 20
102
 11
-109
 21
102
  0
LINE
  8
0
 10
-109
 20
102
 11
-109.223
 21
101.975
  0
LINE
  8
0
 10
-109.223
 20
101.975
 11
-109.434
 21
101.901
  0
LINE
  8
0
 10
-109.434
 20
101.901
 11
-109.623
 21
101.782
  0
LINE
  8
0
 10
-109.623
 20
101.782
 11
-109.782
 21
101.623
  0
LINE
  8
0
 10
-109.782
 20
101.623
 11
-109.901
 21
101.434
  0
LINE
  8
0
 10
-109.901
 20
101.434
 11
-109.975
 21
101.223
  0
LINE
  8
0
 10
-109.975
 20
101.223
 11
-110
 21
101
  0
LINE
  8
0
 10
-110
 20
101
 11
-110
 21
-101
  0
LINE
  8
0
 10
-110
 20
-101
 11
-109.975
 21
-101.223
  0
LINE
  8
0
 10
-109.975
 20
-101.223
 11
-109.901
 21
-101.434
  0
LINE
  8
0
 10
-109.901
 20
-101.434
 11
-109.782
 21
-101.623
  0
LINE
  8
0
 10
-109.782
 20
-101.623
 11
-109.623
 21
-101.782
  0
LINE
  8
0
 10
-109.623
 20
-101.782
 11
-109.434
 21
-101.901
  0
LINE
  8
0
 10
-109.434
 20
-101.901
 11
-109.223
 21
-101.975
  0
LINE
  8
0
 10
-109.223
 20
-101.975
 11
-109
 21
-102
  0
LINE
  8
0
 10
-109
 20
-102
 11
109
 21
-102
  0
LINE
  8
0
 10
109
 20
-102
 11
109.223
 21
-101.975
  0
LINE
  8
0
 10
24.7534
 20
93.3638
 11
24.5123
 21
93.4189
  0
LINE
  8
0
 10
24.5123
 20
93.4189
 11
24.2821
 21
93.5092
  0
LINE
  8
0
 10
24.2821
 20
93.5092
 11
24.0679
 21
93.6329
  0
LINE
  8
0
 10
24.0679
 20
93.6329
 11
23.8746
 21
93.7871
  0
LINE
  8
0
 10
23.8746
 20
93.7871
 11
23.7064
 21
93.9684
  0
LINE
  8
0
 10
23.7064
 20
93.9684
 11
23.567
 21
94.1727
  0
LINE
  8
0
 10
23.567
 20
94.1727
 11
23.4597
 21
94.3955
  0
LINE
  8
0
 10
23.4597
 20
94.3955
 11
23.3869
 21
94.6318
  0
LINE
  8
0
 10
23.3869
 20
94.6318
 11
23.35
 21
94.8763
  0
LINE
  8
0
 10
23.35
 20
94.8763
 11
23.35
 21
95.1236
  0
LINE
  8
0
 10
23.35
 20
95.1236
 11
23.3869
 21
95.3682
  0
LINE
  8
0
 10
23.3869
 20
95.3682
 11
23.4597
 21
95.6045
  0
LINE
  8
0
 10
23.4597
 20
95.6045
 11
23.567
 21
95.8273
  0
LINE
  8
0
 10
23.567
 20
95.8273
 11
23.7064
 21
96.0316
  0
LINE
  8
0
 10
23.7064
 20
96.0316
 11
23.8746
 21
96.2129
  0
LINE
  8
0
 10
23.8746
 20
96.2129
 11
24.0679
 21
96.3671
  0
LINE
  8
0
 10
24.0679
 20
96.3671
 11
24.2821
 21
96.4908
  0
LINE
  8
0
 10
24.2821
 20
96.4908
 11
24.5123
 21
96.5811
  0
LINE
  8
0
 10
24.5123
 20
96.5811
 11
24.7534
 21
96.6361
  0
LINE
  8
0
 10
24.7534
 20
96.6361
 11
25
 21
96.6546
  0
LINE
  8
0
 10
25
 20
96.6546
 11
25.2466
 21
96.6361
  0
LINE
  8
0
 10
25.2466
 20
96.6361
 11
25.4877
 21
96.5811
  0
LINE
  8
0
 10
25.4877
 20
96.5811
 11
25.7179
 21
96.4908
  0
LINE
  8
0
 10
25.7179
 20
96.4908
 11
25.9321
 21
96.3671
  0
LINE
  8
0
 10
25.9321
 20
96.3671
 11
26.1254
 21
96.2129
  0
LINE
  8
0
 10
26.1254
 20
96.2129
 11
26.2936
 21
96.0316
  0
LINE
  8
0
 10
26.2936
 20
96.0316
 11
26.4329
 21
95.8273
  0
LINE
  8
0
 10
26.4329
 20
95.8273
 11
26.5402
 21
95.6045
  0
LINE
  8
0
 10
26.5402
 20
95.6045
 11
26.6131
 21
95.3682
  0
LINE
  8
0
 10
26.6131
 20
95.3682
 11
26.65
 21
95.1236
  0
LINE
  8
0
 10
26.65
 20
95.1236
 11
26.65
 21
94.8763
  0
LINE
  8
0
 10
26.65
 20
94.8763
 11
26.6131
 21
94.6318
  0
LINE
  8
0
 10
26.6131
 20
94.6318
 11
26.5402
 21
94.3955
  0
LINE
  8
0
 10
26.5402
 20
94.3955
 11
26.4329
 21
94.1727
  0
LINE
  8
0
 10
26.4329
 20
94.1727
 11
26.2936
 21
93.9684
  0
LINE
  8
0
 10
26.2936
 20
93.9684
 11
26.1254
 21
93.7871
  0
LINE
  8
0
 10
26.1254
 20
93.7871
 11
25.9321
 21
93.6329
  0
LINE
  8
0
 10
25.9321
 20
93.6329
 11
25.7179
 21
93.5092
  0
LINE
  8
0
 10
25.7179
 20
93.5092
 11
25.4877
 21
93.4189
  0
LINE
  8
0
 10
25.4877
 20
93.4189
 11
25.2466
 21
93.3638
  0
LINE
  8
0
 10
25.2466
 20
93.3638
 11
25
 21
93.3454
  0
LINE
  8
0
 10
25
 20
93.3454
 11
24.7534
 21
93.3638
  0
LINE
  8
0
 10
-25.2466
 20
93.3638
 11
-25.4877
 21
93.4189
  0
LINE
  8
0
 10
-25.4877
 20
93.4189
 11
-25.7179
 21
93.5092
  0
LINE
  8
0
 10
-25.7179
 20
93.5092
 11
-25.9321
 21
93.6329
  0
LINE
  8
0
 10
-25.9321
 20
93.6329
 11
-26.1254
 21
93.7871
  0
LINE
  8
0
 10
-26.1254
 20
93.7871
 11
-26.2936
 21
93.9684
  0
LINE
  8
0
 10
-26.2936
 20
93.9684
 11
-26.433
 21
94.1727
  0
LINE
  8
0
 10
-26.433
 20
94.1727
 11
-26.5403
 21
94.3955
  0
LINE
  8
0
 10
-26.5403
 20
94.3955
 11
-26.6131
 21
94.6318
  0
LINE
  8
0
 10
-26.6131
 20
94.6318
 11
-26.65
 21
94.8763
  0
LINE
  8
0
 10
-26.65
 20
94.8763
 11
-26.65
 21
95.1236
  0
LINE
  8
0
 10
-26.65
 20
95.1236
 11
-26.6131
 21
95.3682
  0
LINE
  8
0
 10
-26.6131
 20
95.3682
 11
-26.5403
 21
95.6045
  0
LINE
  8
0
 10
-26.5403
 20
95.6045
 11
-26.433
 21
95.8273
  0
LINE
  8
0
 10
-26.433
 20
95.8273
 11
-26.2936
 21
96.0316
  0
LINE
  8
0
 10
-26.2936
 20
96.0316
 11
-26.1254
 21
96.2129
  0
LINE
  8
0
 10
-26.1254
 20
96.2129
 11
-25.9321
 21
96.3671
  0
LINE
  8
0
 10
-25.9321
 20
96.3671
 11
-25.7179
 21
96.4908
  0
LINE
  8
0
 10
-25.7179
 20
96.4908
 11
-25.4877
 21
96.5811
  0
LINE
  8
0
 10
-25.4877
 20
96.5811
 11
-25.2466
 21
96.6361
  0
LINE
  8
0
 10
-25.2466
 20
96.6361
 11
-25
 21
96.6546
  0
LINE
  8
0
 10
-25
 20
96.6546
 11
-24.7534
 21
96.6361
  0
LINE
  8
0
 10
-24.7534
 20
96.6361
 11
-24.5123
 21
96.5811
  0
LINE
  8
0
 10
-24.5123
 20
96.5811
 11
-24.2821
 21
96.4908
  0
LINE
  8
0
 10
-24.2821
 20
96.4908
 11
-24.0679
 21
96.3671
  0
LINE
  8
0
 10
-24.0679
 20
96.3671
 11
-23.8746
 21
96.2129
  0
LINE
  8
0
 10
-23.8746
 20
96.2129
 11
-23.7064
 21
96.0316
  0
LINE
  8
0
 10
-23.7064
 20
96.0316
 11
-23.5671
 21
95.8273
  0
LINE
  8
0
 10
-23.5671
 20
95.8273
 11
-23.4598
 21
95.6045
  0
LINE
  8
0
 10
-23.4598
 20
95.6045
 11
-23.3869
 21
95.3682
  0
LINE
  8
0
 10
-23.3869
 20
95.3682
 11
-23.35
 21
95.1236
  0
LINE
  8
0
 10
-23.35
 20
95.1236
 11
-23.35
 21
94.8763
  0
LINE
  8
0
 10
-23.35
 20
94.8763
 11
-23.3869
 21
94.6318
  0
LINE
  8
0
 10
-23.3869
 20
94.6318
 11
-23.4598
 21
94.3955
  0
LINE
  8
0
 10
-23.4598
 20
94.3955
 11
-23.5671
 21
94.1727
  0
LINE
  8
0
 10
-23.5671
 20
94.1727
 11
-23.7064
 21
93.9684
  0
LINE
  8
0
 10
-23.7064
 20
93.9684
 11
-23.8746
 21
93.7871
  0
LINE
  8
0
 10
-23.8746
 20
93.7871
 11
-24.0679
 21
93.6329
  0
LINE
  8
0
 10
-24.0679
 20
93.6329
 11
-24.2821
 21
93.5092
  0
LINE
  8
0
 10
-24.2821
 20
93.5092
 11
-24.5123
 21
93.4189
  0
LINE
  8
0
 10
-24.5123
 20
93.4189
 11
-24.7534
 21
93.3638
  0
LINE
  8
0
 10
-24.7534
 20
93.3638
 11
-25
 21
93.3454
  0
LINE
  8
0
 10
-25
 20
93.3454
 11
-25.2466
 21
93.3638
  0
LINE
  8
0
 10
-90.2466
 20
90.3638
 11
-90.4877
 21
90.4189
  0
LINE
  8
0
 10
-90.4877
 20
90.4189
 11
-90.7179
 21
90.5092
  0
LINE
  8
0
 10
-90.7179
 20
90.5092
 11
-90.9321
 21
90.6329
  0
LINE
  8
0
 10
-90.9321
 20
90.6329
 11
-91.1254
 21
90.7871
  0
LINE
  8
0
 10
-91.1254
 20
90.7871
 11
-91.2936
 21
90.9684
  0
LINE
  8
0
 10
-91.2936
 20
90.9684
 11
-91.433
 21
91.1727
  0
LINE
  8
0
 10
-91.433
 20
91.1727
 11
-91.5403
 21
91.3955
  0
LINE
  8
0
 10
-91.5403
 20
91.3955
 11
-91.6131
 21
91.6318
  0
LINE
  8
0
 10
-91.6131
 20
91.6318
 11
-91.65
 21
91.8763
  0
LINE
  8
0
 10
-91.65
 20
91.8763
 11
-91.65
 21
92.1236
  0
LINE
  8
0
 10
-91.65
 20
92.1236
 11
-91.6131
 21
92.3682
  0
LINE
  8
0
 10
-91.6131
 20
92.3682
 11
-91.5403
 21
92.6045
  0
LINE
  8
0
 10
-91.5403
 20
92.6045
 11
-91.433
 21
92.8273
  0
LINE
  8
0
 10
-91.433
 20
92.8273
 11
-91.2936
 21
93.0316
  0
LINE
  8
0
 10
-91.2936
 20
93.0316
 11
-91.1254
 21
93.2129
  0
LINE
  8
0
 10
-91.1254
 20
93.2129
 11
-90.9321
 21
93.3671
  0
LINE
  8
0
 10
-90.9321
 20
93.3671
 11
-90.7179
 21
93.4908
  0
LINE
  8
0
 10
-90.7179
 20
93.4908
 11
-90.4877
 21
93.5811
  0
LINE
  8
0
 10
-90.4877
 20
93.5811
 11
-90.2466
 21
93.6361
  0
LINE
  8
0
 10
-90.2466
 20
93.6361
 11
-90
 21
93.6546
  0
LINE
  8
0
 10
-90
 20
93.6546
 11
-89.7534
 21
93.6361
  0
LINE
  8
0
 10
-89.7534
 20
93.6361
 11
-89.5123
 21
93.5811
  0
LINE
  8
0
 10
-89.5123
 20
93.5811
 11
-89.2821
 21
93.4908
  0
LINE
  8
0
 10
-89.2821
 20
93.4908
 11
-89.0679
 21
93.3671
  0
LINE
  8
0
 10
-89.0679
 20
93.3671
 11
-88.8746
 21
93.2129
  0
LINE
  8
0
 10
-88.8746
 20
93.2129
 11
-88.7064
 21
93.0316
  0
LINE
  8
0
 10
-88.7064
 20
93.0316
 11
-88.5671
 21
92.8273
  0
LINE
  8
0
 10
-88.5671
 20
92.8273
 11
-88.4598
 21
92.6045
  0
LINE
  8
0
 10
-88.4598
 20
92.6045
 11
-88.3869
 21
92.3682
  0
LINE
  8
0
 10
-88.3869
 20
92.3682
 11
-88.35
 21
92.1236
  0
LINE
  8
0
 10
-88.35
 20
92.1236
 11
-88.35
 21
91.8763
  0
LINE
  8
0
 10
-88.35
 20
91.8763
 11
-88.3869
 21
91.6318
  0
LINE
  8
0
 10
-88.3869
 20
91.6318
 11
-88.4598
 21
91.3955
  0
LINE
  8
0
 10
-88.4598
 20
91.3955
 11
-88.5671
 21
91.1727
  0
LINE
  8
0
 10
-88.5671
 20
91.1727
 11
-88.7064
 21
90.9684
  0
LINE
  8
0
 10
-88.7064
 20
90.9684
 11
-88.8746
 21
90.7871
  0
LINE
  8
0
 10
-88.8746
 20
90.7871
 11
-89.0679
 21
90.6329
  0
LINE
  8
0
 10
-89.0679
 20
90.6329
 11
-89.2821
 21
90.5092
  0
LINE
  8
0
 10
-89.2821
 20
90.5092
 11
-89.5123
 21
90.4189
  0
LINE
  8
0
 10
-89.5123
 20
90.4189
 11
-89.7534
 21
90.3638
  0
LINE
  8
0
 10
-89.7534
 20
90.3638
 11
-90
 21
90.3454
  0
LINE
  8
0
 10
-90
 20
90.3454
 11
-90.2466
 21
90.3638
  0
LINE
  8
0
 10
89.7534
 20
90.3638
 11
89.5123
 21
90.4189
  0
LINE
  8
0
 10
89.5123
 20
90.4189
 11
89.2821
 21
90.5092
  0
LINE
  8
0
 10
89.2821
 20
90.5092
 11
89.0679
 21
90.6329
  0
LINE
  8
0
 10
89.0679
 20
90.6329
 11
88.8746
 21
90.7871
  0
LINE
  8
0
 10
88.8746
 20
90.7871
 11
88.7064
 21
90.9684
  0
LINE
  8
0
 10
88.7064
 20
90.9684
 11
88.567
 21
91.1727
  0
LINE
  8
0
 10
88.567
 20
91.1727
 11
88.4597
 21
91.3955
  0
LINE
  8
0
 10
88.4597
 20
91.3955
 11
88.3869
 21
91.6318
  0
LINE
  8
0
 10
88.3869
 20
91.6318
 11
88.35
 21
91.8763
  0
LINE
  8
0
 10
88.35
 20
91.8763
 11
88.35
 21
92.1236
  0
LINE
  8
0
 10
88.35
 20
92.1236
 11
88.3869
 21
92.3682
  0
LINE
  8
0
 10
88.3869
 20
92.3682
 11
88.4597
 21
92.6045
  0
LINE
  8
0
 10
88.4597
 20
92.6045
 11
88.567
 21
92.8273
  0
LINE
  8
0
 10
88.567
 20
92.8273
 11
88.7064
 21
93.0316
  0
LINE
  8
0
 10
88.7064
 20
93.0316
 11
88.8746
 21
93.2129
  0
LINE
  8
0
 10
88.8746
 20
93.2129
 11
89.0679
 21
93.3671
  0
LINE
  8
0
 10
89.0679
 20
93.3671
 11
89.2821
 21
93.4908
  0
LINE
  8
0
 10
89.2821
 20
93.4908
 11
89.5123
 21
93.5811
  0
LINE
  8
0
 10
89.5123
 20
93.5811
 11
89.7534
 21
93.6361
  0
LINE
  8
0
 10
89.7534
 20
93.6361
 11
90
 21
93.6546
  0
LINE
  8
0
 10
90
 20
93.6546
 11
90.2466
 21
93.6361
  0
LINE
  8
0
 10
90.2466
 20
93.6361
 11
90.4877
 21
93.5811
  0
LINE
  8
0
 10
90.4877
 20
93.5811
 11
90.7179
 21
93.4908
  0
LINE
  8
0
 10
90.7179
 20
93.4908
 11
90.9321
 21
93.3671
  0
LINE
  8
0
 10
90.9321
 20
93.3671
 11
91.1254
 21
93.2129
  0
LINE
  8
0
 10
91.1254
 20
93.2129
 11
91.2936
 21
93.0316
  0
LINE
  8
0
 10
91.2936
 20
93.0316
 11
91.4329
 21
92.8273
  0
LINE
  8
0
 10
91.4329
 20
92.8273
 11
91.5402
 21
92.6045
  0
LINE
  8
0
 10
91.5402
 20
92.6045
 11
91.6131
 21
92.3682
  0
LINE
  8
0
 10
91.6131
 20
92.3682
 11
91.65
 21
92.1236
  0
LINE
  8
0
 10
91.65
 20
92.1236
 11
91.65
 21
91.8763
  0
LINE
  8
0
 10
91.65
 20
91.8763
 11
91.6131
 21
91.6318
  0
LINE
  8
0
 10
91.6131
 20
91.6318
 11
91.5402
 21
91.3955
  0
LINE
  8
0
 10
91.5402
 20
91.3955
 11
91.4329
 21
91.1727
  0
LINE
  8
0
 10
91.4329
 20
91.1727
 11
91.2936
 21
90.9684
  0
LINE
  8
0
 10
91.2936
 20
90.9684
 11
91.1254
 21
90.7871
  0
LINE
  8
0
 10
91.1254
 20
90.7871
 11
90.9321
 21
90.6329
  0
LINE
  8
0
 10
90.9321
 20
90.6329
 11
90.7179
 21
90.5092
  0
LINE
  8
0
 10
90.7179
 20
90.5092
 11
90.4877
 21
90.4189
  0
LINE
  8
0
 10
90.4877
 20
90.4189
 11
90.2466
 21
90.3638
  0
LINE
  8
0
 10
90.2466
 20
90.3638
 11
90
 21
90.3454
  0
LINE
  8
0
 10
90
 20
90.3454
 11
89.7534
 21
90.3638
  0
LINE
  8
0
 10
-104.247
 20
76.3638
 11
-104.488
 21
76.4189
  0
LINE
  8
0
 10
-104.488
 20
76.4189
 11
-104.718
 21
76.5092
  0
LINE
  8
0
 10
-104.718
 20
76.5092
 11
-104.932
 21
76.6329
  0
LINE
  8
0
 10
-104.932
 20
76.6329
 11
-105.125
 21
76.7871
  0
LINE
  8
0
 10
-105.125
 20
76.7871
 11
-105.294
 21
76.9684
  0
LINE
  8
0
 10
-105.294
 20
76.9684
 11
-105.433
 21
77.1727
  0
LINE
  8
0
 10
-105.433
 20
77.1727
 11
-105.54
 21
77.3955
  0
LINE
  8
0
 10
-105.54
 20
77.3955
 11
-105.613
 21
77.6318
  0
LINE
  8
0
 10
-105.613
 20
77.6318
 11
-105.65
 21
77.8763
  0
LINE
  8
0
 10
-105.65
 20
77.8763
 11
-105.65
 21
78.1236
  0
LINE
  8
0
 10
-105.65
 20
78.1236
 11
-105.613
 21
78.3682
  0
LINE
  8
0
 10
-105.613
 20
78.3682
 11
-105.54
 21
78.6045
  0
LINE
  8
0
 10
-105.54
 20
78.6045
 11
-105.433
 21
78.8273
  0
LINE
  8
0
 10
-105.433
 20
78.8273
 11
-105.294
 21
79.0316
  0
LINE
  8
0
 10
-105.294
 20
79.0316
 11
-105.125
 21
79.2129
  0
LINE
  8
0
 10
-105.125
 20
79.2129
 11
-104.932
 21
79.3671
  0
LINE
  8
0
 10
-104.932
 20
79.3671
 11
-104.718
 21
79.4908
  0
LINE
  8
0
 10
-104.718
 20
79.4908
 11
-104.488
 21
79.5811
  0
LINE
  8
0
 10
-104.488
 20
79.5811
 11
-104.247
 21
79.6361
  0
LINE
  8
0
 10
-104.247
 20
79.6361
 11
-104
 21
79.6546
  0
LINE
  8
0
 10
-104
 20
79.6546
 11
-103.753
 21
79.6361
  0
LINE
  8
0
 10
-103.753
 20
79.6361
 11
-103.512
 21
79.5811
  0
LINE
  8
0
 10
-103.512
 20
79.5811
 11
-103.282
 21
79.4908
  0
LINE
  8
0
 10
-103.282
 20
79.4908
 11
-103.068
 21
79.3671
  0
LINE
  8
0
 10
-103.068
 20
79.3671
 11
-102.875
 21
79.2129
  0
LINE
  8
0
 10
-102.875
 20
79.2129
 11
-102.706
 21
79.0316
  0
LINE
  8
0
 10
-102.706
 20
79.0316
 11
-102.567
 21
78.8273
  0
LINE
  8
0
 10
-102.567
 20
78.8273
 11
-102.46
 21
78.6045
  0
LINE
  8
0
 10
-102.46
 20
78.6045
 11
-102.387
 21
78.3682
  0
LINE
  8
0
 10
-102.387
 20
78.3682
 11
-102.35
 21
78.1236
  0
LINE
  8
0
 10
-102.35
 20
78.1236
 11
-102.35
 21
77.8763
  0
LINE
  8
0
 10
-102.35
 20
77.8763
 11
-102.387
 21
77.6318
  0
LINE
  8
0
 10
-102.387
 20
77.6318
 11
-102.46
 21
77.3955
  0
LINE
  8
0
 10
-102.46
 20
77.3955
 11
-102.567
 21
77.1727
  0
LINE
  8
0
 10
-102.567
 20
77.1727
 11
-102.706
 21
76.9684
  0
LINE
  8
0
 10
-102.706
 20
76.9684
 11
-102.875
 21
76.7871
  0
LINE
  8
0
 10
-102.875
 20
76.7871
 11
-103.068
 21
76.6329
  0
LINE
  8
0
 10
-103.068
 20
76.6329
 11
-103.282
 21
76.5092
  0
LINE
  8
0
 10
-103.282
 20
76.5092
 11
-103.512
 21
76.4189
  0
LINE
  8
0
 10
-103.512
 20
76.4189
 11
-103.753
 21
76.3638
  0
LINE
  8
0
 10
-103.753
 20
76.3638
 11
-104
 21
76.3454
  0
LINE
  8
0
 10
-104
 20
76.3454
 11
-104.247
 21
76.3638
  0
LINE
  8
0
 10
103.753
 20
76.3638
 11
103.512
 21
76.4189
  0
LINE
  8
0
 10
103.512
 20
76.4189
 11
103.282
 21
76.5092
  0
LINE
  8
0
 10
103.282
 20
76.5092
 11
103.068
 21
76.6329
  0
LINE
  8
0
 10
103.068
 20
76.6329
 11
102.875
 21
76.7871
  0
LINE
  8
0
 10
102.875
 20
76.7871
 11
102.706
 21
76.9684
  0
LINE
  8
0
 10
102.706
 20
76.9684
 11
102.567
 21
77.1727
  0
LINE
  8
0
 10
102.567
 20
77.1727
 11
102.46
 21
77.3955
  0
LINE
  8
0
 10
102.46
 20
77.3955
 11
102.387
 21
77.6318
  0
LINE
  8
0
 10
102.387
 20
77.6318
 11
102.35
 21
77.8763
  0
LINE
  8
0
 10
102.35
 20
77.8763
 11
102.35
 21
78.1236
  0
LINE
  8
0
 10
102.35
 20
78.1236
 11
102.387
 21
78.3682
  0
LINE
  8
0
 10
102.387
 20
78.3682
 11
102.46
 21
78.6045
  0
LINE
  8
0
 10
102.46
 20
78.6045
 11
102.567
 21
78.8273
  0
LINE
  8
0
 10
102.567
 20
78.8273
 11
102.706
 21
79.0316
  0
LINE
  8
0
 10
102.706
 20
79.0316
 11
102.875
 21
79.2129
  0
LINE
  8
0
 10
102.875
 20
79.2129
 11
103.068
 21
79.3671
  0
LINE
  8
0
 10
103.068
 20
79.3671
 11
103.282
 21
79.4908
  0
LINE
  8
0
 10
103.282
 20
79.4908
 11
103.512
 21
79.5811
  0
LINE
  8
0
 10
103.512
 20
79.5811
 11
103.753
 21
79.6361
  0
LINE
  8
0
 10
103.753
 20
79.6361
 11
104
 21
79.6546
  0
LINE
  8
0
 10
104
 20
79.6546
 11
104.247
 21
79.6361
  0
LINE
  8
0
 10
104.247
 20
79.6361
 11
104.488
 21
79.5811
  0
LINE
  8
0
 10
104.488
 20
79.5811
 11
104.718
 21
79.4908
  0
LINE
  8
0
 10
104.718
 20
79.4908
 11
104.932
 21
79.3671
  0
LINE
  8
0
 10
104.932
 20
79.3671
 11
105.125
 21
79.2129
  0
LINE
  8
0
 10
105.125
 20
79.2129
 11
105.294
 21
79.0316
  0
LINE
  8
0
 10
105.294
 20
79.0316
 11
105.433
 21
78.8273
  0
LINE
  8
0
 10
105.433
 20
78.8273
 11
105.54
 21
78.6045
  0
LINE
  8
0
 10
105.54
 20
78.6045
 11
105.613
 21
78.3682
  0
LINE
  8
0
 10
105.613
 20
78.3682
 11
105.65
 21
78.1236
  0
LINE
  8
0
 10
105.65
 20
78.1236
 11
105.65
 21
77.8763
  0
LINE
  8
0
 10
105.65
 20
77.8763
 11
105.613
 21
77.6318
  0
LINE
  8
0
 10
105.613
 20
77.6318
 11
105.54
 21
77.3955
  0
LINE
  8
0
 10
105.54
 20
77.3955
 11
105.433
 21
77.1727
  0
LINE
  8
0
 10
105.433
 20
77.1727
 11
105.294
 21
76.9684
  0
LINE
  8
0
 10
105.294
 20
76.9684
 11
105.125
 21
76.7871
  0
LINE
  8
0
 10
105.125
 20
76.7871
 11
104.932
 21
76.6329
  0
LINE
  8
0
 10
104.932
 20
76.6329
 11
104.718
 21
76.5092
  0
LINE
  8
0
 10
104.718
 20
76.5092
 11
104.488
 21
76.4189
  0
LINE
  8
0
 10
104.488
 20
76.4189
 11
104.247
 21
76.3638
  0
LINE
  8
0
 10
104.247
 20
76.3638
 11
104
 21
76.3454
  0
LINE
  8
0
 10
104
 20
76.3454
 11
103.753
 21
76.3638
  0
LINE
  8
0
 10
-43
 20
52
 11
-43.1913
 21
52.0381
  0
LINE
  8
0
 10
-43.1913
 20
52.0381
 11
-43.3535
 21
52.1465
  0
LINE
  8
0
 10
-43.3535
 20
52.1465
 11
-43.4619
 21
52.3087
  0
LINE
  8
0
 10
-43.4619
 20
52.3087
 11
-43.5
 21
52.5
  0
LINE
  8
0
 10
-43.5
 20
52.5
 11
-43.5
 21
54
  0
LINE
  8
0
 10
-43.5
 20
54
 11
-43.4619
 21
54.1913
  0
LINE
  8
0
 10
-43.4619
 20
54.1913
 11
-43.3535
 21
54.3535
  0
LINE
  8
0
 10
-43.3535
 20
54.3535
 11
-43.1913
 21
54.4619
  0
LINE
  8
0
 10
-43.1913
 20
54.4619
 11
-43
 21
54.5
  0
LINE
  8
0
 10
-43
 20
54.5
 11
-23
 21
54.5
  0
LINE
  8
0
 10
-23
 20
54.5
 11
-22.8087
 21
54.4619
  0
LINE
  8
0
 10
-22.8087
 20
54.4619
 11
-22.6465
 21
54.3535
  0
LINE
  8
0
 10
-22.6465
 20
54.3535
 11
-22.5381
 21
54.1913
  0
LINE
  8
0
 10
-22.5381
 20
54.1913
 11
-22.5
 21
54
  0
LINE
  8
0
 10
-22.5
 20
54
 11
-22.5
 21
52.5
  0
LINE
  8
0
 10
-22.5
 20
52.5
 11
-22.5381
 21
52.3087
  0
LINE
  8
0
 10
-22.5381
 20
52.3087
 11
-22.6465
 21
52.1465
  0
LINE
  8
0
 10
-22.6465
 20
52.1465
 11
-22.8087
 21
52.0381
  0
LINE
  8
0
 10
-22.8087
 20
52.0381
 11
-23
 21
52
  0
LINE
  8
0
 10
-23
 20
52
 11
-43
 21
52
  0
LINE
  8
0
 10
55
 20
52
 11
54.8087
 21
52.0381
  0
LINE
  8
0
 10
54.8087
 20
52.0381
 11
54.6465
 21
52.1465
  0
LINE
  8
0
 10
54.6465
 20
52.1465
 11
54.5381
 21
52.3087
  0
LINE
  8
0
 10
54.5381
 20
52.3087
 11
54.5
 21
52.5
  0
LINE
  8
0
 10
54.5
 20
52.5
 11
54.5
 21
54
  0
LINE
  8
0
 10
54.5
 20
54
 11
54.5381
 21
54.1913
  0
LINE
  8
0
 10
54.5381
 20
54.1913
 11
54.6465
 21
54.3535
  0
LINE
  8
0
 10
54.6465
 20
54.3535
 11
54.8087
 21
54.4619
  0
LINE
  8
0
 10
54.8087
 20
54.4619
 11
55
 21
54.5
  0
LINE
  8
0
 10
55
 20
54.5
 11
75
 21
54.5
  0
LINE
  8
0
 10
75
 20
54.5
 11
75.1913
 21
54.4619
  0
LINE
  8
0
 10
75.1913
 20
54.4619
 11
75.3535
 21
54.3535
  0
LINE
  8
0
 10
75.3535
 20
54.3535
 11
75.4619
 21
54.1913
  0
LINE
  8
0
 10
75.4619
 20
54.1913
 11
75.5
 21
54
  0
LINE
  8
0
 10
75.5
 20
54
 11
75.5
 21
52.5
  0
LINE
  8
0
 10
75.5
 20
52.5
 11
75.4619
 21
52.3087
  0
LINE
  8
0
 10
75.4619
 20
52.3087
 11
75.3535
 21
52.1465
  0
LINE
  8
0
 10
75.3535
 20
52.1465
 11
75.1913
 21
52.0381
  0
LINE
  8
0
 10
75.1913
 20
52.0381
 11
75
 21
52
  0
LINE
  8
0
 10
75
 20
52
 11
55
 21
52
  0
LINE
  8
0
 10
-79.245
 20
28.2681
 11
-79.4807
 21
28.3396
  0
LINE
  8
0
 10
-79.4807
 20
28.3396
 11
-79.6978
 21
28.4556
  0
LINE
  8
0
 10
-79.6978
 20
28.4556
 11
-79.8882
 21
28.6118
  0
LINE
  8
0
 10
-79.8882
 20
28.6118
 11
-80.0444
 21
28.8022
  0
LINE
  8
0
 10
-80.0444
 20
28.8022
 11
-80.1604
 21
29.0193
  0
LINE
  8
0
 10
-80.1604
 20
29.0193
 11
-80.2319
 21
29.2549
  0
LINE
  8
0
 10
-80.2319
 20
29.2549
 11
-80.256
 21
29.5
  0
LINE
  8
0
 10
-80.256
 20
29.5
 11
-80.2319
 21
29.745
  0
LINE
  8
0
 10
-80.2319
 20
29.745
 11
-80.1604
 21
29.9807
  0
LINE
  8
0
 10
-80.1604
 20
29.9807
 11
-80.0444
 21
30.1978
  0
LINE
  8
0
 10
-80.0444
 20
30.1978
 11
-79.8882
 21
30.3882
  0
LINE
  8
0
 10
-79.8882
 20
30.3882
 11
-79.6978
 21
30.5444
  0
LINE
  8
0
 10
-79.6978
 20
30.5444
 11
-79.4807
 21
30.6604
  0
LINE
  8
0
 10
-79.4807
 20
30.6604
 11
-79.245
 21
30.7319
  0
LINE
  8
0
 10
-79.245
 20
30.7319
 11
-79
 21
30.756
  0
LINE
  8
0
 10
-79
 20
30.756
 11
-78.755
 21
30.7319
  0
LINE
  8
0
 10
-78.755
 20
30.7319
 11
-78.5193
 21
30.6604
  0
LINE
  8
0
 10
-78.5193
 20
30.6604
 11
-78.3022
 21
30.5444
  0
LINE
  8
0
 10
-78.3022
 20
30.5444
 11
-78.1118
 21
30.3882
  0
LINE
  8
0
 10
-78.1118
 20
30.3882
 11
-77.9556
 21
30.1978
  0
LINE
  8
0
 10
-77.9556
 20
30.1978
 11
-77.8396
 21
29.9807
  0
LINE
  8
0
 10
-77.8396
 20
29.9807
 11
-77.7681
 21
29.745
  0
LINE
  8
0
 10
-77.7681
 20
29.745
 11
-77.744
 21
29.5
  0
LINE
  8
0
 10
-77.744
 20
29.5
 11
-77.7681
 21
29.2549
  0
LINE
  8
0
 10
-77.7681
 20
29.2549
 11
-77.8396
 21
29.0193
  0
LINE
  8
0
 10
-77.8396
 20
29.0193
 11
-77.9556
 21
28.8022
  0
LINE
  8
0
 10
-77.9556
 20
28.8022
 11
-78.1118
 21
28.6118
  0
LINE
  8
0
 10
-78.1118
 20
28.6118
 11
-78.3022
 21
28.4556
  0
LINE
  8
0
 10
-78.3022
 20
28.4556
 11
-78.5193
 21
28.3396
  0
LINE
  8
0
 10
-78.5193
 20
28.3396
 11
-78.755
 21
28.2681
  0
LINE
  8
0
 10
-78.755
 20
28.2681
 11
-79
 21
28.2439
  0
LINE
  8
0
 10
-79
 20
28.2439
 11
-79.245
 21
28.2681
  0
LINE
  8
0
 10
-79.245
 20
8.2681
 11
-79.4807
 21
8.33957
  0
LINE
  8
0
 10
-79.4807
 20
8.33957
 11
-79.6978
 21
8.45564
  0
LINE
  8
0
 10
-79.6978
 20
8.45564
 11
-79.8882
 21
8.61185
  0
LINE
  8
0
 10
-79.8882
 20
8.61185
 11
-80.0444
 21
8.80219
  0
LINE
  8
0
 10
-80.0444
 20
8.80219
 11
-80.1604
 21
9.01933
  0
LINE
  8
0
 10
-80.1604
 20
9.01933
 11
-80.2319
 21
9.25496
  0
LINE
  8
0
 10
-80.2319
 20
9.25496
 11
-80.256
 21
9.5
  0
LINE
  8
0
 10
-80.256
 20
9.5
 11
-80.2319
 21
9.74506
  0
LINE
  8
0
 10
-80.2319
 20
9.74506
 11
-80.1604
 21
9.98068
  0
LINE
  8
0
 10
-80.1604
 20
9.98068
 11
-80.0444
 21
10.1978
  0
LINE
  8
0
 10
-80.0444
 20
10.1978
 11
-79.8882
 21
10.3882
  0
LINE
  8
0
 10
-79.8882
 20
10.3882
 11
-79.6978
 21
10.5444
  0
LINE
  8
0
 10
-79.6978
 20
10.5444
 11
-79.4807
 21
10.6604
  0
LINE
  8
0
 10
-79.4807
 20
10.6604
 11
-79.245
 21
10.7319
  0
LINE
  8
0
 10
-79.245
 20
10.7319
 11
-79
 21
10.7561
  0
LINE
  8
0
 10
-79
 20
10.7561
 11
-78.755
 21
10.7319
  0
LINE
  8
0
 10
-78.755
 20
10.7319
 11
-78.5193
 21
10.6604
  0
LINE
  8
0
 10
-78.5193
 20
10.6604
 11
-78.3022
 21
10.5444
  0
LINE
  8
0
 10
-78.3022
 20
10.5444
 11
-78.1118
 21
10.3882
  0
LINE
  8
0
 10
-78.1118
 20
10.3882
 11
-77.9556
 21
10.1978
  0
LINE
  8
0
 10
-77.9556
 20
10.1978
 11
-77.8396
 21
9.98068
  0
LINE
  8
0
 10
-77.8396
 20
9.98068
 11
-77.7681
 21
9.74506
  0
LINE
  8
0
 10
-77.7681
 20
9.74506
 11
-77.744
 21
9.5
  0
LINE
  8
0
 10
-77.744
 20
9.5
 11
-77.7681
 21
9.25496
  0
LINE
  8
0
 10
-77.7681
 20
9.25496
 11
-77.8396
 21
9.01933
  0
LINE
  8
0
 10
-77.8396
 20
9.01933
 11
-77.9556
 21
8.80219
  0
LINE
  8
0
 10
-77.9556
 20
8.80219
 11
-78.1118
 21
8.61185
  0
LINE
  8
0
 10
-78.1118
 20
8.61185
 11
-78.3022
 21
8.45564
  0
LINE
  8
0
 10
-78.3022
 20
8.45564
 11
-78.5193
 21
8.33957
  0
LINE
  8
0
 10
-78.5193
 20
8.33957
 11
-78.755
 21
8.2681
  0
LINE
  8
0
 10
-78.755
 20
8.2681
 11
-79
 21
8.24396
  0
LINE
  8
0
 10
-79
 20
8.24396
 11
-79.245
 21
8.2681
  0
LINE
  8
0
 10
103.753
 20
-3.63615
 11
103.512
 21
-3.58113
  0
LINE
  8
0
 10
103.512
 20
-3.58113
 11
103.282
 21
-3.49077
  0
LINE
  8
0
 10
103.282
 20
-3.49077
 11
103.068
 21
-3.36713
  0
LINE
  8
0
 10
103.068
 20
-3.36713
 11
102.875
 21
-3.21294
  0
LINE
  8
0
 10
102.875
 20
-3.21294
 11
102.706
 21
-3.03165
  0
LINE
  8
0
 10
102.706
 20
-3.03165
 11
102.567
 21
-2.82732
  0
LINE
  8
0
 10
102.567
 20
-2.82732
 11
102.46
 21
-2.60451
  0
LINE
  8
0
 10
102.46
 20
-2.60451
 11
102.387
 21
-2.36819
  0
LINE
  8
0
 10
102.387
 20
-2.36819
 11
102.35
 21
-2.12366
  0
LINE
  8
0
 10
102.35
 20
-2.12366
 11
102.35
 21
-1.87636
  0
LINE
  8
0
 10
102.35
 20
-1.87636
 11
102.387
 21
-1.63182
  0
LINE
  8
0
 10
102.387
 20
-1.63182
 11
102.46
 21
-1.39551
  0
LINE
  8
0
 10
102.46
 20
-1.39551
 11
102.567
 21
-1.1727
  0
LINE
  8
0
 10
102.567
 20
-1.1727
 11
102.706
 21
-0.968369
  0
LINE
  8
0
 10
102.706
 20
-0.968369
 11
102.875
 21
-0.787079
  0
LINE
  8
0
 10
102.875
 20
-0.787079
 11
103.068
 21
-0.632889
  0
LINE
  8
0
 10
103.068
 20
-0.632889
 11
103.282
 21
-0.509247
  0
LINE
  8
0
 10
103.282
 20
-0.509247
 11
103.512
 21
-0.418884
  0
LINE
  8
0
 10
103.512
 20
-0.418884
 11
103.753
 21
-0.363861
  0
LINE
  8
0
 10
103.753
 20
-0.363861
 11
104
 21
-0.345383
  0
LINE
  8
0
 10
104
 20
-0.345383
 11
104.247
 21
-0.363861
  0
LINE
  8
0
 10
104.247
 20
-0.363861
 11
104.488
 21
-0.418884
  0
LINE
  8
0
 10
104.488
 20
-0.418884
 11
104.718
 21
-0.509247
  0
LINE
  8
0
 10
104.718
 20
-0.509247
 11
104.932
 21
-0.632889
  0
LINE
  8
0
 10
104.932
 20
-0.632889
 11
105.125
 21
-0.787079
  0
LINE
  8
0
 10
105.125
 20
-0.787079
 11
105.294
 21
-0.968369
  0
LINE
  8
0
 10
105.294
 20
-0.968369
 11
105.433
 21
-1.1727
  0
LINE
  8
0
 10
105.433
 20
-1.1727
 11
105.54
 21
-1.39551
  0
LINE
  8
0
 10
105.54
 20
-1.39551
 11
105.613
 21
-1.63182
  0
LINE
  8
0
 10
105.613
 20
-1.63182
 11
105.65
 21
-1.87636
  0
LINE
  8
0
 10
105.65
 20
-1.87636
 11
105.65
 21
-2.12366
  0
LINE
  8
0
 10
105.65
 20
-2.12366
 11
105.613
 21
-2.36819
  0
LINE
  8
0
 10
105.613
 20
-2.36819
 11
105.54
 21
-2.60451
  0
LINE
  8
0
 10
105.54
 20
-2.60451
 11
105.433
 21
-2.82732
  0
LINE
  8
0
 10
105.433
 20
-2.82732
 11
105.294
 21
-3.03165
  0
LINE
  8
0
 10
105.294
 20
-3.03165
 11
105.125
 21
-3.21294
  0
LINE
  8
0
 10
105.125
 20
-3.21294
 11
104.932
 21
-3.36713
  0
LINE
  8
0
 10
104.932
 20
-3.36713
 11
104.718
 21
-3.49077
  0
LINE
  8
0
 10
104.718
 20
-3.49077
 11
104.488
 21
-3.58113
  0
LINE
  8
0
 10
104.488
 20
-3.58113
 11
104.247
 21
-3.63615
  0
LINE
  8
0
 10
104.247
 20
-3.63615
 11
104
 21
-3.65463
  0
LINE
  8
0
 10
104
 20
-3.65463
 11
103.753
 21
-3.63615
  0
LINE
  8
0
 10
-104.124
 20
-3.65001
 11
-104.368
 21
-3.61314
  0
LINE
  8
0
 10
-104.368
 20
-3.61314
 11
-104.605
 21
-3.54025
  0
LINE
  8
0
 10
-104.605
 20
-3.54025
 11
-104.827
 21
-3.43295
  0
LINE
  8
0
 10
-104.827
 20
-3.43295
 11
-105.032
 21
-3.29364
  0
LINE
  8
0
 10
-105.032
 20
-3.29364
 11
-105.213
 21
-3.12544
  0
LINE
  8
0
 10
-105.213
 20
-3.12544
 11
-105.367
 21
-2.9321
  0
LINE
  8
0
 10
-105.367
 20
-2.9321
 11
-105.491
 21
-2.71793
  0
LINE
  8
0
 10
-105.491
 20
-2.71793
 11
-105.581
 21
-2.48772
  0
LINE
  8
0
 10
-105.581
 20
-2.48772
 11
-105.636
 21
-2.24661
  0
LINE
  8
0
 10
-105.636
 20
-2.24661
 11
-105.655
 21
-2
  0
LINE
  8
0
 10
-105.655
 20
-2
 11
-105.636
 21
-1.7534
  0
LINE
  8
0
 10
-105.636
 20
-1.7534
 11
-105.581
 21
-1.5123
  0
LINE
  8
0
 10
-105.581
 20
-1.5123
 11
-105.491
 21
-1.28209
  0
LINE
  8
0
 10
-105.491
 20
-1.28209
 11
-105.367
 21
-1.06792
  0
LINE
  8
0
 10
-105.367
 20
-1.06792
 11
-105.213
 21
-0.874573
  0
LINE
  8
0
 10
-105.213
 20
-0.874573
 11
-105.032
 21
-0.706375
  0
LINE
  8
0
 10
-105.032
 20
-0.706375
 11
-104.827
 21
-0.567062
  0
LINE
  8
0
 10
-104.827
 20
-0.567062
 11
-104.605
 21
-0.459763
  0
LINE
  8
0
 10
-104.605
 20
-0.459763
 11
-104.368
 21
-0.386871
  0
LINE
  8
0
 10
-104.368
 20
-0.386871
 11
-104.124
 21
-0.350006
  0
LINE
  8
0
 10
-104.124
 20
-0.350006
 11
-103.876
 21
-0.350006
  0
LINE
  8
0
 10
-103.876
 20
-0.350006
 11
-103.632
 21
-0.386871
  0
LINE
  8
0
 10
-103.632
 20
-0.386871
 11
-103.396
 21
-0.459763
  0
LINE
  8
0
 10
-103.396
 20
-0.459763
 11
-103.173
 21
-0.567062
  0
LINE
  8
0
 10
-103.173
 20
-0.567062
 11
-102.968
 21
-0.706375
  0
LINE
  8
0
 10
-102.968
 20
-0.706375
 11
-102.787
 21
-0.874573
  0
LINE
  8
0
 10
-102.787
 20
-0.874573
 11
-102.633
 21
-1.06792
  0
LINE
  8
0
 10
-102.633
 20
-1.06792
 11
-102.509
 21
-1.28209
  0
LINE
  8
0
 10
-102.509
 20
-1.28209
 11
-102.419
 21
-1.5123
  0
LINE
  8
0
 10
-102.419
 20
-1.5123
 11
-102.364
 21
-1.7534
  0
LINE
  8
0
 10
-102.364
 20
-1.7534
 11
-102.345
 21
-2
  0
LINE
  8
0
 10
-102.345
 20
-2
 11
-102.364
 21
-2.24661
  0
LINE
  8
0
 10
-102.364
 20
-2.24661
 11
-102.419
 21
-2.48772
  0
LINE
  8
0
 10
-102.419
 20
-2.48772
 11
-102.509
 21
-2.71793
  0
LINE
  8
0
 10
-102.509
 20
-2.71793
 11
-102.633
 21
-2.9321
  0
LINE
  8
0
 10
-102.633
 20
-2.9321
 11
-102.787
 21
-3.12544
  0
LINE
  8
0
 10
-102.787
 20
-3.12544
 11
-102.968
 21
-3.29364
  0
LINE
  8
0
 10
-102.968
 20
-3.29364
 11
-103.173
 21
-3.43295
  0
LINE
  8
0
 10
-103.173
 20
-3.43295
 11
-103.396
 21
-3.54025
  0
LINE
  8
0
 10
-103.396
 20
-3.54025
 11
-103.632
 21
-3.61314
  0
LINE
  8
0
 10
-103.632
 20
-3.61314
 11
-103.876
 21
-3.65001
  0
LINE
  8
0
 10
-103.876
 20
-3.65001
 11
-104.124
 21
-3.65001
  0
LINE
  8
0
 10
-43
 20
-15.5
 11
-43.1913
 21
-15.4619
  0
LINE
  8
0
 10
-43.1913
 20
-15.4619
 11
-43.3535
 21
-15.3535
  0
LINE
  8
0
 10
-43.3535
 20
-15.3535
 11
-43.4619
 21
-15.1913
  0
LINE
  8
0
 10
-43.4619
 20
-15.1913
 11
-43.5
 21
-15
  0
LINE
  8
0
 10
-43.5
 20
-15
 11
-43.5
 21
-13.5
  0
LINE
  8
0
 10
-43.5
 20
-13.5
 11
-43.4619
 21
-13.3087
  0
LINE
  8
0
 10
-43.4619
 20
-13.3087
 11
-43.3535
 21
-13.1465
  0
LINE
  8
0
 10
-43.3535
 20
-13.1465
 11
-43.1913
 21
-13.0381
  0
LINE
  8
0
 10
-43.1913
 20
-13.0381
 11
-43
 21
-13
  0
LINE
  8
0
 10
-43
 20
-13
 11
-23
 21
-13
  0
LINE
  8
0
 10
-23
 20
-13
 11
-22.8087
 21
-13.0381
  0
LINE
  8
0
 10
-22.8087
 20
-13.0381
 11
-22.6465
 21
-13.1465
  0
LINE
  8
0
 10
-22.6465
 20
-13.1465
 11
-22.5381
 21
-13.3087
  0
LINE
  8
0
 10
-22.5381
 20
-13.3087
 11
-22.5
 21
-13.5
  0
LINE
  8
0
 10
-22.5
 20
-13.5
 11
-22.5
 21
-15
  0
LINE
  8
0
 10
-22.5
 20
-15
 11
-22.5381
 21
-15.1913
  0
LINE
  8
0
 10
-22.5381
 20
-15.1913
 11
-22.6465
 21
-15.3535
  0
LINE
  8
0
 10
-22.6465
 20
-15.3535
 11
-22.8087
 21
-15.4619
  0
LINE
  8
0
 10
-22.8087
 20
-15.4619
 11
-23
 21
-15.5
  0
LINE
  8
0
 10
-23
 20
-15.5
 11
-43
 21
-15.5
  0
LINE
  8
0
 10
55
 20
-15.5
 11
54.8087
 21
-15.4619
  0
LINE
  8
0
 10
54.8087
 20
-15.4619
 11
54.6465
 21
-15.3535
  0
LINE
  8
0
 10
54.6465
 20
-15.3535
 11
54.5381
 21
-15.1913
  0
LINE
  8
0
 10
54.5381
 20
-15.1913
 11
54.5
 21
-15
  0
LINE
  8
0
 10
54.5
 20
-15
 11
54.5
 21
-13.5
  0
LINE
  8
0
 10
54.5
 20
-13.5
 11
54.5381
 21
-13.3087
  0
LINE
  8
0
 10
54.5381
 20
-13.3087
 11
54.6465
 21
-13.1465
  0
LINE
  8
0
 10
54.6465
 20
-13.1465
 11
54.8087
 21
-13.0381
  0
LINE
  8
0
 10
54.8087
 20
-13.0381
 11
55
 21
-13
  0
LINE
  8
0
 10
55
 20
-13
 11
75
 21
-13
  0
LINE
  8
0
 10
75
 20
-13
 11
75.1913
 21
-13.0381
  0
LINE
  8
0
 10
75.1913
 20
-13.0381
 11
75.3535
 21
-13.1465
  0
LINE
  8
0
 10
75.3535
 20
-13.1465
 11
75.4619
 21
-13.3087
  0
LINE
  8
0
 10
75.4619
 20
-13.3087
 11
75.5
 21
-13.5
  0
LINE
  8
0
 10
75.5
 20
-13.5
 11
75.5
 21
-15
  0
LINE
  8
0
 10
75.5
 20
-15
 11
75.4619
 21
-15.1913
  0
LINE
  8
0
 10
75.4619
 20
-15.1913
 11
75.3535
 21
-15.3535
  0
LINE
  8
0
 10
75.3535
 20
-15.3535
 11
75.1913
 21
-15.4619
  0
LINE
  8
0
 10
75.1913
 20
-15.4619
 11
75
 21
-15.5
  0
LINE
  8
0
 10
75
 20
-15.5
 11
55
 21
-15.5
  0
LINE
  8
0
 10
-51.1236
 20
-21.65
 11
-51.3682
 21
-21.6131
  0
LINE
  8
0
 10
-51.3682
 20
-21.6131
 11
-51.6045
 21
-21.5403
  0
LINE
  8
0
 10
-51.6045
 20
-21.5403
 11
-51.8273
 21
-21.433
  0
LINE
  8
0
 10
-51.8273
 20
-21.433
 11
-52.0316
 21
-21.2936
  0
LINE
  8
0
 10
-52.0316
 20
-21.2936
 11
-52.2129
 21
-21.1254
  0
LINE
  8
0
 10
-52.2129
 20
-21.1254
 11
-52.3671
 21
-20.9321
  0
LINE
  8
0
 10
-52.3671
 20
-20.9321
 11
-52.4908
 21
-20.7179
  0
LINE
  8
0
 10
-52.4908
 20
-20.7179
 11
-52.5811
 21
-20.4877
  0
LINE
  8
0
 10
-52.5811
 20
-20.4877
 11
-52.6361
 21
-20.2466
  0
LINE
  8
0
 10
-52.6361
 20
-20.2466
 11
-52.6546
 21
-20
  0
LINE
  8
0
 10
-52.6546
 20
-20
 11
-52.6361
 21
-19.7534
  0
LINE
  8
0
 10
-52.6361
 20
-19.7534
 11
-52.5811
 21
-19.5123
  0
LINE
  8
0
 10
-52.5811
 20
-19.5123
 11
-52.4908
 21
-19.2821
  0
LINE
  8
0
 10
-52.4908
 20
-19.2821
 11
-52.3671
 21
-19.0679
  0
LINE
  8
0
 10
-52.3671
 20
-19.0679
 11
-52.2129
 21
-18.8746
  0
LINE
  8
0
 10
-52.2129
 20
-18.8746
 11
-52.0316
 21
-18.7064
  0
LINE
  8
0
 10
-52.0316
 20
-18.7064
 11
-51.8273
 21
-18.5671
  0
LINE
  8
0
 10
-51.8273
 20
-18.5671
 11
-51.6045
 21
-18.4598
  0
LINE
  8
0
 10
-51.6045
 20
-18.4598
 11
-51.3682
 21
-18.3869
  0
LINE
  8
0
 10
-51.3682
 20
-18.3869
 11
-51.1236
 21
-18.35
  0
LINE
  8
0
 10
-51.1236
 20
-18.35
 11
-50.8763
 21
-18.35
  0
LINE
  8
0
 10
-50.8763
 20
-18.35
 11
-50.6318
 21
-18.3869
  0
LINE
  8
0
 10
-50.6318
 20
-18.3869
 11
-50.3955
 21
-18.4598
  0
LINE
  8
0
 10
-50.3955
 20
-18.4598
 11
-50.1727
 21
-18.5671
  0
LINE
  8
0
 10
-50.1727
 20
-18.5671
 11
-49.9684
 21
-18.7064
  0
LINE
  8
0
 10
-49.9684
 20
-18.7064
 11
-49.7871
 21
-18.8746
  0
LINE
  8
0
 10
-49.7871
 20
-18.8746
 11
-49.6329
 21
-19.0679
  0
LINE
  8
0
 10
-49.6329
 20
-19.0679
 11
-49.5092
 21
-19.2821
  0
LINE
  8
0
 10
-49.5092
 20
-19.2821
 11
-49.4189
 21
-19.5123
  0
LINE
  8
0
 10
-49.4189
 20
-19.5123
 11
-49.3638
 21
-19.7534
  0
LINE
  8
0
 10
-49.3638
 20
-19.7534
 11
-49.3454
 21
-20
  0
LINE
  8
0
 10
-49.3454
 20
-20
 11
-49.3638
 21
-20.2466
  0
LINE
  8
0
 10
-49.3638
 20
-20.2466
 11
-49.4189
 21
-20.4877
  0
LINE
  8
0
 10
-49.4189
 20
-20.4877
 11
-49.5092
 21
-20.7179
  0
LINE
  8
0
 10
-49.5092
 20
-20.7179
 11
-49.6329
 21
-20.9321
  0
LINE
  8
0
 10
-49.6329
 20
-20.9321
 11
-49.7871
 21
-21.1254
  0
LINE
  8
0
 10
-49.7871
 20
-21.1254
 11
-49.9684
 21
-21.2936
  0
LINE
  8
0
 10
-49.9684
 20
-21.2936
 11
-50.1727
 21
-21.433
  0
LINE
  8
0
 10
-50.1727
 20
-21.433
 11
-50.3955
 21
-21.5403
  0
LINE
  8
0
 10
-50.3955
 20
-21.5403
 11
-50.6318
 21
-21.6131
  0
LINE
  8
0
 10
-50.6318
 20
-21.6131
 11
-50.8763
 21
-21.65
  0
LINE
  8
0
 10
-50.8763
 20
-21.65
 11
-51.1236
 21
-21.65
  0
LINE
  8
0
 10
50.8763
 20
-21.65
 11
50.6318
 21
-21.6131
  0
LINE
  8
0
 10
50.6318
 20
-21.6131
 11
50.3955
 21
-21.5403
  0
LINE
  8
0
 10
50.3955
 20
-21.5403
 11
50.1727
 21
-21.433
  0
LINE
  8
0
 10
50.1727
 20
-21.433
 11
49.9684
 21
-21.2936
  0
LINE
  8
0
 10
49.9684
 20
-21.2936
 11
49.7871
 21
-21.1254
  0
LINE
  8
0
 10
49.7871
 20
-21.1254
 11
49.6329
 21
-20.9321
  0
LINE
  8
0
 10
49.6329
 20
-20.9321
 11
49.5092
 21
-20.7179
  0
LINE
  8
0
 10
49.5092
 20
-20.7179
 11
49.4189
 21
-20.4877
  0
LINE
  8
0
 10
49.4189
 20
-20.4877
 11
49.3638
 21
-20.2466
  0
LINE
  8
0
 10
49.3638
 20
-20.2466
 11
49.3454
 21
-20
  0
LINE
  8
0
 10
49.3454
 20
-20
 11
49.3638
 21
-19.7534
  0
LINE
  8
0
 10
49.3638
 20
-19.7534
 11
49.4189
 21
-19.5123
  0
LINE
  8
0
 10
49.4189
 20
-19.5123
 11
49.5092
 21
-19.2821
  0
LINE
  8
0
 10
49.5092
 20
-19.2821
 11
49.6329
 21
-19.0679
  0
LINE
  8
0
 10
49.6329
 20
-19.0679
 11
49.7871
 21
-18.8746
  0
LINE
  8
0
 10
49.7871
 20
-18.8746
 11
49.9684
 21
-18.7064
  0
LINE
  8
0
 10
49.9684
 20
-18.7064
 11
50.1727
 21
-18.5671
  0
LINE
  8
0
 10
50.1727
 20
-18.5671
 11
50.3955
 21
-18.4598
  0
LINE
  8
0
 10
50.3955
 20
-18.4598
 11
50.6318
 21
-18.3869
  0
LINE
  8
0
 10
50.6318
 20
-18.3869
 11
50.8763
 21
-18.35
  0
LINE
  8
0
 10
50.8763
 20
-18.35
 11
51.1236
 21
-18.35
  0
LINE
  8
0
 10
51.1236
 20
-18.35
 11
51.3682
 21
-18.3869
  0
LINE
  8
0
 10
51.3682
 20
-18.3869
 11
51.6045
 21
-18.4598
  0
LINE
  8
0
 10
51.6045
 20
-18.4598
 11
51.8273
 21
-18.5671
  0
LINE
  8
0
 10
51.8273
 20
-18.5671
 11
52.0316
 21
-18.7064
  0
LINE
  8
0
 10
52.0316
 20
-18.7064
 11
52.2129
 21
-18.8746
  0
LINE
  8
0
 10
52.2129
 20
-18.8746
 11
52.3671
 21
-19.0679
  0
LINE
  8
0
 10
52.3671
 20
-19.0679
 11
52.4908
 21
-19.2821
  0
LINE
  8
0
 10
52.4908
 20
-19.2821
 11
52.5811
 21
-19.5123
  0
LINE
  8
0
 10
52.5811
 20
-19.5123
 11
52.6361
 21
-19.7534
  0
LINE
  8
0
 10
52.6361
 20
-19.7534
 11
52.6546
 21
-20
  0
LINE
  8
0
 10
52.6546
 20
-20
 11
52.6361
 21
-20.2466
  0
LINE
  8
0
 10
52.6361
 20
-20.2466
 11
52.5811
 21
-20.4877
  0
LINE
  8
0
 10
52.5811
 20
-20.4877
 11
52.4908
 21
-20.7179
  0
LINE
  8
0
 10
52.4908
 20
-20.7179
 11
52.3671
 21
-20.9321
  0
LINE
  8
0
 10
52.3671
 20
-20.9321
 11
52.2129
 21
-21.1254
  0
LINE
  8
0
 10
52.2129
 20
-21.1254
 11
52.0316
 21
-21.2936
  0
LINE
  8
0
 10
52.0316
 20
-21.2936
 11
51.8273
 21
-21.433
  0
LINE
  8
0
 10
51.8273
 20
-21.433
 11
51.6045
 21
-21.5403
  0
LINE
  8
0
 10
51.6045
 20
-21.5403
 11
51.3682
 21
-21.6131
  0
LINE
  8
0
 10
51.3682
 20
-21.6131
 11
51.1236
 21
-21.65
  0
LINE
  8
0
 10
51.1236
 20
-21.65
 11
50.8763
 21
-21.65
  0
LINE
  8
0
 10
-30.1986
 20
-25.29
 11
-30.4432
 21
-25.2531
  0
LINE
  8
0
 10
-30.4432
 20
-25.2531
 11
-30.6795
 21
-25.1803
  0
LINE
  8
0
 10
-30.6795
 20
-25.1803
 11
-30.9023
 21
-25.073
  0
LINE
  8
0
 10
-30.9023
 20
-25.073
 11
-31.1066
 21
-24.9336
  0
LINE
  8
0
 10
-31.1066
 20
-24.9336
 11
-31.2879
 21
-24.7654
  0
LINE
  8
0
 10
-31.2879
 20
-24.7654
 11
-31.4421
 21
-24.5721
  0
LINE
  8
0
 10
-31.4421
 20
-24.5721
 11
-31.5658
 21
-24.3579
  0
LINE
  8
0
 10
-31.5658
 20
-24.3579
 11
-31.6561
 21
-24.1277
  0
LINE
  8
0
 10
-31.6561
 20
-24.1277
 11
-31.7111
 21
-23.8866
  0
LINE
  8
0
 10
-31.7111
 20
-23.8866
 11
-31.7296
 21
-23.64
  0
LINE
  8
0
 10
-31.7296
 20
-23.64
 11
-31.7111
 21
-23.3934
  0
LINE
  8
0
 10
-31.7111
 20
-23.3934
 11
-31.6561
 21
-23.1523
  0
LINE
  8
0
 10
-31.6561
 20
-23.1523
 11
-31.5658
 21
-22.9221
  0
LINE
  8
0
 10
-31.5658
 20
-22.9221
 11
-31.4421
 21
-22.7079
  0
LINE
  8
0
 10
-31.4421
 20
-22.7079
 11
-31.2879
 21
-22.5146
  0
LINE
  8
0
 10
-31.2879
 20
-22.5146
 11
-31.1066
 21
-22.3464
  0
LINE
  8
0
 10
-31.1066
 20
-22.3464
 11
-30.9023
 21
-22.2071
  0
LINE
  8
0
 10
-30.9023
 20
-22.2071
 11
-30.6795
 21
-22.0998
  0
LINE
  8
0
 10
-30.6795
 20
-22.0998
 11
-30.4432
 21
-22.0269
  0
LINE
  8
0
 10
-30.4432
 20
-22.0269
 11
-30.1986
 21
-21.99
  0
LINE
  8
0
 10
-30.1986
 20
-21.99
 11
-29.9513
 21
-21.99
  0
LINE
  8
0
 10
-29.9513
 20
-21.99
 11
-29.7068
 21
-22.0269
  0
LINE
  8
0
 10
-29.7068
 20
-22.0269
 11
-29.4705
 21
-22.0998
  0
LINE
  8
0
 10
-29.4705
 20
-22.0998
 11
-29.2477
 21
-22.2071
  0
LINE
  8
0
 10
-29.2477
 20
-22.2071
 11
-29.0434
 21
-22.3464
  0
LINE
  8
0
 10
-29.0434
 20
-22.3464
 11
-28.8621
 21
-22.5146
  0
LINE
  8
0
 10
-28.8621
 20
-22.5146
 11
-28.7079
 21
-22.7079
  0
LINE
  8
0
 10
-28.7079
 20
-22.7079
 11
-28.5842
 21
-22.9221
  0
LINE
  8
0
 10
-28.5842
 20
-22.9221
 11
-28.4939
 21
-23.1523
  0
LINE
  8
0
 10
-28.4939
 20
-23.1523
 11
-28.4388
 21
-23.3934
  0
LINE
  8
0
 10
-28.4388
 20
-23.3934
 11
-28.4204
 21
-23.64
  0
LINE
  8
0
 10
-28.4204
 20
-23.64
 11
-28.4388
 21
-23.8866
  0
LINE
  8
0
 10
-28.4388
 20
-23.8866
 11
-28.4939
 21
-24.1277
  0
LINE
  8
0
 10
-28.4939
 20
-24.1277
 11
-28.5842
 21
-24.3579
  0
LINE
  8
0
 10
-28.5842
 20
-24.3579
 11
-28.7079
 21
-24.5721
  0
LINE
  8
0
 10
-28.7079
 20
-24.5721
 11
-28.8621
 21
-24.7654
  0
LINE
  8
0
 10
-28.8621
 20
-24.7654
 11
-29.0434
 21
-24.9336
  0
LINE
  8
0
 10
-29.0434
 20
-24.9336
 11
-29.2477
 21
-25.073
  0
LINE
  8
0
 10
-29.2477
 20
-25.073
 11
-29.4705
 21
-25.1803
  0
LINE
  8
0
 10
-29.4705
 20
-25.1803
 11
-29.7068
 21
-25.2531
  0
LINE
  8
0
 10
-29.7068
 20
-25.2531
 11
-29.9513
 21
-25.29
  0
LINE
  8
0
 10
-29.9513
 20
-25.29
 11
-30.1986
 21
-25.29
  0
LINE
  8
0
 10
31.9513
 20
-25.29
 11
31.7068
 21
-25.2531
  0
LINE
  8
0
 10
31.7068
 20
-25.2531
 11
31.4705
 21
-25.1803
  0
LINE
  8
0
 10
31.4705
 20
-25.1803
 11
31.2477
 21
-25.073
  0
LINE
  8
0
 10
31.2477
 20
-25.073
 11
31.0434
 21
-24.9336
  0
LINE
  8
0
 10
31.0434
 20
-24.9336
 11
30.8621
 21
-24.7654
  0
LINE
  8
0
 10
30.8621
 20
-24.7654
 11
30.7079
 21
-24.5721
  0
LINE
  8
0
 10
30.7079
 20
-24.5721
 11
30.5842
 21
-24.3579
  0
LINE
  8
0
 10
30.5842
 20
-24.3579
 11
30.4939
 21
-24.1277
  0
LINE
  8
0
 10
30.4939
 20
-24.1277
 11
30.4388
 21
-23.8866
  0
LINE
  8
0
 10
30.4388
 20
-23.8866
 11
30.4204
 21
-23.64
  0
LINE
  8
0
 10
30.4204
 20
-23.64
 11
30.4388
 21
-23.3934
  0
LINE
  8
0
 10
30.4388
 20
-23.3934
 11
30.4939
 21
-23.1523
  0
LINE
  8
0
 10
30.4939
 20
-23.1523
 11
30.5842
 21
-22.9221
  0
LINE
  8
0
 10
30.5842
 20
-22.9221
 11
30.7079
 21
-22.7079
  0
LINE
  8
0
 10
30.7079
 20
-22.7079
 11
30.8621
 21
-22.5146
  0
LINE
  8
0
 10
30.8621
 20
-22.5146
 11
31.0434
 21
-22.3464
  0
LINE
  8
0
 10
31.0434
 20
-22.3464
 11
31.2477
 21
-22.2071
  0
LINE
  8
0
 10
31.2477
 20
-22.2071
 11
31.4705
 21
-22.0998
  0
LINE
  8
0
 10
31.4705
 20
-22.0998
 11
31.7068
 21
-22.0269
  0
LINE
  8
0
 10
31.7068
 20
-22.0269
 11
31.9513
 21
-21.99
  0
LINE
  8
0
 10
31.9513
 20
-21.99
 11
32.1986
 21
-21.99
  0
LINE
  8
0
 10
32.1986
 20
-21.99
 11
32.4432
 21
-22.0269
  0
LINE
  8
0
 10
32.4432
 20
-22.0269
 11
32.6795
 21
-22.0998
  0
LINE
  8
0
 10
32.6795
 20
-22.0998
 11
32.9023
 21
-22.2071
  0
LINE
  8
0
 10
32.9023
 20
-22.2071
 11
33.1066
 21
-22.3464
  0
LINE
  8
0
 10
33.1066
 20
-22.3464
 11
33.2879
 21
-22.5146
  0
LINE
  8
0
 10
33.2879
 20
-22.5146
 11
33.4421
 21
-22.7079
  0
LINE
  8
0
 10
33.4421
 20
-22.7079
 11
33.5658
 21
-22.9221
  0
LINE
  8
0
 10
33.5658
 20
-22.9221
 11
33.6561
 21
-23.1523
  0
LINE
  8
0
 10
33.6561
 20
-23.1523
 11
33.7111
 21
-23.3934
  0
LINE
  8
0
 10
33.7111
 20
-23.3934
 11
33.7296
 21
-23.64
  0
LINE
  8
0
 10
33.7296
 20
-23.64
 11
33.7111
 21
-23.8866
  0
LINE
  8
0
 10
33.7111
 20
-23.8866
 11
33.6561
 21
-24.1277
  0
LINE
  8
0
 10
33.6561
 20
-24.1277
 11
33.5658
 21
-24.3579
  0
LINE
  8
0
 10
33.5658
 20
-24.3579
 11
33.4421
 21
-24.5721
  0
LINE
  8
0
 10
33.4421
 20
-24.5721
 11
33.2879
 21
-24.7654
  0
LINE
  8
0
 10
33.2879
 20
-24.7654
 11
33.1066
 21
-24.9336
  0
LINE
  8
0
 10
33.1066
 20
-24.9336
 11
32.9023
 21
-25.073
  0
LINE
  8
0
 10
32.9023
 20
-25.073
 11
32.6795
 21
-25.1803
  0
LINE
  8
0
 10
32.6795
 20
-25.1803
 11
32.4432
 21
-25.2531
  0
LINE
  8
0
 10
32.4432
 20
-25.2531
 11
32.1986
 21
-25.29
  0
LINE
  8
0
 10
32.1986
 20
-25.29
 11
31.9513
 21
-25.29
  0
LINE
  8
0
 10
63.2534
 20
-27.1362
 11
63.0123
 21
-27.0811
  0
LINE
  8
0
 10
63.0123
 20
-27.0811
 11
62.7821
 21
-26.9908
  0
LINE
  8
0
 10
62.7821
 20
-26.9908
 11
62.5679
 21
-26.8671
  0
LINE
  8
0
 10
62.5679
 20
-26.8671
 11
62.3746
 21
-26.7129
  0
LINE
  8
0
 10
62.3746
 20
-26.7129
 11
62.2064
 21
-26.5316
  0
LINE
  8
0
 10
62.2064
 20
-26.5316
 11
62.0671
 21
-26.3273
  0
LINE
  8
0
 10
62.0671
 20
-26.3273
 11
61.9598
 21
-26.1045
  0
LINE
  8
0
 10
61.9598
 20
-26.1045
 11
61.8869
 21
-25.8682
  0
LINE
  8
0
 10
61.8869
 20
-25.8682
 11
61.85
 21
-25.6237
  0
LINE
  8
0
 10
61.85
 20
-25.6237
 11
61.85
 21
-25.3764
  0
LINE
  8
0
 10
61.85
 20
-25.3764
 11
61.8869
 21
-25.1318
  0
LINE
  8
0
 10
61.8869
 20
-25.1318
 11
61.9598
 21
-24.8955
  0
LINE
  8
0
 10
61.9598
 20
-24.8955
 11
62.0671
 21
-24.6727
  0
LINE
  8
0
 10
62.0671
 20
-24.6727
 11
62.2064
 21
-24.4684
  0
LINE
  8
0
 10
62.2064
 20
-24.4684
 11
62.3746
 21
-24.2871
  0
LINE
  8
0
 10
62.3746
 20
-24.2871
 11
62.5679
 21
-24.1329
  0
LINE
  8
0
 10
62.5679
 20
-24.1329
 11
62.7821
 21
-24.0092
  0
LINE
  8
0
 10
62.7821
 20
-24.0092
 11
63.0123
 21
-23.9189
  0
LINE
  8
0
 10
63.0123
 20
-23.9189
 11
63.2534
 21
-23.8639
  0
LINE
  8
0
 10
63.2534
 20
-23.8639
 11
63.5
 21
-23.8454
  0
LINE
  8
0
 10
63.5
 20
-23.8454
 11
63.7466
 21
-23.8639
  0
LINE
  8
0
 10
63.7466
 20
-23.8639
 11
63.9877
 21
-23.9189
  0
LINE
  8
0
 10
63.9877
 20
-23.9189
 11
64.2179
 21
-24.0092
  0
LINE
  8
0
 10
64.2179
 20
-24.0092
 11
64.4321
 21
-24.1329
  0
LINE
  8
0
 10
64.4321
 20
-24.1329
 11
64.6254
 21
-24.2871
  0
LINE
  8
0
 10
64.6254
 20
-24.2871
 11
64.7936
 21
-24.4684
  0
LINE
  8
0
 10
64.7936
 20
-24.4684
 11
64.933
 21
-24.6727
  0
LINE
  8
0
 10
64.933
 20
-24.6727
 11
65.0403
 21
-24.8955
  0
LINE
  8
0
 10
65.0403
 20
-24.8955
 11
65.1131
 21
-25.1318
  0
LINE
  8
0
 10
65.1131
 20
-25.1318
 11
65.15
 21
-25.3764
  0
LINE
  8
0
 10
65.15
 20
-25.3764
 11
65.15
 21
-25.6237
  0
LINE
  8
0
 10
65.15
 20
-25.6237
 11
65.1131
 21
-25.8682
  0
LINE
  8
0
 10
65.1131
 20
-25.8682
 11
65.0403
 21
-26.1045
  0
LINE
  8
0
 10
65.0403
 20
-26.1045
 11
64.933
 21
-26.3273
  0
LINE
  8
0
 10
64.933
 20
-26.3273
 11
64.7936
 21
-26.5316
  0
LINE
  8
0
 10
64.7936
 20
-26.5316
 11
64.6254
 21
-26.7129
  0
LINE
  8
0
 10
64.6254
 20
-26.7129
 11
64.4321
 21
-26.8671
  0
LINE
  8
0
 10
64.4321
 20
-26.8671
 11
64.2179
 21
-26.9908
  0
LINE
  8
0
 10
64.2179
 20
-26.9908
 11
63.9877
 21
-27.0811
  0
LINE
  8
0
 10
63.9877
 20
-27.0811
 11
63.7466
 21
-27.1362
  0
LINE
  8
0
 10
63.7466
 20
-27.1362
 11
63.5
 21
-27.1546
  0
LINE
  8
0
 10
63.5
 20
-27.1546
 11
63.2534
 21
-27.1362
  0
LINE
  8
0
 10
86.2534
 20
-27.1362
 11
86.0123
 21
-27.0811
  0
LINE
  8
0
 10
86.0123
 20
-27.0811
 11
85.7821
 21
-26.9908
  0
LINE
  8
0
 10
85.7821
 20
-26.9908
 11
85.5679
 21
-26.8671
  0
LINE
  8
0
 10
85.5679
 20
-26.8671
 11
85.3746
 21
-26.7129
  0
LINE
  8
0
 10
85.3746
 20
-26.7129
 11
85.2064
 21
-26.5316
  0
LINE
  8
0
 10
85.2064
 20
-26.5316
 11
85.067
 21
-26.3273
  0
LINE
  8
0
 10
85.067
 20
-26.3273
 11
84.9597
 21
-26.1045
  0
LINE
  8
0
 10
84.9597
 20
-26.1045
 11
84.8869
 21
-25.8682
  0
LINE
  8
0
 10
84.8869
 20
-25.8682
 11
84.85
 21
-25.6237
  0
LINE
  8
0
 10
84.85
 20
-25.6237
 11
84.85
 21
-25.3764
  0
LINE
  8
0
 10
84.85
 20
-25.3764
 11
84.8869
 21
-25.1318
  0
LINE
  8
0
 10
84.8869
 20
-25.1318
 11
84.9597
 21
-24.8955
  0
LINE
  8
0
 10
84.9597
 20
-24.8955
 11
85.067
 21
-24.6727
  0
LINE
  8
0
 10
85.067
 20
-24.6727
 11
85.2064
 21
-24.4684
  0
LINE
  8
0
 10
85.2064
 20
-24.4684
 11
85.3746
 21
-24.2871
  0
LINE
  8
0
 10
85.3746
 20
-24.2871
 11
85.5679
 21
-24.1329
  0
LINE
  8
0
 10
85.5679
 20
-24.1329
 11
85.7821
 21
-24.0092
  0
LINE
  8
0
 10
85.7821
 20
-24.0092
 11
86.0123
 21
-23.9189
  0
LINE
  8
0
 10
86.0123
 20
-23.9189
 11
86.2534
 21
-23.8639
  0
LINE
  8
0
 10
86.2534
 20
-23.8639
 11
86.5
 21
-23.8454
  0
LINE
  8
0
 10
86.5
 20
-23.8454
 11
86.7466
 21
-23.8639
  0
LINE
  8
0
 10
86.7466
 20
-23.8639
 11
86.9877
 21
-23.9189
  0
LINE
  8
0
 10
86.9877
 20
-23.9189
 11
87.2179
 21
-24.0092
  0
LINE
  8
0
 10
87.2179
 20
-24.0092
 11
87.4321
 21
-24.1329
  0
LINE
  8
0
 10
87.4321
 20
-24.1329
 11
87.6254
 21
-24.2871
  0
LINE
  8
0
 10
87.6254
 20
-24.2871
 11
87.7936
 21
-24.4684
  0
LINE
  8
0
 10
87.7936
 20
-24.4684
 11
87.9329
 21
-24.6727
  0
LINE
  8
0
 10
87.9329
 20
-24.6727
 11
88.0402
 21
-24.8955
  0
LINE
  8
0
 10
88.0402
 20
-24.8955
 11
88.1131
 21
-25.1318
  0
LINE
  8
0
 10
88.1131
 20
-25.1318
 11
88.15
 21
-25.3764
  0
LINE
  8
0
 10
88.15
 20
-25.3764
 11
88.15
 21
-25.6237
  0
LINE
  8
0
 10
88.15
 20
-25.6237
 11
88.1131
 21
-25.8682
  0
LINE
  8
0
 10
88.1131
 20
-25.8682
 11
88.0402
 21
-26.1045
  0
LINE
  8
0
 10
88.0402
 20
-26.1045
 11
87.9329
 21
-26.3273
  0
LINE
  8
0
 10
87.9329
 20
-26.3273
 11
87.7936
 21
-26.5316
  0
LINE
  8
0
 10
87.7936
 20
-26.5316
 11
87.6254
 21
-26.7129
  0
LINE
  8
0
 10
87.6254
 20
-26.7129
 11
87.4321
 21
-26.8671
  0
LINE
  8
0
 10
87.4321
 20
-26.8671
 11
87.2179
 21
-26.9908
  0
LINE
  8
0
 10
87.2179
 20
-26.9908
 11
86.9877
 21
-27.0811
  0
LINE
  8
0
 10
86.9877
 20
-27.0811
 11
86.7466
 21
-27.1362
  0
LINE
  8
0
 10
86.7466
 20
-27.1362
 11
86.5
 21
-27.1546
  0
LINE
  8
0
 10
86.5
 20
-27.1546
 11
86.2534
 21
-27.1362
  0
LINE
  8
0
 10
32.6263
 20
-31.575
 11
32.3818
 21
-31.5381
  0
LINE
  8
0
 10
32.3818
 20
-31.5381
 11
32.1455
 21
-31.4653
  0
LINE
  8
0
 10
32.1455
 20
-31.4653
 11
31.9227
 21
-31.358
  0
LINE
  8
0
 10
31.9227
 20
-31.358
 11
31.7184
 21
-31.2186
  0
LINE
  8
0
 10
31.7184
 20
-31.2186
 11
31.5371
 21
-31.0504
  0
LINE
  8
0
 10
31.5371
 20
-31.0504
 11
31.3829
 21
-30.8571
  0
LINE
  8
0
 10
31.3829
 20
-30.8571
 11
31.2592
 21
-30.6429
  0
LINE
  8
0
 10
31.2592
 20
-30.6429
 11
31.1689
 21
-30.4127
  0
LINE
  8
0
 10
31.1689
 20
-30.4127
 11
31.1138
 21
-30.1716
  0
LINE
  8
0
 10
31.1138
 20
-30.1716
 11
31.0954
 21
-29.925
  0
LINE
  8
0
 10
31.0954
 20
-29.925
 11
31.1138
 21
-29.6784
  0
LINE
  8
0
 10
31.1138
 20
-29.6784
 11
31.1689
 21
-29.4373
  0
LINE
  8
0
 10
31.1689
 20
-29.4373
 11
31.2592
 21
-29.2071
  0
LINE
  8
0
 10
31.2592
 20
-29.2071
 11
31.3829
 21
-28.9929
  0
LINE
  8
0
 10
31.3829
 20
-28.9929
 11
31.5371
 21
-28.7996
  0
LINE
  8
0
 10
31.5371
 20
-28.7996
 11
31.7184
 21
-28.6314
  0
LINE
  8
0
 10
31.7184
 20
-28.6314
 11
31.9227
 21
-28.4921
  0
LINE
  8
0
 10
31.9227
 20
-28.4921
 11
32.1455
 21
-28.3848
  0
LINE
  8
0
 10
32.1455
 20
-28.3848
 11
32.3818
 21
-28.3119
  0
LINE
  8
0
 10
32.3818
 20
-28.3119
 11
32.6263
 21
-28.275
  0
LINE
  8
0
 10
32.6263
 20
-28.275
 11
32.8736
 21
-28.275
  0
LINE
  8
0
 10
32.8736
 20
-28.275
 11
33.1182
 21
-28.3119
  0
LINE
  8
0
 10
33.1182
 20
-28.3119
 11
33.3545
 21
-28.3848
  0
LINE
  8
0
 10
33.3545
 20
-28.3848
 11
33.5773
 21
-28.4921
  0
LINE
  8
0
 10
33.5773
 20
-28.4921
 11
33.7816
 21
-28.6314
  0
LINE
  8
0
 10
33.7816
 20
-28.6314
 11
33.9629
 21
-28.7996
  0
LINE
  8
0
 10
33.9629
 20
-28.7996
 11
34.1171
 21
-28.9929
  0
LINE
  8
0
 10
34.1171
 20
-28.9929
 11
34.2408
 21
-29.2071
  0
LINE
  8
0
 10
34.2408
 20
-29.2071
 11
34.3311
 21
-29.4373
  0
LINE
  8
0
 10
34.3311
 20
-29.4373
 11
34.3861
 21
-29.6784
  0
LINE
  8
0
 10
34.3861
 20
-29.6784
 11
34.4046
 21
-29.925
  0
LINE
  8
0
 10
34.4046
 20
-29.925
 11
34.3861
 21
-30.1716
  0
LINE
  8
0
 10
34.3861
 20
-30.1716
 11
34.3311
 21
-30.4127
  0
LINE
  8
0
 10
34.3311
 20
-30.4127
 11
34.2408
 21
-30.6429
  0
LINE
  8
0
 10
34.2408
 20
-30.6429
 11
34.1171
 21
-30.8571
  0
LINE
  8
0
 10
34.1171
 20
-30.8571
 11
33.9629
 21
-31.0504
  0
LINE
  8
0
 10
33.9629
 20
-31.0504
 11
33.7816
 21
-31.2186
  0
LINE
  8
0
 10
33.7816
 20
-31.2186
 11
33.5773
 21
-31.358
  0
LINE
  8
0
 10
33.5773
 20
-31.358
 11
33.3545
 21
-31.4653
  0
LINE
  8
0
 10
33.3545
 20
-31.4653
 11
33.1182
 21
-31.5381
  0
LINE
  8
0
 10
33.1182
 20
-31.5381
 11
32.8736
 21
-31.575
  0
LINE
  8
0
 10
32.8736
 20
-31.575
 11
32.6263
 21
-31.575
  0
LINE
  8
0
 10
-29.5236
 20
-31.825
 11
-29.7682
 21
-31.7881
  0
LINE
  8
0
 10
-29.7682
 20
-31.7881
 11
-30.0045
 21
-31.7153
  0
LINE
  8
0
 10
-30.0045
 20
-31.7153
 11
-30.2273
 21
-31.608
  0
LINE
  8
0
 10
-30.2273
 20
-31.608
 11
-30.4316
 21
-31.4686
  0
LINE
  8
0
 10
-30.4316
 20
-31.4686
 11
-30.6129
 21
-31.3004
  0
LINE
  8
0
 10
-30.6129
 20
-31.3004
 11
-30.7671
 21
-31.1071
  0
LINE
  8
0
 10
-30.7671
 20
-31.1071
 11
-30.8908
 21
-30.8929
  0
LINE
  8
0
 10
-30.8908
 20
-30.8929
 11
-30.9811
 21
-30.6627
  0
LINE
  8
0
 10
-30.9811
 20
-30.6627
 11
-31.0361
 21
-30.4216
  0
LINE
  8
0
 10
-31.0361
 20
-30.4216
 11
-31.0546
 21
-30.175
  0
LINE
  8
0
 10
-31.0546
 20
-30.175
 11
-31.0361
 21
-29.9284
  0
LINE
  8
0
 10
-31.0361
 20
-29.9284
 11
-30.9811
 21
-29.6873
  0
LINE
  8
0
 10
-30.9811
 20
-29.6873
 11
-30.8908
 21
-29.4571
  0
LINE
  8
0
 10
-30.8908
 20
-29.4571
 11
-30.7671
 21
-29.2429
  0
LINE
  8
0
 10
-30.7671
 20
-29.2429
 11
-30.6129
 21
-29.0496
  0
LINE
  8
0
 10
-30.6129
 20
-29.0496
 11
-30.4316
 21
-28.8814
  0
LINE
  8
0
 10
-30.4316
 20
-28.8814
 11
-30.2273
 21
-28.7421
  0
LINE
  8
0
 10
-30.2273
 20
-28.7421
 11
-30.0045
 21
-28.6348
  0
LINE
  8
0
 10
-30.0045
 20
-28.6348
 11
-29.7682
 21
-28.5619
  0
LINE
  8
0
 10
-29.7682
 20
-28.5619
 11
-29.5236
 21
-28.525
  0
LINE
  8
0
 10
-29.5236
 20
-28.525
 11
-29.2763
 21
-28.525
  0
LINE
  8
0
 10
-29.2763
 20
-28.525
 11
-29.0318
 21
-28.5619
  0
LINE
  8
0
 10
-29.0318
 20
-28.5619
 11
-28.7955
 21
-28.6348
  0
LINE
  8
0
 10
-28.7955
 20
-28.6348
 11
-28.5727
 21
-28.7421
  0
LINE
  8
0
 10
-28.5727
 20
-28.7421
 11
-28.3683
 21
-28.8814
  0
LINE
  8
0
 10
-28.3683
 20
-28.8814
 11
-28.1871
 21
-29.0496
  0
LINE
  8
0
 10
-28.1871
 20
-29.0496
 11
-28.0329
 21
-29.2429
  0
LINE
  8
0
 10
-28.0329
 20
-29.2429
 11
-27.9092
 21
-29.4571
  0
LINE
  8
0
 10
-27.9092
 20
-29.4571
 11
-27.8189
 21
-29.6873
  0
LINE
  8
0
 10
-27.8189
 20
-29.6873
 11
-27.7638
 21
-29.9284
  0
LINE
  8
0
 10
-27.7638
 20
-29.9284
 11
-27.7454
 21
-30.175
  0
LINE
  8
0
 10
-27.7454
 20
-30.175
 11
-27.7638
 21
-30.4216
  0
LINE
  8
0
 10
-27.7638
 20
-30.4216
 11
-27.8189
 21
-30.6627
  0
LINE
  8
0
 10
-27.8189
 20
-30.6627
 11
-27.9092
 21
-30.8929
  0
LINE
  8
0
 10
-27.9092
 20
-30.8929
 11
-28.0329
 21
-31.1071
  0
LINE
  8
0
 10
-28.0329
 20
-31.1071
 11
-28.1871
 21
-31.3004
  0
LINE
  8
0
 10
-28.1871
 20
-31.3004
 11
-28.3683
 21
-31.4686
  0
LINE
  8
0
 10
-28.3683
 20
-31.4686
 11
-28.5727
 21
-31.608
  0
LINE
  8
0
 10
-28.5727
 20
-31.608
 11
-28.7955
 21
-31.7153
  0
LINE
  8
0
 10
-28.7955
 20
-31.7153
 11
-29.0318
 21
-31.7881
  0
LINE
  8
0
 10
-29.0318
 20
-31.7881
 11
-29.2763
 21
-31.825
  0
LINE
  8
0
 10
-29.2763
 20
-31.825
 11
-29.5236
 21
-31.825
  0
LINE
  8
0
 10
-47.9636
 20
-60.27
 11
-48.2082
 21
-60.2331
  0
LINE
  8
0
 10
-48.2082
 20
-60.2331
 11
-48.4445
 21
-60.1602
  0
LINE
  8
0
 10
-48.4445
 20
-60.1602
 11
-48.6673
 21
-60.0529
  0
LINE
  8
0
 10
-48.6673
 20
-60.0529
 11
-48.8716
 21
-59.9136
  0
LINE
  8
0
 10
-48.8716
 20
-59.9136
 11
-49.0529
 21
-59.7454
  0
LINE
  8
0
 10
-49.0529
 20
-59.7454
 11
-49.2071
 21
-59.5521
  0
LINE
  8
0
 10
-49.2071
 20
-59.5521
 11
-49.3308
 21
-59.3379
  0
LINE
  8
0
 10
-49.3308
 20
-59.3379
 11
-49.4211
 21
-59.1077
  0
LINE
  8
0
 10
-49.4211
 20
-59.1077
 11
-49.4761
 21
-58.8666
  0
LINE
  8
0
 10
-49.4761
 20
-58.8666
 11
-49.4946
 21
-58.62
  0
LINE
  8
0
 10
-49.4946
 20
-58.62
 11
-49.4761
 21
-58.3734
  0
LINE
  8
0
 10
-49.4761
 20
-58.3734
 11
-49.4211
 21
-58.1323
  0
LINE
  8
0
 10
-49.4211
 20
-58.1323
 11
-49.3308
 21
-57.9021
  0
LINE
  8
0
 10
-49.3308
 20
-57.9021
 11
-49.2071
 21
-57.6879
  0
LINE
  8
0
 10
-49.2071
 20
-57.6879
 11
-49.0529
 21
-57.4946
  0
LINE
  8
0
 10
-49.0529
 20
-57.4946
 11
-48.8716
 21
-57.3264
  0
LINE
  8
0
 10
-48.8716
 20
-57.3264
 11
-48.6673
 21
-57.187
  0
LINE
  8
0
 10
-48.6673
 20
-57.187
 11
-48.4445
 21
-57.0797
  0
LINE
  8
0
 10
-48.4445
 20
-57.0797
 11
-48.2082
 21
-57.0069
  0
LINE
  8
0
 10
-48.2082
 20
-57.0069
 11
-47.9636
 21
-56.97
  0
LINE
  8
0
 10
-47.9636
 20
-56.97
 11
-47.7163
 21
-56.97
  0
LINE
  8
0
 10
-47.7163
 20
-56.97
 11
-47.4718
 21
-57.0069
  0
LINE
  8
0
 10
-47.4718
 20
-57.0069
 11
-47.2355
 21
-57.0797
  0
LINE
  8
0
 10
-47.2355
 20
-57.0797
 11
-47.0127
 21
-57.187
  0
LINE
  8
0
 10
-47.0127
 20
-57.187
 11
-46.8083
 21
-57.3264
  0
LINE
  8
0
 10
-46.8083
 20
-57.3264
 11
-46.6271
 21
-57.4946
  0
LINE
  8
0
 10
-46.6271
 20
-57.4946
 11
-46.4729
 21
-57.6879
  0
LINE
  8
0
 10
-46.4729
 20
-57.6879
 11
-46.3492
 21
-57.9021
  0
LINE
  8
0
 10
-46.3492
 20
-57.9021
 11
-46.2589
 21
-58.1323
  0
LINE
  8
0
 10
-46.2589
 20
-58.1323
 11
-46.2038
 21
-58.3734
  0
LINE
  8
0
 10
-46.2038
 20
-58.3734
 11
-46.1854
 21
-58.62
  0
LINE
  8
0
 10
-46.1854
 20
-58.62
 11
-46.2038
 21
-58.8666
  0
LINE
  8
0
 10
-46.2038
 20
-58.8666
 11
-46.2589
 21
-59.1077
  0
LINE
  8
0
 10
-46.2589
 20
-59.1077
 11
-46.3492
 21
-59.3379
  0
LINE
  8
0
 10
-46.3492
 20
-59.3379
 11
-46.4729
 21
-59.5521
  0
LINE
  8
0
 10
-46.4729
 20
-59.5521
 11
-46.6271
 21
-59.7454
  0
LINE
  8
0
 10
-46.6271
 20
-59.7454
 11
-46.8083
 21
-59.9136
  0
LINE
  8
0
 10
-46.8083
 20
-59.9136
 11
-47.0127
 21
-60.0529
  0
LINE
  8
0
 10
-47.0127
 20
-60.0529
 11
-47.2355
 21
-60.1602
  0
LINE
  8
0
 10
-47.2355
 20
-60.1602
 11
-47.4718
 21
-60.2331
  0
LINE
  8
0
 10
-47.4718
 20
-60.2331
 11
-47.7163
 21
-60.27
  0
LINE
  8
0
 10
-47.7163
 20
-60.27
 11
-47.9636
 21
-60.27
  0
LINE
  8
0
 10
-16.1636
 20
-62.92
 11
-16.4082
 21
-62.8831
  0
LINE
  8
0
 10
-16.4082
 20
-62.8831
 11
-16.6445
 21
-62.8102
  0
LINE
  8
0
 10
-16.6445
 20
-62.8102
 11
-16.8673
 21
-62.7029
  0
LINE
  8
0
 10
-16.8673
 20
-62.7029
 11
-17.0716
 21
-62.5636
  0
LINE
  8
0
 10
-17.0716
 20
-62.5636
 11
-17.2529
 21
-62.3954
  0
LINE
  8
0
 10
-17.2529
 20
-62.3954
 11
-17.4071
 21
-62.2021
  0
LINE
  8
0
 10
-17.4071
 20
-62.2021
 11
-17.5308
 21
-61.9879
  0
LINE
  8
0
 10
-17.5308
 20
-61.9879
 11
-17.6211
 21
-61.7577
  0
LINE
  8
0
 10
-17.6211
 20
-61.7577
 11
-17.6761
 21
-61.5166
  0
LINE
  8
0
 10
-17.6761
 20
-61.5166
 11
-17.6946
 21
-61.27
  0
LINE
  8
0
 10
-17.6946
 20
-61.27
 11
-17.6761
 21
-61.0234
  0
LINE
  8
0
 10
-17.6761
 20
-61.0234
 11
-17.6211
 21
-60.7823
  0
LINE
  8
0
 10
-17.6211
 20
-60.7823
 11
-17.5308
 21
-60.5521
  0
LINE
  8
0
 10
-17.5308
 20
-60.5521
 11
-17.4071
 21
-60.3379
  0
LINE
  8
0
 10
-17.4071
 20
-60.3379
 11
-17.2529
 21
-60.1446
  0
LINE
  8
0
 10
-17.2529
 20
-60.1446
 11
-17.0716
 21
-59.9763
  0
LINE
  8
0
 10
-17.0716
 20
-59.9763
 11
-16.8673
 21
-59.837
  0
LINE
  8
0
 10
-16.8673
 20
-59.837
 11
-16.6445
 21
-59.7297
  0
LINE
  8
0
 10
-16.6445
 20
-59.7297
 11
-16.4082
 21
-59.6568
  0
LINE
  8
0
 10
-16.4082
 20
-59.6568
 11
-16.1636
 21
-59.62
  0
LINE
  8
0
 10
-16.1636
 20
-59.62
 11
-15.9163
 21
-59.62
  0
LINE
  8
0
 10
-15.9163
 20
-59.62
 11
-15.6718
 21
-59.6568
  0
LINE
  8
0
 10
-15.6718
 20
-59.6568
 11
-15.4355
 21
-59.7297
  0
LINE
  8
0
 10
-15.4355
 20
-59.7297
 11
-15.2127
 21
-59.837
  0
LINE
  8
0
 10
-15.2127
 20
-59.837
 11
-15.0083
 21
-59.9763
  0
LINE
  8
0
 10
-15.0083
 20
-59.9763
 11
-14.8271
 21
-60.1446
  0
LINE
  8
0
 10
-14.8271
 20
-60.1446
 11
-14.6729
 21
-60.3379
  0
LINE
  8
0
 10
-14.6729
 20
-60.3379
 11
-14.5492
 21
-60.5521
  0
LINE
  8
0
 10
-14.5492
 20
-60.5521
 11
-14.4589
 21
-60.7823
  0
LINE
  8
0
 10
-14.4589
 20
-60.7823
 11
-14.4038
 21
-61.0234
  0
LINE
  8
0
 10
-14.4038
 20
-61.0234
 11
-14.3854
 21
-61.27
  0
LINE
  8
0
 10
-14.3854
 20
-61.27
 11
-14.4038
 21
-61.5166
  0
LINE
  8
0
 10
-14.4038
 20
-61.5166
 11
-14.4589
 21
-61.7577
  0
LINE
  8
0
 10
-14.4589
 20
-61.7577
 11
-14.5492
 21
-61.9879
  0
LINE
  8
0
 10
-14.5492
 20
-61.9879
 11
-14.6729
 21
-62.2021
  0
LINE
  8
0
 10
-14.6729
 20
-62.2021
 11
-14.8271
 21
-62.3954
  0
LINE
  8
0
 10
-14.8271
 20
-62.3954
 11
-15.0083
 21
-62.5636
  0
LINE
  8
0
 10
-15.0083
 20
-62.5636
 11
-15.2127
 21
-62.7029
  0
LINE
  8
0
 10
-15.2127
 20
-62.7029
 11
-15.4355
 21
-62.8102
  0
LINE
  8
0
 10
-15.4355
 20
-62.8102
 11
-15.6718
 21
-62.8831
  0
LINE
  8
0
 10
-15.6718
 20
-62.8831
 11
-15.9163
 21
-62.92
  0
LINE
  8
0
 10
-15.9163
 20
-62.92
 11
-16.1636
 21
-62.92
  0
LINE
  8
0
 10
-47.3736
 20
-66.755
 11
-47.6182
 21
-66.7181
  0
LINE
  8
0
 10
-47.6182
 20
-66.7181
 11
-47.8545
 21
-66.6452
  0
LINE
  8
0
 10
-47.8545
 20
-66.6452
 11
-48.0773
 21
-66.5379
  0
LINE
  8
0
 10
-48.0773
 20
-66.5379
 11
-48.2816
 21
-66.3986
  0
LINE
  8
0
 10
-48.2816
 20
-66.3986
 11
-48.4629
 21
-66.2304
  0
LINE
  8
0
 10
-48.4629
 20
-66.2304
 11
-48.6171
 21
-66.0371
  0
LINE
  8
0
 10
-48.6171
 20
-66.0371
 11
-48.7408
 21
-65.8229
  0
LINE
  8
0
 10
-48.7408
 20
-65.8229
 11
-48.8311
 21
-65.5927
  0
LINE
  8
0
 10
-48.8311
 20
-65.5927
 11
-48.8861
 21
-65.3516
  0
LINE
  8
0
 10
-48.8861
 20
-65.3516
 11
-48.9046
 21
-65.105
  0
LINE
  8
0
 10
-48.9046
 20
-65.105
 11
-48.8861
 21
-64.8584
  0
LINE
  8
0
 10
-48.8861
 20
-64.8584
 11
-48.8311
 21
-64.6173
  0
LINE
  8
0
 10
-48.8311
 20
-64.6173
 11
-48.7408
 21
-64.3871
  0
LINE
  8
0
 10
-48.7408
 20
-64.3871
 11
-48.6171
 21
-64.1729
  0
LINE
  8
0
 10
-48.6171
 20
-64.1729
 11
-48.4629
 21
-63.9796
  0
LINE
  8
0
 10
-48.4629
 20
-63.9796
 11
-48.2816
 21
-63.8114
  0
LINE
  8
0
 10
-48.2816
 20
-63.8114
 11
-48.0773
 21
-63.672
  0
LINE
  8
0
 10
-48.0773
 20
-63.672
 11
-47.8545
 21
-63.5647
  0
LINE
  8
0
 10
-47.8545
 20
-63.5647
 11
-47.6182
 21
-63.4919
  0
LINE
  8
0
 10
-47.6182
 20
-63.4919
 11
-47.3736
 21
-63.455
  0
LINE
  8
0
 10
-47.3736
 20
-63.455
 11
-47.1263
 21
-63.455
  0
LINE
  8
0
 10
-47.1263
 20
-63.455
 11
-46.8818
 21
-63.4919
  0
LINE
  8
0
 10
-46.8818
 20
-63.4919
 11
-46.6455
 21
-63.5647
  0
LINE
  8
0
 10
-46.6455
 20
-63.5647
 11
-46.4227
 21
-63.672
  0
LINE
  8
0
 10
-46.4227
 20
-63.672
 11
-46.2184
 21
-63.8114
  0
LINE
  8
0
 10
-46.2184
 20
-63.8114
 11
-46.0371
 21
-63.9796
  0
LINE
  8
0
 10
-46.0371
 20
-63.9796
 11
-45.8829
 21
-64.1729
  0
LINE
  8
0
 10
-45.8829
 20
-64.1729
 11
-45.7592
 21
-64.3871
  0
LINE
  8
0
 10
-45.7592
 20
-64.3871
 11
-45.6689
 21
-64.6173
  0
LINE
  8
0
 10
-45.6689
 20
-64.6173
 11
-45.6138
 21
-64.8584
  0
LINE
  8
0
 10
-45.6138
 20
-64.8584
 11
-45.5954
 21
-65.105
  0
LINE
  8
0
 10
-45.5954
 20
-65.105
 11
-45.6138
 21
-65.3516
  0
LINE
  8
0
 10
-45.6138
 20
-65.3516
 11
-45.6689
 21
-65.5927
  0
LINE
  8
0
 10
-45.6689
 20
-65.5927
 11
-45.7592
 21
-65.8229
  0
LINE
  8
0
 10
-45.7592
 20
-65.8229
 11
-45.8829
 21
-66.0371
  0
LINE
  8
0
 10
-45.8829
 20
-66.0371
 11
-46.0371
 21
-66.2304
  0
LINE
  8
0
 10
-46.0371
 20
-66.2304
 11
-46.2184
 21
-66.3986
  0
LINE
  8
0
 10
-46.2184
 20
-66.3986
 11
-46.4227
 21
-66.5379
  0
LINE
  8
0
 10
-46.4227
 20
-66.5379
 11
-46.6455
 21
-66.6452
  0
LINE
  8
0
 10
-46.6455
 20
-66.6452
 11
-46.8818
 21
-66.7181
  0
LINE
  8
0
 10
-46.8818
 20
-66.7181
 11
-47.1263
 21
-66.755
  0
LINE
  8
0
 10
-47.1263
 20
-66.755
 11
-47.3736
 21
-66.755
  0
LINE
  8
0
 10
-15.5736
 20
-69.395
 11
-15.8182
 21
-69.3581
  0
LINE
  8
0
 10
-15.8182
 20
-69.3581
 11
-16.0545
 21
-69.2852
  0
LINE
  8
0
 10
-16.0545
 20
-69.2852
 11
-16.2773
 21
-69.1779
  0
LINE
  8
0
 10
-16.2773
 20
-69.1779
 11
-16.4816
 21
-69.0386
  0
LINE
  8
0
 10
-16.4816
 20
-69.0386
 11
-16.6629
 21
-68.8704
  0
LINE
  8
0
 10
-16.6629
 20
-68.8704
 11
-16.8171
 21
-68.6771
  0
LINE
  8
0
 10
-16.8171
 20
-68.6771
 11
-16.9408
 21
-68.4629
  0
LINE
  8
0
 10
-16.9408
 20
-68.4629
 11
-17.0311
 21
-68.2327
  0
LINE
  8
0
 10
-17.0311
 20
-68.2327
 11
-17.0861
 21
-67.9916
  0
LINE
  8
0
 10
-17.0861
 20
-67.9916
 11
-17.1046
 21
-67.745
  0
LINE
  8
0
 10
-17.1046
 20
-67.745
 11
-17.0861
 21
-67.4984
  0
LINE
  8
0
 10
-17.0861
 20
-67.4984
 11
-17.0311
 21
-67.2573
  0
LINE
  8
0
 10
-17.0311
 20
-67.2573
 11
-16.9408
 21
-67.0271
  0
LINE
  8
0
 10
-16.9408
 20
-67.0271
 11
-16.8171
 21
-66.8129
  0
LINE
  8
0
 10
-16.8171
 20
-66.8129
 11
-16.6629
 21
-66.6196
  0
LINE
  8
0
 10
-16.6629
 20
-66.6196
 11
-16.4816
 21
-66.4514
  0
LINE
  8
0
 10
-16.4816
 20
-66.4514
 11
-16.2773
 21
-66.312
  0
LINE
  8
0
 10
-16.2773
 20
-66.312
 11
-16.0545
 21
-66.2047
  0
LINE
  8
0
 10
-16.0545
 20
-66.2047
 11
-15.8182
 21
-66.1319
  0
LINE
  8
0
 10
-15.8182
 20
-66.1319
 11
-15.5736
 21
-66.095
  0
LINE
  8
0
 10
-15.5736
 20
-66.095
 11
-15.3263
 21
-66.095
  0
LINE
  8
0
 10
-15.3263
 20
-66.095
 11
-15.0818
 21
-66.1319
  0
LINE
  8
0
 10
-15.0818
 20
-66.1319
 11
-14.8455
 21
-66.2047
  0
LINE
  8
0
 10
-14.8455
 20
-66.2047
 11
-14.6227
 21
-66.312
  0
LINE
  8
0
 10
-14.6227
 20
-66.312
 11
-14.4184
 21
-66.4514
  0
LINE
  8
0
 10
-14.4184
 20
-66.4514
 11
-14.2371
 21
-66.6196
  0
LINE
  8
0
 10
-14.2371
 20
-66.6196
 11
-14.0829
 21
-66.8129
  0
LINE
  8
0
 10
-14.0829
 20
-66.8129
 11
-13.9592
 21
-67.0271
  0
LINE
  8
0
 10
-13.9592
 20
-67.0271
 11
-13.8689
 21
-67.2573
  0
LINE
  8
0
 10
-13.8689
 20
-67.2573
 11
-13.8138
 21
-67.4984
  0
LINE
  8
0
 10
-13.8138
 20
-67.4984
 11
-13.7954
 21
-67.745
  0
LINE
  8
0
 10
-13.7954
 20
-67.745
 11
-13.8138
 21
-67.9916
  0
LINE
  8
0
 10
-13.8138
 20
-67.9916
 11
-13.8689
 21
-68.2327
  0
LINE
  8
0
 10
-13.8689
 20
-68.2327
 11
-13.9592
 21
-68.4629
  0
LINE
  8
0
 10
-13.9592
 20
-68.4629
 11
-14.0829
 21
-68.6771
  0
LINE
  8
0
 10
-14.0829
 20
-68.6771
 11
-14.2371
 21
-68.8704
  0
LINE
  8
0
 10
-14.2371
 20
-68.8704
 11
-14.4184
 21
-69.0386
  0
LINE
  8
0
 10
-14.4184
 20
-69.0386
 11
-14.6227
 21
-69.1779
  0
LINE
  8
0
 10
-14.6227
 20
-69.1779
 11
-14.8455
 21
-69.2852
  0
LINE
  8
0
 10
-14.8455
 20
-69.2852
 11
-15.0818
 21
-69.3581
  0
LINE
  8
0
 10
-15.0818
 20
-69.3581
 11
-15.3263
 21
-69.395
  0
LINE
  8
0
 10
-15.3263
 20
-69.395
 11
-15.5736
 21
-69.395
  0
LINE
  8
0
 10
-104.247
 20
-83.6362
 11
-104.488
 21
-83.5811
  0
LINE
  8
0
 10
-104.488
 20
-83.5811
 11
-104.718
 21
-83.4908
  0
LINE
  8
0
 10
-104.718
 20
-83.4908
 11
-104.932
 21
-83.3671
  0
LINE
  8
0
 10
-104.932
 20
-83.3671
 11
-105.125
 21
-83.2129
  0
LINE
  8
0
 10
-105.125
 20
-83.2129
 11
-105.294
 21
-83.0316
  0
LINE
  8
0
 10
-105.294
 20
-83.0316
 11
-105.433
 21
-82.8273
  0
LINE
  8
0
 10
-105.433
 20
-82.8273
 11
-105.54
 21
-82.6045
  0
LINE
  8
0
 10
-105.54
 20
-82.6045
 11
-105.613
 21
-82.3682
  0
LINE
  8
0
 10
-105.613
 20
-82.3682
 11
-105.65
 21
-82.1237
  0
LINE
  8
0
 10
-105.65
 20
-82.1237
 11
-105.65
 21
-81.8764
  0
LINE
  8
0
 10
-105.65
 20
-81.8764
 11
-105.613
 21
-81.6318
  0
LINE
  8
0
 10
-105.613
 20
-81.6318
 11
-105.54
 21
-81.3955
  0
LINE
  8
0
 10
-105.54
 20
-81.3955
 11
-105.433
 21
-81.1727
  0
LINE
  8
0
 10
-105.433
 20
-81.1727
 11
-105.294
 21
-80.9684
  0
LINE
  8
0
 10
-105.294
 20
-80.9684
 11
-105.125
 21
-80.7871
  0
LINE
  8
0
 10
-105.125
 20
-80.7871
 11
-104.932
 21
-80.6329
  0
LINE
  8
0
 10
-104.932
 20
-80.6329
 11
-104.718
 21
-80.5092
  0
LINE
  8
0
 10
-104.718
 20
-80.5092
 11
-104.488
 21
-80.4189
  0
LINE
  8
0
 10
-104.488
 20
-80.4189
 11
-104.247
 21
-80.3639
  0
LINE
  8
0
 10
-104.247
 20
-80.3639
 11
-104
 21
-80.3454
  0
LINE
  8
0
 10
-104
 20
-80.3454
 11
-103.753
 21
-80.3639
  0
LINE
  8
0
 10
-103.753
 20
-80.3639
 11
-103.512
 21
-80.4189
  0
LINE
  8
0
 10
-103.512
 20
-80.4189
 11
-103.282
 21
-80.5092
  0
LINE
  8
0
 10
-103.282
 20
-80.5092
 11
-103.068
 21
-80.6329
  0
LINE
  8
0
 10
-103.068
 20
-80.6329
 11
-102.875
 21
-80.7871
  0
LINE
  8
0
 10
-102.875
 20
-80.7871
 11
-102.706
 21
-80.9684
  0
LINE
  8
0
 10
-102.706
 20
-80.9684
 11
-102.567
 21
-81.1727
  0
LINE
  8
0
 10
-102.567
 20
-81.1727
 11
-102.46
 21
-81.3955
  0
LINE
  8
0
 10
-102.46
 20
-81.3955
 11
-102.387
 21
-81.6318
  0
LINE
  8
0
 10
-102.387
 20
-81.6318
 11
-102.35
 21
-81.8764
  0
LINE
  8
0
 10
-102.35
 20
-81.8764
 11
-102.35
 21
-82.1237
  0
LINE
  8
0
 10
-102.35
 20
-82.1237
 11
-102.387
 21
-82.3682
  0
LINE
  8
0
 10
-102.387
 20
-82.3682
 11
-102.46
 21
-82.6045
  0
LINE
  8
0
 10
-102.46
 20
-82.6045
 11
-102.567
 21
-82.8273
  0
LINE
  8
0
 10
-102.567
 20
-82.8273
 11
-102.706
 21
-83.0316
  0
LINE
  8
0
 10
-102.706
 20
-83.0316
 11
-102.875
 21
-83.2129
  0
LINE
  8
0
 10
-102.875
 20
-83.2129
 11
-103.068
 21
-83.3671
  0
LINE
  8
0
 10
-103.068
 20
-83.3671
 11
-103.282
 21
-83.4908
  0
LINE
  8
0
 10
-103.282
 20
-83.4908
 11
-103.512
 21
-83.5811
  0
LINE
  8
0
 10
-103.512
 20
-83.5811
 11
-103.753
 21
-83.6362
  0
LINE
  8
0
 10
-103.753
 20
-83.6362
 11
-104
 21
-83.6546
  0
LINE
  8
0
 10
-104
 20
-83.6546
 11
-104.247
 21
-83.6362
  0
LINE
  8
0
 10
103.753
 20
-83.6362
 11
103.512
 21
-83.5811
  0
LINE
  8
0
 10
103.512
 20
-83.5811
 11
103.282
 21
-83.4908
  0
LINE
  8
0
 10
103.282
 20
-83.4908
 11
103.068
 21
-83.3671
  0
LINE
  8
0
 10
103.068
 20
-83.3671
 11
102.875
 21
-83.2129
  0
LINE
  8
0
 10
102.875
 20
-83.2129
 11
102.706
 21
-83.0316
  0
LINE
  8
0
 10
102.706
 20
-83.0316
 11
102.567
 21
-82.8273
  0
LINE
  8
0
 10
102.567
 20
-82.8273
 11
102.46
 21
-82.6045
  0
LINE
  8
0
 10
102.46
 20
-82.6045
 11
102.387
 21
-82.3682
  0
LINE
  8
0
 10
102.387
 20
-82.3682
 11
102.35
 21
-82.1237
  0
LINE
  8
0
 10
102.35
 20
-82.1237
 11
102.35
 21
-81.8764
  0
LINE
  8
0
 10
102.35
 20
-81.8764
 11
102.387
 21
-81.6318
  0
LINE
  8
0
 10
102.387
 20
-81.6318
 11
102.46
 21
-81.3955
  0
LINE
  8
0
 10
102.46
 20
-81.3955
 11
102.567
 21
-81.1727
  0
LINE
  8
0
 10
102.567
 20
-81.1727
 11
102.706
 21
-80.9684
  0
LINE
  8
0
 10
102.706
 20
-80.9684
 11
102.875
 21
-80.7871
  0
LINE
  8
0
 10
102.875
 20
-80.7871
 11
103.068
 21
-80.6329
  0
LINE
  8
0
 10
103.068
 20
-80.6329
 11
103.282
 21
-80.5092
  0
LINE
  8
0
 10
103.282
 20
-80.5092
 11
103.512
 21
-80.4189
  0
LINE
  8
0
 10
103.512
 20
-80.4189
 11
103.753
 21
-80.3639
  0
LINE
  8
0
 10
103.753
 20
-80.3639
 11
104
 21
-80.3454
  0
LINE
  8
0
 10
104
 20
-80.3454
 11
104.247
 21
-80.3639
  0
LINE
  8
0
 10
104.247
 20
-80.3639
 11
104.488
 21
-80.4189
  0
LINE
  8
0
 10
104.488
 20
-80.4189
 11
104.718
 21
-80.5092
  0
LINE
  8
0
 10
104.718
 20
-80.5092
 11
104.932
 21
-80.6329
  0
LINE
  8
0
 10
104.932
 20
-80.6329
 11
105.125
 21
-80.7871
  0
LINE
  8
0
 10
105.125
 20
-80.7871
 11
105.294
 21
-80.9684
  0
LINE
  8
0
 10
105.294
 20
-80.9684
 11
105.433
 21
-81.1727
  0
LINE
  8
0
 10
105.433
 20
-81.1727
 11
105.54
 21
-81.3955
  0
LINE
  8
0
 10
105.54
 20
-81.3955
 11
105.613
 21
-81.6318
  0
LINE
  8
0
 10
105.613
 20
-81.6318
 11
105.65
 21
-81.8764
  0
LINE
  8
0
 10
105.65
 20
-81.8764
 11
105.65
 21
-82.1237
  0
LINE
  8
0
 10
105.65
 20
-82.1237
 11
105.613
 21
-82.3682
  0
LINE
  8
0
 10
105.613
 20
-82.3682
 11
105.54
 21
-82.6045
  0
LINE
  8
0
 10
105.54
 20
-82.6045
 11
105.433
 21
-82.8273
  0
LINE
  8
0
 10
105.433
 20
-82.8273
 11
105.294
 21
-83.0316
  0
LINE
  8
0
 10
105.294
 20
-83.0316
 11
105.125
 21
-83.2129
  0
LINE
  8
0
 10
105.125
 20
-83.2129
 11
104.932
 21
-83.3671
  0
LINE
  8
0
 10
104.932
 20
-83.3671
 11
104.718
 21
-83.4908
  0
LINE
  8
0
 10
104.718
 20
-83.4908
 11
104.488
 21
-83.5811
  0
LINE
  8
0
 10
104.488
 20
-83.5811
 11
104.247
 21
-83.6362
  0
LINE
  8
0
 10
104.247
 20
-83.6362
 11
104
 21
-83.6546
  0
LINE
  8
0
 10
104
 20
-83.6546
 11
103.753
 21
-83.6362
  0
LINE
  8
0
 10
63.2534
 20
-85.1361
 11
63.0123
 21
-85.0811
  0
LINE
  8
0
 10
63.0123
 20
-85.0811
 11
62.7821
 21
-84.9908
  0
LINE
  8
0
 10
62.7821
 20
-84.9908
 11
62.5679
 21
-84.8671
  0
LINE
  8
0
 10
62.5679
 20
-84.8671
 11
62.3746
 21
-84.7129
  0
LINE
  8
0
 10
62.3746
 20
-84.7129
 11
62.2064
 21
-84.5316
  0
LINE
  8
0
 10
62.2064
 20
-84.5316
 11
62.0671
 21
-84.3273
  0
LINE
  8
0
 10
62.0671
 20
-84.3273
 11
61.9598
 21
-84.1045
  0
LINE
  8
0
 10
61.9598
 20
-84.1045
 11
61.8869
 21
-83.8682
  0
LINE
  8
0
 10
61.8869
 20
-83.8682
 11
61.85
 21
-83.6236
  0
LINE
  8
0
 10
61.85
 20
-83.6236
 11
61.85
 21
-83.3763
  0
LINE
  8
0
 10
61.85
 20
-83.3763
 11
61.8869
 21
-83.1318
  0
LINE
  8
0
 10
61.8869
 20
-83.1318
 11
61.9598
 21
-82.8955
  0
LINE
  8
0
 10
61.9598
 20
-82.8955
 11
62.0671
 21
-82.6727
  0
LINE
  8
0
 10
62.0671
 20
-82.6727
 11
62.2064
 21
-82.4684
  0
LINE
  8
0
 10
62.2064
 20
-82.4684
 11
62.3746
 21
-82.2871
  0
LINE
  8
0
 10
62.3746
 20
-82.2871
 11
62.5679
 21
-82.1329
  0
LINE
  8
0
 10
62.5679
 20
-82.1329
 11
62.7821
 21
-82.0092
  0
LINE
  8
0
 10
62.7821
 20
-82.0092
 11
63.0123
 21
-81.9189
  0
LINE
  8
0
 10
63.0123
 20
-81.9189
 11
63.2534
 21
-81.8638
  0
LINE
  8
0
 10
63.2534
 20
-81.8638
 11
63.5
 21
-81.8454
  0
LINE
  8
0
 10
63.5
 20
-81.8454
 11
63.7466
 21
-81.8638
  0
LINE
  8
0
 10
63.7466
 20
-81.8638
 11
63.9877
 21
-81.9189
  0
LINE
  8
0
 10
63.9877
 20
-81.9189
 11
64.2179
 21
-82.0092
  0
LINE
  8
0
 10
64.2179
 20
-82.0092
 11
64.4321
 21
-82.1329
  0
LINE
  8
0
 10
64.4321
 20
-82.1329
 11
64.6254
 21
-82.2871
  0
LINE
  8
0
 10
64.6254
 20
-82.2871
 11
64.7936
 21
-82.4684
  0
LINE
  8
0
 10
64.7936
 20
-82.4684
 11
64.933
 21
-82.6727
  0
LINE
  8
0
 10
64.933
 20
-82.6727
 11
65.0403
 21
-82.8955
  0
LINE
  8
0
 10
65.0403
 20
-82.8955
 11
65.1131
 21
-83.1318
  0
LINE
  8
0
 10
65.1131
 20
-83.1318
 11
65.15
 21
-83.3763
  0
LINE
  8
0
 10
65.15
 20
-83.3763
 11
65.15
 21
-83.6236
  0
LINE
  8
0
 10
65.15
 20
-83.6236
 11
65.1131
 21
-83.8682
  0
LINE
  8
0
 10
65.1131
 20
-83.8682
 11
65.0403
 21
-84.1045
  0
LINE
  8
0
 10
65.0403
 20
-84.1045
 11
64.933
 21
-84.3273
  0
LINE
  8
0
 10
64.933
 20
-84.3273
 11
64.7936
 21
-84.5316
  0
LINE
  8
0
 10
64.7936
 20
-84.5316
 11
64.6254
 21
-84.7129
  0
LINE
  8
0
 10
64.6254
 20
-84.7129
 11
64.4321
 21
-84.8671
  0
LINE
  8
0
 10
64.4321
 20
-84.8671
 11
64.2179
 21
-84.9908
  0
LINE
  8
0
 10
64.2179
 20
-84.9908
 11
63.9877
 21
-85.0811
  0
LINE
  8
0
 10
63.9877
 20
-85.0811
 11
63.7466
 21
-85.1361
  0
LINE
  8
0
 10
63.7466
 20
-85.1361
 11
63.5
 21
-85.1546
  0
LINE
  8
0
 10
63.5
 20
-85.1546
 11
63.2534
 21
-85.1361
  0
LINE
  8
0
 10
86.2534
 20
-85.1361
 11
86.0123
 21
-85.0811
  0
LINE
  8
0
 10
86.0123
 20
-85.0811
 11
85.7821
 21
-84.9908
  0
LINE
  8
0
 10
85.7821
 20
-84.9908
 11
85.5679
 21
-84.8671
  0
LINE
  8
0
 10
85.5679
 20
-84.8671
 11
85.3746
 21
-84.7129
  0
LINE
  8
0
 10
85.3746
 20
-84.7129
 11
85.2064
 21
-84.5316
  0
LINE
  8
0
 10
85.2064
 20
-84.5316
 11
85.067
 21
-84.3273
  0
LINE
  8
0
 10
85.067
 20
-84.3273
 11
84.9597
 21
-84.1045
  0
LINE
  8
0
 10
84.9597
 20
-84.1045
 11
84.8869
 21
-83.8682
  0
LINE
  8
0
 10
84.8869
 20
-83.8682
 11
84.85
 21
-83.6236
  0
LINE
  8
0
 10
84.85
 20
-83.6236
 11
84.85
 21
-83.3763
  0
LINE
  8
0
 10
84.85
 20
-83.3763
 11
84.8869
 21
-83.1318
  0
LINE
  8
0
 10
84.8869
 20
-83.1318
 11
84.9597
 21
-82.8955
  0
LINE
  8
0
 10
84.9597
 20
-82.8955
 11
85.067
 21
-82.6727
  0
LINE
  8
0
 10
85.067
 20
-82.6727
 11
85.2064
 21
-82.4684
  0
LINE
  8
0
 10
85.2064
 20
-82.4684
 11
85.3746
 21
-82.2871
  0
LINE
  8
0
 10
85.3746
 20
-82.2871
 11
85.5679
 21
-82.1329
  0
LINE
  8
0
 10
85.5679
 20
-82.1329
 11
85.7821
 21
-82.0092
  0
LINE
  8
0
 10
85.7821
 20
-82.0092
 11
86.0123
 21
-81.9189
  0
LINE
  8
0
 10
86.0123
 20
-81.9189
 11
86.2534
 21
-81.8638
  0
LINE
  8
0
 10
86.2534
 20
-81.8638
 11
86.5
 21
-81.8454
  0
LINE
  8
0
 10
86.5
 20
-81.8454
 11
86.7466
 21
-81.8638
  0
LINE
  8
0
 10
86.7466
 20
-81.8638
 11
86.9877
 21
-81.9189
  0
LINE
  8
0
 10
86.9877
 20
-81.9189
 11
87.2179
 21
-82.0092
  0
LINE
  8
0
 10
87.2179
 20
-82.0092
 11
87.4321
 21
-82.1329
  0
LINE
  8
0
 10
87.4321
 20
-82.1329
 11
87.6254
 21
-82.2871
  0
LINE
  8
0
 10
87.6254
 20
-82.2871
 11
87.7936
 21
-82.4684
  0
LINE
  8
0
 10
87.7936
 20
-82.4684
 11
87.9329
 21
-82.6727
  0
LINE
  8
0
 10
87.9329
 20
-82.6727
 11
88.0402
 21
-82.8955
  0
LINE
  8
0
 10
88.0402
 20
-82.8955
 11
88.1131
 21
-83.1318
  0
LINE
  8
0
 10
88.1131
 20
-83.1318
 11
88.15
 21
-83.3763
  0
LINE
  8
0
 10
88.15
 20
-83.3763
 11
88.15
 21
-83.6236
  0
LINE
  8
0
 10
88.15
 20
-83.6236
 11
88.1131
 21
-83.8682
  0
LINE
  8
0
 10
88.1131
 20
-83.8682
 11
88.0402
 21
-84.1045
  0
LINE
  8
0
 10
88.0402
 20
-84.1045
 11
87.9329
 21
-84.3273
  0
LINE
  8
0
 10
87.9329
 20
-84.3273
 11
87.7936
 21
-84.5316
  0
LINE
  8
0
 10
87.7936
 20
-84.5316
 11
87.6254
 21
-84.7129
  0
LINE
  8
0
 10
87.6254
 20
-84.7129
 11
87.4321
 21
-84.8671
  0
LINE
  8
0
 10
87.4321
 20
-84.8671
 11
87.2179
 21
-84.9908
  0
LINE
  8
0
 10
87.2179
 20
-84.9908
 11
86.9877
 21
-85.0811
  0
LINE
  8
0
 10
86.9877
 20
-85.0811
 11
86.7466
 21
-85.1361
  0
LINE
  8
0
 10
86.7466
 20
-85.1361
 11
86.5
 21
-85.1546
  0
LINE
  8
0
 10
86.5
 20
-85.1546
 11
86.2534
 21
-85.1361
  0
LINE
  8
0
 10
47.7163
 20
-89.76
 11
47.4718
 21
-89.7231
  0
LINE
  8
0
 10
47.4718
 20
-89.7231
 11
47.2355
 21
-89.6502
  0
LINE
  8
0
 10
47.2355
 20
-89.6502
 11
47.0127
 21
-89.5429
  0
LINE
  8
0
 10
47.0127
 20
-89.5429
 11
46.8083
 21
-89.4036
  0
LINE
  8
0
 10
46.8083
 20
-89.4036
 11
46.6271
 21
-89.2354
  0
LINE
  8
0
 10
46.6271
 20
-89.2354
 11
46.4729
 21
-89.0421
  0
LINE
  8
0
 10
46.4729
 20
-89.0421
 11
46.3492
 21
-88.8279
  0
LINE
  8
0
 10
46.3492
 20
-88.8279
 11
46.2589
 21
-88.5977
  0
LINE
  8
0
 10
46.2589
 20
-88.5977
 11
46.2038
 21
-88.3566
  0
LINE
  8
0
 10
46.2038
 20
-88.3566
 11
46.1854
 21
-88.11
  0
LINE
  8
0
 10
46.1854
 20
-88.11
 11
46.2038
 21
-87.8634
  0
LINE
  8
0
 10
46.2038
 20
-87.8634
 11
46.2589
 21
-87.6223
  0
LINE
  8
0
 10
46.2589
 20
-87.6223
 11
46.3492
 21
-87.3921
  0
LINE
  8
0
 10
46.3492
 20
-87.3921
 11
46.4729
 21
-87.1779
  0
LINE
  8
0
 10
46.4729
 20
-87.1779
 11
46.6271
 21
-86.9846
  0
LINE
  8
0
 10
46.6271
 20
-86.9846
 11
46.8083
 21
-86.8164
  0
LINE
  8
0
 10
46.8083
 20
-86.8164
 11
47.0127
 21
-86.677
  0
LINE
  8
0
 10
47.0127
 20
-86.677
 11
47.2355
 21
-86.5697
  0
LINE
  8
0
 10
47.2355
 20
-86.5697
 11
47.4718
 21
-86.4969
  0
LINE
  8
0
 10
47.4718
 20
-86.4969
 11
47.7163
 21
-86.46
  0
LINE
  8
0
 10
47.7163
 20
-86.46
 11
47.9636
 21
-86.46
  0
LINE
  8
0
 10
47.9636
 20
-86.46
 11
48.2082
 21
-86.4969
  0
LINE
  8
0
 10
48.2082
 20
-86.4969
 11
48.4445
 21
-86.5697
  0
LINE
  8
0
 10
48.4445
 20
-86.5697
 11
48.6673
 21
-86.677
  0
LINE
  8
0
 10
48.6673
 20
-86.677
 11
48.8716
 21
-86.8164
  0
LINE
  8
0
 10
48.8716
 20
-86.8164
 11
49.0529
 21
-86.9846
  0
LINE
  8
0
 10
49.0529
 20
-86.9846
 11
49.2071
 21
-87.1779
  0
LINE
  8
0
 10
49.2071
 20
-87.1779
 11
49.3308
 21
-87.3921
  0
LINE
  8
0
 10
49.3308
 20
-87.3921
 11
49.4211
 21
-87.6223
  0
LINE
  8
0
 10
49.4211
 20
-87.6223
 11
49.4761
 21
-87.8634
  0
LINE
  8
0
 10
49.4761
 20
-87.8634
 11
49.4946
 21
-88.11
  0
LINE
  8
0
 10
49.4946
 20
-88.11
 11
49.4761
 21
-88.3566
  0
LINE
  8
0
 10
49.4761
 20
-88.3566
 11
49.4211
 21
-88.5977
  0
LINE
  8
0
 10
49.4211
 20
-88.5977
 11
49.3308
 21
-88.8279
  0
LINE
  8
0
 10
49.3308
 20
-88.8279
 11
49.2071
 21
-89.0421
  0
LINE
  8
0
 10
49.2071
 20
-89.0421
 11
49.0529
 21
-89.2354
  0
LINE
  8
0
 10
49.0529
 20
-89.2354
 11
48.8716
 21
-89.4036
  0
LINE
  8
0
 10
48.8716
 20
-89.4036
 11
48.6673
 21
-89.5429
  0
LINE
  8
0
 10
48.6673
 20
-89.5429
 11
48.4445
 21
-89.6502
  0
LINE
  8
0
 10
48.4445
 20
-89.6502
 11
48.2082
 21
-89.7231
  0
LINE
  8
0
 10
48.2082
 20
-89.7231
 11
47.9636
 21
-89.76
  0
LINE
  8
0
 10
47.9636
 20
-89.76
 11
47.7163
 21
-89.76
  0
LINE
  8
0
 10
35.0867
 20
-97.6362
 11
34.8456
 21
-97.5811
  0
LINE
  8
0
 10
34.8456
 20
-97.5811
 11
34.6154
 21
-97.4908
  0
LINE
  8
0
 10
34.6154
 20
-97.4908
 11
34.4012
 21
-97.3671
  0
LINE
  8
0
 10
34.4012
 20
-97.3671
 11
34.2079
 21
-97.2129
  0
LINE
  8
0
 10
34.2079
 20
-97.2129
 11
34.0397
 21
-97.0316
  0
LINE
  8
0
 10
34.0397
 20
-97.0316
 11
33.9004
 21
-96.8273
  0
LINE
  8
0
 10
33.9004
 20
-96.8273
 11
33.7931
 21
-96.6045
  0
LINE
  8
0
 10
33.7931
 20
-96.6045
 11
33.7202
 21
-96.3682
  0
LINE
  8
0
 10
33.7202
 20
-96.3682
 11
33.6833
 21
-96.1237
  0
LINE
  8
0
 10
33.6833
 20
-96.1237
 11
33.6833
 21
-95.8764
  0
LINE
  8
0
 10
33.6833
 20
-95.8764
 11
33.7202
 21
-95.6318
  0
LINE
  8
0
 10
33.7202
 20
-95.6318
 11
33.7931
 21
-95.3955
  0
LINE
  8
0
 10
33.7931
 20
-95.3955
 11
33.9004
 21
-95.1727
  0
LINE
  8
0
 10
33.9004
 20
-95.1727
 11
34.0397
 21
-94.9684
  0
LINE
  8
0
 10
34.0397
 20
-94.9684
 11
34.2079
 21
-94.7871
  0
LINE
  8
0
 10
34.2079
 20
-94.7871
 11
34.4012
 21
-94.6329
  0
LINE
  8
0
 10
34.4012
 20
-94.6329
 11
34.6154
 21
-94.5092
  0
LINE
  8
0
 10
34.6154
 20
-94.5092
 11
34.8456
 21
-94.4189
  0
LINE
  8
0
 10
34.8456
 20
-94.4189
 11
35.0867
 21
-94.3639
  0
LINE
  8
0
 10
35.0867
 20
-94.3639
 11
35.3333
 21
-94.3454
  0
LINE
  8
0
 10
35.3333
 20
-94.3454
 11
35.5799
 21
-94.3639
  0
LINE
  8
0
 10
35.5799
 20
-94.3639
 11
35.821
 21
-94.4189
  0
LINE
  8
0
 10
35.821
 20
-94.4189
 11
36.0512
 21
-94.5092
  0
LINE
  8
0
 10
36.0512
 20
-94.5092
 11
36.2654
 21
-94.6329
  0
LINE
  8
0
 10
36.2654
 20
-94.6329
 11
36.4588
 21
-94.7871
  0
LINE
  8
0
 10
36.4588
 20
-94.7871
 11
36.627
 21
-94.9684
  0
LINE
  8
0
 10
36.627
 20
-94.9684
 11
36.7663
 21
-95.1727
  0
LINE
  8
0
 10
36.7663
 20
-95.1727
 11
36.8736
 21
-95.3955
  0
LINE
  8
0
 10
36.8736
 20
-95.3955
 11
36.9465
 21
-95.6318
  0
LINE
  8
0
 10
36.9465
 20
-95.6318
 11
36.9833
 21
-95.8764
  0
LINE
  8
0
 10
36.9833
 20
-95.8764
 11
36.9833
 21
-96.1237
  0
LINE
  8
0
 10
36.9833
 20
-96.1237
 11
36.9465
 21
-96.3682
  0
LINE
  8
0
 10
36.9465
 20
-96.3682
 11
36.8736
 21
-96.6045
  0
LINE
  8
0
 10
36.8736
 20
-96.6045
 11
36.7663
 21
-96.8273
  0
LINE
  8
0
 10
36.7663
 20
-96.8273
 11
36.627
 21
-97.0316
  0
LINE
  8
0
 10
36.627
 20
-97.0316
 11
36.4588
 21
-97.2129
  0
LINE
  8
0
 10
36.4588
 20
-97.2129
 11
36.2654
 21
-97.3671
  0
LINE
  8
0
 10
36.2654
 20
-97.3671
 11
36.0512
 21
-97.4908
  0
LINE
  8
0
 10
36.0512
 20
-97.4908
 11
35.821
 21
-97.5811
  0
LINE
  8
0
 10
35.821
 20
-97.5811
 11
35.5799
 21
-97.6362
  0
LINE
  8
0
 10
35.5799
 20
-97.6362
 11
35.3333
 21
-97.6546
  0
LINE
  8
0
 10
35.3333
 20
-97.6546
 11
35.0867
 21
-97.6362
  0
LINE
  8
0
 10
-35.58
 20
-97.6362
 11
-35.821
 21
-97.5811
  0
LINE
  8
0
 10
-35.821
 20
-97.5811
 11
-36.0513
 21
-97.4908
  0
LINE
  8
0
 10
-36.0513
 20
-97.4908
 11
-36.2654
 21
-97.3671
  0
LINE
  8
0
 10
-36.2654
 20
-97.3671
 11
-36.4588
 21
-97.2129
  0
LINE
  8
0
 10
-36.4588
 20
-97.2129
 11
-36.627
 21
-97.0316
  0
LINE
  8
0
 10
-36.627
 20
-97.0316
 11
-36.7663
 21
-96.8273
  0
LINE
  8
0
 10
-36.7663
 20
-96.8273
 11
-36.8736
 21
-96.6045
  0
LINE
  8
0
 10
-36.8736
 20
-96.6045
 11
-36.9465
 21
-96.3682
  0
LINE
  8
0
 10
-36.9465
 20
-96.3682
 11
-36.9833
 21
-96.1237
  0
LINE
  8
0
 10
-36.9833
 20
-96.1237
 11
-36.9833
 21
-95.8764
  0
LINE
  8
0
 10
-36.9833
 20
-95.8764
 11
-36.9465
 21
-95.6318
  0
LINE
  8
0
 10
-36.9465
 20
-95.6318
 11
-36.8736
 21
-95.3955
  0
LINE
  8
0
 10
-36.8736
 20
-95.3955
 11
-36.7663
 21
-95.1727
  0
LINE
  8
0
 10
-36.7663
 20
-95.1727
 11
-36.627
 21
-94.9684
  0
LINE
  8
0
 10
-36.627
 20
-94.9684
 11
-36.4588
 21
-94.7871
  0
LINE
  8
0
 10
-36.4588
 20
-94.7871
 11
-36.2654
 21
-94.6329
  0
LINE
  8
0
 10
-36.2654
 20
-94.6329
 11
-36.0513
 21
-94.5092
  0
LINE
  8
0
 10
-36.0513
 20
-94.5092
 11
-35.821
 21
-94.4189
  0
LINE
  8
0
 10
-35.821
 20
-94.4189
 11
-35.58
 21
-94.3639
  0
LINE
  8
0
 10
-35.58
 20
-94.3639
 11
-35.3333
 21
-94.3454
  0
LINE
  8
0
 10
-35.3333
 20
-94.3454
 11
-35.0867
 21
-94.3639
  0
LINE
  8
0
 10
-35.0867
 20
-94.3639
 11
-34.8456
 21
-94.4189
  0
LINE
  8
0
 10
-34.8456
 20
-94.4189
 11
-34.6154
 21
-94.5092
  0
LINE
  8
0
 10
-34.6154
 20
-94.5092
 11
-34.4013
 21
-94.6329
  0
LINE
  8
0
 10
-34.4013
 20
-94.6329
 11
-34.2079
 21
-94.7871
  0
LINE
  8
0
 10
-34.2079
 20
-94.7871
 11
-34.0397
 21
-94.9684
  0
LINE
  8
0
 10
-34.0397
 20
-94.9684
 11
-33.9004
 21
-95.1727
  0
LINE
  8
0
 10
-33.9004
 20
-95.1727
 11
-33.7931
 21
-95.3955
  0
LINE
  8
0
 10
-33.7931
 20
-95.3955
 11
-33.7202
 21
-95.6318
  0
LINE
  8
0
 10
-33.7202
 20
-95.6318
 11
-33.6833
 21
-95.8764
  0
LINE
  8
0
 10
-33.6833
 20
-95.8764
 11
-33.6833
 21
-96.1237
  0
LINE
  8
0
 10
-33.6833
 20
-96.1237
 11
-33.7202
 21
-96.3682
  0
LINE
  8
0
 10
-33.7202
 20
-96.3682
 11
-33.7931
 21
-96.6045
  0
LINE
  8
0
 10
-33.7931
 20
-96.6045
 11
-33.9004
 21
-96.8273
  0
LINE
  8
0
 10
-33.9004
 20
-96.8273
 11
-34.0397
 21
-97.0316
  0
LINE
  8
0
 10
-34.0397
 20
-97.0316
 11
-34.2079
 21
-97.2129
  0
LINE
  8
0
 10
-34.2079
 20
-97.2129
 11
-34.4013
 21
-97.3671
  0
LINE
  8
0
 10
-34.4013
 20
-97.3671
 11
-34.6154
 21
-97.4908
  0
LINE
  8
0
 10
-34.6154
 20
-97.4908
 11
-34.8456
 21
-97.5811
  0
LINE
  8
0
 10
-34.8456
 20
-97.5811
 11
-35.0867
 21
-97.6362
  0
LINE
  8
0
 10
-35.0867
 20
-97.6362
 11
-35.3333
 21
-97.6546
  0
LINE
  8
0
 10
-35.3333
 20
-97.6546
 11
-35.58
 21
-97.6362
  0
LINE
  8
0
 10
89.7534
 20
-97.6362
 11
89.5123
 21
-97.5811
  0
LINE
  8
0
 10
89.5123
 20
-97.5811
 11
89.2821
 21
-97.4908
  0
LINE
  8
0
 10
89.2821
 20
-97.4908
 11
89.0679
 21
-97.3671
  0
LINE
  8
0
 10
89.0679
 20
-97.3671
 11
88.8746
 21
-97.2129
  0
LINE
  8
0
 10
88.8746
 20
-97.2129
 11
88.7064
 21
-97.0316
  0
LINE
  8
0
 10
88.7064
 20
-97.0316
 11
88.567
 21
-96.8273
  0
LINE
  8
0
 10
88.567
 20
-96.8273
 11
88.4597
 21
-96.6045
  0
LINE
  8
0
 10
88.4597
 20
-96.6045
 11
88.3869
 21
-96.3682
  0
LINE
  8
0
 10
88.3869
 20
-96.3682
 11
88.35
 21
-96.1237
  0
LINE
  8
0
 10
88.35
 20
-96.1237
 11
88.35
 21
-95.8764
  0
LINE
  8
0
 10
88.35
 20
-95.8764
 11
88.3869
 21
-95.6318
  0
LINE
  8
0
 10
88.3869
 20
-95.6318
 11
88.4597
 21
-95.3955
  0
LINE
  8
0
 10
88.4597
 20
-95.3955
 11
88.567
 21
-95.1727
  0
LINE
  8
0
 10
88.567
 20
-95.1727
 11
88.7064
 21
-94.9684
  0
LINE
  8
0
 10
88.7064
 20
-94.9684
 11
88.8746
 21
-94.7871
  0
LINE
  8
0
 10
88.8746
 20
-94.7871
 11
89.0679
 21
-94.6329
  0
LINE
  8
0
 10
89.0679
 20
-94.6329
 11
89.2821
 21
-94.5092
  0
LINE
  8
0
 10
89.2821
 20
-94.5092
 11
89.5123
 21
-94.4189
  0
LINE
  8
0
 10
89.5123
 20
-94.4189
 11
89.7534
 21
-94.3639
  0
LINE
  8
0
 10
89.7534
 20
-94.3639
 11
90
 21
-94.3454
  0
LINE
  8
0
 10
90
 20
-94.3454
 11
90.2466
 21
-94.3639
  0
LINE
  8
0
 10
90.2466
 20
-94.3639
 11
90.4877
 21
-94.4189
  0
LINE
  8
0
 10
90.4877
 20
-94.4189
 11
90.7179
 21
-94.5092
  0
LINE
  8
0
 10
90.7179
 20
-94.5092
 11
90.9321
 21
-94.6329
  0
LINE
  8
0
 10
90.9321
 20
-94.6329
 11
91.1254
 21
-94.7871
  0
LINE
  8
0
 10
91.1254
 20
-94.7871
 11
91.2936
 21
-94.9684
  0
LINE
  8
0
 10
91.2936
 20
-94.9684
 11
91.4329
 21
-95.1727
  0
LINE
  8
0
 10
91.4329
 20
-95.1727
 11
91.5402
 21
-95.3955
  0
LINE
  8
0
 10
91.5402
 20
-95.3955
 11
91.6131
 21
-95.6318
  0
LINE
  8
0
 10
91.6131
 20
-95.6318
 11
91.65
 21
-95.8764
  0
LINE
  8
0
 10
91.65
 20
-95.8764
 11
91.65
 21
-96.1237
  0
LINE
  8
0
 10
91.65
 20
-96.1237
 11
91.6131
 21
-96.3682
  0
LINE
  8
0
 10
91.6131
 20
-96.3682
 11
91.5402
 21
-96.6045
  0
LINE
  8
0
 10
91.5402
 20
-96.6045
 11
91.4329
 21
-96.8273
  0
LINE
  8
0
 10
91.4329
 20
-96.8273
 11
91.2936
 21
-97.0316
  0
LINE
  8
0
 10
91.2936
 20
-97.0316
 11
91.1254
 21
-97.2129
  0
LINE
  8
0
 10
91.1254
 20
-97.2129
 11
90.9321
 21
-97.3671
  0
LINE
  8
0
 10
90.9321
 20
-97.3671
 11
90.7179
 21
-97.4908
  0
LINE
  8
0
 10
90.7179
 20
-97.4908
 11
90.4877
 21
-97.5811
  0
LINE
  8
0
 10
90.4877
 20
-97.5811
 11
90.2466
 21
-97.6362
  0
LINE
  8
0
 10
90.2466
 20
-97.6362
 11
90
 21
-97.6546
  0
LINE
  8
0
 10
90
 20
-97.6546
 11
89.7534
 21
-97.6362
  0
LINE
  8
0
 10
-90.2466
 20
-97.6362
 11
-90.4877
 21
-97.5811
  0
LINE
  8
0
 10
-90.4877
 20
-97.5811
 11
-90.7179
 21
-97.4908
  0
LINE
  8
0
 10
-90.7179
 20
-97.4908
 11
-90.9321
 21
-97.3671
  0
LINE
  8
0
 10
-90.9321
 20
-97.3671
 11
-91.1254
 21
-97.2129
  0
LINE
  8
0
 10
-91.1254
 20
-97.2129
 11
-91.2936
 21
-97.0316
  0
LINE
  8
0
 10
-91.2936
 20
-97.0316
 11
-91.433
 21
-96.8273
  0
LINE
  8
0
 10
-91.433
 20
-96.8273
 11
-91.5403
 21
-96.6045
  0
LINE
  8
0
 10
-91.5403
 20
-96.6045
 11
-91.6131
 21
-96.3682
  0
LINE
  8
0
 10
-91.6131
 20
-96.3682
 11
-91.65
 21
-96.1237
  0
LINE
  8
0
 10
-91.65
 20
-96.1237
 11
-91.65
 21
-95.8764
  0
LINE
  8
0
 10
-91.65
 20
-95.8764
 11
-91.6131
 21
-95.6318
  0
LINE
  8
0
 10
-91.6131
 20
-95.6318
 11
-91.5403
 21
-95.3955
  0
LINE
  8
0
 10
-91.5403
 20
-95.3955
 11
-91.433
 21
-95.1727
  0
LINE
  8
0
 10
-91.433
 20
-95.1727
 11
-91.2936
 21
-94.9684
  0
LINE
  8
0
 10
-91.2936
 20
-94.9684
 11
-91.1254
 21
-94.7871
  0
LINE
  8
0
 10
-91.1254
 20
-94.7871
 11
-90.9321
 21
-94.6329
  0
LINE
  8
0
 10
-90.9321
 20
-94.6329
 11
-90.7179
 21
-94.5092
  0
LINE
  8
0
 10
-90.7179
 20
-94.5092
 11
-90.4877
 21
-94.4189
  0
LINE
  8
0
 10
-90.4877
 20
-94.4189
 11
-90.2466
 21
-94.3639
  0
LINE
  8
0
 10
-90.2466
 20
-94.3639
 11
-90
 21
-94.3454
  0
LINE
  8
0
 10
-90
 20
-94.3454
 11
-89.7534
 21
-94.3639
  0
LINE
  8
0
 10
-89.7534
 20
-94.3639
 11
-89.5123
 21
-94.4189
  0
LINE
  8
0
 10
-89.5123
 20
-94.4189
 11
-89.2821
 21
-94.5092
  0
LINE
  8
0
 10
-89.2821
 20
-94.5092
 11
-89.0679
 21
-94.6329
  0
LINE
  8
0
 10
-89.0679
 20
-94.6329
 11
-88.8746
 21
-94.7871
  0
LINE
  8
0
 10
-88.8746
 20
-94.7871
 11
-88.7064
 21
-94.9684
  0
LINE
  8
0
 10
-88.7064
 20
-94.9684
 11
-88.5671
 21
-95.1727
  0
LINE
  8
0
 10
-88.5671
 20
-95.1727
 11
-88.4598
 21
-95.3955
  0
LINE
  8
0
 10
-88.4598
 20
-95.3955
 11
-88.3869
 21
-95.6318
  0
LINE
  8
0
 10
-88.3869
 20
-95.6318
 11
-88.35
 21
-95.8764
  0
LINE
  8
0
 10
-88.35
 20
-95.8764
 11
-88.35
 21
-96.1237
  0
LINE
  8
0
 10
-88.35
 20
-96.1237
 11
-88.3869
 21
-96.3682
  0
LINE
  8
0
 10
-88.3869
 20
-96.3682
 11
-88.4598
 21
-96.6045
  0
LINE
  8
0
 10
-88.4598
 20
-96.6045
 11
-88.5671
 21
-96.8273
  0
LINE
  8
0
 10
-88.5671
 20
-96.8273
 11
-88.7064
 21
-97.0316
  0
LINE
  8
0
 10
-88.7064
 20
-97.0316
 11
-88.8746
 21
-97.2129
  0
LINE
  8
0
 10
-88.8746
 20
-97.2129
 11
-89.0679
 21
-97.3671
  0
LINE
  8
0
 10
-89.0679
 20
-97.3671
 11
-89.2821
 21
-97.4908
  0
LINE
  8
0
 10
-89.2821
 20
-97.4908
 11
-89.5123
 21
-97.5811
  0
LINE
  8
0
 10
-89.5123
 20
-97.5811
 11
-89.7534
 21
-97.6362
  0
LINE
  8
0
 10
-89.7534
 20
-97.6362
 11
-90
 21
-97.6546
  0
LINE
  8
0
 10
-90
 20
-97.6546
 11
-90.2466
 21
-97.6362
  0
ENDSEC
  0
SECTION
  2
OBJECTS
  0
DICTIONARY
  0
ENDSEC
  0
EOF
