  0
SECTION
  2
BLOCKS
  0
ENDSEC
  0
SECTION
  2
ENTITIES
  0
LINE
  8
0
 10
109.223
 20
-101.975
 11
109.434
 21
-101.901
  0
LINE
  8
0
 10
109.434
 20
-101.901
 11
109.623
 21
-101.782
  0
LINE
  8
0
 10
109.623
 20
-101.782
 11
109.782
 21
-101.623
  0
LINE
  8
0
 10
109.782
 20
-101.623
 11
109.901
 21
-101.434
  0
LINE
  8
0
 10
109.901
 20
-101.434
 11
109.975
 21
-101.223
  0
LINE
  8
0
 10
109.975
 20
-101.223
 11
110
 21
-101
  0
LINE
  8
0
 10
110
 20
-101
 11
110
 21
101
  0
LINE
  8
0
 10
110
 20
101
 11
109.975
 21
101.223
  0
LINE
  8
0
 10
109.975
 20
101.223
 11
109.901
 21
101.434
  0
LINE
  8
0
 10
109.901
 20
101.434
 11
109.782
 21
101.623
  0
LINE
  8
0
 10
109.782
 20
101.623
 11
109.623
 21
101.782
  0
LINE
  8
0
 10
109.623
 20
101.782
 11
109.434
 21
101.901
  0
LINE
  8
0
 10
109.434
 20
101.901
 11
109.223
 21
101.975
  0
LINE
  8
0
 10
109.223
 20
101.975
 11
109
 21
102
  0
LINE
  8
0
 10
109
 20
102
 11
-109
 21
102
  0
LINE
  8
0
 10
-109
 20
102
 11
-109.223
 21
101.975
  0
LINE
  8
0
 10
-109.223
 20
101.975
 11
-109.434
 21
101.901
  0
LINE
  8
0
 10
-109.434
 20
101.901
 11
-109.623
 21
101.782
  0
LINE
  8
0
 10
-109.623
 20
101.782
 11
-109.782
 21
101.623
  0
LINE
  8
0
 10
-109.782
 20
101.623
 11
-109.901
 21
101.434
  0
LINE
  8
0
 10
-109.901
 20
101.434
 11
-109.975
 21
101.223
  0
LINE
  8
0
 10
-109.975
 20
101.223
 11
-110
 21
101
  0
LINE
  8
0
 10
-110
 20
101
 11
-110
 21
-101
  0
LINE
  8
0
 10
-110
 20
-101
 11
-109.975
 21
-101.223
  0
LINE
  8
0
 10
-109.975
 20
-101.223
 11
-109.901
 21
-101.434
  0
LINE
  8
0
 10
-109.901
 20
-101.434
 11
-109.782
 21
-101.623
  0
LINE
  8
0
 10
-109.782
 20
-101.623
 11
-109.623
 21
-101.782
  0
LINE
  8
0
 10
-109.623
 20
-101.782
 11
-109.434
 21
-101.901
  0
LINE
  8
0
 10
-109.434
 20
-101.901
 11
-109.223
 21
-101.975
  0
LINE
  8
0
 10
-109.223
 20
-101.975
 11
-109
 21
-102
  0
LINE
  8
0
 10
-109
 20
-102
 11
109
 21
-102
  0
LINE
  8
0
 10
109
 20
-102
 11
109.223
 21
-101.975
  0
LINE
  8
0
 10
24.7534
 20
92.3638
 11
24.5123
 21
92.4189
  0
LINE
  8
0
 10
24.5123
 20
92.4189
 11
24.2821
 21
92.5092
  0
LINE
  8
0
 10
24.2821
 20
92.5092
 11
24.0679
 21
92.6329
  0
LINE
  8
0
 10
24.0679
 20
92.6329
 11
23.8746
 21
92.7871
  0
LINE
  8
0
 10
23.8746
 20
92.7871
 11
23.7064
 21
92.9684
  0
LINE
  8
0
 10
23.7064
 20
92.9684
 11
23.567
 21
93.1727
  0
LINE
  8
0
 10
23.567
 20
93.1727
 11
23.4597
 21
93.3955
  0
LINE
  8
0
 10
23.4597
 20
93.3955
 11
23.3869
 21
93.6318
  0
LINE
  8
0
 10
23.3869
 20
93.6318
 11
23.35
 21
93.8763
  0
LINE
  8
0
 10
23.35
 20
93.8763
 11
23.35
 21
94.1236
  0
LINE
  8
0
 10
23.35
 20
94.1236
 11
23.3869
 21
94.3682
  0
LINE
  8
0
 10
23.3869
 20
94.3682
 11
23.4597
 21
94.6045
  0
LINE
  8
0
 10
23.4597
 20
94.6045
 11
23.567
 21
94.8273
  0
LINE
  8
0
 10
23.567
 20
94.8273
 11
23.7064
 21
95.0316
  0
LINE
  8
0
 10
23.7064
 20
95.0316
 11
23.8746
 21
95.2129
  0
LINE
  8
0
 10
23.8746
 20
95.2129
 11
24.0679
 21
95.3671
  0
LINE
  8
0
 10
24.0679
 20
95.3671
 11
24.2821
 21
95.4908
  0
LINE
  8
0
 10
24.2821
 20
95.4908
 11
24.5123
 21
95.5811
  0
LINE
  8
0
 10
24.5123
 20
95.5811
 11
24.7534
 21
95.6361
  0
LINE
  8
0
 10
24.7534
 20
95.6361
 11
25
 21
95.6546
  0
LINE
  8
0
 10
25
 20
95.6546
 11
25.2466
 21
95.6361
  0
LINE
  8
0
 10
25.2466
 20
95.6361
 11
25.4877
 21
95.5811
  0
LINE
  8
0
 10
25.4877
 20
95.5811
 11
25.7179
 21
95.4908
  0
LINE
  8
0
 10
25.7179
 20
95.4908
 11
25.9321
 21
95.3671
  0
LINE
  8
0
 10
25.9321
 20
95.3671
 11
26.1254
 21
95.2129
  0
LINE
  8
0
 10
26.1254
 20
95.2129
 11
26.2936
 21
95.0316
  0
LINE
  8
0
 10
26.2936
 20
95.0316
 11
26.4329
 21
94.8273
  0
LINE
  8
0
 10
26.4329
 20
94.8273
 11
26.5402
 21
94.6045
  0
LINE
  8
0
 10
26.5402
 20
94.6045
 11
26.6131
 21
94.3682
  0
LINE
  8
0
 10
26.6131
 20
94.3682
 11
26.65
 21
94.1236
  0
LINE
  8
0
 10
26.65
 20
94.1236
 11
26.65
 21
93.8763
  0
LINE
  8
0
 10
26.65
 20
93.8763
 11
26.6131
 21
93.6318
  0
LINE
  8
0
 10
26.6131
 20
93.6318
 11
26.5402
 21
93.3955
  0
LINE
  8
0
 10
26.5402
 20
93.3955
 11
26.4329
 21
93.1727
  0
LINE
  8
0
 10
26.4329
 20
93.1727
 11
26.2936
 21
92.9684
  0
LINE
  8
0
 10
26.2936
 20
92.9684
 11
26.1254
 21
92.7871
  0
LINE
  8
0
 10
26.1254
 20
92.7871
 11
25.9321
 21
92.6329
  0
LINE
  8
0
 10
25.9321
 20
92.6329
 11
25.7179
 21
92.5092
  0
LINE
  8
0
 10
25.7179
 20
92.5092
 11
25.4877
 21
92.4189
  0
LINE
  8
0
 10
25.4877
 20
92.4189
 11
25.2466
 21
92.3638
  0
LINE
  8
0
 10
25.2466
 20
92.3638
 11
25
 21
92.3454
  0
LINE
  8
0
 10
25
 20
92.3454
 11
24.7534
 21
92.3638
  0
LINE
  8
0
 10
-25.2466
 20
92.3638
 11
-25.4877
 21
92.4189
  0
LINE
  8
0
 10
-25.4877
 20
92.4189
 11
-25.7179
 21
92.5092
  0
LINE
  8
0
 10
-25.7179
 20
92.5092
 11
-25.9321
 21
92.6329
  0
LINE
  8
0
 10
-25.9321
 20
92.6329
 11
-26.1254
 21
92.7871
  0
LINE
  8
0
 10
-26.1254
 20
92.7871
 11
-26.2936
 21
92.9684
  0
LINE
  8
0
 10
-26.2936
 20
92.9684
 11
-26.433
 21
93.1727
  0
LINE
  8
0
 10
-26.433
 20
93.1727
 11
-26.5403
 21
93.3955
  0
LINE
  8
0
 10
-26.5403
 20
93.3955
 11
-26.6131
 21
93.6318
  0
LINE
  8
0
 10
-26.6131
 20
93.6318
 11
-26.65
 21
93.8763
  0
LINE
  8
0
 10
-26.65
 20
93.8763
 11
-26.65
 21
94.1236
  0
LINE
  8
0
 10
-26.65
 20
94.1236
 11
-26.6131
 21
94.3682
  0
LINE
  8
0
 10
-26.6131
 20
94.3682
 11
-26.5403
 21
94.6045
  0
LINE
  8
0
 10
-26.5403
 20
94.6045
 11
-26.433
 21
94.8273
  0
LINE
  8
0
 10
-26.433
 20
94.8273
 11
-26.2936
 21
95.0316
  0
LINE
  8
0
 10
-26.2936
 20
95.0316
 11
-26.1254
 21
95.2129
  0
LINE
  8
0
 10
-26.1254
 20
95.2129
 11
-25.9321
 21
95.3671
  0
LINE
  8
0
 10
-25.9321
 20
95.3671
 11
-25.7179
 21
95.4908
  0
LINE
  8
0
 10
-25.7179
 20
95.4908
 11
-25.4877
 21
95.5811
  0
LINE
  8
0
 10
-25.4877
 20
95.5811
 11
-25.2466
 21
95.6361
  0
LINE
  8
0
 10
-25.2466
 20
95.6361
 11
-25
 21
95.6546
  0
LINE
  8
0
 10
-25
 20
95.6546
 11
-24.7534
 21
95.6361
  0
LINE
  8
0
 10
-24.7534
 20
95.6361
 11
-24.5123
 21
95.5811
  0
LINE
  8
0
 10
-24.5123
 20
95.5811
 11
-24.2821
 21
95.4908
  0
LINE
  8
0
 10
-24.2821
 20
95.4908
 11
-24.0679
 21
95.3671
  0
LINE
  8
0
 10
-24.0679
 20
95.3671
 11
-23.8746
 21
95.2129
  0
LINE
  8
0
 10
-23.8746
 20
95.2129
 11
-23.7064
 21
95.0316
  0
LINE
  8
0
 10
-23.7064
 20
95.0316
 11
-23.5671
 21
94.8273
  0
LINE
  8
0
 10
-23.5671
 20
94.8273
 11
-23.4598
 21
94.6045
  0
LINE
  8
0
 10
-23.4598
 20
94.6045
 11
-23.3869
 21
94.3682
  0
LINE
  8
0
 10
-23.3869
 20
94.3682
 11
-23.35
 21
94.1236
  0
LINE
  8
0
 10
-23.35
 20
94.1236
 11
-23.35
 21
93.8763
  0
LINE
  8
0
 10
-23.35
 20
93.8763
 11
-23.3869
 21
93.6318
  0
LINE
  8
0
 10
-23.3869
 20
93.6318
 11
-23.4598
 21
93.3955
  0
LINE
  8
0
 10
-23.4598
 20
93.3955
 11
-23.5671
 21
93.1727
  0
LINE
  8
0
 10
-23.5671
 20
93.1727
 11
-23.7064
 21
92.9684
  0
LINE
  8
0
 10
-23.7064
 20
92.9684
 11
-23.8746
 21
92.7871
  0
LINE
  8
0
 10
-23.8746
 20
92.7871
 11
-24.0679
 21
92.6329
  0
LINE
  8
0
 10
-24.0679
 20
92.6329
 11
-24.2821
 21
92.5092
  0
LINE
  8
0
 10
-24.2821
 20
92.5092
 11
-24.5123
 21
92.4189
  0
LINE
  8
0
 10
-24.5123
 20
92.4189
 11
-24.7534
 21
92.3638
  0
LINE
  8
0
 10
-24.7534
 20
92.3638
 11
-25
 21
92.3454
  0
LINE
  8
0
 10
-25
 20
92.3454
 11
-25.2466
 21
92.3638
  0
LINE
  8
0
 10
-90.2466
 20
90.3638
 11
-90.4877
 21
90.4189
  0
LINE
  8
0
 10
-90.4877
 20
90.4189
 11
-90.7179
 21
90.5092
  0
LINE
  8
0
 10
-90.7179
 20
90.5092
 11
-90.9321
 21
90.6329
  0
LINE
  8
0
 10
-90.9321
 20
90.6329
 11
-91.1254
 21
90.7871
  0
LINE
  8
0
 10
-91.1254
 20
90.7871
 11
-91.2936
 21
90.9684
  0
LINE
  8
0
 10
-91.2936
 20
90.9684
 11
-91.433
 21
91.1727
  0
LINE
  8
0
 10
-91.433
 20
91.1727
 11
-91.5403
 21
91.3955
  0
LINE
  8
0
 10
-91.5403
 20
91.3955
 11
-91.6131
 21
91.6318
  0
LINE
  8
0
 10
-91.6131
 20
91.6318
 11
-91.65
 21
91.8763
  0
LINE
  8
0
 10
-91.65
 20
91.8763
 11
-91.65
 21
92.1236
  0
LINE
  8
0
 10
-91.65
 20
92.1236
 11
-91.6131
 21
92.3682
  0
LINE
  8
0
 10
-91.6131
 20
92.3682
 11
-91.5403
 21
92.6045
  0
LINE
  8
0
 10
-91.5403
 20
92.6045
 11
-91.433
 21
92.8273
  0
LINE
  8
0
 10
-91.433
 20
92.8273
 11
-91.2936
 21
93.0316
  0
LINE
  8
0
 10
-91.2936
 20
93.0316
 11
-91.1254
 21
93.2129
  0
LINE
  8
0
 10
-91.1254
 20
93.2129
 11
-90.9321
 21
93.3671
  0
LINE
  8
0
 10
-90.9321
 20
93.3671
 11
-90.7179
 21
93.4908
  0
LINE
  8
0
 10
-90.7179
 20
93.4908
 11
-90.4877
 21
93.5811
  0
LINE
  8
0
 10
-90.4877
 20
93.5811
 11
-90.2466
 21
93.6361
  0
LINE
  8
0
 10
-90.2466
 20
93.6361
 11
-90
 21
93.6546
  0
LINE
  8
0
 10
-90
 20
93.6546
 11
-89.7534
 21
93.6361
  0
LINE
  8
0
 10
-89.7534
 20
93.6361
 11
-89.5123
 21
93.5811
  0
LINE
  8
0
 10
-89.5123
 20
93.5811
 11
-89.2821
 21
93.4908
  0
LINE
  8
0
 10
-89.2821
 20
93.4908
 11
-89.0679
 21
93.3671
  0
LINE
  8
0
 10
-89.0679
 20
93.3671
 11
-88.8746
 21
93.2129
  0
LINE
  8
0
 10
-88.8746
 20
93.2129
 11
-88.7064
 21
93.0316
  0
LINE
  8
0
 10
-88.7064
 20
93.0316
 11
-88.5671
 21
92.8273
  0
LINE
  8
0
 10
-88.5671
 20
92.8273
 11
-88.4598
 21
92.6045
  0
LINE
  8
0
 10
-88.4598
 20
92.6045
 11
-88.3869
 21
92.3682
  0
LINE
  8
0
 10
-88.3869
 20
92.3682
 11
-88.35
 21
92.1236
  0
LINE
  8
0
 10
-88.35
 20
92.1236
 11
-88.35
 21
91.8763
  0
LINE
  8
0
 10
-88.35
 20
91.8763
 11
-88.3869
 21
91.6318
  0
LINE
  8
0
 10
-88.3869
 20
91.6318
 11
-88.4598
 21
91.3955
  0
LINE
  8
0
 10
-88.4598
 20
91.3955
 11
-88.5671
 21
91.1727
  0
LINE
  8
0
 10
-88.5671
 20
91.1727
 11
-88.7064
 21
90.9684
  0
LINE
  8
0
 10
-88.7064
 20
90.9684
 11
-88.8746
 21
90.7871
  0
LINE
  8
0
 10
-88.8746
 20
90.7871
 11
-89.0679
 21
90.6329
  0
LINE
  8
0
 10
-89.0679
 20
90.6329
 11
-89.2821
 21
90.5092
  0
LINE
  8
0
 10
-89.2821
 20
90.5092
 11
-89.5123
 21
90.4189
  0
LINE
  8
0
 10
-89.5123
 20
90.4189
 11
-89.7534
 21
90.3638
  0
LINE
  8
0
 10
-89.7534
 20
90.3638
 11
-90
 21
90.3454
  0
LINE
  8
0
 10
-90
 20
90.3454
 11
-90.2466
 21
90.3638
  0
LINE
  8
0
 10
89.7534
 20
90.3638
 11
89.5123
 21
90.4189
  0
LINE
  8
0
 10
89.5123
 20
90.4189
 11
89.2821
 21
90.5092
  0
LINE
  8
0
 10
89.2821
 20
90.5092
 11
89.0679
 21
90.6329
  0
LINE
  8
0
 10
89.0679
 20
90.6329
 11
88.8746
 21
90.7871
  0
LINE
  8
0
 10
88.8746
 20
90.7871
 11
88.7064
 21
90.9684
  0
LINE
  8
0
 10
88.7064
 20
90.9684
 11
88.567
 21
91.1727
  0
LINE
  8
0
 10
88.567
 20
91.1727
 11
88.4597
 21
91.3955
  0
LINE
  8
0
 10
88.4597
 20
91.3955
 11
88.3869
 21
91.6318
  0
LINE
  8
0
 10
88.3869
 20
91.6318
 11
88.35
 21
91.8763
  0
LINE
  8
0
 10
88.35
 20
91.8763
 11
88.35
 21
92.1236
  0
LINE
  8
0
 10
88.35
 20
92.1236
 11
88.3869
 21
92.3682
  0
LINE
  8
0
 10
88.3869
 20
92.3682
 11
88.4597
 21
92.6045
  0
LINE
  8
0
 10
88.4597
 20
92.6045
 11
88.567
 21
92.8273
  0
LINE
  8
0
 10
88.567
 20
92.8273
 11
88.7064
 21
93.0316
  0
LINE
  8
0
 10
88.7064
 20
93.0316
 11
88.8746
 21
93.2129
  0
LINE
  8
0
 10
88.8746
 20
93.2129
 11
89.0679
 21
93.3671
  0
LINE
  8
0
 10
89.0679
 20
93.3671
 11
89.2821
 21
93.4908
  0
LINE
  8
0
 10
89.2821
 20
93.4908
 11
89.5123
 21
93.5811
  0
LINE
  8
0
 10
89.5123
 20
93.5811
 11
89.7534
 21
93.6361
  0
LINE
  8
0
 10
89.7534
 20
93.6361
 11
90
 21
93.6546
  0
LINE
  8
0
 10
90
 20
93.6546
 11
90.2466
 21
93.6361
  0
LINE
  8
0
 10
90.2466
 20
93.6361
 11
90.4877
 21
93.5811
  0
LINE
  8
0
 10
90.4877
 20
93.5811
 11
90.7179
 21
93.4908
  0
LINE
  8
0
 10
90.7179
 20
93.4908
 11
90.9321
 21
93.3671
  0
LINE
  8
0
 10
90.9321
 20
93.3671
 11
91.1254
 21
93.2129
  0
LINE
  8
0
 10
91.1254
 20
93.2129
 11
91.2936
 21
93.0316
  0
LINE
  8
0
 10
91.2936
 20
93.0316
 11
91.4329
 21
92.8273
  0
LINE
  8
0
 10
91.4329
 20
92.8273
 11
91.5402
 21
92.6045
  0
LINE
  8
0
 10
91.5402
 20
92.6045
 11
91.6131
 21
92.3682
  0
LINE
  8
0
 10
91.6131
 20
92.3682
 11
91.65
 21
92.1236
  0
LINE
  8
0
 10
91.65
 20
92.1236
 11
91.65
 21
91.8763
  0
LINE
  8
0
 10
91.65
 20
91.8763
 11
91.6131
 21
91.6318
  0
LINE
  8
0
 10
91.6131
 20
91.6318
 11
91.5402
 21
91.3955
  0
LINE
  8
0
 10
91.5402
 20
91.3955
 11
91.4329
 21
91.1727
  0
LINE
  8
0
 10
91.4329
 20
91.1727
 11
91.2936
 21
90.9684
  0
LINE
  8
0
 10
91.2936
 20
90.9684
 11
91.1254
 21
90.7871
  0
LINE
  8
0
 10
91.1254
 20
90.7871
 11
90.9321
 21
90.6329
  0
LINE
  8
0
 10
90.9321
 20
90.6329
 11
90.7179
 21
90.5092
  0
LINE
  8
0
 10
90.7179
 20
90.5092
 11
90.4877
 21
90.4189
  0
LINE
  8
0
 10
90.4877
 20
90.4189
 11
90.2466
 21
90.3638
  0
LINE
  8
0
 10
90.2466
 20
90.3638
 11
90
 21
90.3454
  0
LINE
  8
0
 10
90
 20
90.3454
 11
89.7534
 21
90.3638
  0
LINE
  8
0
 10
-104.247
 20
76.3638
 11
-104.488
 21
76.4189
  0
LINE
  8
0
 10
-104.488
 20
76.4189
 11
-104.718
 21
76.5092
  0
LINE
  8
0
 10
-104.718
 20
76.5092
 11
-104.932
 21
76.6329
  0
LINE
  8
0
 10
-104.932
 20
76.6329
 11
-105.125
 21
76.7871
  0
LINE
  8
0
 10
-105.125
 20
76.7871
 11
-105.294
 21
76.9684
  0
LINE
  8
0
 10
-105.294
 20
76.9684
 11
-105.433
 21
77.1727
  0
LINE
  8
0
 10
-105.433
 20
77.1727
 11
-105.54
 21
77.3955
  0
LINE
  8
0
 10
-105.54
 20
77.3955
 11
-105.613
 21
77.6318
  0
LINE
  8
0
 10
-105.613
 20
77.6318
 11
-105.65
 21
77.8763
  0
LINE
  8
0
 10
-105.65
 20
77.8763
 11
-105.65
 21
78.1236
  0
LINE
  8
0
 10
-105.65
 20
78.1236
 11
-105.613
 21
78.3682
  0
LINE
  8
0
 10
-105.613
 20
78.3682
 11
-105.54
 21
78.6045
  0
LINE
  8
0
 10
-105.54
 20
78.6045
 11
-105.433
 21
78.8273
  0
LINE
  8
0
 10
-105.433
 20
78.8273
 11
-105.294
 21
79.0316
  0
LINE
  8
0
 10
-105.294
 20
79.0316
 11
-105.125
 21
79.2129
  0
LINE
  8
0
 10
-105.125
 20
79.2129
 11
-104.932
 21
79.3671
  0
LINE
  8
0
 10
-104.932
 20
79.3671
 11
-104.718
 21
79.4908
  0
LINE
  8
0
 10
-104.718
 20
79.4908
 11
-104.488
 21
79.5811
  0
LINE
  8
0
 10
-104.488
 20
79.5811
 11
-104.247
 21
79.6361
  0
LINE
  8
0
 10
-104.247
 20
79.6361
 11
-104
 21
79.6546
  0
LINE
  8
0
 10
-104
 20
79.6546
 11
-103.753
 21
79.6361
  0
LINE
  8
0
 10
-103.753
 20
79.6361
 11
-103.512
 21
79.5811
  0
LINE
  8
0
 10
-103.512
 20
79.5811
 11
-103.282
 21
79.4908
  0
LINE
  8
0
 10
-103.282
 20
79.4908
 11
-103.068
 21
79.3671
  0
LINE
  8
0
 10
-103.068
 20
79.3671
 11
-102.875
 21
79.2129
  0
LINE
  8
0
 10
-102.875
 20
79.2129
 11
-102.706
 21
79.0316
  0
LINE
  8
0
 10
-102.706
 20
79.0316
 11
-102.567
 21
78.8273
  0
LINE
  8
0
 10
-102.567
 20
78.8273
 11
-102.46
 21
78.6045
  0
LINE
  8
0
 10
-102.46
 20
78.6045
 11
-102.387
 21
78.3682
  0
LINE
  8
0
 10
-102.387
 20
78.3682
 11
-102.35
 21
78.1236
  0
LINE
  8
0
 10
-102.35
 20
78.1236
 11
-102.35
 21
77.8763
  0
LINE
  8
0
 10
-102.35
 20
77.8763
 11
-102.387
 21
77.6318
  0
LINE
  8
0
 10
-102.387
 20
77.6318
 11
-102.46
 21
77.3955
  0
LINE
  8
0
 10
-102.46
 20
77.3955
 11
-102.567
 21
77.1727
  0
LINE
  8
0
 10
-102.567
 20
77.1727
 11
-102.706
 21
76.9684
  0
LINE
  8
0
 10
-102.706
 20
76.9684
 11
-102.875
 21
76.7871
  0
LINE
  8
0
 10
-102.875
 20
76.7871
 11
-103.068
 21
76.6329
  0
LINE
  8
0
 10
-103.068
 20
76.6329
 11
-103.282
 21
76.5092
  0
LINE
  8
0
 10
-103.282
 20
76.5092
 11
-103.512
 21
76.4189
  0
LINE
  8
0
 10
-103.512
 20
76.4189
 11
-103.753
 21
76.3638
  0
LINE
  8
0
 10
-103.753
 20
76.3638
 11
-104
 21
76.3454
  0
LINE
  8
0
 10
-104
 20
76.3454
 11
-104.247
 21
76.3638
  0
LINE
  8
0
 10
103.753
 20
76.3638
 11
103.512
 21
76.4189
  0
LINE
  8
0
 10
103.512
 20
76.4189
 11
103.282
 21
76.5092
  0
LINE
  8
0
 10
103.282
 20
76.5092
 11
103.068
 21
76.6329
  0
LINE
  8
0
 10
103.068
 20
76.6329
 11
102.875
 21
76.7871
  0
LINE
  8
0
 10
102.875
 20
76.7871
 11
102.706
 21
76.9684
  0
LINE
  8
0
 10
102.706
 20
76.9684
 11
102.567
 21
77.1727
  0
LINE
  8
0
 10
102.567
 20
77.1727
 11
102.46
 21
77.3955
  0
LINE
  8
0
 10
102.46
 20
77.3955
 11
102.387
 21
77.6318
  0
LINE
  8
0
 10
102.387
 20
77.6318
 11
102.35
 21
77.8763
  0
LINE
  8
0
 10
102.35
 20
77.8763
 11
102.35
 21
78.1236
  0
LINE
  8
0
 10
102.35
 20
78.1236
 11
102.387
 21
78.3682
  0
LINE
  8
0
 10
102.387
 20
78.3682
 11
102.46
 21
78.6045
  0
LINE
  8
0
 10
102.46
 20
78.6045
 11
102.567
 21
78.8273
  0
LINE
  8
0
 10
102.567
 20
78.8273
 11
102.706
 21
79.0316
  0
LINE
  8
0
 10
102.706
 20
79.0316
 11
102.875
 21
79.2129
  0
LINE
  8
0
 10
102.875
 20
79.2129
 11
103.068
 21
79.3671
  0
LINE
  8
0
 10
103.068
 20
79.3671
 11
103.282
 21
79.4908
  0
LINE
  8
0
 10
103.282
 20
79.4908
 11
103.512
 21
79.5811
  0
LINE
  8
0
 10
103.512
 20
79.5811
 11
103.753
 21
79.6361
  0
LINE
  8
0
 10
103.753
 20
79.6361
 11
104
 21
79.6546
  0
LINE
  8
0
 10
104
 20
79.6546
 11
104.247
 21
79.6361
  0
LINE
  8
0
 10
104.247
 20
79.6361
 11
104.488
 21
79.5811
  0
LINE
  8
0
 10
104.488
 20
79.5811
 11
104.718
 21
79.4908
  0
LINE
  8
0
 10
104.718
 20
79.4908
 11
104.932
 21
79.3671
  0
LINE
  8
0
 10
104.932
 20
79.3671
 11
105.125
 21
79.2129
  0
LINE
  8
0
 10
105.125
 20
79.2129
 11
105.294
 21
79.0316
  0
LINE
  8
0
 10
105.294
 20
79.0316
 11
105.433
 21
78.8273
  0
LINE
  8
0
 10
105.433
 20
78.8273
 11
105.54
 21
78.6045
  0
LINE
  8
0
 10
105.54
 20
78.6045
 11
105.613
 21
78.3682
  0
LINE
  8
0
 10
105.613
 20
78.3682
 11
105.65
 21
78.1236
  0
LINE
  8
0
 10
105.65
 20
78.1236
 11
105.65
 21
77.8763
  0
LINE
  8
0
 10
105.65
 20
77.8763
 11
105.613
 21
77.6318
  0
LINE
  8
0
 10
105.613
 20
77.6318
 11
105.54
 21
77.3955
  0
LINE
  8
0
 10
105.54
 20
77.3955
 11
105.433
 21
77.1727
  0
LINE
  8
0
 10
105.433
 20
77.1727
 11
105.294
 21
76.9684
  0
LINE
  8
0
 10
105.294
 20
76.9684
 11
105.125
 21
76.7871
  0
LINE
  8
0
 10
105.125
 20
76.7871
 11
104.932
 21
76.6329
  0
LINE
  8
0
 10
104.932
 20
76.6329
 11
104.718
 21
76.5092
  0
LINE
  8
0
 10
104.718
 20
76.5092
 11
104.488
 21
76.4189
  0
LINE
  8
0
 10
104.488
 20
76.4189
 11
104.247
 21
76.3638
  0
LINE
  8
0
 10
104.247
 20
76.3638
 11
104
 21
76.3454
  0
LINE
  8
0
 10
104
 20
76.3454
 11
103.753
 21
76.3638
  0
LINE
  8
0
 10
-43
 20
52
 11
-43.1913
 21
52.0381
  0
LINE
  8
0
 10
-43.1913
 20
52.0381
 11
-43.3535
 21
52.1465
  0
LINE
  8
0
 10
-43.3535
 20
52.1465
 11
-43.4619
 21
52.3087
  0
LINE
  8
0
 10
-43.4619
 20
52.3087
 11
-43.5
 21
52.5
  0
LINE
  8
0
 10
-43.5
 20
52.5
 11
-43.5
 21
54
  0
LINE
  8
0
 10
-43.5
 20
54
 11
-43.4619
 21
54.1913
  0
LINE
  8
0
 10
-43.4619
 20
54.1913
 11
-43.3535
 21
54.3535
  0
LINE
  8
0
 10
-43.3535
 20
54.3535
 11
-43.1913
 21
54.4619
  0
LINE
  8
0
 10
-43.1913
 20
54.4619
 11
-43
 21
54.5
  0
LINE
  8
0
 10
-43
 20
54.5
 11
-23
 21
54.5
  0
LINE
  8
0
 10
-23
 20
54.5
 11
-22.8087
 21
54.4619
  0
LINE
  8
0
 10
-22.8087
 20
54.4619
 11
-22.6465
 21
54.3535
  0
LINE
  8
0
 10
-22.6465
 20
54.3535
 11
-22.5381
 21
54.1913
  0
LINE
  8
0
 10
-22.5381
 20
54.1913
 11
-22.5
 21
54
  0
LINE
  8
0
 10
-22.5
 20
54
 11
-22.5
 21
52.5
  0
LINE
  8
0
 10
-22.5
 20
52.5
 11
-22.5381
 21
52.3087
  0
LINE
  8
0
 10
-22.5381
 20
52.3087
 11
-22.6465
 21
52.1465
  0
LINE
  8
0
 10
-22.6465
 20
52.1465
 11
-22.8087
 21
52.0381
  0
LINE
  8
0
 10
-22.8087
 20
52.0381
 11
-23
 21
52
  0
LINE
  8
0
 10
-23
 20
52
 11
-43
 21
52
  0
LINE
  8
0
 10
55
 20
52
 11
54.8087
 21
52.0381
  0
LINE
  8
0
 10
54.8087
 20
52.0381
 11
54.6465
 21
52.1465
  0
LINE
  8
0
 10
54.6465
 20
52.1465
 11
54.5381
 21
52.3087
  0
LINE
  8
0
 10
54.5381
 20
52.3087
 11
54.5
 21
52.5
  0
LINE
  8
0
 10
54.5
 20
52.5
 11
54.5
 21
54
  0
LINE
  8
0
 10
54.5
 20
54
 11
54.5381
 21
54.1913
  0
LINE
  8
0
 10
54.5381
 20
54.1913
 11
54.6465
 21
54.3535
  0
LINE
  8
0
 10
54.6465
 20
54.3535
 11
54.8087
 21
54.4619
  0
LINE
  8
0
 10
54.8087
 20
54.4619
 11
55
 21
54.5
  0
LINE
  8
0
 10
55
 20
54.5
 11
75
 21
54.5
  0
LINE
  8
0
 10
75
 20
54.5
 11
75.1913
 21
54.4619
  0
LINE
  8
0
 10
75.1913
 20
54.4619
 11
75.3535
 21
54.3535
  0
LINE
  8
0
 10
75.3535
 20
54.3535
 11
75.4619
 21
54.1913
  0
LINE
  8
0
 10
75.4619
 20
54.1913
 11
75.5
 21
54
  0
LINE
  8
0
 10
75.5
 20
54
 11
75.5
 21
52.5
  0
LINE
  8
0
 10
75.5
 20
52.5
 11
75.4619
 21
52.3087
  0
LINE
  8
0
 10
75.4619
 20
52.3087
 11
75.3535
 21
52.1465
  0
LINE
  8
0
 10
75.3535
 20
52.1465
 11
75.1913
 21
52.0381
  0
LINE
  8
0
 10
75.1913
 20
52.0381
 11
75
 21
52
  0
LINE
  8
0
 10
75
 20
52
 11
55
 21
52
  0
LINE
  8
0
 10
-79.245
 20
28.2681
 11
-79.4807
 21
28.3396
  0
LINE
  8
0
 10
-79.4807
 20
28.3396
 11
-79.6978
 21
28.4556
  0
LINE
  8
0
 10
-79.6978
 20
28.4556
 11
-79.8882
 21
28.6118
  0
LINE
  8
0
 10
-79.8882
 20
28.6118
 11
-80.0444
 21
28.8022
  0
LINE
  8
0
 10
-80.0444
 20
28.8022
 11
-80.1604
 21
29.0193
  0
LINE
  8
0
 10
-80.1604
 20
29.0193
 11
-80.2319
 21
29.2549
  0
LINE
  8
0
 10
-80.2319
 20
29.2549
 11
-80.256
 21
29.5
  0
LINE
  8
0
 10
-80.256
 20
29.5
 11
-80.2319
 21
29.745
  0
LINE
  8
0
 10
-80.2319
 20
29.745
 11
-80.1604
 21
29.9807
  0
LINE
  8
0
 10
-80.1604
 20
29.9807
 11
-80.0444
 21
30.1978
  0
LINE
  8
0
 10
-80.0444
 20
30.1978
 11
-79.8882
 21
30.3882
  0
LINE
  8
0
 10
-79.8882
 20
30.3882
 11
-79.6978
 21
30.5444
  0
LINE
  8
0
 10
-79.6978
 20
30.5444
 11
-79.4807
 21
30.6604
  0
LINE
  8
0
 10
-79.4807
 20
30.6604
 11
-79.245
 21
30.7319
  0
LINE
  8
0
 10
-79.245
 20
30.7319
 11
-79
 21
30.756
  0
LINE
  8
0
 10
-79
 20
30.756
 11
-78.755
 21
30.7319
  0
LINE
  8
0
 10
-78.755
 20
30.7319
 11
-78.5193
 21
30.6604
  0
LINE
  8
0
 10
-78.5193
 20
30.6604
 11
-78.3022
 21
30.5444
  0
LINE
  8
0
 10
-78.3022
 20
30.5444
 11
-78.1118
 21
30.3882
  0
LINE
  8
0
 10
-78.1118
 20
30.3882
 11
-77.9556
 21
30.1978
  0
LINE
  8
0
 10
-77.9556
 20
30.1978
 11
-77.8396
 21
29.9807
  0
LINE
  8
0
 10
-77.8396
 20
29.9807
 11
-77.7681
 21
29.745
  0
LINE
  8
0
 10
-77.7681
 20
29.745
 11
-77.744
 21
29.5
  0
LINE
  8
0
 10
-77.744
 20
29.5
 11
-77.7681
 21
29.2549
  0
LINE
  8
0
 10
-77.7681
 20
29.2549
 11
-77.8396
 21
29.0193
  0
LINE
  8
0
 10
-77.8396
 20
29.0193
 11
-77.9556
 21
28.8022
  0
LINE
  8
0
 10
-77.9556
 20
28.8022
 11
-78.1118
 21
28.6118
  0
LINE
  8
0
 10
-78.1118
 20
28.6118
 11
-78.3022
 21
28.4556
  0
LINE
  8
0
 10
-78.3022
 20
28.4556
 11
-78.5193
 21
28.3396
  0
LINE
  8
0
 10
-78.5193
 20
28.3396
 11
-78.755
 21
28.2681
  0
LINE
  8
0
 10
-78.755
 20
28.2681
 11
-79
 21
28.2439
  0
LINE
  8
0
 10
-79
 20
28.2439
 11
-79.245
 21
28.2681
  0
LINE
  8
0
 10
-79.245
 20
8.2681
 11
-79.4807
 21
8.33957
  0
LINE
  8
0
 10
-79.4807
 20
8.33957
 11
-79.6978
 21
8.45564
  0
LINE
  8
0
 10
-79.6978
 20
8.45564
 11
-79.8882
 21
8.61185
  0
LINE
  8
0
 10
-79.8882
 20
8.61185
 11
-80.0444
 21
8.80219
  0
LINE
  8
0
 10
-80.0444
 20
8.80219
 11
-80.1604
 21
9.01933
  0
LINE
  8
0
 10
-80.1604
 20
9.01933
 11
-80.2319
 21
9.25496
  0
LINE
  8
0
 10
-80.2319
 20
9.25496
 11
-80.256
 21
9.5
  0
LINE
  8
0
 10
-80.256
 20
9.5
 11
-80.2319
 21
9.74506
  0
LINE
  8
0
 10
-80.2319
 20
9.74506
 11
-80.1604
 21
9.98068
  0
LINE
  8
0
 10
-80.1604
 20
9.98068
 11
-80.0444
 21
10.1978
  0
LINE
  8
0
 10
-80.0444
 20
10.1978
 11
-79.8882
 21
10.3882
  0
LINE
  8
0
 10
-79.8882
 20
10.3882
 11
-79.6978
 21
10.5444
  0
LINE
  8
0
 10
-79.6978
 20
10.5444
 11
-79.4807
 21
10.6604
  0
LINE
  8
0
 10
-79.4807
 20
10.6604
 11
-79.245
 21
10.7319
  0
LINE
  8
0
 10
-79.245
 20
10.7319
 11
-79
 21
10.7561
  0
LINE
  8
0
 10
-79
 20
10.7561
 11
-78.755
 21
10.7319
  0
LINE
  8
0
 10
-78.755
 20
10.7319
 11
-78.5193
 21
10.6604
  0
LINE
  8
0
 10
-78.5193
 20
10.6604
 11
-78.3022
 21
10.5444
  0
LINE
  8
0
 10
-78.3022
 20
10.5444
 11
-78.1118
 21
10.3882
  0
LINE
  8
0
 10
-78.1118
 20
10.3882
 11
-77.9556
 21
10.1978
  0
LINE
  8
0
 10
-77.9556
 20
10.1978
 11
-77.8396
 21
9.98068
  0
LINE
  8
0
 10
-77.8396
 20
9.98068
 11
-77.7681
 21
9.74506
  0
LINE
  8
0
 10
-77.7681
 20
9.74506
 11
-77.744
 21
9.5
  0
LINE
  8
0
 10
-77.744
 20
9.5
 11
-77.7681
 21
9.25496
  0
LINE
  8
0
 10
-77.7681
 20
9.25496
 11
-77.8396
 21
9.01933
  0
LINE
  8
0
 10
-77.8396
 20
9.01933
 11
-77.9556
 21
8.80219
  0
LINE
  8
0
 10
-77.9556
 20
8.80219
 11
-78.1118
 21
8.61185
  0
LINE
  8
0
 10
-78.1118
 20
8.61185
 11
-78.3022
 21
8.45564
  0
LINE
  8
0
 10
-78.3022
 20
8.45564
 11
-78.5193
 21
8.33957
  0
LINE
  8
0
 10
-78.5193
 20
8.33957
 11
-78.755
 21
8.2681
  0
LINE
  8
0
 10
-78.755
 20
8.2681
 11
-79
 21
8.24396
  0
LINE
  8
0
 10
-79
 20
8.24396
 11
-79.245
 21
8.2681
  0
LINE
  8
0
 10
103.753
 20
-3.63615
 11
103.512
 21
-3.58113
  0
LINE
  8
0
 10
103.512
 20
-3.58113
 11
103.282
 21
-3.49077
  0
LINE
  8
0
 10
103.282
 20
-3.49077
 11
103.068
 21
-3.36713
  0
LINE
  8
0
 10
103.068
 20
-3.36713
 11
102.875
 21
-3.21294
  0
LINE
  8
0
 10
102.875
 20
-3.21294
 11
102.706
 21
-3.03165
  0
LINE
  8
0
 10
102.706
 20
-3.03165
 11
102.567
 21
-2.82732
  0
LINE
  8
0
 10
102.567
 20
-2.82732
 11
102.46
 21
-2.60451
  0
LINE
  8
0
 10
102.46
 20
-2.60451
 11
102.387
 21
-2.36819
  0
LINE
  8
0
 10
102.387
 20
-2.36819
 11
102.35
 21
-2.12366
  0
LINE
  8
0
 10
102.35
 20
-2.12366
 11
102.35
 21
-1.87636
  0
LINE
  8
0
 10
102.35
 20
-1.87636
 11
102.387
 21
-1.63182
  0
LINE
  8
0
 10
102.387
 20
-1.63182
 11
102.46
 21
-1.39551
  0
LINE
  8
0
 10
102.46
 20
-1.39551
 11
102.567
 21
-1.1727
  0
LINE
  8
0
 10
102.567
 20
-1.1727
 11
102.706
 21
-0.968369
  0
LINE
  8
0
 10
102.706
 20
-0.968369
 11
102.875
 21
-0.787079
  0
LINE
  8
0
 10
102.875
 20
-0.787079
 11
103.068
 21
-0.632889
  0
LINE
  8
0
 10
103.068
 20
-0.632889
 11
103.282
 21
-0.509247
  0
LINE
  8
0
 10
103.282
 20
-0.509247
 11
103.512
 21
-0.418884
  0
LINE
  8
0
 10
103.512
 20
-0.418884
 11
103.753
 21
-0.363861
  0
LINE
  8
0
 10
103.753
 20
-0.363861
 11
104
 21
-0.345383
  0
LINE
  8
0
 10
104
 20
-0.345383
 11
104.247
 21
-0.363861
  0
LINE
  8
0
 10
104.247
 20
-0.363861
 11
104.488
 21
-0.418884
  0
LINE
  8
0
 10
104.488
 20
-0.418884
 11
104.718
 21
-0.509247
  0
LINE
  8
0
 10
104.718
 20
-0.509247
 11
104.932
 21
-0.632889
  0
LINE
  8
0
 10
104.932
 20
-0.632889
 11
105.125
 21
-0.787079
  0
LINE
  8
0
 10
105.125
 20
-0.787079
 11
105.294
 21
-0.968369
  0
LINE
  8
0
 10
105.294
 20
-0.968369
 11
105.433
 21
-1.1727
  0
LINE
  8
0
 10
105.433
 20
-1.1727
 11
105.54
 21
-1.39551
  0
LINE
  8
0
 10
105.54
 20
-1.39551
 11
105.613
 21
-1.63182
  0
LINE
  8
0
 10
105.613
 20
-1.63182
 11
105.65
 21
-1.87636
  0
LINE
  8
0
 10
105.65
 20
-1.87636
 11
105.65
 21
-2.12366
  0
LINE
  8
0
 10
105.65
 20
-2.12366
 11
105.613
 21
-2.36819
  0
LINE
  8
0
 10
105.613
 20
-2.36819
 11
105.54
 21
-2.60451
  0
LINE
  8
0
 10
105.54
 20
-2.60451
 11
105.433
 21
-2.82732
  0
LINE
  8
0
 10
105.433
 20
-2.82732
 11
105.294
 21
-3.03165
  0
LINE
  8
0
 10
105.294
 20
-3.03165
 11
105.125
 21
-3.21294
  0
LINE
  8
0
 10
105.125
 20
-3.21294
 11
104.932
 21
-3.36713
  0
LINE
  8
0
 10
104.932
 20
-3.36713
 11
104.718
 21
-3.49077
  0
LINE
  8
0
 10
104.718
 20
-3.49077
 11
104.488
 21
-3.58113
  0
LINE
  8
0
 10
104.488
 20
-3.58113
 11
104.247
 21
-3.63615
  0
LINE
  8
0
 10
104.247
 20
-3.63615
 11
104
 21
-3.65463
  0
LINE
  8
0
 10
104
 20
-3.65463
 11
103.753
 21
-3.63615
  0
LINE
  8
0
 10
-104.124
 20
-3.65001
 11
-104.368
 21
-3.61314
  0
LINE
  8
0
 10
-104.368
 20
-3.61314
 11
-104.605
 21
-3.54025
  0
LINE
  8
0
 10
-104.605
 20
-3.54025
 11
-104.827
 21
-3.43295
  0
LINE
  8
0
 10
-104.827
 20
-3.43295
 11
-105.032
 21
-3.29364
  0
LINE
  8
0
 10
-105.032
 20
-3.29364
 11
-105.213
 21
-3.12544
  0
LINE
  8
0
 10
-105.213
 20
-3.12544
 11
-105.367
 21
-2.9321
  0
LINE
  8
0
 10
-105.367
 20
-2.9321
 11
-105.491
 21
-2.71793
  0
LINE
  8
0
 10
-105.491
 20
-2.71793
 11
-105.581
 21
-2.48772
  0
LINE
  8
0
 10
-105.581
 20
-2.48772
 11
-105.636
 21
-2.24661
  0
LINE
  8
0
 10
-105.636
 20
-2.24661
 11
-105.655
 21
-2
  0
LINE
  8
0
 10
-105.655
 20
-2
 11
-105.636
 21
-1.7534
  0
LINE
  8
0
 10
-105.636
 20
-1.7534
 11
-105.581
 21
-1.5123
  0
LINE
  8
0
 10
-105.581
 20
-1.5123
 11
-105.491
 21
-1.28209
  0
LINE
  8
0
 10
-105.491
 20
-1.28209
 11
-105.367
 21
-1.06792
  0
LINE
  8
0
 10
-105.367
 20
-1.06792
 11
-105.213
 21
-0.874573
  0
LINE
  8
0
 10
-105.213
 20
-0.874573
 11
-105.032
 21
-0.706375
  0
LINE
  8
0
 10
-105.032
 20
-0.706375
 11
-104.827
 21
-0.567062
  0
LINE
  8
0
 10
-104.827
 20
-0.567062
 11
-104.605
 21
-0.459763
  0
LINE
  8
0
 10
-104.605
 20
-0.459763
 11
-104.368
 21
-0.386871
  0
LINE
  8
0
 10
-104.368
 20
-0.386871
 11
-104.124
 21
-0.350006
  0
LINE
  8
0
 10
-104.124
 20
-0.350006
 11
-103.876
 21
-0.350006
  0
LINE
  8
0
 10
-103.876
 20
-0.350006
 11
-103.632
 21
-0.386871
  0
LINE
  8
0
 10
-103.632
 20
-0.386871
 11
-103.396
 21
-0.459763
  0
LINE
  8
0
 10
-103.396
 20
-0.459763
 11
-103.173
 21
-0.567062
  0
LINE
  8
0
 10
-103.173
 20
-0.567062
 11
-102.968
 21
-0.706375
  0
LINE
  8
0
 10
-102.968
 20
-0.706375
 11
-102.787
 21
-0.874573
  0
LINE
  8
0
 10
-102.787
 20
-0.874573
 11
-102.633
 21
-1.06792
  0
LINE
  8
0
 10
-102.633
 20
-1.06792
 11
-102.509
 21
-1.28209
  0
LINE
  8
0
 10
-102.509
 20
-1.28209
 11
-102.419
 21
-1.5123
  0
LINE
  8
0
 10
-102.419
 20
-1.5123
 11
-102.364
 21
-1.7534
  0
LINE
  8
0
 10
-102.364
 20
-1.7534
 11
-102.345
 21
-2
  0
LINE
  8
0
 10
-102.345
 20
-2
 11
-102.364
 21
-2.24661
  0
LINE
  8
0
 10
-102.364
 20
-2.24661
 11
-102.419
 21
-2.48772
  0
LINE
  8
0
 10
-102.419
 20
-2.48772
 11
-102.509
 21
-2.71793
  0
LINE
  8
0
 10
-102.509
 20
-2.71793
 11
-102.633
 21
-2.9321
  0
LINE
  8
0
 10
-102.633
 20
-2.9321
 11
-102.787
 21
-3.12544
  0
LINE
  8
0
 10
-102.787
 20
-3.12544
 11
-102.968
 21
-3.29364
  0
LINE
  8
0
 10
-102.968
 20
-3.29364
 11
-103.173
 21
-3.43295
  0
LINE
  8
0
 10
-103.173
 20
-3.43295
 11
-103.396
 21
-3.54025
  0
LINE
  8
0
 10
-103.396
 20
-3.54025
 11
-103.632
 21
-3.61314
  0
LINE
  8
0
 10
-103.632
 20
-3.61314
 11
-103.876
 21
-3.65001
  0
LINE
  8
0
 10
-103.876
 20
-3.65001
 11
-104.124
 21
-3.65001
  0
LINE
  8
0
 10
55
 20
-15.5
 11
54.8087
 21
-15.4619
  0
LINE
  8
0
 10
54.8087
 20
-15.4619
 11
54.6465
 21
-15.3535
  0
LINE
  8
0
 10
54.6465
 20
-15.3535
 11
54.5381
 21
-15.1913
  0
LINE
  8
0
 10
54.5381
 20
-15.1913
 11
54.5
 21
-15
  0
LINE
  8
0
 10
54.5
 20
-15
 11
54.5
 21
-13.5
  0
LINE
  8
0
 10
54.5
 20
-13.5
 11
54.5381
 21
-13.3087
  0
LINE
  8
0
 10
54.5381
 20
-13.3087
 11
54.6465
 21
-13.1465
  0
LINE
  8
0
 10
54.6465
 20
-13.1465
 11
54.8087
 21
-13.0381
  0
LINE
  8
0
 10
54.8087
 20
-13.0381
 11
55
 21
-13
  0
LINE
  8
0
 10
55
 20
-13
 11
75
 21
-13
  0
LINE
  8
0
 10
75
 20
-13
 11
75.1913
 21
-13.0381
  0
LINE
  8
0
 10
75.1913
 20
-13.0381
 11
75.3535
 21
-13.1465
  0
LINE
  8
0
 10
75.3535
 20
-13.1465
 11
75.4619
 21
-13.3087
  0
LINE
  8
0
 10
75.4619
 20
-13.3087
 11
75.5
 21
-13.5
  0
LINE
  8
0
 10
75.5
 20
-13.5
 11
75.5
 21
-15
  0
LINE
  8
0
 10
75.5
 20
-15
 11
75.4619
 21
-15.1913
  0
LINE
  8
0
 10
75.4619
 20
-15.1913
 11
75.3535
 21
-15.3535
  0
LINE
  8
0
 10
75.3535
 20
-15.3535
 11
75.1913
 21
-15.4619
  0
LINE
  8
0
 10
75.1913
 20
-15.4619
 11
75
 21
-15.5
  0
LINE
  8
0
 10
75
 20
-15.5
 11
55
 21
-15.5
  0
LINE
  8
0
 10
-43
 20
-15.5
 11
-43.1913
 21
-15.4619
  0
LINE
  8
0
 10
-43.1913
 20
-15.4619
 11
-43.3535
 21
-15.3535
  0
LINE
  8
0
 10
-43.3535
 20
-15.3535
 11
-43.4619
 21
-15.1913
  0
LINE
  8
0
 10
-43.4619
 20
-15.1913
 11
-43.5
 21
-15
  0
LINE
  8
0
 10
-43.5
 20
-15
 11
-43.5
 21
-13.5
  0
LINE
  8
0
 10
-43.5
 20
-13.5
 11
-43.4619
 21
-13.3087
  0
LINE
  8
0
 10
-43.4619
 20
-13.3087
 11
-43.3535
 21
-13.1465
  0
LINE
  8
0
 10
-43.3535
 20
-13.1465
 11
-43.1913
 21
-13.0381
  0
LINE
  8
0
 10
-43.1913
 20
-13.0381
 11
-43
 21
-13
  0
LINE
  8
0
 10
-43
 20
-13
 11
-23
 21
-13
  0
LINE
  8
0
 10
-23
 20
-13
 11
-22.8087
 21
-13.0381
  0
LINE
  8
0
 10
-22.8087
 20
-13.0381
 11
-22.6465
 21
-13.1465
  0
LINE
  8
0
 10
-22.6465
 20
-13.1465
 11
-22.5381
 21
-13.3087
  0
LINE
  8
0
 10
-22.5381
 20
-13.3087
 11
-22.5
 21
-13.5
  0
LINE
  8
0
 10
-22.5
 20
-13.5
 11
-22.5
 21
-15
  0
LINE
  8
0
 10
-22.5
 20
-15
 11
-22.5381
 21
-15.1913
  0
LINE
  8
0
 10
-22.5381
 20
-15.1913
 11
-22.6465
 21
-15.3535
  0
LINE
  8
0
 10
-22.6465
 20
-15.3535
 11
-22.8087
 21
-15.4619
  0
LINE
  8
0
 10
-22.8087
 20
-15.4619
 11
-23
 21
-15.5
  0
LINE
  8
0
 10
-23
 20
-15.5
 11
-43
 21
-15.5
  0
LINE
  8
0
 10
11.4264
 20
-24.29
 11
11.1818
 21
-24.2531
  0
LINE
  8
0
 10
11.1818
 20
-24.2531
 11
10.9455
 21
-24.1803
  0
LINE
  8
0
 10
10.9455
 20
-24.1803
 11
10.7227
 21
-24.073
  0
LINE
  8
0
 10
10.7227
 20
-24.073
 11
10.5184
 21
-23.9336
  0
LINE
  8
0
 10
10.5184
 20
-23.9336
 11
10.3371
 21
-23.7654
  0
LINE
  8
0
 10
10.3371
 20
-23.7654
 11
10.1829
 21
-23.5721
  0
LINE
  8
0
 10
10.1829
 20
-23.5721
 11
10.0592
 21
-23.3579
  0
LINE
  8
0
 10
10.0592
 20
-23.3579
 11
9.96889
 21
-23.1277
  0
LINE
  8
0
 10
9.96889
 20
-23.1277
 11
9.91386
 21
-22.8866
  0
LINE
  8
0
 10
9.91386
 20
-22.8866
 11
9.89539
 21
-22.64
  0
LINE
  8
0
 10
9.89539
 20
-22.64
 11
9.91386
 21
-22.3934
  0
LINE
  8
0
 10
9.91386
 20
-22.3934
 11
9.96889
 21
-22.1523
  0
LINE
  8
0
 10
9.96889
 20
-22.1523
 11
10.0592
 21
-21.9221
  0
LINE
  8
0
 10
10.0592
 20
-21.9221
 11
10.1829
 21
-21.7079
  0
LINE
  8
0
 10
10.1829
 20
-21.7079
 11
10.3371
 21
-21.5146
  0
LINE
  8
0
 10
10.3371
 20
-21.5146
 11
10.5184
 21
-21.3464
  0
LINE
  8
0
 10
10.5184
 20
-21.3464
 11
10.7227
 21
-21.2071
  0
LINE
  8
0
 10
10.7227
 20
-21.2071
 11
10.9455
 21
-21.0998
  0
LINE
  8
0
 10
10.9455
 20
-21.0998
 11
11.1818
 21
-21.0269
  0
LINE
  8
0
 10
11.1818
 20
-21.0269
 11
11.4264
 21
-20.99
  0
LINE
  8
0
 10
11.4264
 20
-20.99
 11
11.6737
 21
-20.99
  0
LINE
  8
0
 10
11.6737
 20
-20.99
 11
11.9182
 21
-21.0269
  0
LINE
  8
0
 10
11.9182
 20
-21.0269
 11
12.1545
 21
-21.0998
  0
LINE
  8
0
 10
12.1545
 20
-21.0998
 11
12.3773
 21
-21.2071
  0
LINE
  8
0
 10
12.3773
 20
-21.2071
 11
12.5816
 21
-21.3464
  0
LINE
  8
0
 10
12.5816
 20
-21.3464
 11
12.7629
 21
-21.5146
  0
LINE
  8
0
 10
12.7629
 20
-21.5146
 11
12.9171
 21
-21.7079
  0
LINE
  8
0
 10
12.9171
 20
-21.7079
 11
13.0408
 21
-21.9221
  0
LINE
  8
0
 10
13.0408
 20
-21.9221
 11
13.1311
 21
-22.1523
  0
LINE
  8
0
 10
13.1311
 20
-22.1523
 11
13.1862
 21
-22.3934
  0
LINE
  8
0
 10
13.1862
 20
-22.3934
 11
13.2046
 21
-22.64
  0
LINE
  8
0
 10
13.2046
 20
-22.64
 11
13.1862
 21
-22.8866
  0
LINE
  8
0
 10
13.1862
 20
-22.8866
 11
13.1311
 21
-23.1277
  0
LINE
  8
0
 10
13.1311
 20
-23.1277
 11
13.0408
 21
-23.3579
  0
LINE
  8
0
 10
13.0408
 20
-23.3579
 11
12.9171
 21
-23.5721
  0
LINE
  8
0
 10
12.9171
 20
-23.5721
 11
12.7629
 21
-23.7654
  0
LINE
  8
0
 10
12.7629
 20
-23.7654
 11
12.5816
 21
-23.9336
  0
LINE
  8
0
 10
12.5816
 20
-23.9336
 11
12.3773
 21
-24.073
  0
LINE
  8
0
 10
12.3773
 20
-24.073
 11
12.1545
 21
-24.1803
  0
LINE
  8
0
 10
12.1545
 20
-24.1803
 11
11.9182
 21
-24.2531
  0
LINE
  8
0
 10
11.9182
 20
-24.2531
 11
11.6737
 21
-24.29
  0
LINE
  8
0
 10
11.6737
 20
-24.29
 11
11.4264
 21
-24.29
  0
LINE
  8
0
 10
73.5763
 20
-24.29
 11
73.3318
 21
-24.2531
  0
LINE
  8
0
 10
73.3318
 20
-24.2531
 11
73.0955
 21
-24.1803
  0
LINE
  8
0
 10
73.0955
 20
-24.1803
 11
72.8727
 21
-24.073
  0
LINE
  8
0
 10
72.8727
 20
-24.073
 11
72.6684
 21
-23.9336
  0
LINE
  8
0
 10
72.6684
 20
-23.9336
 11
72.4871
 21
-23.7654
  0
LINE
  8
0
 10
72.4871
 20
-23.7654
 11
72.3329
 21
-23.5721
  0
LINE
  8
0
 10
72.3329
 20
-23.5721
 11
72.2092
 21
-23.3579
  0
LINE
  8
0
 10
72.2092
 20
-23.3579
 11
72.1189
 21
-23.1277
  0
LINE
  8
0
 10
72.1189
 20
-23.1277
 11
72.0638
 21
-22.8866
  0
LINE
  8
0
 10
72.0638
 20
-22.8866
 11
72.0454
 21
-22.64
  0
LINE
  8
0
 10
72.0454
 20
-22.64
 11
72.0638
 21
-22.3934
  0
LINE
  8
0
 10
72.0638
 20
-22.3934
 11
72.1189
 21
-22.1523
  0
LINE
  8
0
 10
72.1189
 20
-22.1523
 11
72.2092
 21
-21.9221
  0
LINE
  8
0
 10
72.2092
 20
-21.9221
 11
72.3329
 21
-21.7079
  0
LINE
  8
0
 10
72.3329
 20
-21.7079
 11
72.4871
 21
-21.5146
  0
LINE
  8
0
 10
72.4871
 20
-21.5146
 11
72.6684
 21
-21.3464
  0
LINE
  8
0
 10
72.6684
 20
-21.3464
 11
72.8727
 21
-21.2071
  0
LINE
  8
0
 10
72.8727
 20
-21.2071
 11
73.0955
 21
-21.0998
  0
LINE
  8
0
 10
73.0955
 20
-21.0998
 11
73.3318
 21
-21.0269
  0
LINE
  8
0
 10
73.3318
 20
-21.0269
 11
73.5763
 21
-20.99
  0
LINE
  8
0
 10
73.5763
 20
-20.99
 11
73.8236
 21
-20.99
  0
LINE
  8
0
 10
73.8236
 20
-20.99
 11
74.0682
 21
-21.0269
  0
LINE
  8
0
 10
74.0682
 20
-21.0269
 11
74.3045
 21
-21.0998
  0
LINE
  8
0
 10
74.3045
 20
-21.0998
 11
74.5273
 21
-21.2071
  0
LINE
  8
0
 10
74.5273
 20
-21.2071
 11
74.7316
 21
-21.3464
  0
LINE
  8
0
 10
74.7316
 20
-21.3464
 11
74.9129
 21
-21.5146
  0
LINE
  8
0
 10
74.9129
 20
-21.5146
 11
75.0671
 21
-21.7079
  0
LINE
  8
0
 10
75.0671
 20
-21.7079
 11
75.1908
 21
-21.9221
  0
LINE
  8
0
 10
75.1908
 20
-21.9221
 11
75.2811
 21
-22.1523
  0
LINE
  8
0
 10
75.2811
 20
-22.1523
 11
75.3361
 21
-22.3934
  0
LINE
  8
0
 10
75.3361
 20
-22.3934
 11
75.3546
 21
-22.64
  0
LINE
  8
0
 10
75.3546
 20
-22.64
 11
75.3361
 21
-22.8866
  0
LINE
  8
0
 10
75.3361
 20
-22.8866
 11
75.2811
 21
-23.1277
  0
LINE
  8
0
 10
75.2811
 20
-23.1277
 11
75.1908
 21
-23.3579
  0
LINE
  8
0
 10
75.1908
 20
-23.3579
 11
75.0671
 21
-23.5721
  0
LINE
  8
0
 10
75.0671
 20
-23.5721
 11
74.9129
 21
-23.7654
  0
LINE
  8
0
 10
74.9129
 20
-23.7654
 11
74.7316
 21
-23.9336
  0
LINE
  8
0
 10
74.7316
 20
-23.9336
 11
74.5273
 21
-24.073
  0
LINE
  8
0
 10
74.5273
 20
-24.073
 11
74.3045
 21
-24.1803
  0
LINE
  8
0
 10
74.3045
 20
-24.1803
 11
74.0682
 21
-24.2531
  0
LINE
  8
0
 10
74.0682
 20
-24.2531
 11
73.8236
 21
-24.29
  0
LINE
  8
0
 10
73.8236
 20
-24.29
 11
73.5763
 21
-24.29
  0
LINE
  8
0
 10
-15.7466
 20
-24.8862
 11
-15.9877
 21
-24.8311
  0
LINE
  8
0
 10
-15.9877
 20
-24.8311
 11
-16.2179
 21
-24.7408
  0
LINE
  8
0
 10
-16.2179
 20
-24.7408
 11
-16.4321
 21
-24.6171
  0
LINE
  8
0
 10
-16.4321
 20
-24.6171
 11
-16.6254
 21
-24.4629
  0
LINE
  8
0
 10
-16.6254
 20
-24.4629
 11
-16.7936
 21
-24.2816
  0
LINE
  8
0
 10
-16.7936
 20
-24.2816
 11
-16.933
 21
-24.0773
  0
LINE
  8
0
 10
-16.933
 20
-24.0773
 11
-17.0403
 21
-23.8545
  0
LINE
  8
0
 10
-17.0403
 20
-23.8545
 11
-17.1131
 21
-23.6182
  0
LINE
  8
0
 10
-17.1131
 20
-23.6182
 11
-17.15
 21
-23.3737
  0
LINE
  8
0
 10
-17.15
 20
-23.3737
 11
-17.15
 21
-23.1264
  0
LINE
  8
0
 10
-17.15
 20
-23.1264
 11
-17.1131
 21
-22.8818
  0
LINE
  8
0
 10
-17.1131
 20
-22.8818
 11
-17.0403
 21
-22.6455
  0
LINE
  8
0
 10
-17.0403
 20
-22.6455
 11
-16.933
 21
-22.4227
  0
LINE
  8
0
 10
-16.933
 20
-22.4227
 11
-16.7936
 21
-22.2184
  0
LINE
  8
0
 10
-16.7936
 20
-22.2184
 11
-16.6254
 21
-22.0371
  0
LINE
  8
0
 10
-16.6254
 20
-22.0371
 11
-16.4321
 21
-21.8829
  0
LINE
  8
0
 10
-16.4321
 20
-21.8829
 11
-16.2179
 21
-21.7592
  0
LINE
  8
0
 10
-16.2179
 20
-21.7592
 11
-15.9877
 21
-21.6689
  0
LINE
  8
0
 10
-15.9877
 20
-21.6689
 11
-15.7466
 21
-21.6139
  0
LINE
  8
0
 10
-15.7466
 20
-21.6139
 11
-15.5
 21
-21.5954
  0
LINE
  8
0
 10
-15.5
 20
-21.5954
 11
-15.2534
 21
-21.6139
  0
LINE
  8
0
 10
-15.2534
 20
-21.6139
 11
-15.0123
 21
-21.6689
  0
LINE
  8
0
 10
-15.0123
 20
-21.6689
 11
-14.7821
 21
-21.7592
  0
LINE
  8
0
 10
-14.7821
 20
-21.7592
 11
-14.5679
 21
-21.8829
  0
LINE
  8
0
 10
-14.5679
 20
-21.8829
 11
-14.3746
 21
-22.0371
  0
LINE
  8
0
 10
-14.3746
 20
-22.0371
 11
-14.2064
 21
-22.2184
  0
LINE
  8
0
 10
-14.2064
 20
-22.2184
 11
-14.0671
 21
-22.4227
  0
LINE
  8
0
 10
-14.0671
 20
-22.4227
 11
-13.9598
 21
-22.6455
  0
LINE
  8
0
 10
-13.9598
 20
-22.6455
 11
-13.8869
 21
-22.8818
  0
LINE
  8
0
 10
-13.8869
 20
-22.8818
 11
-13.85
 21
-23.1264
  0
LINE
  8
0
 10
-13.85
 20
-23.1264
 11
-13.85
 21
-23.3737
  0
LINE
  8
0
 10
-13.85
 20
-23.3737
 11
-13.8869
 21
-23.6182
  0
LINE
  8
0
 10
-13.8869
 20
-23.6182
 11
-13.9598
 21
-23.8545
  0
LINE
  8
0
 10
-13.9598
 20
-23.8545
 11
-14.0671
 21
-24.0773
  0
LINE
  8
0
 10
-14.0671
 20
-24.0773
 11
-14.2064
 21
-24.2816
  0
LINE
  8
0
 10
-14.2064
 20
-24.2816
 11
-14.3746
 21
-24.4629
  0
LINE
  8
0
 10
-14.3746
 20
-24.4629
 11
-14.5679
 21
-24.6171
  0
LINE
  8
0
 10
-14.5679
 20
-24.6171
 11
-14.7821
 21
-24.7408
  0
LINE
  8
0
 10
-14.7821
 20
-24.7408
 11
-15.0123
 21
-24.8311
  0
LINE
  8
0
 10
-15.0123
 20
-24.8311
 11
-15.2534
 21
-24.8862
  0
LINE
  8
0
 10
-15.2534
 20
-24.8862
 11
-15.5
 21
-24.9046
  0
LINE
  8
0
 10
-15.5
 20
-24.9046
 11
-15.7466
 21
-24.8862
  0
LINE
  8
0
 10
-64.7466
 20
-24.8862
 11
-64.9877
 21
-24.8311
  0
LINE
  8
0
 10
-64.9877
 20
-24.8311
 11
-65.2179
 21
-24.7408
  0
LINE
  8
0
 10
-65.2179
 20
-24.7408
 11
-65.4321
 21
-24.6171
  0
LINE
  8
0
 10
-65.4321
 20
-24.6171
 11
-65.6254
 21
-24.4629
  0
LINE
  8
0
 10
-65.6254
 20
-24.4629
 11
-65.7936
 21
-24.2816
  0
LINE
  8
0
 10
-65.7936
 20
-24.2816
 11
-65.9329
 21
-24.0773
  0
LINE
  8
0
 10
-65.9329
 20
-24.0773
 11
-66.0402
 21
-23.8545
  0
LINE
  8
0
 10
-66.0402
 20
-23.8545
 11
-66.1131
 21
-23.6182
  0
LINE
  8
0
 10
-66.1131
 20
-23.6182
 11
-66.15
 21
-23.3737
  0
LINE
  8
0
 10
-66.15
 20
-23.3737
 11
-66.15
 21
-23.1264
  0
LINE
  8
0
 10
-66.15
 20
-23.1264
 11
-66.1131
 21
-22.8818
  0
LINE
  8
0
 10
-66.1131
 20
-22.8818
 11
-66.0402
 21
-22.6455
  0
LINE
  8
0
 10
-66.0402
 20
-22.6455
 11
-65.9329
 21
-22.4227
  0
LINE
  8
0
 10
-65.9329
 20
-22.4227
 11
-65.7936
 21
-22.2184
  0
LINE
  8
0
 10
-65.7936
 20
-22.2184
 11
-65.6254
 21
-22.0371
  0
LINE
  8
0
 10
-65.6254
 20
-22.0371
 11
-65.4321
 21
-21.8829
  0
LINE
  8
0
 10
-65.4321
 20
-21.8829
 11
-65.2179
 21
-21.7592
  0
LINE
  8
0
 10
-65.2179
 20
-21.7592
 11
-64.9877
 21
-21.6689
  0
LINE
  8
0
 10
-64.9877
 20
-21.6689
 11
-64.7466
 21
-21.6139
  0
LINE
  8
0
 10
-64.7466
 20
-21.6139
 11
-64.5
 21
-21.5954
  0
LINE
  8
0
 10
-64.5
 20
-21.5954
 11
-64.2534
 21
-21.6139
  0
LINE
  8
0
 10
-64.2534
 20
-21.6139
 11
-64.0123
 21
-21.6689
  0
LINE
  8
0
 10
-64.0123
 20
-21.6689
 11
-63.7821
 21
-21.7592
  0
LINE
  8
0
 10
-63.7821
 20
-21.7592
 11
-63.5679
 21
-21.8829
  0
LINE
  8
0
 10
-63.5679
 20
-21.8829
 11
-63.3746
 21
-22.0371
  0
LINE
  8
0
 10
-63.3746
 20
-22.0371
 11
-63.2064
 21
-22.2184
  0
LINE
  8
0
 10
-63.2064
 20
-22.2184
 11
-63.067
 21
-22.4227
  0
LINE
  8
0
 10
-63.067
 20
-22.4227
 11
-62.9597
 21
-22.6455
  0
LINE
  8
0
 10
-62.9597
 20
-22.6455
 11
-62.8869
 21
-22.8818
  0
LINE
  8
0
 10
-62.8869
 20
-22.8818
 11
-62.85
 21
-23.1264
  0
LINE
  8
0
 10
-62.85
 20
-23.1264
 11
-62.85
 21
-23.3737
  0
LINE
  8
0
 10
-62.85
 20
-23.3737
 11
-62.8869
 21
-23.6182
  0
LINE
  8
0
 10
-62.8869
 20
-23.6182
 11
-62.9597
 21
-23.8545
  0
LINE
  8
0
 10
-62.9597
 20
-23.8545
 11
-63.067
 21
-24.0773
  0
LINE
  8
0
 10
-63.067
 20
-24.0773
 11
-63.2064
 21
-24.2816
  0
LINE
  8
0
 10
-63.2064
 20
-24.2816
 11
-63.3746
 21
-24.4629
  0
LINE
  8
0
 10
-63.3746
 20
-24.4629
 11
-63.5679
 21
-24.6171
  0
LINE
  8
0
 10
-63.5679
 20
-24.6171
 11
-63.7821
 21
-24.7408
  0
LINE
  8
0
 10
-63.7821
 20
-24.7408
 11
-64.0123
 21
-24.8311
  0
LINE
  8
0
 10
-64.0123
 20
-24.8311
 11
-64.2534
 21
-24.8862
  0
LINE
  8
0
 10
-64.2534
 20
-24.8862
 11
-64.5
 21
-24.9046
  0
LINE
  8
0
 10
-64.5
 20
-24.9046
 11
-64.7466
 21
-24.8862
  0
LINE
  8
0
 10
-6.33864
 20
-59.27
 11
-6.58318
 21
-59.2331
  0
LINE
  8
0
 10
-6.58318
 20
-59.2331
 11
-6.81949
 21
-59.1602
  0
LINE
  8
0
 10
-6.81949
 20
-59.1602
 11
-7.04231
 21
-59.0529
  0
LINE
  8
0
 10
-7.04231
 20
-59.0529
 11
-7.24663
 21
-58.9136
  0
LINE
  8
0
 10
-7.24663
 20
-58.9136
 11
-7.42792
 21
-58.7454
  0
LINE
  8
0
 10
-7.42792
 20
-58.7454
 11
-7.58211
 21
-58.5521
  0
LINE
  8
0
 10
-7.58211
 20
-58.5521
 11
-7.70576
 21
-58.3379
  0
LINE
  8
0
 10
-7.70576
 20
-58.3379
 11
-7.79611
 21
-58.1077
  0
LINE
  8
0
 10
-7.79611
 20
-58.1077
 11
-7.85114
 21
-57.8666
  0
LINE
  8
0
 10
-7.85114
 20
-57.8666
 11
-7.86961
 21
-57.62
  0
LINE
  8
0
 10
-7.86961
 20
-57.62
 11
-7.85114
 21
-57.3734
  0
LINE
  8
0
 10
-7.85114
 20
-57.3734
 11
-7.79611
 21
-57.1323
  0
LINE
  8
0
 10
-7.79611
 20
-57.1323
 11
-7.70576
 21
-56.9021
  0
LINE
  8
0
 10
-7.70576
 20
-56.9021
 11
-7.58211
 21
-56.6879
  0
LINE
  8
0
 10
-7.58211
 20
-56.6879
 11
-7.42792
 21
-56.4946
  0
LINE
  8
0
 10
-7.42792
 20
-56.4946
 11
-7.24663
 21
-56.3264
  0
LINE
  8
0
 10
-7.24663
 20
-56.3264
 11
-7.04231
 21
-56.187
  0
LINE
  8
0
 10
-7.04231
 20
-56.187
 11
-6.81949
 21
-56.0797
  0
LINE
  8
0
 10
-6.81949
 20
-56.0797
 11
-6.58318
 21
-56.0069
  0
LINE
  8
0
 10
-6.58318
 20
-56.0069
 11
-6.33864
 21
-55.97
  0
LINE
  8
0
 10
-6.33864
 20
-55.97
 11
-6.09134
 21
-55.97
  0
LINE
  8
0
 10
-6.09134
 20
-55.97
 11
-5.8468
 21
-56.0069
  0
LINE
  8
0
 10
-5.8468
 20
-56.0069
 11
-5.61049
 21
-56.0797
  0
LINE
  8
0
 10
-5.61049
 20
-56.0797
 11
-5.38768
 21
-56.187
  0
LINE
  8
0
 10
-5.38768
 20
-56.187
 11
-5.18335
 21
-56.3264
  0
LINE
  8
0
 10
-5.18335
 20
-56.3264
 11
-5.00206
 21
-56.4946
  0
LINE
  8
0
 10
-5.00206
 20
-56.4946
 11
-4.84787
 21
-56.6879
  0
LINE
  8
0
 10
-4.84787
 20
-56.6879
 11
-4.72423
 21
-56.9021
  0
LINE
  8
0
 10
-4.72423
 20
-56.9021
 11
-4.63388
 21
-57.1323
  0
LINE
  8
0
 10
-4.63388
 20
-57.1323
 11
-4.57884
 21
-57.3734
  0
LINE
  8
0
 10
-4.57884
 20
-57.3734
 11
-4.56036
 21
-57.62
  0
LINE
  8
0
 10
-4.56036
 20
-57.62
 11
-4.57884
 21
-57.8666
  0
LINE
  8
0
 10
-4.57884
 20
-57.8666
 11
-4.63388
 21
-58.1077
  0
LINE
  8
0
 10
-4.63388
 20
-58.1077
 11
-4.72423
 21
-58.3379
  0
LINE
  8
0
 10
-4.72423
 20
-58.3379
 11
-4.84787
 21
-58.5521
  0
LINE
  8
0
 10
-4.84787
 20
-58.5521
 11
-5.00206
 21
-58.7454
  0
LINE
  8
0
 10
-5.00206
 20
-58.7454
 11
-5.18335
 21
-58.9136
  0
LINE
  8
0
 10
-5.18335
 20
-58.9136
 11
-5.38768
 21
-59.0529
  0
LINE
  8
0
 10
-5.38768
 20
-59.0529
 11
-5.61049
 21
-59.1602
  0
LINE
  8
0
 10
-5.61049
 20
-59.1602
 11
-5.8468
 21
-59.2331
  0
LINE
  8
0
 10
-5.8468
 20
-59.2331
 11
-6.09134
 21
-59.27
  0
LINE
  8
0
 10
-6.09134
 20
-59.27
 11
-6.33864
 21
-59.27
  0
LINE
  8
0
 10
25.4614
 20
-61.92
 11
25.2168
 21
-61.8831
  0
LINE
  8
0
 10
25.2168
 20
-61.8831
 11
24.9805
 21
-61.8102
  0
LINE
  8
0
 10
24.9805
 20
-61.8102
 11
24.7577
 21
-61.7029
  0
LINE
  8
0
 10
24.7577
 20
-61.7029
 11
24.5534
 21
-61.5636
  0
LINE
  8
0
 10
24.5534
 20
-61.5636
 11
24.3721
 21
-61.3954
  0
LINE
  8
0
 10
24.3721
 20
-61.3954
 11
24.2179
 21
-61.2021
  0
LINE
  8
0
 10
24.2179
 20
-61.2021
 11
24.0942
 21
-60.9879
  0
LINE
  8
0
 10
24.0942
 20
-60.9879
 11
24.0039
 21
-60.7577
  0
LINE
  8
0
 10
24.0039
 20
-60.7577
 11
23.9489
 21
-60.5166
  0
LINE
  8
0
 10
23.9489
 20
-60.5166
 11
23.9304
 21
-60.27
  0
LINE
  8
0
 10
23.9304
 20
-60.27
 11
23.9489
 21
-60.0234
  0
LINE
  8
0
 10
23.9489
 20
-60.0234
 11
24.0039
 21
-59.7823
  0
LINE
  8
0
 10
24.0039
 20
-59.7823
 11
24.0942
 21
-59.5521
  0
LINE
  8
0
 10
24.0942
 20
-59.5521
 11
24.2179
 21
-59.3379
  0
LINE
  8
0
 10
24.2179
 20
-59.3379
 11
24.3721
 21
-59.1446
  0
LINE
  8
0
 10
24.3721
 20
-59.1446
 11
24.5534
 21
-58.9763
  0
LINE
  8
0
 10
24.5534
 20
-58.9763
 11
24.7577
 21
-58.837
  0
LINE
  8
0
 10
24.7577
 20
-58.837
 11
24.9805
 21
-58.7297
  0
LINE
  8
0
 10
24.9805
 20
-58.7297
 11
25.2168
 21
-58.6568
  0
LINE
  8
0
 10
25.2168
 20
-58.6568
 11
25.4614
 21
-58.62
  0
LINE
  8
0
 10
25.4614
 20
-58.62
 11
25.7087
 21
-58.62
  0
LINE
  8
0
 10
25.7087
 20
-58.62
 11
25.9532
 21
-58.6568
  0
LINE
  8
0
 10
25.9532
 20
-58.6568
 11
26.1895
 21
-58.7297
  0
LINE
  8
0
 10
26.1895
 20
-58.7297
 11
26.4123
 21
-58.837
  0
LINE
  8
0
 10
26.4123
 20
-58.837
 11
26.6167
 21
-58.9763
  0
LINE
  8
0
 10
26.6167
 20
-58.9763
 11
26.7979
 21
-59.1446
  0
LINE
  8
0
 10
26.7979
 20
-59.1446
 11
26.9521
 21
-59.3379
  0
LINE
  8
0
 10
26.9521
 20
-59.3379
 11
27.0758
 21
-59.5521
  0
LINE
  8
0
 10
27.0758
 20
-59.5521
 11
27.1661
 21
-59.7823
  0
LINE
  8
0
 10
27.1661
 20
-59.7823
 11
27.2212
 21
-60.0234
  0
LINE
  8
0
 10
27.2212
 20
-60.0234
 11
27.2396
 21
-60.27
  0
LINE
  8
0
 10
27.2396
 20
-60.27
 11
27.2212
 21
-60.5166
  0
LINE
  8
0
 10
27.2212
 20
-60.5166
 11
27.1661
 21
-60.7577
  0
LINE
  8
0
 10
27.1661
 20
-60.7577
 11
27.0758
 21
-60.9879
  0
LINE
  8
0
 10
27.0758
 20
-60.9879
 11
26.9521
 21
-61.2021
  0
LINE
  8
0
 10
26.9521
 20
-61.2021
 11
26.7979
 21
-61.3954
  0
LINE
  8
0
 10
26.7979
 20
-61.3954
 11
26.6167
 21
-61.5636
  0
LINE
  8
0
 10
26.6167
 20
-61.5636
 11
26.4123
 21
-61.7029
  0
LINE
  8
0
 10
26.4123
 20
-61.7029
 11
26.1895
 21
-61.8102
  0
LINE
  8
0
 10
26.1895
 20
-61.8102
 11
25.9532
 21
-61.8831
  0
LINE
  8
0
 10
25.9532
 20
-61.8831
 11
25.7087
 21
-61.92
  0
LINE
  8
0
 10
25.7087
 20
-61.92
 11
25.4614
 21
-61.92
  0
LINE
  8
0
 10
-15.7466
 20
-82.8861
 11
-15.9877
 21
-82.8311
  0
LINE
  8
0
 10
-15.9877
 20
-82.8311
 11
-16.2179
 21
-82.7408
  0
LINE
  8
0
 10
-16.2179
 20
-82.7408
 11
-16.4321
 21
-82.6171
  0
LINE
  8
0
 10
-16.4321
 20
-82.6171
 11
-16.6254
 21
-82.4629
  0
LINE
  8
0
 10
-16.6254
 20
-82.4629
 11
-16.7936
 21
-82.2816
  0
LINE
  8
0
 10
-16.7936
 20
-82.2816
 11
-16.933
 21
-82.0773
  0
LINE
  8
0
 10
-16.933
 20
-82.0773
 11
-17.0403
 21
-81.8545
  0
LINE
  8
0
 10
-17.0403
 20
-81.8545
 11
-17.1131
 21
-81.6182
  0
LINE
  8
0
 10
-17.1131
 20
-81.6182
 11
-17.15
 21
-81.3736
  0
LINE
  8
0
 10
-17.15
 20
-81.3736
 11
-17.15
 21
-81.1263
  0
LINE
  8
0
 10
-17.15
 20
-81.1263
 11
-17.1131
 21
-80.8818
  0
LINE
  8
0
 10
-17.1131
 20
-80.8818
 11
-17.0403
 21
-80.6455
  0
LINE
  8
0
 10
-17.0403
 20
-80.6455
 11
-16.933
 21
-80.4227
  0
LINE
  8
0
 10
-16.933
 20
-80.4227
 11
-16.7936
 21
-80.2184
  0
LINE
  8
0
 10
-16.7936
 20
-80.2184
 11
-16.6254
 21
-80.0371
  0
LINE
  8
0
 10
-16.6254
 20
-80.0371
 11
-16.4321
 21
-79.8829
  0
LINE
  8
0
 10
-16.4321
 20
-79.8829
 11
-16.2179
 21
-79.7592
  0
LINE
  8
0
 10
-16.2179
 20
-79.7592
 11
-15.9877
 21
-79.6689
  0
LINE
  8
0
 10
-15.9877
 20
-79.6689
 11
-15.7466
 21
-79.6138
  0
LINE
  8
0
 10
-15.7466
 20
-79.6138
 11
-15.5
 21
-79.5954
  0
LINE
  8
0
 10
-15.5
 20
-79.5954
 11
-15.2534
 21
-79.6138
  0
LINE
  8
0
 10
-15.2534
 20
-79.6138
 11
-15.0123
 21
-79.6689
  0
LINE
  8
0
 10
-15.0123
 20
-79.6689
 11
-14.7821
 21
-79.7592
  0
LINE
  8
0
 10
-14.7821
 20
-79.7592
 11
-14.5679
 21
-79.8829
  0
LINE
  8
0
 10
-14.5679
 20
-79.8829
 11
-14.3746
 21
-80.0371
  0
LINE
  8
0
 10
-14.3746
 20
-80.0371
 11
-14.2064
 21
-80.2184
  0
LINE
  8
0
 10
-14.2064
 20
-80.2184
 11
-14.0671
 21
-80.4227
  0
LINE
  8
0
 10
-14.0671
 20
-80.4227
 11
-13.9598
 21
-80.6455
  0
LINE
  8
0
 10
-13.9598
 20
-80.6455
 11
-13.8869
 21
-80.8818
  0
LINE
  8
0
 10
-13.8869
 20
-80.8818
 11
-13.85
 21
-81.1263
  0
LINE
  8
0
 10
-13.85
 20
-81.1263
 11
-13.85
 21
-81.3736
  0
LINE
  8
0
 10
-13.85
 20
-81.3736
 11
-13.8869
 21
-81.6182
  0
LINE
  8
0
 10
-13.8869
 20
-81.6182
 11
-13.9598
 21
-81.8545
  0
LINE
  8
0
 10
-13.9598
 20
-81.8545
 11
-14.0671
 21
-82.0773
  0
LINE
  8
0
 10
-14.0671
 20
-82.0773
 11
-14.2064
 21
-82.2816
  0
LINE
  8
0
 10
-14.2064
 20
-82.2816
 11
-14.3746
 21
-82.4629
  0
LINE
  8
0
 10
-14.3746
 20
-82.4629
 11
-14.5679
 21
-82.6171
  0
LINE
  8
0
 10
-14.5679
 20
-82.6171
 11
-14.7821
 21
-82.7408
  0
LINE
  8
0
 10
-14.7821
 20
-82.7408
 11
-15.0123
 21
-82.8311
  0
LINE
  8
0
 10
-15.0123
 20
-82.8311
 11
-15.2534
 21
-82.8861
  0
LINE
  8
0
 10
-15.2534
 20
-82.8861
 11
-15.5
 21
-82.9046
  0
LINE
  8
0
 10
-15.5
 20
-82.9046
 11
-15.7466
 21
-82.8861
  0
LINE
  8
0
 10
-64.7466
 20
-82.8861
 11
-64.9877
 21
-82.8311
  0
LINE
  8
0
 10
-64.9877
 20
-82.8311
 11
-65.2179
 21
-82.7408
  0
LINE
  8
0
 10
-65.2179
 20
-82.7408
 11
-65.4321
 21
-82.6171
  0
LINE
  8
0
 10
-65.4321
 20
-82.6171
 11
-65.6254
 21
-82.4629
  0
LINE
  8
0
 10
-65.6254
 20
-82.4629
 11
-65.7936
 21
-82.2816
  0
LINE
  8
0
 10
-65.7936
 20
-82.2816
 11
-65.9329
 21
-82.0773
  0
LINE
  8
0
 10
-65.9329
 20
-82.0773
 11
-66.0402
 21
-81.8545
  0
LINE
  8
0
 10
-66.0402
 20
-81.8545
 11
-66.1131
 21
-81.6182
  0
LINE
  8
0
 10
-66.1131
 20
-81.6182
 11
-66.15
 21
-81.3736
  0
LINE
  8
0
 10
-66.15
 20
-81.3736
 11
-66.15
 21
-81.1263
  0
LINE
  8
0
 10
-66.15
 20
-81.1263
 11
-66.1131
 21
-80.8818
  0
LINE
  8
0
 10
-66.1131
 20
-80.8818
 11
-66.0402
 21
-80.6455
  0
LINE
  8
0
 10
-66.0402
 20
-80.6455
 11
-65.9329
 21
-80.4227
  0
LINE
  8
0
 10
-65.9329
 20
-80.4227
 11
-65.7936
 21
-80.2184
  0
LINE
  8
0
 10
-65.7936
 20
-80.2184
 11
-65.6254
 21
-80.0371
  0
LINE
  8
0
 10
-65.6254
 20
-80.0371
 11
-65.4321
 21
-79.8829
  0
LINE
  8
0
 10
-65.4321
 20
-79.8829
 11
-65.2179
 21
-79.7592
  0
LINE
  8
0
 10
-65.2179
 20
-79.7592
 11
-64.9877
 21
-79.6689
  0
LINE
  8
0
 10
-64.9877
 20
-79.6689
 11
-64.7466
 21
-79.6138
  0
LINE
  8
0
 10
-64.7466
 20
-79.6138
 11
-64.5
 21
-79.5954
  0
LINE
  8
0
 10
-64.5
 20
-79.5954
 11
-64.2534
 21
-79.6138
  0
LINE
  8
0
 10
-64.2534
 20
-79.6138
 11
-64.0123
 21
-79.6689
  0
LINE
  8
0
 10
-64.0123
 20
-79.6689
 11
-63.7821
 21
-79.7592
  0
LINE
  8
0
 10
-63.7821
 20
-79.7592
 11
-63.5679
 21
-79.8829
  0
LINE
  8
0
 10
-63.5679
 20
-79.8829
 11
-63.3746
 21
-80.0371
  0
LINE
  8
0
 10
-63.3746
 20
-80.0371
 11
-63.2064
 21
-80.2184
  0
LINE
  8
0
 10
-63.2064
 20
-80.2184
 11
-63.067
 21
-80.4227
  0
LINE
  8
0
 10
-63.067
 20
-80.4227
 11
-62.9597
 21
-80.6455
  0
LINE
  8
0
 10
-62.9597
 20
-80.6455
 11
-62.8869
 21
-80.8818
  0
LINE
  8
0
 10
-62.8869
 20
-80.8818
 11
-62.85
 21
-81.1263
  0
LINE
  8
0
 10
-62.85
 20
-81.1263
 11
-62.85
 21
-81.3736
  0
LINE
  8
0
 10
-62.85
 20
-81.3736
 11
-62.8869
 21
-81.6182
  0
LINE
  8
0
 10
-62.8869
 20
-81.6182
 11
-62.9597
 21
-81.8545
  0
LINE
  8
0
 10
-62.9597
 20
-81.8545
 11
-63.067
 21
-82.0773
  0
LINE
  8
0
 10
-63.067
 20
-82.0773
 11
-63.2064
 21
-82.2816
  0
LINE
  8
0
 10
-63.2064
 20
-82.2816
 11
-63.3746
 21
-82.4629
  0
LINE
  8
0
 10
-63.3746
 20
-82.4629
 11
-63.5679
 21
-82.6171
  0
LINE
  8
0
 10
-63.5679
 20
-82.6171
 11
-63.7821
 21
-82.7408
  0
LINE
  8
0
 10
-63.7821
 20
-82.7408
 11
-64.0123
 21
-82.8311
  0
LINE
  8
0
 10
-64.0123
 20
-82.8311
 11
-64.2534
 21
-82.8861
  0
LINE
  8
0
 10
-64.2534
 20
-82.8861
 11
-64.5
 21
-82.9046
  0
LINE
  8
0
 10
-64.5
 20
-82.9046
 11
-64.7466
 21
-82.8861
  0
LINE
  8
0
 10
103.753
 20
-83.6362
 11
103.512
 21
-83.5811
  0
LINE
  8
0
 10
103.512
 20
-83.5811
 11
103.282
 21
-83.4908
  0
LINE
  8
0
 10
103.282
 20
-83.4908
 11
103.068
 21
-83.3671
  0
LINE
  8
0
 10
103.068
 20
-83.3671
 11
102.875
 21
-83.2129
  0
LINE
  8
0
 10
102.875
 20
-83.2129
 11
102.706
 21
-83.0316
  0
LINE
  8
0
 10
102.706
 20
-83.0316
 11
102.567
 21
-82.8273
  0
LINE
  8
0
 10
102.567
 20
-82.8273
 11
102.46
 21
-82.6045
  0
LINE
  8
0
 10
102.46
 20
-82.6045
 11
102.387
 21
-82.3682
  0
LINE
  8
0
 10
102.387
 20
-82.3682
 11
102.35
 21
-82.1237
  0
LINE
  8
0
 10
102.35
 20
-82.1237
 11
102.35
 21
-81.8764
  0
LINE
  8
0
 10
102.35
 20
-81.8764
 11
102.387
 21
-81.6318
  0
LINE
  8
0
 10
102.387
 20
-81.6318
 11
102.46
 21
-81.3955
  0
LINE
  8
0
 10
102.46
 20
-81.3955
 11
102.567
 21
-81.1727
  0
LINE
  8
0
 10
102.567
 20
-81.1727
 11
102.706
 21
-80.9684
  0
LINE
  8
0
 10
102.706
 20
-80.9684
 11
102.875
 21
-80.7871
  0
LINE
  8
0
 10
102.875
 20
-80.7871
 11
103.068
 21
-80.6329
  0
LINE
  8
0
 10
103.068
 20
-80.6329
 11
103.282
 21
-80.5092
  0
LINE
  8
0
 10
103.282
 20
-80.5092
 11
103.512
 21
-80.4189
  0
LINE
  8
0
 10
103.512
 20
-80.4189
 11
103.753
 21
-80.3639
  0
LINE
  8
0
 10
103.753
 20
-80.3639
 11
104
 21
-80.3454
  0
LINE
  8
0
 10
104
 20
-80.3454
 11
104.247
 21
-80.3639
  0
LINE
  8
0
 10
104.247
 20
-80.3639
 11
104.488
 21
-80.4189
  0
LINE
  8
0
 10
104.488
 20
-80.4189
 11
104.718
 21
-80.5092
  0
LINE
  8
0
 10
104.718
 20
-80.5092
 11
104.932
 21
-80.6329
  0
LINE
  8
0
 10
104.932
 20
-80.6329
 11
105.125
 21
-80.7871
  0
LINE
  8
0
 10
105.125
 20
-80.7871
 11
105.294
 21
-80.9684
  0
LINE
  8
0
 10
105.294
 20
-80.9684
 11
105.433
 21
-81.1727
  0
LINE
  8
0
 10
105.433
 20
-81.1727
 11
105.54
 21
-81.3955
  0
LINE
  8
0
 10
105.54
 20
-81.3955
 11
105.613
 21
-81.6318
  0
LINE
  8
0
 10
105.613
 20
-81.6318
 11
105.65
 21
-81.8764
  0
LINE
  8
0
 10
105.65
 20
-81.8764
 11
105.65
 21
-82.1237
  0
LINE
  8
0
 10
105.65
 20
-82.1237
 11
105.613
 21
-82.3682
  0
LINE
  8
0
 10
105.613
 20
-82.3682
 11
105.54
 21
-82.6045
  0
LINE
  8
0
 10
105.54
 20
-82.6045
 11
105.433
 21
-82.8273
  0
LINE
  8
0
 10
105.433
 20
-82.8273
 11
105.294
 21
-83.0316
  0
LINE
  8
0
 10
105.294
 20
-83.0316
 11
105.125
 21
-83.2129
  0
LINE
  8
0
 10
105.125
 20
-83.2129
 11
104.932
 21
-83.3671
  0
LINE
  8
0
 10
104.932
 20
-83.3671
 11
104.718
 21
-83.4908
  0
LINE
  8
0
 10
104.718
 20
-83.4908
 11
104.488
 21
-83.5811
  0
LINE
  8
0
 10
104.488
 20
-83.5811
 11
104.247
 21
-83.6362
  0
LINE
  8
0
 10
104.247
 20
-83.6362
 11
104
 21
-83.6546
  0
LINE
  8
0
 10
104
 20
-83.6546
 11
103.753
 21
-83.6362
  0
LINE
  8
0
 10
-104.247
 20
-83.6362
 11
-104.488
 21
-83.5811
  0
LINE
  8
0
 10
-104.488
 20
-83.5811
 11
-104.718
 21
-83.4908
  0
LINE
  8
0
 10
-104.718
 20
-83.4908
 11
-104.932
 21
-83.3671
  0
LINE
  8
0
 10
-104.932
 20
-83.3671
 11
-105.125
 21
-83.2129
  0
LINE
  8
0
 10
-105.125
 20
-83.2129
 11
-105.294
 21
-83.0316
  0
LINE
  8
0
 10
-105.294
 20
-83.0316
 11
-105.433
 21
-82.8273
  0
LINE
  8
0
 10
-105.433
 20
-82.8273
 11
-105.54
 21
-82.6045
  0
LINE
  8
0
 10
-105.54
 20
-82.6045
 11
-105.613
 21
-82.3682
  0
LINE
  8
0
 10
-105.613
 20
-82.3682
 11
-105.65
 21
-82.1237
  0
LINE
  8
0
 10
-105.65
 20
-82.1237
 11
-105.65
 21
-81.8764
  0
LINE
  8
0
 10
-105.65
 20
-81.8764
 11
-105.613
 21
-81.6318
  0
LINE
  8
0
 10
-105.613
 20
-81.6318
 11
-105.54
 21
-81.3955
  0
LINE
  8
0
 10
-105.54
 20
-81.3955
 11
-105.433
 21
-81.1727
  0
LINE
  8
0
 10
-105.433
 20
-81.1727
 11
-105.294
 21
-80.9684
  0
LINE
  8
0
 10
-105.294
 20
-80.9684
 11
-105.125
 21
-80.7871
  0
LINE
  8
0
 10
-105.125
 20
-80.7871
 11
-104.932
 21
-80.6329
  0
LINE
  8
0
 10
-104.932
 20
-80.6329
 11
-104.718
 21
-80.5092
  0
LINE
  8
0
 10
-104.718
 20
-80.5092
 11
-104.488
 21
-80.4189
  0
LINE
  8
0
 10
-104.488
 20
-80.4189
 11
-104.247
 21
-80.3639
  0
LINE
  8
0
 10
-104.247
 20
-80.3639
 11
-104
 21
-80.3454
  0
LINE
  8
0
 10
-104
 20
-80.3454
 11
-103.753
 21
-80.3639
  0
LINE
  8
0
 10
-103.753
 20
-80.3639
 11
-103.512
 21
-80.4189
  0
LINE
  8
0
 10
-103.512
 20
-80.4189
 11
-103.282
 21
-80.5092
  0
LINE
  8
0
 10
-103.282
 20
-80.5092
 11
-103.068
 21
-80.6329
  0
LINE
  8
0
 10
-103.068
 20
-80.6329
 11
-102.875
 21
-80.7871
  0
LINE
  8
0
 10
-102.875
 20
-80.7871
 11
-102.706
 21
-80.9684
  0
LINE
  8
0
 10
-102.706
 20
-80.9684
 11
-102.567
 21
-81.1727
  0
LINE
  8
0
 10
-102.567
 20
-81.1727
 11
-102.46
 21
-81.3955
  0
LINE
  8
0
 10
-102.46
 20
-81.3955
 11
-102.387
 21
-81.6318
  0
LINE
  8
0
 10
-102.387
 20
-81.6318
 11
-102.35
 21
-81.8764
  0
LINE
  8
0
 10
-102.35
 20
-81.8764
 11
-102.35
 21
-82.1237
  0
LINE
  8
0
 10
-102.35
 20
-82.1237
 11
-102.387
 21
-82.3682
  0
LINE
  8
0
 10
-102.387
 20
-82.3682
 11
-102.46
 21
-82.6045
  0
LINE
  8
0
 10
-102.46
 20
-82.6045
 11
-102.567
 21
-82.8273
  0
LINE
  8
0
 10
-102.567
 20
-82.8273
 11
-102.706
 21
-83.0316
  0
LINE
  8
0
 10
-102.706
 20
-83.0316
 11
-102.875
 21
-83.2129
  0
LINE
  8
0
 10
-102.875
 20
-83.2129
 11
-103.068
 21
-83.3671
  0
LINE
  8
0
 10
-103.068
 20
-83.3671
 11
-103.282
 21
-83.4908
  0
LINE
  8
0
 10
-103.282
 20
-83.4908
 11
-103.512
 21
-83.5811
  0
LINE
  8
0
 10
-103.512
 20
-83.5811
 11
-103.753
 21
-83.6362
  0
LINE
  8
0
 10
-103.753
 20
-83.6362
 11
-104
 21
-83.6546
  0
LINE
  8
0
 10
-104
 20
-83.6546
 11
-104.247
 21
-83.6362
  0
LINE
  8
0
 10
35.0867
 20
-97.6362
 11
34.8456
 21
-97.5811
  0
LINE
  8
0
 10
34.8456
 20
-97.5811
 11
34.6154
 21
-97.4908
  0
LINE
  8
0
 10
34.6154
 20
-97.4908
 11
34.4012
 21
-97.3671
  0
LINE
  8
0
 10
34.4012
 20
-97.3671
 11
34.2079
 21
-97.2129
  0
LINE
  8
0
 10
34.2079
 20
-97.2129
 11
34.0397
 21
-97.0316
  0
LINE
  8
0
 10
34.0397
 20
-97.0316
 11
33.9004
 21
-96.8273
  0
LINE
  8
0
 10
33.9004
 20
-96.8273
 11
33.7931
 21
-96.6045
  0
LINE
  8
0
 10
33.7931
 20
-96.6045
 11
33.7202
 21
-96.3682
  0
LINE
  8
0
 10
33.7202
 20
-96.3682
 11
33.6833
 21
-96.1237
  0
LINE
  8
0
 10
33.6833
 20
-96.1237
 11
33.6833
 21
-95.8764
  0
LINE
  8
0
 10
33.6833
 20
-95.8764
 11
33.7202
 21
-95.6318
  0
LINE
  8
0
 10
33.7202
 20
-95.6318
 11
33.7931
 21
-95.3955
  0
LINE
  8
0
 10
33.7931
 20
-95.3955
 11
33.9004
 21
-95.1727
  0
LINE
  8
0
 10
33.9004
 20
-95.1727
 11
34.0397
 21
-94.9684
  0
LINE
  8
0
 10
34.0397
 20
-94.9684
 11
34.2079
 21
-94.7871
  0
LINE
  8
0
 10
34.2079
 20
-94.7871
 11
34.4012
 21
-94.6329
  0
LINE
  8
0
 10
34.4012
 20
-94.6329
 11
34.6154
 21
-94.5092
  0
LINE
  8
0
 10
34.6154
 20
-94.5092
 11
34.8456
 21
-94.4189
  0
LINE
  8
0
 10
34.8456
 20
-94.4189
 11
35.0867
 21
-94.3639
  0
LINE
  8
0
 10
35.0867
 20
-94.3639
 11
35.3333
 21
-94.3454
  0
LINE
  8
0
 10
35.3333
 20
-94.3454
 11
35.5799
 21
-94.3639
  0
LINE
  8
0
 10
35.5799
 20
-94.3639
 11
35.821
 21
-94.4189
  0
LINE
  8
0
 10
35.821
 20
-94.4189
 11
36.0512
 21
-94.5092
  0
LINE
  8
0
 10
36.0512
 20
-94.5092
 11
36.2654
 21
-94.6329
  0
LINE
  8
0
 10
36.2654
 20
-94.6329
 11
36.4588
 21
-94.7871
  0
LINE
  8
0
 10
36.4588
 20
-94.7871
 11
36.627
 21
-94.9684
  0
LINE
  8
0
 10
36.627
 20
-94.9684
 11
36.7663
 21
-95.1727
  0
LINE
  8
0
 10
36.7663
 20
-95.1727
 11
36.8736
 21
-95.3955
  0
LINE
  8
0
 10
36.8736
 20
-95.3955
 11
36.9465
 21
-95.6318
  0
LINE
  8
0
 10
36.9465
 20
-95.6318
 11
36.9833
 21
-95.8764
  0
LINE
  8
0
 10
36.9833
 20
-95.8764
 11
36.9833
 21
-96.1237
  0
LINE
  8
0
 10
36.9833
 20
-96.1237
 11
36.9465
 21
-96.3682
  0
LINE
  8
0
 10
36.9465
 20
-96.3682
 11
36.8736
 21
-96.6045
  0
LINE
  8
0
 10
36.8736
 20
-96.6045
 11
36.7663
 21
-96.8273
  0
LINE
  8
0
 10
36.7663
 20
-96.8273
 11
36.627
 21
-97.0316
  0
LINE
  8
0
 10
36.627
 20
-97.0316
 11
36.4588
 21
-97.2129
  0
LINE
  8
0
 10
36.4588
 20
-97.2129
 11
36.2654
 21
-97.3671
  0
LINE
  8
0
 10
36.2654
 20
-97.3671
 11
36.0512
 21
-97.4908
  0
LINE
  8
0
 10
36.0512
 20
-97.4908
 11
35.821
 21
-97.5811
  0
LINE
  8
0
 10
35.821
 20
-97.5811
 11
35.5799
 21
-97.6362
  0
LINE
  8
0
 10
35.5799
 20
-97.6362
 11
35.3333
 21
-97.6546
  0
LINE
  8
0
 10
35.3333
 20
-97.6546
 11
35.0867
 21
-97.6362
  0
LINE
  8
0
 10
-35.58
 20
-97.6362
 11
-35.821
 21
-97.5811
  0
LINE
  8
0
 10
-35.821
 20
-97.5811
 11
-36.0513
 21
-97.4908
  0
LINE
  8
0
 10
-36.0513
 20
-97.4908
 11
-36.2654
 21
-97.3671
  0
LINE
  8
0
 10
-36.2654
 20
-97.3671
 11
-36.4588
 21
-97.2129
  0
LINE
  8
0
 10
-36.4588
 20
-97.2129
 11
-36.627
 21
-97.0316
  0
LINE
  8
0
 10
-36.627
 20
-97.0316
 11
-36.7663
 21
-96.8273
  0
LINE
  8
0
 10
-36.7663
 20
-96.8273
 11
-36.8736
 21
-96.6045
  0
LINE
  8
0
 10
-36.8736
 20
-96.6045
 11
-36.9465
 21
-96.3682
  0
LINE
  8
0
 10
-36.9465
 20
-96.3682
 11
-36.9833
 21
-96.1237
  0
LINE
  8
0
 10
-36.9833
 20
-96.1237
 11
-36.9833
 21
-95.8764
  0
LINE
  8
0
 10
-36.9833
 20
-95.8764
 11
-36.9465
 21
-95.6318
  0
LINE
  8
0
 10
-36.9465
 20
-95.6318
 11
-36.8736
 21
-95.3955
  0
LINE
  8
0
 10
-36.8736
 20
-95.3955
 11
-36.7663
 21
-95.1727
  0
LINE
  8
0
 10
-36.7663
 20
-95.1727
 11
-36.627
 21
-94.9684
  0
LINE
  8
0
 10
-36.627
 20
-94.9684
 11
-36.4588
 21
-94.7871
  0
LINE
  8
0
 10
-36.4588
 20
-94.7871
 11
-36.2654
 21
-94.6329
  0
LINE
  8
0
 10
-36.2654
 20
-94.6329
 11
-36.0513
 21
-94.5092
  0
LINE
  8
0
 10
-36.0513
 20
-94.5092
 11
-35.821
 21
-94.4189
  0
LINE
  8
0
 10
-35.821
 20
-94.4189
 11
-35.58
 21
-94.3639
  0
LINE
  8
0
 10
-35.58
 20
-94.3639
 11
-35.3333
 21
-94.3454
  0
LINE
  8
0
 10
-35.3333
 20
-94.3454
 11
-35.0867
 21
-94.3639
  0
LINE
  8
0
 10
-35.0867
 20
-94.3639
 11
-34.8456
 21
-94.4189
  0
LINE
  8
0
 10
-34.8456
 20
-94.4189
 11
-34.6154
 21
-94.5092
  0
LINE
  8
0
 10
-34.6154
 20
-94.5092
 11
-34.4013
 21
-94.6329
  0
LINE
  8
0
 10
-34.4013
 20
-94.6329
 11
-34.2079
 21
-94.7871
  0
LINE
  8
0
 10
-34.2079
 20
-94.7871
 11
-34.0397
 21
-94.9684
  0
LINE
  8
0
 10
-34.0397
 20
-94.9684
 11
-33.9004
 21
-95.1727
  0
LINE
  8
0
 10
-33.9004
 20
-95.1727
 11
-33.7931
 21
-95.3955
  0
LINE
  8
0
 10
-33.7931
 20
-95.3955
 11
-33.7202
 21
-95.6318
  0
LINE
  8
0
 10
-33.7202
 20
-95.6318
 11
-33.6833
 21
-95.8764
  0
LINE
  8
0
 10
-33.6833
 20
-95.8764
 11
-33.6833
 21
-96.1237
  0
LINE
  8
0
 10
-33.6833
 20
-96.1237
 11
-33.7202
 21
-96.3682
  0
LINE
  8
0
 10
-33.7202
 20
-96.3682
 11
-33.7931
 21
-96.6045
  0
LINE
  8
0
 10
-33.7931
 20
-96.6045
 11
-33.9004
 21
-96.8273
  0
LINE
  8
0
 10
-33.9004
 20
-96.8273
 11
-34.0397
 21
-97.0316
  0
LINE
  8
0
 10
-34.0397
 20
-97.0316
 11
-34.2079
 21
-97.2129
  0
LINE
  8
0
 10
-34.2079
 20
-97.2129
 11
-34.4013
 21
-97.3671
  0
LINE
  8
0
 10
-34.4013
 20
-97.3671
 11
-34.6154
 21
-97.4908
  0
LINE
  8
0
 10
-34.6154
 20
-97.4908
 11
-34.8456
 21
-97.5811
  0
LINE
  8
0
 10
-34.8456
 20
-97.5811
 11
-35.0867
 21
-97.6362
  0
LINE
  8
0
 10
-35.0867
 20
-97.6362
 11
-35.3333
 21
-97.6546
  0
LINE
  8
0
 10
-35.3333
 20
-97.6546
 11
-35.58
 21
-97.6362
  0
LINE
  8
0
 10
89.7534
 20
-97.6362
 11
89.5123
 21
-97.5811
  0
LINE
  8
0
 10
89.5123
 20
-97.5811
 11
89.2821
 21
-97.4908
  0
LINE
  8
0
 10
89.2821
 20
-97.4908
 11
89.0679
 21
-97.3671
  0
LINE
  8
0
 10
89.0679
 20
-97.3671
 11
88.8746
 21
-97.2129
  0
LINE
  8
0
 10
88.8746
 20
-97.2129
 11
88.7064
 21
-97.0316
  0
LINE
  8
0
 10
88.7064
 20
-97.0316
 11
88.567
 21
-96.8273
  0
LINE
  8
0
 10
88.567
 20
-96.8273
 11
88.4597
 21
-96.6045
  0
LINE
  8
0
 10
88.4597
 20
-96.6045
 11
88.3869
 21
-96.3682
  0
LINE
  8
0
 10
88.3869
 20
-96.3682
 11
88.35
 21
-96.1237
  0
LINE
  8
0
 10
88.35
 20
-96.1237
 11
88.35
 21
-95.8764
  0
LINE
  8
0
 10
88.35
 20
-95.8764
 11
88.3869
 21
-95.6318
  0
LINE
  8
0
 10
88.3869
 20
-95.6318
 11
88.4597
 21
-95.3955
  0
LINE
  8
0
 10
88.4597
 20
-95.3955
 11
88.567
 21
-95.1727
  0
LINE
  8
0
 10
88.567
 20
-95.1727
 11
88.7064
 21
-94.9684
  0
LINE
  8
0
 10
88.7064
 20
-94.9684
 11
88.8746
 21
-94.7871
  0
LINE
  8
0
 10
88.8746
 20
-94.7871
 11
89.0679
 21
-94.6329
  0
LINE
  8
0
 10
89.0679
 20
-94.6329
 11
89.2821
 21
-94.5092
  0
LINE
  8
0
 10
89.2821
 20
-94.5092
 11
89.5123
 21
-94.4189
  0
LINE
  8
0
 10
89.5123
 20
-94.4189
 11
89.7534
 21
-94.3639
  0
LINE
  8
0
 10
89.7534
 20
-94.3639
 11
90
 21
-94.3454
  0
LINE
  8
0
 10
90
 20
-94.3454
 11
90.2466
 21
-94.3639
  0
LINE
  8
0
 10
90.2466
 20
-94.3639
 11
90.4877
 21
-94.4189
  0
LINE
  8
0
 10
90.4877
 20
-94.4189
 11
90.7179
 21
-94.5092
  0
LINE
  8
0
 10
90.7179
 20
-94.5092
 11
90.9321
 21
-94.6329
  0
LINE
  8
0
 10
90.9321
 20
-94.6329
 11
91.1254
 21
-94.7871
  0
LINE
  8
0
 10
91.1254
 20
-94.7871
 11
91.2936
 21
-94.9684
  0
LINE
  8
0
 10
91.2936
 20
-94.9684
 11
91.4329
 21
-95.1727
  0
LINE
  8
0
 10
91.4329
 20
-95.1727
 11
91.5402
 21
-95.3955
  0
LINE
  8
0
 10
91.5402
 20
-95.3955
 11
91.6131
 21
-95.6318
  0
LINE
  8
0
 10
91.6131
 20
-95.6318
 11
91.65
 21
-95.8764
  0
LINE
  8
0
 10
91.65
 20
-95.8764
 11
91.65
 21
-96.1237
  0
LINE
  8
0
 10
91.65
 20
-96.1237
 11
91.6131
 21
-96.3682
  0
LINE
  8
0
 10
91.6131
 20
-96.3682
 11
91.5402
 21
-96.6045
  0
LINE
  8
0
 10
91.5402
 20
-96.6045
 11
91.4329
 21
-96.8273
  0
LINE
  8
0
 10
91.4329
 20
-96.8273
 11
91.2936
 21
-97.0316
  0
LINE
  8
0
 10
91.2936
 20
-97.0316
 11
91.1254
 21
-97.2129
  0
LINE
  8
0
 10
91.1254
 20
-97.2129
 11
90.9321
 21
-97.3671
  0
LINE
  8
0
 10
90.9321
 20
-97.3671
 11
90.7179
 21
-97.4908
  0
LINE
  8
0
 10
90.7179
 20
-97.4908
 11
90.4877
 21
-97.5811
  0
LINE
  8
0
 10
90.4877
 20
-97.5811
 11
90.2466
 21
-97.6362
  0
LINE
  8
0
 10
90.2466
 20
-97.6362
 11
90
 21
-97.6546
  0
LINE
  8
0
 10
90
 20
-97.6546
 11
89.7534
 21
-97.6362
  0
LINE
  8
0
 10
-90.2466
 20
-97.6362
 11
-90.4877
 21
-97.5811
  0
LINE
  8
0
 10
-90.4877
 20
-97.5811
 11
-90.7179
 21
-97.4908
  0
LINE
  8
0
 10
-90.7179
 20
-97.4908
 11
-90.9321
 21
-97.3671
  0
LINE
  8
0
 10
-90.9321
 20
-97.3671
 11
-91.1254
 21
-97.2129
  0
LINE
  8
0
 10
-91.1254
 20
-97.2129
 11
-91.2936
 21
-97.0316
  0
LINE
  8
0
 10
-91.2936
 20
-97.0316
 11
-91.433
 21
-96.8273
  0
LINE
  8
0
 10
-91.433
 20
-96.8273
 11
-91.5403
 21
-96.6045
  0
LINE
  8
0
 10
-91.5403
 20
-96.6045
 11
-91.6131
 21
-96.3682
  0
LINE
  8
0
 10
-91.6131
 20
-96.3682
 11
-91.65
 21
-96.1237
  0
LINE
  8
0
 10
-91.65
 20
-96.1237
 11
-91.65
 21
-95.8764
  0
LINE
  8
0
 10
-91.65
 20
-95.8764
 11
-91.6131
 21
-95.6318
  0
LINE
  8
0
 10
-91.6131
 20
-95.6318
 11
-91.5403
 21
-95.3955
  0
LINE
  8
0
 10
-91.5403
 20
-95.3955
 11
-91.433
 21
-95.1727
  0
LINE
  8
0
 10
-91.433
 20
-95.1727
 11
-91.2936
 21
-94.9684
  0
LINE
  8
0
 10
-91.2936
 20
-94.9684
 11
-91.1254
 21
-94.7871
  0
LINE
  8
0
 10
-91.1254
 20
-94.7871
 11
-90.9321
 21
-94.6329
  0
LINE
  8
0
 10
-90.9321
 20
-94.6329
 11
-90.7179
 21
-94.5092
  0
LINE
  8
0
 10
-90.7179
 20
-94.5092
 11
-90.4877
 21
-94.4189
  0
LINE
  8
0
 10
-90.4877
 20
-94.4189
 11
-90.2466
 21
-94.3639
  0
LINE
  8
0
 10
-90.2466
 20
-94.3639
 11
-90
 21
-94.3454
  0
LINE
  8
0
 10
-90
 20
-94.3454
 11
-89.7534
 21
-94.3639
  0
LINE
  8
0
 10
-89.7534
 20
-94.3639
 11
-89.5123
 21
-94.4189
  0
LINE
  8
0
 10
-89.5123
 20
-94.4189
 11
-89.2821
 21
-94.5092
  0
LINE
  8
0
 10
-89.2821
 20
-94.5092
 11
-89.0679
 21
-94.6329
  0
LINE
  8
0
 10
-89.0679
 20
-94.6329
 11
-88.8746
 21
-94.7871
  0
LINE
  8
0
 10
-88.8746
 20
-94.7871
 11
-88.7064
 21
-94.9684
  0
LINE
  8
0
 10
-88.7064
 20
-94.9684
 11
-88.5671
 21
-95.1727
  0
LINE
  8
0
 10
-88.5671
 20
-95.1727
 11
-88.4598
 21
-95.3955
  0
LINE
  8
0
 10
-88.4598
 20
-95.3955
 11
-88.3869
 21
-95.6318
  0
LINE
  8
0
 10
-88.3869
 20
-95.6318
 11
-88.35
 21
-95.8764
  0
LINE
  8
0
 10
-88.35
 20
-95.8764
 11
-88.35
 21
-96.1237
  0
LINE
  8
0
 10
-88.35
 20
-96.1237
 11
-88.3869
 21
-96.3682
  0
LINE
  8
0
 10
-88.3869
 20
-96.3682
 11
-88.4598
 21
-96.6045
  0
LINE
  8
0
 10
-88.4598
 20
-96.6045
 11
-88.5671
 21
-96.8273
  0
LINE
  8
0
 10
-88.5671
 20
-96.8273
 11
-88.7064
 21
-97.0316
  0
LINE
  8
0
 10
-88.7064
 20
-97.0316
 11
-88.8746
 21
-97.2129
  0
LINE
  8
0
 10
-88.8746
 20
-97.2129
 11
-89.0679
 21
-97.3671
  0
LINE
  8
0
 10
-89.0679
 20
-97.3671
 11
-89.2821
 21
-97.4908
  0
LINE
  8
0
 10
-89.2821
 20
-97.4908
 11
-89.5123
 21
-97.5811
  0
LINE
  8
0
 10
-89.5123
 20
-97.5811
 11
-89.7534
 21
-97.6362
  0
LINE
  8
0
 10
-89.7534
 20
-97.6362
 11
-90
 21
-97.6546
  0
LINE
  8
0
 10
-90
 20
-97.6546
 11
-90.2466
 21
-97.6362
  0
ENDSEC
  0
SECTION
  2
OBJECTS
  0
DICTIONARY
  0
ENDSEC
  0
EOF
