  0
SECTION
  2
BLOCKS
  0
ENDSEC
  0
SECTION
  2
ENTITIES
  0
LINE
  8
0
 10
109.223
 20
-101.975
 11
109.434
 21
-101.901
  0
LINE
  8
0
 10
109.434
 20
-101.901
 11
109.623
 21
-101.782
  0
LINE
  8
0
 10
109.623
 20
-101.782
 11
109.782
 21
-101.623
  0
LINE
  8
0
 10
109.782
 20
-101.623
 11
109.901
 21
-101.434
  0
LINE
  8
0
 10
109.901
 20
-101.434
 11
109.975
 21
-101.223
  0
LINE
  8
0
 10
109.975
 20
-101.223
 11
110
 21
-101
  0
LINE
  8
0
 10
110
 20
-101
 11
110
 21
101
  0
LINE
  8
0
 10
110
 20
101
 11
109.975
 21
101.223
  0
LINE
  8
0
 10
109.975
 20
101.223
 11
109.901
 21
101.434
  0
LINE
  8
0
 10
109.901
 20
101.434
 11
109.782
 21
101.623
  0
LINE
  8
0
 10
109.782
 20
101.623
 11
109.623
 21
101.782
  0
LINE
  8
0
 10
109.623
 20
101.782
 11
109.434
 21
101.901
  0
LINE
  8
0
 10
109.434
 20
101.901
 11
109.223
 21
101.975
  0
LINE
  8
0
 10
109.223
 20
101.975
 11
109
 21
102
  0
LINE
  8
0
 10
109
 20
102
 11
-109
 21
102
  0
LINE
  8
0
 10
-109
 20
102
 11
-109.223
 21
101.975
  0
LINE
  8
0
 10
-109.223
 20
101.975
 11
-109.434
 21
101.901
  0
LINE
  8
0
 10
-109.434
 20
101.901
 11
-109.623
 21
101.782
  0
LINE
  8
0
 10
-109.623
 20
101.782
 11
-109.782
 21
101.623
  0
LINE
  8
0
 10
-109.782
 20
101.623
 11
-109.901
 21
101.434
  0
LINE
  8
0
 10
-109.901
 20
101.434
 11
-109.975
 21
101.223
  0
LINE
  8
0
 10
-109.975
 20
101.223
 11
-110
 21
101
  0
LINE
  8
0
 10
-110
 20
101
 11
-110
 21
-101
  0
LINE
  8
0
 10
-110
 20
-101
 11
-109.975
 21
-101.223
  0
LINE
  8
0
 10
-109.975
 20
-101.223
 11
-109.901
 21
-101.434
  0
LINE
  8
0
 10
-109.901
 20
-101.434
 11
-109.782
 21
-101.623
  0
LINE
  8
0
 10
-109.782
 20
-101.623
 11
-109.623
 21
-101.782
  0
LINE
  8
0
 10
-109.623
 20
-101.782
 11
-109.434
 21
-101.901
  0
LINE
  8
0
 10
-109.434
 20
-101.901
 11
-109.223
 21
-101.975
  0
LINE
  8
0
 10
-109.223
 20
-101.975
 11
-109
 21
-102
  0
LINE
  8
0
 10
-109
 20
-102
 11
109
 21
-102
  0
LINE
  8
0
 10
109
 20
-102
 11
109.223
 21
-101.975
  0
LINE
  8
0
 10
24.7534
 20
93.3638
 11
24.5123
 21
93.4189
  0
LINE
  8
0
 10
24.5123
 20
93.4189
 11
24.2821
 21
93.5092
  0
LINE
  8
0
 10
24.2821
 20
93.5092
 11
24.0679
 21
93.6329
  0
LINE
  8
0
 10
24.0679
 20
93.6329
 11
23.8746
 21
93.7871
  0
LINE
  8
0
 10
23.8746
 20
93.7871
 11
23.7064
 21
93.9684
  0
LINE
  8
0
 10
23.7064
 20
93.9684
 11
23.567
 21
94.1727
  0
LINE
  8
0
 10
23.567
 20
94.1727
 11
23.4597
 21
94.3955
  0
LINE
  8
0
 10
23.4597
 20
94.3955
 11
23.3869
 21
94.6318
  0
LINE
  8
0
 10
23.3869
 20
94.6318
 11
23.35
 21
94.8763
  0
LINE
  8
0
 10
23.35
 20
94.8763
 11
23.35
 21
95.1236
  0
LINE
  8
0
 10
23.35
 20
95.1236
 11
23.3869
 21
95.3682
  0
LINE
  8
0
 10
23.3869
 20
95.3682
 11
23.4597
 21
95.6045
  0
LINE
  8
0
 10
23.4597
 20
95.6045
 11
23.567
 21
95.8273
  0
LINE
  8
0
 10
23.567
 20
95.8273
 11
23.7064
 21
96.0316
  0
LINE
  8
0
 10
23.7064
 20
96.0316
 11
23.8746
 21
96.2129
  0
LINE
  8
0
 10
23.8746
 20
96.2129
 11
24.0679
 21
96.3671
  0
LINE
  8
0
 10
24.0679
 20
96.3671
 11
24.2821
 21
96.4908
  0
LINE
  8
0
 10
24.2821
 20
96.4908
 11
24.5123
 21
96.5811
  0
LINE
  8
0
 10
24.5123
 20
96.5811
 11
24.7534
 21
96.6361
  0
LINE
  8
0
 10
24.7534
 20
96.6361
 11
25
 21
96.6546
  0
LINE
  8
0
 10
25
 20
96.6546
 11
25.2466
 21
96.6361
  0
LINE
  8
0
 10
25.2466
 20
96.6361
 11
25.4877
 21
96.5811
  0
LINE
  8
0
 10
25.4877
 20
96.5811
 11
25.7179
 21
96.4908
  0
LINE
  8
0
 10
25.7179
 20
96.4908
 11
25.9321
 21
96.3671
  0
LINE
  8
0
 10
25.9321
 20
96.3671
 11
26.1254
 21
96.2129
  0
LINE
  8
0
 10
26.1254
 20
96.2129
 11
26.2936
 21
96.0316
  0
LINE
  8
0
 10
26.2936
 20
96.0316
 11
26.4329
 21
95.8273
  0
LINE
  8
0
 10
26.4329
 20
95.8273
 11
26.5402
 21
95.6045
  0
LINE
  8
0
 10
26.5402
 20
95.6045
 11
26.6131
 21
95.3682
  0
LINE
  8
0
 10
26.6131
 20
95.3682
 11
26.65
 21
95.1236
  0
LINE
  8
0
 10
26.65
 20
95.1236
 11
26.65
 21
94.8763
  0
LINE
  8
0
 10
26.65
 20
94.8763
 11
26.6131
 21
94.6318
  0
LINE
  8
0
 10
26.6131
 20
94.6318
 11
26.5402
 21
94.3955
  0
LINE
  8
0
 10
26.5402
 20
94.3955
 11
26.4329
 21
94.1727
  0
LINE
  8
0
 10
26.4329
 20
94.1727
 11
26.2936
 21
93.9684
  0
LINE
  8
0
 10
26.2936
 20
93.9684
 11
26.1254
 21
93.7871
  0
LINE
  8
0
 10
26.1254
 20
93.7871
 11
25.9321
 21
93.6329
  0
LINE
  8
0
 10
25.9321
 20
93.6329
 11
25.7179
 21
93.5092
  0
LINE
  8
0
 10
25.7179
 20
93.5092
 11
25.4877
 21
93.4189
  0
LINE
  8
0
 10
25.4877
 20
93.4189
 11
25.2466
 21
93.3638
  0
LINE
  8
0
 10
25.2466
 20
93.3638
 11
25
 21
93.3454
  0
LINE
  8
0
 10
25
 20
93.3454
 11
24.7534
 21
93.3638
  0
LINE
  8
0
 10
-25.2466
 20
93.3638
 11
-25.4877
 21
93.4189
  0
LINE
  8
0
 10
-25.4877
 20
93.4189
 11
-25.7179
 21
93.5092
  0
LINE
  8
0
 10
-25.7179
 20
93.5092
 11
-25.9321
 21
93.6329
  0
LINE
  8
0
 10
-25.9321
 20
93.6329
 11
-26.1254
 21
93.7871
  0
LINE
  8
0
 10
-26.1254
 20
93.7871
 11
-26.2936
 21
93.9684
  0
LINE
  8
0
 10
-26.2936
 20
93.9684
 11
-26.433
 21
94.1727
  0
LINE
  8
0
 10
-26.433
 20
94.1727
 11
-26.5403
 21
94.3955
  0
LINE
  8
0
 10
-26.5403
 20
94.3955
 11
-26.6131
 21
94.6318
  0
LINE
  8
0
 10
-26.6131
 20
94.6318
 11
-26.65
 21
94.8763
  0
LINE
  8
0
 10
-26.65
 20
94.8763
 11
-26.65
 21
95.1236
  0
LINE
  8
0
 10
-26.65
 20
95.1236
 11
-26.6131
 21
95.3682
  0
LINE
  8
0
 10
-26.6131
 20
95.3682
 11
-26.5403
 21
95.6045
  0
LINE
  8
0
 10
-26.5403
 20
95.6045
 11
-26.433
 21
95.8273
  0
LINE
  8
0
 10
-26.433
 20
95.8273
 11
-26.2936
 21
96.0316
  0
LINE
  8
0
 10
-26.2936
 20
96.0316
 11
-26.1254
 21
96.2129
  0
LINE
  8
0
 10
-26.1254
 20
96.2129
 11
-25.9321
 21
96.3671
  0
LINE
  8
0
 10
-25.9321
 20
96.3671
 11
-25.7179
 21
96.4908
  0
LINE
  8
0
 10
-25.7179
 20
96.4908
 11
-25.4877
 21
96.5811
  0
LINE
  8
0
 10
-25.4877
 20
96.5811
 11
-25.2466
 21
96.6361
  0
LINE
  8
0
 10
-25.2466
 20
96.6361
 11
-25
 21
96.6546
  0
LINE
  8
0
 10
-25
 20
96.6546
 11
-24.7534
 21
96.6361
  0
LINE
  8
0
 10
-24.7534
 20
96.6361
 11
-24.5123
 21
96.5811
  0
LINE
  8
0
 10
-24.5123
 20
96.5811
 11
-24.2821
 21
96.4908
  0
LINE
  8
0
 10
-24.2821
 20
96.4908
 11
-24.0679
 21
96.3671
  0
LINE
  8
0
 10
-24.0679
 20
96.3671
 11
-23.8746
 21
96.2129
  0
LINE
  8
0
 10
-23.8746
 20
96.2129
 11
-23.7064
 21
96.0316
  0
LINE
  8
0
 10
-23.7064
 20
96.0316
 11
-23.5671
 21
95.8273
  0
LINE
  8
0
 10
-23.5671
 20
95.8273
 11
-23.4598
 21
95.6045
  0
LINE
  8
0
 10
-23.4598
 20
95.6045
 11
-23.3869
 21
95.3682
  0
LINE
  8
0
 10
-23.3869
 20
95.3682
 11
-23.35
 21
95.1236
  0
LINE
  8
0
 10
-23.35
 20
95.1236
 11
-23.35
 21
94.8763
  0
LINE
  8
0
 10
-23.35
 20
94.8763
 11
-23.3869
 21
94.6318
  0
LINE
  8
0
 10
-23.3869
 20
94.6318
 11
-23.4598
 21
94.3955
  0
LINE
  8
0
 10
-23.4598
 20
94.3955
 11
-23.5671
 21
94.1727
  0
LINE
  8
0
 10
-23.5671
 20
94.1727
 11
-23.7064
 21
93.9684
  0
LINE
  8
0
 10
-23.7064
 20
93.9684
 11
-23.8746
 21
93.7871
  0
LINE
  8
0
 10
-23.8746
 20
93.7871
 11
-24.0679
 21
93.6329
  0
LINE
  8
0
 10
-24.0679
 20
93.6329
 11
-24.2821
 21
93.5092
  0
LINE
  8
0
 10
-24.2821
 20
93.5092
 11
-24.5123
 21
93.4189
  0
LINE
  8
0
 10
-24.5123
 20
93.4189
 11
-24.7534
 21
93.3638
  0
LINE
  8
0
 10
-24.7534
 20
93.3638
 11
-25
 21
93.3454
  0
LINE
  8
0
 10
-25
 20
93.3454
 11
-25.2466
 21
93.3638
  0
LINE
  8
0
 10
-90.2466
 20
90.3638
 11
-90.4877
 21
90.4189
  0
LINE
  8
0
 10
-90.4877
 20
90.4189
 11
-90.7179
 21
90.5092
  0
LINE
  8
0
 10
-90.7179
 20
90.5092
 11
-90.9321
 21
90.6329
  0
LINE
  8
0
 10
-90.9321
 20
90.6329
 11
-91.1254
 21
90.7871
  0
LINE
  8
0
 10
-91.1254
 20
90.7871
 11
-91.2936
 21
90.9684
  0
LINE
  8
0
 10
-91.2936
 20
90.9684
 11
-91.433
 21
91.1727
  0
LINE
  8
0
 10
-91.433
 20
91.1727
 11
-91.5403
 21
91.3955
  0
LINE
  8
0
 10
-91.5403
 20
91.3955
 11
-91.6131
 21
91.6318
  0
LINE
  8
0
 10
-91.6131
 20
91.6318
 11
-91.65
 21
91.8763
  0
LINE
  8
0
 10
-91.65
 20
91.8763
 11
-91.65
 21
92.1236
  0
LINE
  8
0
 10
-91.65
 20
92.1236
 11
-91.6131
 21
92.3682
  0
LINE
  8
0
 10
-91.6131
 20
92.3682
 11
-91.5403
 21
92.6045
  0
LINE
  8
0
 10
-91.5403
 20
92.6045
 11
-91.433
 21
92.8273
  0
LINE
  8
0
 10
-91.433
 20
92.8273
 11
-91.2936
 21
93.0316
  0
LINE
  8
0
 10
-91.2936
 20
93.0316
 11
-91.1254
 21
93.2129
  0
LINE
  8
0
 10
-91.1254
 20
93.2129
 11
-90.9321
 21
93.3671
  0
LINE
  8
0
 10
-90.9321
 20
93.3671
 11
-90.7179
 21
93.4908
  0
LINE
  8
0
 10
-90.7179
 20
93.4908
 11
-90.4877
 21
93.5811
  0
LINE
  8
0
 10
-90.4877
 20
93.5811
 11
-90.2466
 21
93.6361
  0
LINE
  8
0
 10
-90.2466
 20
93.6361
 11
-90
 21
93.6546
  0
LINE
  8
0
 10
-90
 20
93.6546
 11
-89.7534
 21
93.6361
  0
LINE
  8
0
 10
-89.7534
 20
93.6361
 11
-89.5123
 21
93.5811
  0
LINE
  8
0
 10
-89.5123
 20
93.5811
 11
-89.2821
 21
93.4908
  0
LINE
  8
0
 10
-89.2821
 20
93.4908
 11
-89.0679
 21
93.3671
  0
LINE
  8
0
 10
-89.0679
 20
93.3671
 11
-88.8746
 21
93.2129
  0
LINE
  8
0
 10
-88.8746
 20
93.2129
 11
-88.7064
 21
93.0316
  0
LINE
  8
0
 10
-88.7064
 20
93.0316
 11
-88.5671
 21
92.8273
  0
LINE
  8
0
 10
-88.5671
 20
92.8273
 11
-88.4598
 21
92.6045
  0
LINE
  8
0
 10
-88.4598
 20
92.6045
 11
-88.3869
 21
92.3682
  0
LINE
  8
0
 10
-88.3869
 20
92.3682
 11
-88.35
 21
92.1236
  0
LINE
  8
0
 10
-88.35
 20
92.1236
 11
-88.35
 21
91.8763
  0
LINE
  8
0
 10
-88.35
 20
91.8763
 11
-88.3869
 21
91.6318
  0
LINE
  8
0
 10
-88.3869
 20
91.6318
 11
-88.4598
 21
91.3955
  0
LINE
  8
0
 10
-88.4598
 20
91.3955
 11
-88.5671
 21
91.1727
  0
LINE
  8
0
 10
-88.5671
 20
91.1727
 11
-88.7064
 21
90.9684
  0
LINE
  8
0
 10
-88.7064
 20
90.9684
 11
-88.8746
 21
90.7871
  0
LINE
  8
0
 10
-88.8746
 20
90.7871
 11
-89.0679
 21
90.6329
  0
LINE
  8
0
 10
-89.0679
 20
90.6329
 11
-89.2821
 21
90.5092
  0
LINE
  8
0
 10
-89.2821
 20
90.5092
 11
-89.5123
 21
90.4189
  0
LINE
  8
0
 10
-89.5123
 20
90.4189
 11
-89.7534
 21
90.3638
  0
LINE
  8
0
 10
-89.7534
 20
90.3638
 11
-90
 21
90.3454
  0
LINE
  8
0
 10
-90
 20
90.3454
 11
-90.2466
 21
90.3638
  0
LINE
  8
0
 10
89.7534
 20
90.3638
 11
89.5123
 21
90.4189
  0
LINE
  8
0
 10
89.5123
 20
90.4189
 11
89.2821
 21
90.5092
  0
LINE
  8
0
 10
89.2821
 20
90.5092
 11
89.0679
 21
90.6329
  0
LINE
  8
0
 10
89.0679
 20
90.6329
 11
88.8746
 21
90.7871
  0
LINE
  8
0
 10
88.8746
 20
90.7871
 11
88.7064
 21
90.9684
  0
LINE
  8
0
 10
88.7064
 20
90.9684
 11
88.567
 21
91.1727
  0
LINE
  8
0
 10
88.567
 20
91.1727
 11
88.4597
 21
91.3955
  0
LINE
  8
0
 10
88.4597
 20
91.3955
 11
88.3869
 21
91.6318
  0
LINE
  8
0
 10
88.3869
 20
91.6318
 11
88.35
 21
91.8763
  0
LINE
  8
0
 10
88.35
 20
91.8763
 11
88.35
 21
92.1236
  0
LINE
  8
0
 10
88.35
 20
92.1236
 11
88.3869
 21
92.3682
  0
LINE
  8
0
 10
88.3869
 20
92.3682
 11
88.4597
 21
92.6045
  0
LINE
  8
0
 10
88.4597
 20
92.6045
 11
88.567
 21
92.8273
  0
LINE
  8
0
 10
88.567
 20
92.8273
 11
88.7064
 21
93.0316
  0
LINE
  8
0
 10
88.7064
 20
93.0316
 11
88.8746
 21
93.2129
  0
LINE
  8
0
 10
88.8746
 20
93.2129
 11
89.0679
 21
93.3671
  0
LINE
  8
0
 10
89.0679
 20
93.3671
 11
89.2821
 21
93.4908
  0
LINE
  8
0
 10
89.2821
 20
93.4908
 11
89.5123
 21
93.5811
  0
LINE
  8
0
 10
89.5123
 20
93.5811
 11
89.7534
 21
93.6361
  0
LINE
  8
0
 10
89.7534
 20
93.6361
 11
90
 21
93.6546
  0
LINE
  8
0
 10
90
 20
93.6546
 11
90.2466
 21
93.6361
  0
LINE
  8
0
 10
90.2466
 20
93.6361
 11
90.4877
 21
93.5811
  0
LINE
  8
0
 10
90.4877
 20
93.5811
 11
90.7179
 21
93.4908
  0
LINE
  8
0
 10
90.7179
 20
93.4908
 11
90.9321
 21
93.3671
  0
LINE
  8
0
 10
90.9321
 20
93.3671
 11
91.1254
 21
93.2129
  0
LINE
  8
0
 10
91.1254
 20
93.2129
 11
91.2936
 21
93.0316
  0
LINE
  8
0
 10
91.2936
 20
93.0316
 11
91.4329
 21
92.8273
  0
LINE
  8
0
 10
91.4329
 20
92.8273
 11
91.5402
 21
92.6045
  0
LINE
  8
0
 10
91.5402
 20
92.6045
 11
91.6131
 21
92.3682
  0
LINE
  8
0
 10
91.6131
 20
92.3682
 11
91.65
 21
92.1236
  0
LINE
  8
0
 10
91.65
 20
92.1236
 11
91.65
 21
91.8763
  0
LINE
  8
0
 10
91.65
 20
91.8763
 11
91.6131
 21
91.6318
  0
LINE
  8
0
 10
91.6131
 20
91.6318
 11
91.5402
 21
91.3955
  0
LINE
  8
0
 10
91.5402
 20
91.3955
 11
91.4329
 21
91.1727
  0
LINE
  8
0
 10
91.4329
 20
91.1727
 11
91.2936
 21
90.9684
  0
LINE
  8
0
 10
91.2936
 20
90.9684
 11
91.1254
 21
90.7871
  0
LINE
  8
0
 10
91.1254
 20
90.7871
 11
90.9321
 21
90.6329
  0
LINE
  8
0
 10
90.9321
 20
90.6329
 11
90.7179
 21
90.5092
  0
LINE
  8
0
 10
90.7179
 20
90.5092
 11
90.4877
 21
90.4189
  0
LINE
  8
0
 10
90.4877
 20
90.4189
 11
90.2466
 21
90.3638
  0
LINE
  8
0
 10
90.2466
 20
90.3638
 11
90
 21
90.3454
  0
LINE
  8
0
 10
90
 20
90.3454
 11
89.7534
 21
90.3638
  0
LINE
  8
0
 10
-104.247
 20
76.3638
 11
-104.488
 21
76.4189
  0
LINE
  8
0
 10
-104.488
 20
76.4189
 11
-104.718
 21
76.5092
  0
LINE
  8
0
 10
-104.718
 20
76.5092
 11
-104.932
 21
76.6329
  0
LINE
  8
0
 10
-104.932
 20
76.6329
 11
-105.125
 21
76.7871
  0
LINE
  8
0
 10
-105.125
 20
76.7871
 11
-105.294
 21
76.9684
  0
LINE
  8
0
 10
-105.294
 20
76.9684
 11
-105.433
 21
77.1727
  0
LINE
  8
0
 10
-105.433
 20
77.1727
 11
-105.54
 21
77.3955
  0
LINE
  8
0
 10
-105.54
 20
77.3955
 11
-105.613
 21
77.6318
  0
LINE
  8
0
 10
-105.613
 20
77.6318
 11
-105.65
 21
77.8763
  0
LINE
  8
0
 10
-105.65
 20
77.8763
 11
-105.65
 21
78.1236
  0
LINE
  8
0
 10
-105.65
 20
78.1236
 11
-105.613
 21
78.3682
  0
LINE
  8
0
 10
-105.613
 20
78.3682
 11
-105.54
 21
78.6045
  0
LINE
  8
0
 10
-105.54
 20
78.6045
 11
-105.433
 21
78.8273
  0
LINE
  8
0
 10
-105.433
 20
78.8273
 11
-105.294
 21
79.0316
  0
LINE
  8
0
 10
-105.294
 20
79.0316
 11
-105.125
 21
79.2129
  0
LINE
  8
0
 10
-105.125
 20
79.2129
 11
-104.932
 21
79.3671
  0
LINE
  8
0
 10
-104.932
 20
79.3671
 11
-104.718
 21
79.4908
  0
LINE
  8
0
 10
-104.718
 20
79.4908
 11
-104.488
 21
79.5811
  0
LINE
  8
0
 10
-104.488
 20
79.5811
 11
-104.247
 21
79.6361
  0
LINE
  8
0
 10
-104.247
 20
79.6361
 11
-104
 21
79.6546
  0
LINE
  8
0
 10
-104
 20
79.6546
 11
-103.753
 21
79.6361
  0
LINE
  8
0
 10
-103.753
 20
79.6361
 11
-103.512
 21
79.5811
  0
LINE
  8
0
 10
-103.512
 20
79.5811
 11
-103.282
 21
79.4908
  0
LINE
  8
0
 10
-103.282
 20
79.4908
 11
-103.068
 21
79.3671
  0
LINE
  8
0
 10
-103.068
 20
79.3671
 11
-102.875
 21
79.2129
  0
LINE
  8
0
 10
-102.875
 20
79.2129
 11
-102.706
 21
79.0316
  0
LINE
  8
0
 10
-102.706
 20
79.0316
 11
-102.567
 21
78.8273
  0
LINE
  8
0
 10
-102.567
 20
78.8273
 11
-102.46
 21
78.6045
  0
LINE
  8
0
 10
-102.46
 20
78.6045
 11
-102.387
 21
78.3682
  0
LINE
  8
0
 10
-102.387
 20
78.3682
 11
-102.35
 21
78.1236
  0
LINE
  8
0
 10
-102.35
 20
78.1236
 11
-102.35
 21
77.8763
  0
LINE
  8
0
 10
-102.35
 20
77.8763
 11
-102.387
 21
77.6318
  0
LINE
  8
0
 10
-102.387
 20
77.6318
 11
-102.46
 21
77.3955
  0
LINE
  8
0
 10
-102.46
 20
77.3955
 11
-102.567
 21
77.1727
  0
LINE
  8
0
 10
-102.567
 20
77.1727
 11
-102.706
 21
76.9684
  0
LINE
  8
0
 10
-102.706
 20
76.9684
 11
-102.875
 21
76.7871
  0
LINE
  8
0
 10
-102.875
 20
76.7871
 11
-103.068
 21
76.6329
  0
LINE
  8
0
 10
-103.068
 20
76.6329
 11
-103.282
 21
76.5092
  0
LINE
  8
0
 10
-103.282
 20
76.5092
 11
-103.512
 21
76.4189
  0
LINE
  8
0
 10
-103.512
 20
76.4189
 11
-103.753
 21
76.3638
  0
LINE
  8
0
 10
-103.753
 20
76.3638
 11
-104
 21
76.3454
  0
LINE
  8
0
 10
-104
 20
76.3454
 11
-104.247
 21
76.3638
  0
LINE
  8
0
 10
103.753
 20
76.3638
 11
103.512
 21
76.4189
  0
LINE
  8
0
 10
103.512
 20
76.4189
 11
103.282
 21
76.5092
  0
LINE
  8
0
 10
103.282
 20
76.5092
 11
103.068
 21
76.6329
  0
LINE
  8
0
 10
103.068
 20
76.6329
 11
102.875
 21
76.7871
  0
LINE
  8
0
 10
102.875
 20
76.7871
 11
102.706
 21
76.9684
  0
LINE
  8
0
 10
102.706
 20
76.9684
 11
102.567
 21
77.1727
  0
LINE
  8
0
 10
102.567
 20
77.1727
 11
102.46
 21
77.3955
  0
LINE
  8
0
 10
102.46
 20
77.3955
 11
102.387
 21
77.6318
  0
LINE
  8
0
 10
102.387
 20
77.6318
 11
102.35
 21
77.8763
  0
LINE
  8
0
 10
102.35
 20
77.8763
 11
102.35
 21
78.1236
  0
LINE
  8
0
 10
102.35
 20
78.1236
 11
102.387
 21
78.3682
  0
LINE
  8
0
 10
102.387
 20
78.3682
 11
102.46
 21
78.6045
  0
LINE
  8
0
 10
102.46
 20
78.6045
 11
102.567
 21
78.8273
  0
LINE
  8
0
 10
102.567
 20
78.8273
 11
102.706
 21
79.0316
  0
LINE
  8
0
 10
102.706
 20
79.0316
 11
102.875
 21
79.2129
  0
LINE
  8
0
 10
102.875
 20
79.2129
 11
103.068
 21
79.3671
  0
LINE
  8
0
 10
103.068
 20
79.3671
 11
103.282
 21
79.4908
  0
LINE
  8
0
 10
103.282
 20
79.4908
 11
103.512
 21
79.5811
  0
LINE
  8
0
 10
103.512
 20
79.5811
 11
103.753
 21
79.6361
  0
LINE
  8
0
 10
103.753
 20
79.6361
 11
104
 21
79.6546
  0
LINE
  8
0
 10
104
 20
79.6546
 11
104.247
 21
79.6361
  0
LINE
  8
0
 10
104.247
 20
79.6361
 11
104.488
 21
79.5811
  0
LINE
  8
0
 10
104.488
 20
79.5811
 11
104.718
 21
79.4908
  0
LINE
  8
0
 10
104.718
 20
79.4908
 11
104.932
 21
79.3671
  0
LINE
  8
0
 10
104.932
 20
79.3671
 11
105.125
 21
79.2129
  0
LINE
  8
0
 10
105.125
 20
79.2129
 11
105.294
 21
79.0316
  0
LINE
  8
0
 10
105.294
 20
79.0316
 11
105.433
 21
78.8273
  0
LINE
  8
0
 10
105.433
 20
78.8273
 11
105.54
 21
78.6045
  0
LINE
  8
0
 10
105.54
 20
78.6045
 11
105.613
 21
78.3682
  0
LINE
  8
0
 10
105.613
 20
78.3682
 11
105.65
 21
78.1236
  0
LINE
  8
0
 10
105.65
 20
78.1236
 11
105.65
 21
77.8763
  0
LINE
  8
0
 10
105.65
 20
77.8763
 11
105.613
 21
77.6318
  0
LINE
  8
0
 10
105.613
 20
77.6318
 11
105.54
 21
77.3955
  0
LINE
  8
0
 10
105.54
 20
77.3955
 11
105.433
 21
77.1727
  0
LINE
  8
0
 10
105.433
 20
77.1727
 11
105.294
 21
76.9684
  0
LINE
  8
0
 10
105.294
 20
76.9684
 11
105.125
 21
76.7871
  0
LINE
  8
0
 10
105.125
 20
76.7871
 11
104.932
 21
76.6329
  0
LINE
  8
0
 10
104.932
 20
76.6329
 11
104.718
 21
76.5092
  0
LINE
  8
0
 10
104.718
 20
76.5092
 11
104.488
 21
76.4189
  0
LINE
  8
0
 10
104.488
 20
76.4189
 11
104.247
 21
76.3638
  0
LINE
  8
0
 10
104.247
 20
76.3638
 11
104
 21
76.3454
  0
LINE
  8
0
 10
104
 20
76.3454
 11
103.753
 21
76.3638
  0
LINE
  8
0
 10
-43
 20
52
 11
-43.1913
 21
52.0381
  0
LINE
  8
0
 10
-43.1913
 20
52.0381
 11
-43.3535
 21
52.1465
  0
LINE
  8
0
 10
-43.3535
 20
52.1465
 11
-43.4619
 21
52.3087
  0
LINE
  8
0
 10
-43.4619
 20
52.3087
 11
-43.5
 21
52.5
  0
LINE
  8
0
 10
-43.5
 20
52.5
 11
-43.5
 21
54
  0
LINE
  8
0
 10
-43.5
 20
54
 11
-43.4619
 21
54.1913
  0
LINE
  8
0
 10
-43.4619
 20
54.1913
 11
-43.3535
 21
54.3535
  0
LINE
  8
0
 10
-43.3535
 20
54.3535
 11
-43.1913
 21
54.4619
  0
LINE
  8
0
 10
-43.1913
 20
54.4619
 11
-43
 21
54.5
  0
LINE
  8
0
 10
-43
 20
54.5
 11
-23
 21
54.5
  0
LINE
  8
0
 10
-23
 20
54.5
 11
-22.8087
 21
54.4619
  0
LINE
  8
0
 10
-22.8087
 20
54.4619
 11
-22.6465
 21
54.3535
  0
LINE
  8
0
 10
-22.6465
 20
54.3535
 11
-22.5381
 21
54.1913
  0
LINE
  8
0
 10
-22.5381
 20
54.1913
 11
-22.5
 21
54
  0
LINE
  8
0
 10
-22.5
 20
54
 11
-22.5
 21
52.5
  0
LINE
  8
0
 10
-22.5
 20
52.5
 11
-22.5381
 21
52.3087
  0
LINE
  8
0
 10
-22.5381
 20
52.3087
 11
-22.6465
 21
52.1465
  0
LINE
  8
0
 10
-22.6465
 20
52.1465
 11
-22.8087
 21
52.0381
  0
LINE
  8
0
 10
-22.8087
 20
52.0381
 11
-23
 21
52
  0
LINE
  8
0
 10
-23
 20
52
 11
-43
 21
52
  0
LINE
  8
0
 10
55
 20
52
 11
54.8087
 21
52.0381
  0
LINE
  8
0
 10
54.8087
 20
52.0381
 11
54.6465
 21
52.1465
  0
LINE
  8
0
 10
54.6465
 20
52.1465
 11
54.5381
 21
52.3087
  0
LINE
  8
0
 10
54.5381
 20
52.3087
 11
54.5
 21
52.5
  0
LINE
  8
0
 10
54.5
 20
52.5
 11
54.5
 21
54
  0
LINE
  8
0
 10
54.5
 20
54
 11
54.5381
 21
54.1913
  0
LINE
  8
0
 10
54.5381
 20
54.1913
 11
54.6465
 21
54.3535
  0
LINE
  8
0
 10
54.6465
 20
54.3535
 11
54.8087
 21
54.4619
  0
LINE
  8
0
 10
54.8087
 20
54.4619
 11
55
 21
54.5
  0
LINE
  8
0
 10
55
 20
54.5
 11
75
 21
54.5
  0
LINE
  8
0
 10
75
 20
54.5
 11
75.1913
 21
54.4619
  0
LINE
  8
0
 10
75.1913
 20
54.4619
 11
75.3535
 21
54.3535
  0
LINE
  8
0
 10
75.3535
 20
54.3535
 11
75.4619
 21
54.1913
  0
LINE
  8
0
 10
75.4619
 20
54.1913
 11
75.5
 21
54
  0
LINE
  8
0
 10
75.5
 20
54
 11
75.5
 21
52.5
  0
LINE
  8
0
 10
75.5
 20
52.5
 11
75.4619
 21
52.3087
  0
LINE
  8
0
 10
75.4619
 20
52.3087
 11
75.3535
 21
52.1465
  0
LINE
  8
0
 10
75.3535
 20
52.1465
 11
75.1913
 21
52.0381
  0
LINE
  8
0
 10
75.1913
 20
52.0381
 11
75
 21
52
  0
LINE
  8
0
 10
75
 20
52
 11
55
 21
52
  0
LINE
  8
0
 10
-79.245
 20
28.2681
 11
-79.4807
 21
28.3396
  0
LINE
  8
0
 10
-79.4807
 20
28.3396
 11
-79.6978
 21
28.4556
  0
LINE
  8
0
 10
-79.6978
 20
28.4556
 11
-79.8882
 21
28.6118
  0
LINE
  8
0
 10
-79.8882
 20
28.6118
 11
-80.0444
 21
28.8022
  0
LINE
  8
0
 10
-80.0444
 20
28.8022
 11
-80.1604
 21
29.0193
  0
LINE
  8
0
 10
-80.1604
 20
29.0193
 11
-80.2319
 21
29.2549
  0
LINE
  8
0
 10
-80.2319
 20
29.2549
 11
-80.256
 21
29.5
  0
LINE
  8
0
 10
-80.256
 20
29.5
 11
-80.2319
 21
29.745
  0
LINE
  8
0
 10
-80.2319
 20
29.745
 11
-80.1604
 21
29.9807
  0
LINE
  8
0
 10
-80.1604
 20
29.9807
 11
-80.0444
 21
30.1978
  0
LINE
  8
0
 10
-80.0444
 20
30.1978
 11
-79.8882
 21
30.3882
  0
LINE
  8
0
 10
-79.8882
 20
30.3882
 11
-79.6978
 21
30.5444
  0
LINE
  8
0
 10
-79.6978
 20
30.5444
 11
-79.4807
 21
30.6604
  0
LINE
  8
0
 10
-79.4807
 20
30.6604
 11
-79.245
 21
30.7319
  0
LINE
  8
0
 10
-79.245
 20
30.7319
 11
-79
 21
30.756
  0
LINE
  8
0
 10
-79
 20
30.756
 11
-78.755
 21
30.7319
  0
LINE
  8
0
 10
-78.755
 20
30.7319
 11
-78.5193
 21
30.6604
  0
LINE
  8
0
 10
-78.5193
 20
30.6604
 11
-78.3022
 21
30.5444
  0
LINE
  8
0
 10
-78.3022
 20
30.5444
 11
-78.1118
 21
30.3882
  0
LINE
  8
0
 10
-78.1118
 20
30.3882
 11
-77.9556
 21
30.1978
  0
LINE
  8
0
 10
-77.9556
 20
30.1978
 11
-77.8396
 21
29.9807
  0
LINE
  8
0
 10
-77.8396
 20
29.9807
 11
-77.7681
 21
29.745
  0
LINE
  8
0
 10
-77.7681
 20
29.745
 11
-77.744
 21
29.5
  0
LINE
  8
0
 10
-77.744
 20
29.5
 11
-77.7681
 21
29.2549
  0
LINE
  8
0
 10
-77.7681
 20
29.2549
 11
-77.8396
 21
29.0193
  0
LINE
  8
0
 10
-77.8396
 20
29.0193
 11
-77.9556
 21
28.8022
  0
LINE
  8
0
 10
-77.9556
 20
28.8022
 11
-78.1118
 21
28.6118
  0
LINE
  8
0
 10
-78.1118
 20
28.6118
 11
-78.3022
 21
28.4556
  0
LINE
  8
0
 10
-78.3022
 20
28.4556
 11
-78.5193
 21
28.3396
  0
LINE
  8
0
 10
-78.5193
 20
28.3396
 11
-78.755
 21
28.2681
  0
LINE
  8
0
 10
-78.755
 20
28.2681
 11
-79
 21
28.2439
  0
LINE
  8
0
 10
-79
 20
28.2439
 11
-79.245
 21
28.2681
  0
LINE
  8
0
 10
-79.245
 20
8.2681
 11
-79.4807
 21
8.33957
  0
LINE
  8
0
 10
-79.4807
 20
8.33957
 11
-79.6978
 21
8.45564
  0
LINE
  8
0
 10
-79.6978
 20
8.45564
 11
-79.8882
 21
8.61185
  0
LINE
  8
0
 10
-79.8882
 20
8.61185
 11
-80.0444
 21
8.80219
  0
LINE
  8
0
 10
-80.0444
 20
8.80219
 11
-80.1604
 21
9.01933
  0
LINE
  8
0
 10
-80.1604
 20
9.01933
 11
-80.2319
 21
9.25496
  0
LINE
  8
0
 10
-80.2319
 20
9.25496
 11
-80.256
 21
9.5
  0
LINE
  8
0
 10
-80.256
 20
9.5
 11
-80.2319
 21
9.74506
  0
LINE
  8
0
 10
-80.2319
 20
9.74506
 11
-80.1604
 21
9.98068
  0
LINE
  8
0
 10
-80.1604
 20
9.98068
 11
-80.0444
 21
10.1978
  0
LINE
  8
0
 10
-80.0444
 20
10.1978
 11
-79.8882
 21
10.3882
  0
LINE
  8
0
 10
-79.8882
 20
10.3882
 11
-79.6978
 21
10.5444
  0
LINE
  8
0
 10
-79.6978
 20
10.5444
 11
-79.4807
 21
10.6604
  0
LINE
  8
0
 10
-79.4807
 20
10.6604
 11
-79.245
 21
10.7319
  0
LINE
  8
0
 10
-79.245
 20
10.7319
 11
-79
 21
10.7561
  0
LINE
  8
0
 10
-79
 20
10.7561
 11
-78.755
 21
10.7319
  0
LINE
  8
0
 10
-78.755
 20
10.7319
 11
-78.5193
 21
10.6604
  0
LINE
  8
0
 10
-78.5193
 20
10.6604
 11
-78.3022
 21
10.5444
  0
LINE
  8
0
 10
-78.3022
 20
10.5444
 11
-78.1118
 21
10.3882
  0
LINE
  8
0
 10
-78.1118
 20
10.3882
 11
-77.9556
 21
10.1978
  0
LINE
  8
0
 10
-77.9556
 20
10.1978
 11
-77.8396
 21
9.98068
  0
LINE
  8
0
 10
-77.8396
 20
9.98068
 11
-77.7681
 21
9.74506
  0
LINE
  8
0
 10
-77.7681
 20
9.74506
 11
-77.744
 21
9.5
  0
LINE
  8
0
 10
-77.744
 20
9.5
 11
-77.7681
 21
9.25496
  0
LINE
  8
0
 10
-77.7681
 20
9.25496
 11
-77.8396
 21
9.01933
  0
LINE
  8
0
 10
-77.8396
 20
9.01933
 11
-77.9556
 21
8.80219
  0
LINE
  8
0
 10
-77.9556
 20
8.80219
 11
-78.1118
 21
8.61185
  0
LINE
  8
0
 10
-78.1118
 20
8.61185
 11
-78.3022
 21
8.45564
  0
LINE
  8
0
 10
-78.3022
 20
8.45564
 11
-78.5193
 21
8.33957
  0
LINE
  8
0
 10
-78.5193
 20
8.33957
 11
-78.755
 21
8.2681
  0
LINE
  8
0
 10
-78.755
 20
8.2681
 11
-79
 21
8.24396
  0
LINE
  8
0
 10
-79
 20
8.24396
 11
-79.245
 21
8.2681
  0
LINE
  8
0
 10
103.753
 20
-3.63615
 11
103.512
 21
-3.58113
  0
LINE
  8
0
 10
103.512
 20
-3.58113
 11
103.282
 21
-3.49077
  0
LINE
  8
0
 10
103.282
 20
-3.49077
 11
103.068
 21
-3.36713
  0
LINE
  8
0
 10
103.068
 20
-3.36713
 11
102.875
 21
-3.21294
  0
LINE
  8
0
 10
102.875
 20
-3.21294
 11
102.706
 21
-3.03165
  0
LINE
  8
0
 10
102.706
 20
-3.03165
 11
102.567
 21
-2.82732
  0
LINE
  8
0
 10
102.567
 20
-2.82732
 11
102.46
 21
-2.60451
  0
LINE
  8
0
 10
102.46
 20
-2.60451
 11
102.387
 21
-2.36819
  0
LINE
  8
0
 10
102.387
 20
-2.36819
 11
102.35
 21
-2.12366
  0
LINE
  8
0
 10
102.35
 20
-2.12366
 11
102.35
 21
-1.87636
  0
LINE
  8
0
 10
102.35
 20
-1.87636
 11
102.387
 21
-1.63182
  0
LINE
  8
0
 10
102.387
 20
-1.63182
 11
102.46
 21
-1.39551
  0
LINE
  8
0
 10
102.46
 20
-1.39551
 11
102.567
 21
-1.1727
  0
LINE
  8
0
 10
102.567
 20
-1.1727
 11
102.706
 21
-0.968369
  0
LINE
  8
0
 10
102.706
 20
-0.968369
 11
102.875
 21
-0.787079
  0
LINE
  8
0
 10
102.875
 20
-0.787079
 11
103.068
 21
-0.632889
  0
LINE
  8
0
 10
103.068
 20
-0.632889
 11
103.282
 21
-0.509247
  0
LINE
  8
0
 10
103.282
 20
-0.509247
 11
103.512
 21
-0.418884
  0
LINE
  8
0
 10
103.512
 20
-0.418884
 11
103.753
 21
-0.363861
  0
LINE
  8
0
 10
103.753
 20
-0.363861
 11
104
 21
-0.345383
  0
LINE
  8
0
 10
104
 20
-0.345383
 11
104.247
 21
-0.363861
  0
LINE
  8
0
 10
104.247
 20
-0.363861
 11
104.488
 21
-0.418884
  0
LINE
  8
0
 10
104.488
 20
-0.418884
 11
104.718
 21
-0.509247
  0
LINE
  8
0
 10
104.718
 20
-0.509247
 11
104.932
 21
-0.632889
  0
LINE
  8
0
 10
104.932
 20
-0.632889
 11
105.125
 21
-0.787079
  0
LINE
  8
0
 10
105.125
 20
-0.787079
 11
105.294
 21
-0.968369
  0
LINE
  8
0
 10
105.294
 20
-0.968369
 11
105.433
 21
-1.1727
  0
LINE
  8
0
 10
105.433
 20
-1.1727
 11
105.54
 21
-1.39551
  0
LINE
  8
0
 10
105.54
 20
-1.39551
 11
105.613
 21
-1.63182
  0
LINE
  8
0
 10
105.613
 20
-1.63182
 11
105.65
 21
-1.87636
  0
LINE
  8
0
 10
105.65
 20
-1.87636
 11
105.65
 21
-2.12366
  0
LINE
  8
0
 10
105.65
 20
-2.12366
 11
105.613
 21
-2.36819
  0
LINE
  8
0
 10
105.613
 20
-2.36819
 11
105.54
 21
-2.60451
  0
LINE
  8
0
 10
105.54
 20
-2.60451
 11
105.433
 21
-2.82732
  0
LINE
  8
0
 10
105.433
 20
-2.82732
 11
105.294
 21
-3.03165
  0
LINE
  8
0
 10
105.294
 20
-3.03165
 11
105.125
 21
-3.21294
  0
LINE
  8
0
 10
105.125
 20
-3.21294
 11
104.932
 21
-3.36713
  0
LINE
  8
0
 10
104.932
 20
-3.36713
 11
104.718
 21
-3.49077
  0
LINE
  8
0
 10
104.718
 20
-3.49077
 11
104.488
 21
-3.58113
  0
LINE
  8
0
 10
104.488
 20
-3.58113
 11
104.247
 21
-3.63615
  0
LINE
  8
0
 10
104.247
 20
-3.63615
 11
104
 21
-3.65463
  0
LINE
  8
0
 10
104
 20
-3.65463
 11
103.753
 21
-3.63615
  0
LINE
  8
0
 10
-104.124
 20
-3.65001
 11
-104.368
 21
-3.61314
  0
LINE
  8
0
 10
-104.368
 20
-3.61314
 11
-104.605
 21
-3.54025
  0
LINE
  8
0
 10
-104.605
 20
-3.54025
 11
-104.827
 21
-3.43295
  0
LINE
  8
0
 10
-104.827
 20
-3.43295
 11
-105.032
 21
-3.29364
  0
LINE
  8
0
 10
-105.032
 20
-3.29364
 11
-105.213
 21
-3.12544
  0
LINE
  8
0
 10
-105.213
 20
-3.12544
 11
-105.367
 21
-2.9321
  0
LINE
  8
0
 10
-105.367
 20
-2.9321
 11
-105.491
 21
-2.71793
  0
LINE
  8
0
 10
-105.491
 20
-2.71793
 11
-105.581
 21
-2.48772
  0
LINE
  8
0
 10
-105.581
 20
-2.48772
 11
-105.636
 21
-2.24661
  0
LINE
  8
0
 10
-105.636
 20
-2.24661
 11
-105.655
 21
-2
  0
LINE
  8
0
 10
-105.655
 20
-2
 11
-105.636
 21
-1.7534
  0
LINE
  8
0
 10
-105.636
 20
-1.7534
 11
-105.581
 21
-1.5123
  0
LINE
  8
0
 10
-105.581
 20
-1.5123
 11
-105.491
 21
-1.28209
  0
LINE
  8
0
 10
-105.491
 20
-1.28209
 11
-105.367
 21
-1.06792
  0
LINE
  8
0
 10
-105.367
 20
-1.06792
 11
-105.213
 21
-0.874573
  0
LINE
  8
0
 10
-105.213
 20
-0.874573
 11
-105.032
 21
-0.706375
  0
LINE
  8
0
 10
-105.032
 20
-0.706375
 11
-104.827
 21
-0.567062
  0
LINE
  8
0
 10
-104.827
 20
-0.567062
 11
-104.605
 21
-0.459763
  0
LINE
  8
0
 10
-104.605
 20
-0.459763
 11
-104.368
 21
-0.386871
  0
LINE
  8
0
 10
-104.368
 20
-0.386871
 11
-104.124
 21
-0.350006
  0
LINE
  8
0
 10
-104.124
 20
-0.350006
 11
-103.876
 21
-0.350006
  0
LINE
  8
0
 10
-103.876
 20
-0.350006
 11
-103.632
 21
-0.386871
  0
LINE
  8
0
 10
-103.632
 20
-0.386871
 11
-103.396
 21
-0.459763
  0
LINE
  8
0
 10
-103.396
 20
-0.459763
 11
-103.173
 21
-0.567062
  0
LINE
  8
0
 10
-103.173
 20
-0.567062
 11
-102.968
 21
-0.706375
  0
LINE
  8
0
 10
-102.968
 20
-0.706375
 11
-102.787
 21
-0.874573
  0
LINE
  8
0
 10
-102.787
 20
-0.874573
 11
-102.633
 21
-1.06792
  0
LINE
  8
0
 10
-102.633
 20
-1.06792
 11
-102.509
 21
-1.28209
  0
LINE
  8
0
 10
-102.509
 20
-1.28209
 11
-102.419
 21
-1.5123
  0
LINE
  8
0
 10
-102.419
 20
-1.5123
 11
-102.364
 21
-1.7534
  0
LINE
  8
0
 10
-102.364
 20
-1.7534
 11
-102.345
 21
-2
  0
LINE
  8
0
 10
-102.345
 20
-2
 11
-102.364
 21
-2.24661
  0
LINE
  8
0
 10
-102.364
 20
-2.24661
 11
-102.419
 21
-2.48772
  0
LINE
  8
0
 10
-102.419
 20
-2.48772
 11
-102.509
 21
-2.71793
  0
LINE
  8
0
 10
-102.509
 20
-2.71793
 11
-102.633
 21
-2.9321
  0
LINE
  8
0
 10
-102.633
 20
-2.9321
 11
-102.787
 21
-3.12544
  0
LINE
  8
0
 10
-102.787
 20
-3.12544
 11
-102.968
 21
-3.29364
  0
LINE
  8
0
 10
-102.968
 20
-3.29364
 11
-103.173
 21
-3.43295
  0
LINE
  8
0
 10
-103.173
 20
-3.43295
 11
-103.396
 21
-3.54025
  0
LINE
  8
0
 10
-103.396
 20
-3.54025
 11
-103.632
 21
-3.61314
  0
LINE
  8
0
 10
-103.632
 20
-3.61314
 11
-103.876
 21
-3.65001
  0
LINE
  8
0
 10
-103.876
 20
-3.65001
 11
-104.124
 21
-3.65001
  0
LINE
  8
0
 10
-43
 20
-15.5
 11
-43.1913
 21
-15.4619
  0
LINE
  8
0
 10
-43.1913
 20
-15.4619
 11
-43.3535
 21
-15.3535
  0
LINE
  8
0
 10
-43.3535
 20
-15.3535
 11
-43.4619
 21
-15.1913
  0
LINE
  8
0
 10
-43.4619
 20
-15.1913
 11
-43.5
 21
-15
  0
LINE
  8
0
 10
-43.5
 20
-15
 11
-43.5
 21
-13.5
  0
LINE
  8
0
 10
-43.5
 20
-13.5
 11
-43.4619
 21
-13.3087
  0
LINE
  8
0
 10
-43.4619
 20
-13.3087
 11
-43.3535
 21
-13.1465
  0
LINE
  8
0
 10
-43.3535
 20
-13.1465
 11
-43.1913
 21
-13.0381
  0
LINE
  8
0
 10
-43.1913
 20
-13.0381
 11
-43
 21
-13
  0
LINE
  8
0
 10
-43
 20
-13
 11
-23
 21
-13
  0
LINE
  8
0
 10
-23
 20
-13
 11
-22.8087
 21
-13.0381
  0
LINE
  8
0
 10
-22.8087
 20
-13.0381
 11
-22.6465
 21
-13.1465
  0
LINE
  8
0
 10
-22.6465
 20
-13.1465
 11
-22.5381
 21
-13.3087
  0
LINE
  8
0
 10
-22.5381
 20
-13.3087
 11
-22.5
 21
-13.5
  0
LINE
  8
0
 10
-22.5
 20
-13.5
 11
-22.5
 21
-15
  0
LINE
  8
0
 10
-22.5
 20
-15
 11
-22.5381
 21
-15.1913
  0
LINE
  8
0
 10
-22.5381
 20
-15.1913
 11
-22.6465
 21
-15.3535
  0
LINE
  8
0
 10
-22.6465
 20
-15.3535
 11
-22.8087
 21
-15.4619
  0
LINE
  8
0
 10
-22.8087
 20
-15.4619
 11
-23
 21
-15.5
  0
LINE
  8
0
 10
-23
 20
-15.5
 11
-43
 21
-15.5
  0
LINE
  8
0
 10
55
 20
-15.5
 11
54.8087
 21
-15.4619
  0
LINE
  8
0
 10
54.8087
 20
-15.4619
 11
54.6465
 21
-15.3535
  0
LINE
  8
0
 10
54.6465
 20
-15.3535
 11
54.5381
 21
-15.1913
  0
LINE
  8
0
 10
54.5381
 20
-15.1913
 11
54.5
 21
-15
  0
LINE
  8
0
 10
54.5
 20
-15
 11
54.5
 21
-13.5
  0
LINE
  8
0
 10
54.5
 20
-13.5
 11
54.5381
 21
-13.3087
  0
LINE
  8
0
 10
54.5381
 20
-13.3087
 11
54.6465
 21
-13.1465
  0
LINE
  8
0
 10
54.6465
 20
-13.1465
 11
54.8087
 21
-13.0381
  0
LINE
  8
0
 10
54.8087
 20
-13.0381
 11
55
 21
-13
  0
LINE
  8
0
 10
55
 20
-13
 11
75
 21
-13
  0
LINE
  8
0
 10
75
 20
-13
 11
75.1913
 21
-13.0381
  0
LINE
  8
0
 10
75.1913
 20
-13.0381
 11
75.3535
 21
-13.1465
  0
LINE
  8
0
 10
75.3535
 20
-13.1465
 11
75.4619
 21
-13.3087
  0
LINE
  8
0
 10
75.4619
 20
-13.3087
 11
75.5
 21
-13.5
  0
LINE
  8
0
 10
75.5
 20
-13.5
 11
75.5
 21
-15
  0
LINE
  8
0
 10
75.5
 20
-15
 11
75.4619
 21
-15.1913
  0
LINE
  8
0
 10
75.4619
 20
-15.1913
 11
75.3535
 21
-15.3535
  0
LINE
  8
0
 10
75.3535
 20
-15.3535
 11
75.1913
 21
-15.4619
  0
LINE
  8
0
 10
75.1913
 20
-15.4619
 11
75
 21
-15.5
  0
LINE
  8
0
 10
75
 20
-15.5
 11
55
 21
-15.5
  0
LINE
  8
0
 10
79.0763
 20
-24.29
 11
78.8318
 21
-24.2531
  0
LINE
  8
0
 10
78.8318
 20
-24.2531
 11
78.5955
 21
-24.1803
  0
LINE
  8
0
 10
78.5955
 20
-24.1803
 11
78.3727
 21
-24.073
  0
LINE
  8
0
 10
78.3727
 20
-24.073
 11
78.1684
 21
-23.9336
  0
LINE
  8
0
 10
78.1684
 20
-23.9336
 11
77.9871
 21
-23.7654
  0
LINE
  8
0
 10
77.9871
 20
-23.7654
 11
77.8329
 21
-23.5721
  0
LINE
  8
0
 10
77.8329
 20
-23.5721
 11
77.7092
 21
-23.3579
  0
LINE
  8
0
 10
77.7092
 20
-23.3579
 11
77.6189
 21
-23.1277
  0
LINE
  8
0
 10
77.6189
 20
-23.1277
 11
77.5638
 21
-22.8866
  0
LINE
  8
0
 10
77.5638
 20
-22.8866
 11
77.5454
 21
-22.64
  0
LINE
  8
0
 10
77.5454
 20
-22.64
 11
77.5638
 21
-22.3934
  0
LINE
  8
0
 10
77.5638
 20
-22.3934
 11
77.6189
 21
-22.1523
  0
LINE
  8
0
 10
77.6189
 20
-22.1523
 11
77.7092
 21
-21.9221
  0
LINE
  8
0
 10
77.7092
 20
-21.9221
 11
77.8329
 21
-21.7079
  0
LINE
  8
0
 10
77.8329
 20
-21.7079
 11
77.9871
 21
-21.5146
  0
LINE
  8
0
 10
77.9871
 20
-21.5146
 11
78.1684
 21
-21.3464
  0
LINE
  8
0
 10
78.1684
 20
-21.3464
 11
78.3727
 21
-21.2071
  0
LINE
  8
0
 10
78.3727
 20
-21.2071
 11
78.5955
 21
-21.0998
  0
LINE
  8
0
 10
78.5955
 20
-21.0998
 11
78.8318
 21
-21.0269
  0
LINE
  8
0
 10
78.8318
 20
-21.0269
 11
79.0763
 21
-20.99
  0
LINE
  8
0
 10
79.0763
 20
-20.99
 11
79.3236
 21
-20.99
  0
LINE
  8
0
 10
79.3236
 20
-20.99
 11
79.5682
 21
-21.0269
  0
LINE
  8
0
 10
79.5682
 20
-21.0269
 11
79.8045
 21
-21.0998
  0
LINE
  8
0
 10
79.8045
 20
-21.0998
 11
80.0273
 21
-21.2071
  0
LINE
  8
0
 10
80.0273
 20
-21.2071
 11
80.2316
 21
-21.3464
  0
LINE
  8
0
 10
80.2316
 20
-21.3464
 11
80.4129
 21
-21.5146
  0
LINE
  8
0
 10
80.4129
 20
-21.5146
 11
80.5671
 21
-21.7079
  0
LINE
  8
0
 10
80.5671
 20
-21.7079
 11
80.6908
 21
-21.9221
  0
LINE
  8
0
 10
80.6908
 20
-21.9221
 11
80.7811
 21
-22.1523
  0
LINE
  8
0
 10
80.7811
 20
-22.1523
 11
80.8361
 21
-22.3934
  0
LINE
  8
0
 10
80.8361
 20
-22.3934
 11
80.8546
 21
-22.64
  0
LINE
  8
0
 10
80.8546
 20
-22.64
 11
80.8361
 21
-22.8866
  0
LINE
  8
0
 10
80.8361
 20
-22.8866
 11
80.7811
 21
-23.1277
  0
LINE
  8
0
 10
80.7811
 20
-23.1277
 11
80.6908
 21
-23.3579
  0
LINE
  8
0
 10
80.6908
 20
-23.3579
 11
80.5671
 21
-23.5721
  0
LINE
  8
0
 10
80.5671
 20
-23.5721
 11
80.4129
 21
-23.7654
  0
LINE
  8
0
 10
80.4129
 20
-23.7654
 11
80.2316
 21
-23.9336
  0
LINE
  8
0
 10
80.2316
 20
-23.9336
 11
80.0273
 21
-24.073
  0
LINE
  8
0
 10
80.0273
 20
-24.073
 11
79.8045
 21
-24.1803
  0
LINE
  8
0
 10
79.8045
 20
-24.1803
 11
79.5682
 21
-24.2531
  0
LINE
  8
0
 10
79.5682
 20
-24.2531
 11
79.3236
 21
-24.29
  0
LINE
  8
0
 10
79.3236
 20
-24.29
 11
79.0763
 21
-24.29
  0
LINE
  8
0
 10
16.9264
 20
-24.29
 11
16.6818
 21
-24.2531
  0
LINE
  8
0
 10
16.6818
 20
-24.2531
 11
16.4455
 21
-24.1803
  0
LINE
  8
0
 10
16.4455
 20
-24.1803
 11
16.2227
 21
-24.073
  0
LINE
  8
0
 10
16.2227
 20
-24.073
 11
16.0184
 21
-23.9336
  0
LINE
  8
0
 10
16.0184
 20
-23.9336
 11
15.8371
 21
-23.7654
  0
LINE
  8
0
 10
15.8371
 20
-23.7654
 11
15.6829
 21
-23.5721
  0
LINE
  8
0
 10
15.6829
 20
-23.5721
 11
15.5592
 21
-23.3579
  0
LINE
  8
0
 10
15.5592
 20
-23.3579
 11
15.4689
 21
-23.1277
  0
LINE
  8
0
 10
15.4689
 20
-23.1277
 11
15.4139
 21
-22.8866
  0
LINE
  8
0
 10
15.4139
 20
-22.8866
 11
15.3954
 21
-22.64
  0
LINE
  8
0
 10
15.3954
 20
-22.64
 11
15.4139
 21
-22.3934
  0
LINE
  8
0
 10
15.4139
 20
-22.3934
 11
15.4689
 21
-22.1523
  0
LINE
  8
0
 10
15.4689
 20
-22.1523
 11
15.5592
 21
-21.9221
  0
LINE
  8
0
 10
15.5592
 20
-21.9221
 11
15.6829
 21
-21.7079
  0
LINE
  8
0
 10
15.6829
 20
-21.7079
 11
15.8371
 21
-21.5146
  0
LINE
  8
0
 10
15.8371
 20
-21.5146
 11
16.0184
 21
-21.3464
  0
LINE
  8
0
 10
16.0184
 20
-21.3464
 11
16.2227
 21
-21.2071
  0
LINE
  8
0
 10
16.2227
 20
-21.2071
 11
16.4455
 21
-21.0998
  0
LINE
  8
0
 10
16.4455
 20
-21.0998
 11
16.6818
 21
-21.0269
  0
LINE
  8
0
 10
16.6818
 20
-21.0269
 11
16.9264
 21
-20.99
  0
LINE
  8
0
 10
16.9264
 20
-20.99
 11
17.1737
 21
-20.99
  0
LINE
  8
0
 10
17.1737
 20
-20.99
 11
17.4182
 21
-21.0269
  0
LINE
  8
0
 10
17.4182
 20
-21.0269
 11
17.6545
 21
-21.0998
  0
LINE
  8
0
 10
17.6545
 20
-21.0998
 11
17.8773
 21
-21.2071
  0
LINE
  8
0
 10
17.8773
 20
-21.2071
 11
18.0816
 21
-21.3464
  0
LINE
  8
0
 10
18.0816
 20
-21.3464
 11
18.2629
 21
-21.5146
  0
LINE
  8
0
 10
18.2629
 20
-21.5146
 11
18.4171
 21
-21.7079
  0
LINE
  8
0
 10
18.4171
 20
-21.7079
 11
18.5408
 21
-21.9221
  0
LINE
  8
0
 10
18.5408
 20
-21.9221
 11
18.6311
 21
-22.1523
  0
LINE
  8
0
 10
18.6311
 20
-22.1523
 11
18.6862
 21
-22.3934
  0
LINE
  8
0
 10
18.6862
 20
-22.3934
 11
18.7046
 21
-22.64
  0
LINE
  8
0
 10
18.7046
 20
-22.64
 11
18.6862
 21
-22.8866
  0
LINE
  8
0
 10
18.6862
 20
-22.8866
 11
18.6311
 21
-23.1277
  0
LINE
  8
0
 10
18.6311
 20
-23.1277
 11
18.5408
 21
-23.3579
  0
LINE
  8
0
 10
18.5408
 20
-23.3579
 11
18.4171
 21
-23.5721
  0
LINE
  8
0
 10
18.4171
 20
-23.5721
 11
18.2629
 21
-23.7654
  0
LINE
  8
0
 10
18.2629
 20
-23.7654
 11
18.0816
 21
-23.9336
  0
LINE
  8
0
 10
18.0816
 20
-23.9336
 11
17.8773
 21
-24.073
  0
LINE
  8
0
 10
17.8773
 20
-24.073
 11
17.6545
 21
-24.1803
  0
LINE
  8
0
 10
17.6545
 20
-24.1803
 11
17.4182
 21
-24.2531
  0
LINE
  8
0
 10
17.4182
 20
-24.2531
 11
17.1737
 21
-24.29
  0
LINE
  8
0
 10
17.1737
 20
-24.29
 11
16.9264
 21
-24.29
  0
LINE
  8
0
 10
-66.7466
 20
-30.1362
 11
-66.9877
 21
-30.0811
  0
LINE
  8
0
 10
-66.9877
 20
-30.0811
 11
-67.2179
 21
-29.9908
  0
LINE
  8
0
 10
-67.2179
 20
-29.9908
 11
-67.4321
 21
-29.8671
  0
LINE
  8
0
 10
-67.4321
 20
-29.8671
 11
-67.6254
 21
-29.7129
  0
LINE
  8
0
 10
-67.6254
 20
-29.7129
 11
-67.7936
 21
-29.5316
  0
LINE
  8
0
 10
-67.7936
 20
-29.5316
 11
-67.9329
 21
-29.3273
  0
LINE
  8
0
 10
-67.9329
 20
-29.3273
 11
-68.0402
 21
-29.1045
  0
LINE
  8
0
 10
-68.0402
 20
-29.1045
 11
-68.1131
 21
-28.8682
  0
LINE
  8
0
 10
-68.1131
 20
-28.8682
 11
-68.15
 21
-28.6237
  0
LINE
  8
0
 10
-68.15
 20
-28.6237
 11
-68.15
 21
-28.3764
  0
LINE
  8
0
 10
-68.15
 20
-28.3764
 11
-68.1131
 21
-28.1318
  0
LINE
  8
0
 10
-68.1131
 20
-28.1318
 11
-68.0402
 21
-27.8955
  0
LINE
  8
0
 10
-68.0402
 20
-27.8955
 11
-67.9329
 21
-27.6727
  0
LINE
  8
0
 10
-67.9329
 20
-27.6727
 11
-67.7936
 21
-27.4684
  0
LINE
  8
0
 10
-67.7936
 20
-27.4684
 11
-67.6254
 21
-27.2871
  0
LINE
  8
0
 10
-67.6254
 20
-27.2871
 11
-67.4321
 21
-27.1329
  0
LINE
  8
0
 10
-67.4321
 20
-27.1329
 11
-67.2179
 21
-27.0092
  0
LINE
  8
0
 10
-67.2179
 20
-27.0092
 11
-66.9877
 21
-26.9189
  0
LINE
  8
0
 10
-66.9877
 20
-26.9189
 11
-66.7466
 21
-26.8639
  0
LINE
  8
0
 10
-66.7466
 20
-26.8639
 11
-66.5
 21
-26.8454
  0
LINE
  8
0
 10
-66.5
 20
-26.8454
 11
-66.2534
 21
-26.8639
  0
LINE
  8
0
 10
-66.2534
 20
-26.8639
 11
-66.0123
 21
-26.9189
  0
LINE
  8
0
 10
-66.0123
 20
-26.9189
 11
-65.7821
 21
-27.0092
  0
LINE
  8
0
 10
-65.7821
 20
-27.0092
 11
-65.5679
 21
-27.1329
  0
LINE
  8
0
 10
-65.5679
 20
-27.1329
 11
-65.3746
 21
-27.2871
  0
LINE
  8
0
 10
-65.3746
 20
-27.2871
 11
-65.2064
 21
-27.4684
  0
LINE
  8
0
 10
-65.2064
 20
-27.4684
 11
-65.067
 21
-27.6727
  0
LINE
  8
0
 10
-65.067
 20
-27.6727
 11
-64.9597
 21
-27.8955
  0
LINE
  8
0
 10
-64.9597
 20
-27.8955
 11
-64.8869
 21
-28.1318
  0
LINE
  8
0
 10
-64.8869
 20
-28.1318
 11
-64.85
 21
-28.3764
  0
LINE
  8
0
 10
-64.85
 20
-28.3764
 11
-64.85
 21
-28.6237
  0
LINE
  8
0
 10
-64.85
 20
-28.6237
 11
-64.8869
 21
-28.8682
  0
LINE
  8
0
 10
-64.8869
 20
-28.8682
 11
-64.9597
 21
-29.1045
  0
LINE
  8
0
 10
-64.9597
 20
-29.1045
 11
-65.067
 21
-29.3273
  0
LINE
  8
0
 10
-65.067
 20
-29.3273
 11
-65.2064
 21
-29.5316
  0
LINE
  8
0
 10
-65.2064
 20
-29.5316
 11
-65.3746
 21
-29.7129
  0
LINE
  8
0
 10
-65.3746
 20
-29.7129
 11
-65.5679
 21
-29.8671
  0
LINE
  8
0
 10
-65.5679
 20
-29.8671
 11
-65.7821
 21
-29.9908
  0
LINE
  8
0
 10
-65.7821
 20
-29.9908
 11
-66.0123
 21
-30.0811
  0
LINE
  8
0
 10
-66.0123
 20
-30.0811
 11
-66.2534
 21
-30.1362
  0
LINE
  8
0
 10
-66.2534
 20
-30.1362
 11
-66.5
 21
-30.1546
  0
LINE
  8
0
 10
-66.5
 20
-30.1546
 11
-66.7466
 21
-30.1362
  0
LINE
  8
0
 10
-17.7466
 20
-30.1362
 11
-17.9877
 21
-30.0811
  0
LINE
  8
0
 10
-17.9877
 20
-30.0811
 11
-18.2179
 21
-29.9908
  0
LINE
  8
0
 10
-18.2179
 20
-29.9908
 11
-18.4321
 21
-29.8671
  0
LINE
  8
0
 10
-18.4321
 20
-29.8671
 11
-18.6254
 21
-29.7129
  0
LINE
  8
0
 10
-18.6254
 20
-29.7129
 11
-18.7936
 21
-29.5316
  0
LINE
  8
0
 10
-18.7936
 20
-29.5316
 11
-18.933
 21
-29.3273
  0
LINE
  8
0
 10
-18.933
 20
-29.3273
 11
-19.0403
 21
-29.1045
  0
LINE
  8
0
 10
-19.0403
 20
-29.1045
 11
-19.1131
 21
-28.8682
  0
LINE
  8
0
 10
-19.1131
 20
-28.8682
 11
-19.15
 21
-28.6237
  0
LINE
  8
0
 10
-19.15
 20
-28.6237
 11
-19.15
 21
-28.3764
  0
LINE
  8
0
 10
-19.15
 20
-28.3764
 11
-19.1131
 21
-28.1318
  0
LINE
  8
0
 10
-19.1131
 20
-28.1318
 11
-19.0403
 21
-27.8955
  0
LINE
  8
0
 10
-19.0403
 20
-27.8955
 11
-18.933
 21
-27.6727
  0
LINE
  8
0
 10
-18.933
 20
-27.6727
 11
-18.7936
 21
-27.4684
  0
LINE
  8
0
 10
-18.7936
 20
-27.4684
 11
-18.6254
 21
-27.2871
  0
LINE
  8
0
 10
-18.6254
 20
-27.2871
 11
-18.4321
 21
-27.1329
  0
LINE
  8
0
 10
-18.4321
 20
-27.1329
 11
-18.2179
 21
-27.0092
  0
LINE
  8
0
 10
-18.2179
 20
-27.0092
 11
-17.9877
 21
-26.9189
  0
LINE
  8
0
 10
-17.9877
 20
-26.9189
 11
-17.7466
 21
-26.8639
  0
LINE
  8
0
 10
-17.7466
 20
-26.8639
 11
-17.5
 21
-26.8454
  0
LINE
  8
0
 10
-17.5
 20
-26.8454
 11
-17.2534
 21
-26.8639
  0
LINE
  8
0
 10
-17.2534
 20
-26.8639
 11
-17.0123
 21
-26.9189
  0
LINE
  8
0
 10
-17.0123
 20
-26.9189
 11
-16.7821
 21
-27.0092
  0
LINE
  8
0
 10
-16.7821
 20
-27.0092
 11
-16.5679
 21
-27.1329
  0
LINE
  8
0
 10
-16.5679
 20
-27.1329
 11
-16.3746
 21
-27.2871
  0
LINE
  8
0
 10
-16.3746
 20
-27.2871
 11
-16.2064
 21
-27.4684
  0
LINE
  8
0
 10
-16.2064
 20
-27.4684
 11
-16.0671
 21
-27.6727
  0
LINE
  8
0
 10
-16.0671
 20
-27.6727
 11
-15.9598
 21
-27.8955
  0
LINE
  8
0
 10
-15.9598
 20
-27.8955
 11
-15.8869
 21
-28.1318
  0
LINE
  8
0
 10
-15.8869
 20
-28.1318
 11
-15.85
 21
-28.3764
  0
LINE
  8
0
 10
-15.85
 20
-28.3764
 11
-15.85
 21
-28.6237
  0
LINE
  8
0
 10
-15.85
 20
-28.6237
 11
-15.8869
 21
-28.8682
  0
LINE
  8
0
 10
-15.8869
 20
-28.8682
 11
-15.9598
 21
-29.1045
  0
LINE
  8
0
 10
-15.9598
 20
-29.1045
 11
-16.0671
 21
-29.3273
  0
LINE
  8
0
 10
-16.0671
 20
-29.3273
 11
-16.2064
 21
-29.5316
  0
LINE
  8
0
 10
-16.2064
 20
-29.5316
 11
-16.3746
 21
-29.7129
  0
LINE
  8
0
 10
-16.3746
 20
-29.7129
 11
-16.5679
 21
-29.8671
  0
LINE
  8
0
 10
-16.5679
 20
-29.8671
 11
-16.7821
 21
-29.9908
  0
LINE
  8
0
 10
-16.7821
 20
-29.9908
 11
-17.0123
 21
-30.0811
  0
LINE
  8
0
 10
-17.0123
 20
-30.0811
 11
-17.2534
 21
-30.1362
  0
LINE
  8
0
 10
-17.2534
 20
-30.1362
 11
-17.5
 21
-30.1546
  0
LINE
  8
0
 10
-17.5
 20
-30.1546
 11
-17.7466
 21
-30.1362
  0
LINE
  8
0
 10
-0.838638
 20
-59.27
 11
-1.08318
 21
-59.2331
  0
LINE
  8
0
 10
-1.08318
 20
-59.2331
 11
-1.31949
 21
-59.1602
  0
LINE
  8
0
 10
-1.31949
 20
-59.1602
 11
-1.54231
 21
-59.0529
  0
LINE
  8
0
 10
-1.54231
 20
-59.0529
 11
-1.74663
 21
-58.9136
  0
LINE
  8
0
 10
-1.74663
 20
-58.9136
 11
-1.92792
 21
-58.7454
  0
LINE
  8
0
 10
-1.92792
 20
-58.7454
 11
-2.08211
 21
-58.5521
  0
LINE
  8
0
 10
-2.08211
 20
-58.5521
 11
-2.20576
 21
-58.3379
  0
LINE
  8
0
 10
-2.20576
 20
-58.3379
 11
-2.29611
 21
-58.1077
  0
LINE
  8
0
 10
-2.29611
 20
-58.1077
 11
-2.35114
 21
-57.8666
  0
LINE
  8
0
 10
-2.35114
 20
-57.8666
 11
-2.36961
 21
-57.62
  0
LINE
  8
0
 10
-2.36961
 20
-57.62
 11
-2.35114
 21
-57.3734
  0
LINE
  8
0
 10
-2.35114
 20
-57.3734
 11
-2.29611
 21
-57.1323
  0
LINE
  8
0
 10
-2.29611
 20
-57.1323
 11
-2.20576
 21
-56.9021
  0
LINE
  8
0
 10
-2.20576
 20
-56.9021
 11
-2.08211
 21
-56.6879
  0
LINE
  8
0
 10
-2.08211
 20
-56.6879
 11
-1.92792
 21
-56.4946
  0
LINE
  8
0
 10
-1.92792
 20
-56.4946
 11
-1.74663
 21
-56.3264
  0
LINE
  8
0
 10
-1.74663
 20
-56.3264
 11
-1.54231
 21
-56.187
  0
LINE
  8
0
 10
-1.54231
 20
-56.187
 11
-1.31949
 21
-56.0797
  0
LINE
  8
0
 10
-1.31949
 20
-56.0797
 11
-1.08318
 21
-56.0069
  0
LINE
  8
0
 10
-1.08318
 20
-56.0069
 11
-0.838638
 21
-55.97
  0
LINE
  8
0
 10
-0.838638
 20
-55.97
 11
-0.591339
 21
-55.97
  0
LINE
  8
0
 10
-0.591339
 20
-55.97
 11
-0.346802
 21
-56.0069
  0
LINE
  8
0
 10
-0.346802
 20
-56.0069
 11
-0.110489
 21
-56.0797
  0
LINE
  8
0
 10
-0.110489
 20
-56.0797
 11
0.11232
 21
-56.187
  0
LINE
  8
0
 10
0.11232
 20
-56.187
 11
0.31665
 21
-56.3264
  0
LINE
  8
0
 10
0.31665
 20
-56.3264
 11
0.49794
 21
-56.4946
  0
LINE
  8
0
 10
0.49794
 20
-56.4946
 11
0.65213
 21
-56.6879
  0
LINE
  8
0
 10
0.65213
 20
-56.6879
 11
0.775772
 21
-56.9021
  0
LINE
  8
0
 10
0.775772
 20
-56.9021
 11
0.866119
 21
-57.1323
  0
LINE
  8
0
 10
0.866119
 20
-57.1323
 11
0.921158
 21
-57.3734
  0
LINE
  8
0
 10
0.921158
 20
-57.3734
 11
0.939636
 21
-57.62
  0
LINE
  8
0
 10
0.939636
 20
-57.62
 11
0.921158
 21
-57.8666
  0
LINE
  8
0
 10
0.921158
 20
-57.8666
 11
0.866119
 21
-58.1077
  0
LINE
  8
0
 10
0.866119
 20
-58.1077
 11
0.775772
 21
-58.3379
  0
LINE
  8
0
 10
0.775772
 20
-58.3379
 11
0.65213
 21
-58.5521
  0
LINE
  8
0
 10
0.65213
 20
-58.5521
 11
0.49794
 21
-58.7454
  0
LINE
  8
0
 10
0.49794
 20
-58.7454
 11
0.31665
 21
-58.9136
  0
LINE
  8
0
 10
0.31665
 20
-58.9136
 11
0.11232
 21
-59.0529
  0
LINE
  8
0
 10
0.11232
 20
-59.0529
 11
-0.110489
 21
-59.1602
  0
LINE
  8
0
 10
-0.110489
 20
-59.1602
 11
-0.346802
 21
-59.2331
  0
LINE
  8
0
 10
-0.346802
 20
-59.2331
 11
-0.591339
 21
-59.27
  0
LINE
  8
0
 10
-0.591339
 20
-59.27
 11
-0.838638
 21
-59.27
  0
LINE
  8
0
 10
30.9614
 20
-61.92
 11
30.7168
 21
-61.8831
  0
LINE
  8
0
 10
30.7168
 20
-61.8831
 11
30.4805
 21
-61.8102
  0
LINE
  8
0
 10
30.4805
 20
-61.8102
 11
30.2577
 21
-61.7029
  0
LINE
  8
0
 10
30.2577
 20
-61.7029
 11
30.0534
 21
-61.5636
  0
LINE
  8
0
 10
30.0534
 20
-61.5636
 11
29.8721
 21
-61.3954
  0
LINE
  8
0
 10
29.8721
 20
-61.3954
 11
29.7179
 21
-61.2021
  0
LINE
  8
0
 10
29.7179
 20
-61.2021
 11
29.5942
 21
-60.9879
  0
LINE
  8
0
 10
29.5942
 20
-60.9879
 11
29.5039
 21
-60.7577
  0
LINE
  8
0
 10
29.5039
 20
-60.7577
 11
29.4489
 21
-60.5166
  0
LINE
  8
0
 10
29.4489
 20
-60.5166
 11
29.4304
 21
-60.27
  0
LINE
  8
0
 10
29.4304
 20
-60.27
 11
29.4489
 21
-60.0234
  0
LINE
  8
0
 10
29.4489
 20
-60.0234
 11
29.5039
 21
-59.7823
  0
LINE
  8
0
 10
29.5039
 20
-59.7823
 11
29.5942
 21
-59.5521
  0
LINE
  8
0
 10
29.5942
 20
-59.5521
 11
29.7179
 21
-59.3379
  0
LINE
  8
0
 10
29.7179
 20
-59.3379
 11
29.8721
 21
-59.1446
  0
LINE
  8
0
 10
29.8721
 20
-59.1446
 11
30.0534
 21
-58.9763
  0
LINE
  8
0
 10
30.0534
 20
-58.9763
 11
30.2577
 21
-58.837
  0
LINE
  8
0
 10
30.2577
 20
-58.837
 11
30.4805
 21
-58.7297
  0
LINE
  8
0
 10
30.4805
 20
-58.7297
 11
30.7168
 21
-58.6568
  0
LINE
  8
0
 10
30.7168
 20
-58.6568
 11
30.9614
 21
-58.62
  0
LINE
  8
0
 10
30.9614
 20
-58.62
 11
31.2087
 21
-58.62
  0
LINE
  8
0
 10
31.2087
 20
-58.62
 11
31.4532
 21
-58.6568
  0
LINE
  8
0
 10
31.4532
 20
-58.6568
 11
31.6895
 21
-58.7297
  0
LINE
  8
0
 10
31.6895
 20
-58.7297
 11
31.9123
 21
-58.837
  0
LINE
  8
0
 10
31.9123
 20
-58.837
 11
32.1167
 21
-58.9763
  0
LINE
  8
0
 10
32.1167
 20
-58.9763
 11
32.2979
 21
-59.1446
  0
LINE
  8
0
 10
32.2979
 20
-59.1446
 11
32.4521
 21
-59.3379
  0
LINE
  8
0
 10
32.4521
 20
-59.3379
 11
32.5758
 21
-59.5521
  0
LINE
  8
0
 10
32.5758
 20
-59.5521
 11
32.6661
 21
-59.7823
  0
LINE
  8
0
 10
32.6661
 20
-59.7823
 11
32.7212
 21
-60.0234
  0
LINE
  8
0
 10
32.7212
 20
-60.0234
 11
32.7396
 21
-60.27
  0
LINE
  8
0
 10
32.7396
 20
-60.27
 11
32.7212
 21
-60.5166
  0
LINE
  8
0
 10
32.7212
 20
-60.5166
 11
32.6661
 21
-60.7577
  0
LINE
  8
0
 10
32.6661
 20
-60.7577
 11
32.5758
 21
-60.9879
  0
LINE
  8
0
 10
32.5758
 20
-60.9879
 11
32.4521
 21
-61.2021
  0
LINE
  8
0
 10
32.4521
 20
-61.2021
 11
32.2979
 21
-61.3954
  0
LINE
  8
0
 10
32.2979
 20
-61.3954
 11
32.1167
 21
-61.5636
  0
LINE
  8
0
 10
32.1167
 20
-61.5636
 11
31.9123
 21
-61.7029
  0
LINE
  8
0
 10
31.9123
 20
-61.7029
 11
31.6895
 21
-61.8102
  0
LINE
  8
0
 10
31.6895
 20
-61.8102
 11
31.4532
 21
-61.8831
  0
LINE
  8
0
 10
31.4532
 20
-61.8831
 11
31.2087
 21
-61.92
  0
LINE
  8
0
 10
31.2087
 20
-61.92
 11
30.9614
 21
-61.92
  0
LINE
  8
0
 10
-59.1237
 20
-65.15
 11
-59.3682
 21
-65.1131
  0
LINE
  8
0
 10
-59.3682
 20
-65.1131
 11
-59.6045
 21
-65.0403
  0
LINE
  8
0
 10
-59.6045
 20
-65.0403
 11
-59.8273
 21
-64.933
  0
LINE
  8
0
 10
-59.8273
 20
-64.933
 11
-60.0316
 21
-64.7936
  0
LINE
  8
0
 10
-60.0316
 20
-64.7936
 11
-60.2129
 21
-64.6254
  0
LINE
  8
0
 10
-60.2129
 20
-64.6254
 11
-60.3671
 21
-64.4321
  0
LINE
  8
0
 10
-60.3671
 20
-64.4321
 11
-60.4908
 21
-64.2179
  0
LINE
  8
0
 10
-60.4908
 20
-64.2179
 11
-60.5811
 21
-63.9877
  0
LINE
  8
0
 10
-60.5811
 20
-63.9877
 11
-60.6362
 21
-63.7466
  0
LINE
  8
0
 10
-60.6362
 20
-63.7466
 11
-60.6546
 21
-63.5
  0
LINE
  8
0
 10
-60.6546
 20
-63.5
 11
-60.6362
 21
-63.2534
  0
LINE
  8
0
 10
-60.6362
 20
-63.2534
 11
-60.5811
 21
-63.0123
  0
LINE
  8
0
 10
-60.5811
 20
-63.0123
 11
-60.4908
 21
-62.7821
  0
LINE
  8
0
 10
-60.4908
 20
-62.7821
 11
-60.3671
 21
-62.5679
  0
LINE
  8
0
 10
-60.3671
 20
-62.5679
 11
-60.2129
 21
-62.3746
  0
LINE
  8
0
 10
-60.2129
 20
-62.3746
 11
-60.0316
 21
-62.2064
  0
LINE
  8
0
 10
-60.0316
 20
-62.2064
 11
-59.8273
 21
-62.0671
  0
LINE
  8
0
 10
-59.8273
 20
-62.0671
 11
-59.6045
 21
-61.9598
  0
LINE
  8
0
 10
-59.6045
 20
-61.9598
 11
-59.3682
 21
-61.8869
  0
LINE
  8
0
 10
-59.3682
 20
-61.8869
 11
-59.1237
 21
-61.85
  0
LINE
  8
0
 10
-59.1237
 20
-61.85
 11
-58.8764
 21
-61.85
  0
LINE
  8
0
 10
-58.8764
 20
-61.85
 11
-58.6318
 21
-61.8869
  0
LINE
  8
0
 10
-58.6318
 20
-61.8869
 11
-58.3955
 21
-61.9598
  0
LINE
  8
0
 10
-58.3955
 20
-61.9598
 11
-58.1727
 21
-62.0671
  0
LINE
  8
0
 10
-58.1727
 20
-62.0671
 11
-57.9684
 21
-62.2064
  0
LINE
  8
0
 10
-57.9684
 20
-62.2064
 11
-57.7871
 21
-62.3746
  0
LINE
  8
0
 10
-57.7871
 20
-62.3746
 11
-57.6329
 21
-62.5679
  0
LINE
  8
0
 10
-57.6329
 20
-62.5679
 11
-57.5092
 21
-62.7821
  0
LINE
  8
0
 10
-57.5092
 20
-62.7821
 11
-57.4189
 21
-63.0123
  0
LINE
  8
0
 10
-57.4189
 20
-63.0123
 11
-57.3639
 21
-63.2534
  0
LINE
  8
0
 10
-57.3639
 20
-63.2534
 11
-57.3454
 21
-63.5
  0
LINE
  8
0
 10
-57.3454
 20
-63.5
 11
-57.3639
 21
-63.7466
  0
LINE
  8
0
 10
-57.3639
 20
-63.7466
 11
-57.4189
 21
-63.9877
  0
LINE
  8
0
 10
-57.4189
 20
-63.9877
 11
-57.5092
 21
-64.2179
  0
LINE
  8
0
 10
-57.5092
 20
-64.2179
 11
-57.6329
 21
-64.4321
  0
LINE
  8
0
 10
-57.6329
 20
-64.4321
 11
-57.7871
 21
-64.6254
  0
LINE
  8
0
 10
-57.7871
 20
-64.6254
 11
-57.9684
 21
-64.7936
  0
LINE
  8
0
 10
-57.9684
 20
-64.7936
 11
-58.1727
 21
-64.933
  0
LINE
  8
0
 10
-58.1727
 20
-64.933
 11
-58.3955
 21
-65.0403
  0
LINE
  8
0
 10
-58.3955
 20
-65.0403
 11
-58.6318
 21
-65.1131
  0
LINE
  8
0
 10
-58.6318
 20
-65.1131
 11
-58.8764
 21
-65.15
  0
LINE
  8
0
 10
-58.8764
 20
-65.15
 11
-59.1237
 21
-65.15
  0
LINE
  8
0
 10
-77.3737
 20
-71.575
 11
-77.6182
 21
-71.5381
  0
LINE
  8
0
 10
-77.6182
 20
-71.5381
 11
-77.8545
 21
-71.4653
  0
LINE
  8
0
 10
-77.8545
 20
-71.4653
 11
-78.0773
 21
-71.358
  0
LINE
  8
0
 10
-78.0773
 20
-71.358
 11
-78.2816
 21
-71.2186
  0
LINE
  8
0
 10
-78.2816
 20
-71.2186
 11
-78.4629
 21
-71.0504
  0
LINE
  8
0
 10
-78.4629
 20
-71.0504
 11
-78.6171
 21
-70.8571
  0
LINE
  8
0
 10
-78.6171
 20
-70.8571
 11
-78.7408
 21
-70.6429
  0
LINE
  8
0
 10
-78.7408
 20
-70.6429
 11
-78.8311
 21
-70.4127
  0
LINE
  8
0
 10
-78.8311
 20
-70.4127
 11
-78.8862
 21
-70.1716
  0
LINE
  8
0
 10
-78.8862
 20
-70.1716
 11
-78.9046
 21
-69.925
  0
LINE
  8
0
 10
-78.9046
 20
-69.925
 11
-78.8862
 21
-69.6784
  0
LINE
  8
0
 10
-78.8862
 20
-69.6784
 11
-78.8311
 21
-69.4373
  0
LINE
  8
0
 10
-78.8311
 20
-69.4373
 11
-78.7408
 21
-69.2071
  0
LINE
  8
0
 10
-78.7408
 20
-69.2071
 11
-78.6171
 21
-68.9929
  0
LINE
  8
0
 10
-78.6171
 20
-68.9929
 11
-78.4629
 21
-68.7996
  0
LINE
  8
0
 10
-78.4629
 20
-68.7996
 11
-78.2816
 21
-68.6314
  0
LINE
  8
0
 10
-78.2816
 20
-68.6314
 11
-78.0773
 21
-68.4921
  0
LINE
  8
0
 10
-78.0773
 20
-68.4921
 11
-77.8545
 21
-68.3848
  0
LINE
  8
0
 10
-77.8545
 20
-68.3848
 11
-77.6182
 21
-68.3119
  0
LINE
  8
0
 10
-77.6182
 20
-68.3119
 11
-77.3737
 21
-68.275
  0
LINE
  8
0
 10
-77.3737
 20
-68.275
 11
-77.1264
 21
-68.275
  0
LINE
  8
0
 10
-77.1264
 20
-68.275
 11
-76.8818
 21
-68.3119
  0
LINE
  8
0
 10
-76.8818
 20
-68.3119
 11
-76.6455
 21
-68.3848
  0
LINE
  8
0
 10
-76.6455
 20
-68.3848
 11
-76.4227
 21
-68.4921
  0
LINE
  8
0
 10
-76.4227
 20
-68.4921
 11
-76.2184
 21
-68.6314
  0
LINE
  8
0
 10
-76.2184
 20
-68.6314
 11
-76.0371
 21
-68.7996
  0
LINE
  8
0
 10
-76.0371
 20
-68.7996
 11
-75.8829
 21
-68.9929
  0
LINE
  8
0
 10
-75.8829
 20
-68.9929
 11
-75.7592
 21
-69.2071
  0
LINE
  8
0
 10
-75.7592
 20
-69.2071
 11
-75.6689
 21
-69.4373
  0
LINE
  8
0
 10
-75.6689
 20
-69.4373
 11
-75.6139
 21
-69.6784
  0
LINE
  8
0
 10
-75.6139
 20
-69.6784
 11
-75.5954
 21
-69.925
  0
LINE
  8
0
 10
-75.5954
 20
-69.925
 11
-75.6139
 21
-70.1716
  0
LINE
  8
0
 10
-75.6139
 20
-70.1716
 11
-75.6689
 21
-70.4127
  0
LINE
  8
0
 10
-75.6689
 20
-70.4127
 11
-75.7592
 21
-70.6429
  0
LINE
  8
0
 10
-75.7592
 20
-70.6429
 11
-75.8829
 21
-70.8571
  0
LINE
  8
0
 10
-75.8829
 20
-70.8571
 11
-76.0371
 21
-71.0504
  0
LINE
  8
0
 10
-76.0371
 20
-71.0504
 11
-76.2184
 21
-71.2186
  0
LINE
  8
0
 10
-76.2184
 20
-71.2186
 11
-76.4227
 21
-71.358
  0
LINE
  8
0
 10
-76.4227
 20
-71.358
 11
-76.6455
 21
-71.4653
  0
LINE
  8
0
 10
-76.6455
 20
-71.4653
 11
-76.8818
 21
-71.5381
  0
LINE
  8
0
 10
-76.8818
 20
-71.5381
 11
-77.1264
 21
-71.575
  0
LINE
  8
0
 10
-77.1264
 20
-71.575
 11
-77.3737
 21
-71.575
  0
LINE
  8
0
 10
103.753
 20
-83.6362
 11
103.512
 21
-83.5811
  0
LINE
  8
0
 10
103.512
 20
-83.5811
 11
103.282
 21
-83.4908
  0
LINE
  8
0
 10
103.282
 20
-83.4908
 11
103.068
 21
-83.3671
  0
LINE
  8
0
 10
103.068
 20
-83.3671
 11
102.875
 21
-83.2129
  0
LINE
  8
0
 10
102.875
 20
-83.2129
 11
102.706
 21
-83.0316
  0
LINE
  8
0
 10
102.706
 20
-83.0316
 11
102.567
 21
-82.8273
  0
LINE
  8
0
 10
102.567
 20
-82.8273
 11
102.46
 21
-82.6045
  0
LINE
  8
0
 10
102.46
 20
-82.6045
 11
102.387
 21
-82.3682
  0
LINE
  8
0
 10
102.387
 20
-82.3682
 11
102.35
 21
-82.1237
  0
LINE
  8
0
 10
102.35
 20
-82.1237
 11
102.35
 21
-81.8764
  0
LINE
  8
0
 10
102.35
 20
-81.8764
 11
102.387
 21
-81.6318
  0
LINE
  8
0
 10
102.387
 20
-81.6318
 11
102.46
 21
-81.3955
  0
LINE
  8
0
 10
102.46
 20
-81.3955
 11
102.567
 21
-81.1727
  0
LINE
  8
0
 10
102.567
 20
-81.1727
 11
102.706
 21
-80.9684
  0
LINE
  8
0
 10
102.706
 20
-80.9684
 11
102.875
 21
-80.7871
  0
LINE
  8
0
 10
102.875
 20
-80.7871
 11
103.068
 21
-80.6329
  0
LINE
  8
0
 10
103.068
 20
-80.6329
 11
103.282
 21
-80.5092
  0
LINE
  8
0
 10
103.282
 20
-80.5092
 11
103.512
 21
-80.4189
  0
LINE
  8
0
 10
103.512
 20
-80.4189
 11
103.753
 21
-80.3639
  0
LINE
  8
0
 10
103.753
 20
-80.3639
 11
104
 21
-80.3454
  0
LINE
  8
0
 10
104
 20
-80.3454
 11
104.247
 21
-80.3639
  0
LINE
  8
0
 10
104.247
 20
-80.3639
 11
104.488
 21
-80.4189
  0
LINE
  8
0
 10
104.488
 20
-80.4189
 11
104.718
 21
-80.5092
  0
LINE
  8
0
 10
104.718
 20
-80.5092
 11
104.932
 21
-80.6329
  0
LINE
  8
0
 10
104.932
 20
-80.6329
 11
105.125
 21
-80.7871
  0
LINE
  8
0
 10
105.125
 20
-80.7871
 11
105.294
 21
-80.9684
  0
LINE
  8
0
 10
105.294
 20
-80.9684
 11
105.433
 21
-81.1727
  0
LINE
  8
0
 10
105.433
 20
-81.1727
 11
105.54
 21
-81.3955
  0
LINE
  8
0
 10
105.54
 20
-81.3955
 11
105.613
 21
-81.6318
  0
LINE
  8
0
 10
105.613
 20
-81.6318
 11
105.65
 21
-81.8764
  0
LINE
  8
0
 10
105.65
 20
-81.8764
 11
105.65
 21
-82.1237
  0
LINE
  8
0
 10
105.65
 20
-82.1237
 11
105.613
 21
-82.3682
  0
LINE
  8
0
 10
105.613
 20
-82.3682
 11
105.54
 21
-82.6045
  0
LINE
  8
0
 10
105.54
 20
-82.6045
 11
105.433
 21
-82.8273
  0
LINE
  8
0
 10
105.433
 20
-82.8273
 11
105.294
 21
-83.0316
  0
LINE
  8
0
 10
105.294
 20
-83.0316
 11
105.125
 21
-83.2129
  0
LINE
  8
0
 10
105.125
 20
-83.2129
 11
104.932
 21
-83.3671
  0
LINE
  8
0
 10
104.932
 20
-83.3671
 11
104.718
 21
-83.4908
  0
LINE
  8
0
 10
104.718
 20
-83.4908
 11
104.488
 21
-83.5811
  0
LINE
  8
0
 10
104.488
 20
-83.5811
 11
104.247
 21
-83.6362
  0
LINE
  8
0
 10
104.247
 20
-83.6362
 11
104
 21
-83.6546
  0
LINE
  8
0
 10
104
 20
-83.6546
 11
103.753
 21
-83.6362
  0
LINE
  8
0
 10
-104.247
 20
-83.6362
 11
-104.488
 21
-83.5811
  0
LINE
  8
0
 10
-104.488
 20
-83.5811
 11
-104.718
 21
-83.4908
  0
LINE
  8
0
 10
-104.718
 20
-83.4908
 11
-104.932
 21
-83.3671
  0
LINE
  8
0
 10
-104.932
 20
-83.3671
 11
-105.125
 21
-83.2129
  0
LINE
  8
0
 10
-105.125
 20
-83.2129
 11
-105.294
 21
-83.0316
  0
LINE
  8
0
 10
-105.294
 20
-83.0316
 11
-105.433
 21
-82.8273
  0
LINE
  8
0
 10
-105.433
 20
-82.8273
 11
-105.54
 21
-82.6045
  0
LINE
  8
0
 10
-105.54
 20
-82.6045
 11
-105.613
 21
-82.3682
  0
LINE
  8
0
 10
-105.613
 20
-82.3682
 11
-105.65
 21
-82.1237
  0
LINE
  8
0
 10
-105.65
 20
-82.1237
 11
-105.65
 21
-81.8764
  0
LINE
  8
0
 10
-105.65
 20
-81.8764
 11
-105.613
 21
-81.6318
  0
LINE
  8
0
 10
-105.613
 20
-81.6318
 11
-105.54
 21
-81.3955
  0
LINE
  8
0
 10
-105.54
 20
-81.3955
 11
-105.433
 21
-81.1727
  0
LINE
  8
0
 10
-105.433
 20
-81.1727
 11
-105.294
 21
-80.9684
  0
LINE
  8
0
 10
-105.294
 20
-80.9684
 11
-105.125
 21
-80.7871
  0
LINE
  8
0
 10
-105.125
 20
-80.7871
 11
-104.932
 21
-80.6329
  0
LINE
  8
0
 10
-104.932
 20
-80.6329
 11
-104.718
 21
-80.5092
  0
LINE
  8
0
 10
-104.718
 20
-80.5092
 11
-104.488
 21
-80.4189
  0
LINE
  8
0
 10
-104.488
 20
-80.4189
 11
-104.247
 21
-80.3639
  0
LINE
  8
0
 10
-104.247
 20
-80.3639
 11
-104
 21
-80.3454
  0
LINE
  8
0
 10
-104
 20
-80.3454
 11
-103.753
 21
-80.3639
  0
LINE
  8
0
 10
-103.753
 20
-80.3639
 11
-103.512
 21
-80.4189
  0
LINE
  8
0
 10
-103.512
 20
-80.4189
 11
-103.282
 21
-80.5092
  0
LINE
  8
0
 10
-103.282
 20
-80.5092
 11
-103.068
 21
-80.6329
  0
LINE
  8
0
 10
-103.068
 20
-80.6329
 11
-102.875
 21
-80.7871
  0
LINE
  8
0
 10
-102.875
 20
-80.7871
 11
-102.706
 21
-80.9684
  0
LINE
  8
0
 10
-102.706
 20
-80.9684
 11
-102.567
 21
-81.1727
  0
LINE
  8
0
 10
-102.567
 20
-81.1727
 11
-102.46
 21
-81.3955
  0
LINE
  8
0
 10
-102.46
 20
-81.3955
 11
-102.387
 21
-81.6318
  0
LINE
  8
0
 10
-102.387
 20
-81.6318
 11
-102.35
 21
-81.8764
  0
LINE
  8
0
 10
-102.35
 20
-81.8764
 11
-102.35
 21
-82.1237
  0
LINE
  8
0
 10
-102.35
 20
-82.1237
 11
-102.387
 21
-82.3682
  0
LINE
  8
0
 10
-102.387
 20
-82.3682
 11
-102.46
 21
-82.6045
  0
LINE
  8
0
 10
-102.46
 20
-82.6045
 11
-102.567
 21
-82.8273
  0
LINE
  8
0
 10
-102.567
 20
-82.8273
 11
-102.706
 21
-83.0316
  0
LINE
  8
0
 10
-102.706
 20
-83.0316
 11
-102.875
 21
-83.2129
  0
LINE
  8
0
 10
-102.875
 20
-83.2129
 11
-103.068
 21
-83.3671
  0
LINE
  8
0
 10
-103.068
 20
-83.3671
 11
-103.282
 21
-83.4908
  0
LINE
  8
0
 10
-103.282
 20
-83.4908
 11
-103.512
 21
-83.5811
  0
LINE
  8
0
 10
-103.512
 20
-83.5811
 11
-103.753
 21
-83.6362
  0
LINE
  8
0
 10
-103.753
 20
-83.6362
 11
-104
 21
-83.6546
  0
LINE
  8
0
 10
-104
 20
-83.6546
 11
-104.247
 21
-83.6362
  0
LINE
  8
0
 10
-66.7466
 20
-88.1361
 11
-66.9877
 21
-88.0811
  0
LINE
  8
0
 10
-66.9877
 20
-88.0811
 11
-67.2179
 21
-87.9908
  0
LINE
  8
0
 10
-67.2179
 20
-87.9908
 11
-67.4321
 21
-87.8671
  0
LINE
  8
0
 10
-67.4321
 20
-87.8671
 11
-67.6254
 21
-87.7129
  0
LINE
  8
0
 10
-67.6254
 20
-87.7129
 11
-67.7936
 21
-87.5316
  0
LINE
  8
0
 10
-67.7936
 20
-87.5316
 11
-67.9329
 21
-87.3273
  0
LINE
  8
0
 10
-67.9329
 20
-87.3273
 11
-68.0402
 21
-87.1045
  0
LINE
  8
0
 10
-68.0402
 20
-87.1045
 11
-68.1131
 21
-86.8682
  0
LINE
  8
0
 10
-68.1131
 20
-86.8682
 11
-68.15
 21
-86.6236
  0
LINE
  8
0
 10
-68.15
 20
-86.6236
 11
-68.15
 21
-86.3763
  0
LINE
  8
0
 10
-68.15
 20
-86.3763
 11
-68.1131
 21
-86.1318
  0
LINE
  8
0
 10
-68.1131
 20
-86.1318
 11
-68.0402
 21
-85.8955
  0
LINE
  8
0
 10
-68.0402
 20
-85.8955
 11
-67.9329
 21
-85.6727
  0
LINE
  8
0
 10
-67.9329
 20
-85.6727
 11
-67.7936
 21
-85.4684
  0
LINE
  8
0
 10
-67.7936
 20
-85.4684
 11
-67.6254
 21
-85.2871
  0
LINE
  8
0
 10
-67.6254
 20
-85.2871
 11
-67.4321
 21
-85.1329
  0
LINE
  8
0
 10
-67.4321
 20
-85.1329
 11
-67.2179
 21
-85.0092
  0
LINE
  8
0
 10
-67.2179
 20
-85.0092
 11
-66.9877
 21
-84.9189
  0
LINE
  8
0
 10
-66.9877
 20
-84.9189
 11
-66.7466
 21
-84.8638
  0
LINE
  8
0
 10
-66.7466
 20
-84.8638
 11
-66.5
 21
-84.8454
  0
LINE
  8
0
 10
-66.5
 20
-84.8454
 11
-66.2534
 21
-84.8638
  0
LINE
  8
0
 10
-66.2534
 20
-84.8638
 11
-66.0123
 21
-84.9189
  0
LINE
  8
0
 10
-66.0123
 20
-84.9189
 11
-65.7821
 21
-85.0092
  0
LINE
  8
0
 10
-65.7821
 20
-85.0092
 11
-65.5679
 21
-85.1329
  0
LINE
  8
0
 10
-65.5679
 20
-85.1329
 11
-65.3746
 21
-85.2871
  0
LINE
  8
0
 10
-65.3746
 20
-85.2871
 11
-65.2064
 21
-85.4684
  0
LINE
  8
0
 10
-65.2064
 20
-85.4684
 11
-65.067
 21
-85.6727
  0
LINE
  8
0
 10
-65.067
 20
-85.6727
 11
-64.9597
 21
-85.8955
  0
LINE
  8
0
 10
-64.9597
 20
-85.8955
 11
-64.8869
 21
-86.1318
  0
LINE
  8
0
 10
-64.8869
 20
-86.1318
 11
-64.85
 21
-86.3763
  0
LINE
  8
0
 10
-64.85
 20
-86.3763
 11
-64.85
 21
-86.6236
  0
LINE
  8
0
 10
-64.85
 20
-86.6236
 11
-64.8869
 21
-86.8682
  0
LINE
  8
0
 10
-64.8869
 20
-86.8682
 11
-64.9597
 21
-87.1045
  0
LINE
  8
0
 10
-64.9597
 20
-87.1045
 11
-65.067
 21
-87.3273
  0
LINE
  8
0
 10
-65.067
 20
-87.3273
 11
-65.2064
 21
-87.5316
  0
LINE
  8
0
 10
-65.2064
 20
-87.5316
 11
-65.3746
 21
-87.7129
  0
LINE
  8
0
 10
-65.3746
 20
-87.7129
 11
-65.5679
 21
-87.8671
  0
LINE
  8
0
 10
-65.5679
 20
-87.8671
 11
-65.7821
 21
-87.9908
  0
LINE
  8
0
 10
-65.7821
 20
-87.9908
 11
-66.0123
 21
-88.0811
  0
LINE
  8
0
 10
-66.0123
 20
-88.0811
 11
-66.2534
 21
-88.1361
  0
LINE
  8
0
 10
-66.2534
 20
-88.1361
 11
-66.5
 21
-88.1546
  0
LINE
  8
0
 10
-66.5
 20
-88.1546
 11
-66.7466
 21
-88.1361
  0
LINE
  8
0
 10
-17.7466
 20
-88.1361
 11
-17.9877
 21
-88.0811
  0
LINE
  8
0
 10
-17.9877
 20
-88.0811
 11
-18.2179
 21
-87.9908
  0
LINE
  8
0
 10
-18.2179
 20
-87.9908
 11
-18.4321
 21
-87.8671
  0
LINE
  8
0
 10
-18.4321
 20
-87.8671
 11
-18.6254
 21
-87.7129
  0
LINE
  8
0
 10
-18.6254
 20
-87.7129
 11
-18.7936
 21
-87.5316
  0
LINE
  8
0
 10
-18.7936
 20
-87.5316
 11
-18.933
 21
-87.3273
  0
LINE
  8
0
 10
-18.933
 20
-87.3273
 11
-19.0403
 21
-87.1045
  0
LINE
  8
0
 10
-19.0403
 20
-87.1045
 11
-19.1131
 21
-86.8682
  0
LINE
  8
0
 10
-19.1131
 20
-86.8682
 11
-19.15
 21
-86.6236
  0
LINE
  8
0
 10
-19.15
 20
-86.6236
 11
-19.15
 21
-86.3763
  0
LINE
  8
0
 10
-19.15
 20
-86.3763
 11
-19.1131
 21
-86.1318
  0
LINE
  8
0
 10
-19.1131
 20
-86.1318
 11
-19.0403
 21
-85.8955
  0
LINE
  8
0
 10
-19.0403
 20
-85.8955
 11
-18.933
 21
-85.6727
  0
LINE
  8
0
 10
-18.933
 20
-85.6727
 11
-18.7936
 21
-85.4684
  0
LINE
  8
0
 10
-18.7936
 20
-85.4684
 11
-18.6254
 21
-85.2871
  0
LINE
  8
0
 10
-18.6254
 20
-85.2871
 11
-18.4321
 21
-85.1329
  0
LINE
  8
0
 10
-18.4321
 20
-85.1329
 11
-18.2179
 21
-85.0092
  0
LINE
  8
0
 10
-18.2179
 20
-85.0092
 11
-17.9877
 21
-84.9189
  0
LINE
  8
0
 10
-17.9877
 20
-84.9189
 11
-17.7466
 21
-84.8638
  0
LINE
  8
0
 10
-17.7466
 20
-84.8638
 11
-17.5
 21
-84.8454
  0
LINE
  8
0
 10
-17.5
 20
-84.8454
 11
-17.2534
 21
-84.8638
  0
LINE
  8
0
 10
-17.2534
 20
-84.8638
 11
-17.0123
 21
-84.9189
  0
LINE
  8
0
 10
-17.0123
 20
-84.9189
 11
-16.7821
 21
-85.0092
  0
LINE
  8
0
 10
-16.7821
 20
-85.0092
 11
-16.5679
 21
-85.1329
  0
LINE
  8
0
 10
-16.5679
 20
-85.1329
 11
-16.3746
 21
-85.2871
  0
LINE
  8
0
 10
-16.3746
 20
-85.2871
 11
-16.2064
 21
-85.4684
  0
LINE
  8
0
 10
-16.2064
 20
-85.4684
 11
-16.0671
 21
-85.6727
  0
LINE
  8
0
 10
-16.0671
 20
-85.6727
 11
-15.9598
 21
-85.8955
  0
LINE
  8
0
 10
-15.9598
 20
-85.8955
 11
-15.8869
 21
-86.1318
  0
LINE
  8
0
 10
-15.8869
 20
-86.1318
 11
-15.85
 21
-86.3763
  0
LINE
  8
0
 10
-15.85
 20
-86.3763
 11
-15.85
 21
-86.6236
  0
LINE
  8
0
 10
-15.85
 20
-86.6236
 11
-15.8869
 21
-86.8682
  0
LINE
  8
0
 10
-15.8869
 20
-86.8682
 11
-15.9598
 21
-87.1045
  0
LINE
  8
0
 10
-15.9598
 20
-87.1045
 11
-16.0671
 21
-87.3273
  0
LINE
  8
0
 10
-16.0671
 20
-87.3273
 11
-16.2064
 21
-87.5316
  0
LINE
  8
0
 10
-16.2064
 20
-87.5316
 11
-16.3746
 21
-87.7129
  0
LINE
  8
0
 10
-16.3746
 20
-87.7129
 11
-16.5679
 21
-87.8671
  0
LINE
  8
0
 10
-16.5679
 20
-87.8671
 11
-16.7821
 21
-87.9908
  0
LINE
  8
0
 10
-16.7821
 20
-87.9908
 11
-17.0123
 21
-88.0811
  0
LINE
  8
0
 10
-17.0123
 20
-88.0811
 11
-17.2534
 21
-88.1361
  0
LINE
  8
0
 10
-17.2534
 20
-88.1361
 11
-17.5
 21
-88.1546
  0
LINE
  8
0
 10
-17.5
 20
-88.1546
 11
-17.7466
 21
-88.1361
  0
LINE
  8
0
 10
94.8413
 20
-88.76
 11
94.5968
 21
-88.7231
  0
LINE
  8
0
 10
94.5968
 20
-88.7231
 11
94.3605
 21
-88.6502
  0
LINE
  8
0
 10
94.3605
 20
-88.6502
 11
94.1377
 21
-88.5429
  0
LINE
  8
0
 10
94.1377
 20
-88.5429
 11
93.9333
 21
-88.4036
  0
LINE
  8
0
 10
93.9333
 20
-88.4036
 11
93.7521
 21
-88.2354
  0
LINE
  8
0
 10
93.7521
 20
-88.2354
 11
93.5979
 21
-88.0421
  0
LINE
  8
0
 10
93.5979
 20
-88.0421
 11
93.4742
 21
-87.8279
  0
LINE
  8
0
 10
93.4742
 20
-87.8279
 11
93.3839
 21
-87.5977
  0
LINE
  8
0
 10
93.3839
 20
-87.5977
 11
93.3288
 21
-87.3566
  0
LINE
  8
0
 10
93.3288
 20
-87.3566
 11
93.3104
 21
-87.11
  0
LINE
  8
0
 10
93.3104
 20
-87.11
 11
93.3288
 21
-86.8634
  0
LINE
  8
0
 10
93.3288
 20
-86.8634
 11
93.3839
 21
-86.6223
  0
LINE
  8
0
 10
93.3839
 20
-86.6223
 11
93.4742
 21
-86.3921
  0
LINE
  8
0
 10
93.4742
 20
-86.3921
 11
93.5979
 21
-86.1779
  0
LINE
  8
0
 10
93.5979
 20
-86.1779
 11
93.7521
 21
-85.9846
  0
LINE
  8
0
 10
93.7521
 20
-85.9846
 11
93.9333
 21
-85.8164
  0
LINE
  8
0
 10
93.9333
 20
-85.8164
 11
94.1377
 21
-85.677
  0
LINE
  8
0
 10
94.1377
 20
-85.677
 11
94.3605
 21
-85.5697
  0
LINE
  8
0
 10
94.3605
 20
-85.5697
 11
94.5968
 21
-85.4969
  0
LINE
  8
0
 10
94.5968
 20
-85.4969
 11
94.8413
 21
-85.46
  0
LINE
  8
0
 10
94.8413
 20
-85.46
 11
95.0886
 21
-85.46
  0
LINE
  8
0
 10
95.0886
 20
-85.46
 11
95.3332
 21
-85.4969
  0
LINE
  8
0
 10
95.3332
 20
-85.4969
 11
95.5695
 21
-85.5697
  0
LINE
  8
0
 10
95.5695
 20
-85.5697
 11
95.7923
 21
-85.677
  0
LINE
  8
0
 10
95.7923
 20
-85.677
 11
95.9966
 21
-85.8164
  0
LINE
  8
0
 10
95.9966
 20
-85.8164
 11
96.1779
 21
-85.9846
  0
LINE
  8
0
 10
96.1779
 20
-85.9846
 11
96.3321
 21
-86.1779
  0
LINE
  8
0
 10
96.3321
 20
-86.1779
 11
96.4558
 21
-86.3921
  0
LINE
  8
0
 10
96.4558
 20
-86.3921
 11
96.5461
 21
-86.6223
  0
LINE
  8
0
 10
96.5461
 20
-86.6223
 11
96.6011
 21
-86.8634
  0
LINE
  8
0
 10
96.6011
 20
-86.8634
 11
96.6196
 21
-87.11
  0
LINE
  8
0
 10
96.6196
 20
-87.11
 11
96.6011
 21
-87.3566
  0
LINE
  8
0
 10
96.6011
 20
-87.3566
 11
96.5461
 21
-87.5977
  0
LINE
  8
0
 10
96.5461
 20
-87.5977
 11
96.4558
 21
-87.8279
  0
LINE
  8
0
 10
96.4558
 20
-87.8279
 11
96.3321
 21
-88.0421
  0
LINE
  8
0
 10
96.3321
 20
-88.0421
 11
96.1779
 21
-88.2354
  0
LINE
  8
0
 10
96.1779
 20
-88.2354
 11
95.9966
 21
-88.4036
  0
LINE
  8
0
 10
95.9966
 20
-88.4036
 11
95.7923
 21
-88.5429
  0
LINE
  8
0
 10
95.7923
 20
-88.5429
 11
95.5695
 21
-88.6502
  0
LINE
  8
0
 10
95.5695
 20
-88.6502
 11
95.3332
 21
-88.7231
  0
LINE
  8
0
 10
95.3332
 20
-88.7231
 11
95.0886
 21
-88.76
  0
LINE
  8
0
 10
95.0886
 20
-88.76
 11
94.8413
 21
-88.76
  0
LINE
  8
0
 10
35.0867
 20
-97.6362
 11
34.8456
 21
-97.5811
  0
LINE
  8
0
 10
34.8456
 20
-97.5811
 11
34.6154
 21
-97.4908
  0
LINE
  8
0
 10
34.6154
 20
-97.4908
 11
34.4012
 21
-97.3671
  0
LINE
  8
0
 10
34.4012
 20
-97.3671
 11
34.2079
 21
-97.2129
  0
LINE
  8
0
 10
34.2079
 20
-97.2129
 11
34.0397
 21
-97.0316
  0
LINE
  8
0
 10
34.0397
 20
-97.0316
 11
33.9004
 21
-96.8273
  0
LINE
  8
0
 10
33.9004
 20
-96.8273
 11
33.7931
 21
-96.6045
  0
LINE
  8
0
 10
33.7931
 20
-96.6045
 11
33.7202
 21
-96.3682
  0
LINE
  8
0
 10
33.7202
 20
-96.3682
 11
33.6833
 21
-96.1237
  0
LINE
  8
0
 10
33.6833
 20
-96.1237
 11
33.6833
 21
-95.8764
  0
LINE
  8
0
 10
33.6833
 20
-95.8764
 11
33.7202
 21
-95.6318
  0
LINE
  8
0
 10
33.7202
 20
-95.6318
 11
33.7931
 21
-95.3955
  0
LINE
  8
0
 10
33.7931
 20
-95.3955
 11
33.9004
 21
-95.1727
  0
LINE
  8
0
 10
33.9004
 20
-95.1727
 11
34.0397
 21
-94.9684
  0
LINE
  8
0
 10
34.0397
 20
-94.9684
 11
34.2079
 21
-94.7871
  0
LINE
  8
0
 10
34.2079
 20
-94.7871
 11
34.4012
 21
-94.6329
  0
LINE
  8
0
 10
34.4012
 20
-94.6329
 11
34.6154
 21
-94.5092
  0
LINE
  8
0
 10
34.6154
 20
-94.5092
 11
34.8456
 21
-94.4189
  0
LINE
  8
0
 10
34.8456
 20
-94.4189
 11
35.0867
 21
-94.3639
  0
LINE
  8
0
 10
35.0867
 20
-94.3639
 11
35.3333
 21
-94.3454
  0
LINE
  8
0
 10
35.3333
 20
-94.3454
 11
35.5799
 21
-94.3639
  0
LINE
  8
0
 10
35.5799
 20
-94.3639
 11
35.821
 21
-94.4189
  0
LINE
  8
0
 10
35.821
 20
-94.4189
 11
36.0512
 21
-94.5092
  0
LINE
  8
0
 10
36.0512
 20
-94.5092
 11
36.2654
 21
-94.6329
  0
LINE
  8
0
 10
36.2654
 20
-94.6329
 11
36.4588
 21
-94.7871
  0
LINE
  8
0
 10
36.4588
 20
-94.7871
 11
36.627
 21
-94.9684
  0
LINE
  8
0
 10
36.627
 20
-94.9684
 11
36.7663
 21
-95.1727
  0
LINE
  8
0
 10
36.7663
 20
-95.1727
 11
36.8736
 21
-95.3955
  0
LINE
  8
0
 10
36.8736
 20
-95.3955
 11
36.9465
 21
-95.6318
  0
LINE
  8
0
 10
36.9465
 20
-95.6318
 11
36.9833
 21
-95.8764
  0
LINE
  8
0
 10
36.9833
 20
-95.8764
 11
36.9833
 21
-96.1237
  0
LINE
  8
0
 10
36.9833
 20
-96.1237
 11
36.9465
 21
-96.3682
  0
LINE
  8
0
 10
36.9465
 20
-96.3682
 11
36.8736
 21
-96.6045
  0
LINE
  8
0
 10
36.8736
 20
-96.6045
 11
36.7663
 21
-96.8273
  0
LINE
  8
0
 10
36.7663
 20
-96.8273
 11
36.627
 21
-97.0316
  0
LINE
  8
0
 10
36.627
 20
-97.0316
 11
36.4588
 21
-97.2129
  0
LINE
  8
0
 10
36.4588
 20
-97.2129
 11
36.2654
 21
-97.3671
  0
LINE
  8
0
 10
36.2654
 20
-97.3671
 11
36.0512
 21
-97.4908
  0
LINE
  8
0
 10
36.0512
 20
-97.4908
 11
35.821
 21
-97.5811
  0
LINE
  8
0
 10
35.821
 20
-97.5811
 11
35.5799
 21
-97.6362
  0
LINE
  8
0
 10
35.5799
 20
-97.6362
 11
35.3333
 21
-97.6546
  0
LINE
  8
0
 10
35.3333
 20
-97.6546
 11
35.0867
 21
-97.6362
  0
LINE
  8
0
 10
-35.58
 20
-97.6362
 11
-35.821
 21
-97.5811
  0
LINE
  8
0
 10
-35.821
 20
-97.5811
 11
-36.0513
 21
-97.4908
  0
LINE
  8
0
 10
-36.0513
 20
-97.4908
 11
-36.2654
 21
-97.3671
  0
LINE
  8
0
 10
-36.2654
 20
-97.3671
 11
-36.4588
 21
-97.2129
  0
LINE
  8
0
 10
-36.4588
 20
-97.2129
 11
-36.627
 21
-97.0316
  0
LINE
  8
0
 10
-36.627
 20
-97.0316
 11
-36.7663
 21
-96.8273
  0
LINE
  8
0
 10
-36.7663
 20
-96.8273
 11
-36.8736
 21
-96.6045
  0
LINE
  8
0
 10
-36.8736
 20
-96.6045
 11
-36.9465
 21
-96.3682
  0
LINE
  8
0
 10
-36.9465
 20
-96.3682
 11
-36.9833
 21
-96.1237
  0
LINE
  8
0
 10
-36.9833
 20
-96.1237
 11
-36.9833
 21
-95.8764
  0
LINE
  8
0
 10
-36.9833
 20
-95.8764
 11
-36.9465
 21
-95.6318
  0
LINE
  8
0
 10
-36.9465
 20
-95.6318
 11
-36.8736
 21
-95.3955
  0
LINE
  8
0
 10
-36.8736
 20
-95.3955
 11
-36.7663
 21
-95.1727
  0
LINE
  8
0
 10
-36.7663
 20
-95.1727
 11
-36.627
 21
-94.9684
  0
LINE
  8
0
 10
-36.627
 20
-94.9684
 11
-36.4588
 21
-94.7871
  0
LINE
  8
0
 10
-36.4588
 20
-94.7871
 11
-36.2654
 21
-94.6329
  0
LINE
  8
0
 10
-36.2654
 20
-94.6329
 11
-36.0513
 21
-94.5092
  0
LINE
  8
0
 10
-36.0513
 20
-94.5092
 11
-35.821
 21
-94.4189
  0
LINE
  8
0
 10
-35.821
 20
-94.4189
 11
-35.58
 21
-94.3639
  0
LINE
  8
0
 10
-35.58
 20
-94.3639
 11
-35.3333
 21
-94.3454
  0
LINE
  8
0
 10
-35.3333
 20
-94.3454
 11
-35.0867
 21
-94.3639
  0
LINE
  8
0
 10
-35.0867
 20
-94.3639
 11
-34.8456
 21
-94.4189
  0
LINE
  8
0
 10
-34.8456
 20
-94.4189
 11
-34.6154
 21
-94.5092
  0
LINE
  8
0
 10
-34.6154
 20
-94.5092
 11
-34.4013
 21
-94.6329
  0
LINE
  8
0
 10
-34.4013
 20
-94.6329
 11
-34.2079
 21
-94.7871
  0
LINE
  8
0
 10
-34.2079
 20
-94.7871
 11
-34.0397
 21
-94.9684
  0
LINE
  8
0
 10
-34.0397
 20
-94.9684
 11
-33.9004
 21
-95.1727
  0
LINE
  8
0
 10
-33.9004
 20
-95.1727
 11
-33.7931
 21
-95.3955
  0
LINE
  8
0
 10
-33.7931
 20
-95.3955
 11
-33.7202
 21
-95.6318
  0
LINE
  8
0
 10
-33.7202
 20
-95.6318
 11
-33.6833
 21
-95.8764
  0
LINE
  8
0
 10
-33.6833
 20
-95.8764
 11
-33.6833
 21
-96.1237
  0
LINE
  8
0
 10
-33.6833
 20
-96.1237
 11
-33.7202
 21
-96.3682
  0
LINE
  8
0
 10
-33.7202
 20
-96.3682
 11
-33.7931
 21
-96.6045
  0
LINE
  8
0
 10
-33.7931
 20
-96.6045
 11
-33.9004
 21
-96.8273
  0
LINE
  8
0
 10
-33.9004
 20
-96.8273
 11
-34.0397
 21
-97.0316
  0
LINE
  8
0
 10
-34.0397
 20
-97.0316
 11
-34.2079
 21
-97.2129
  0
LINE
  8
0
 10
-34.2079
 20
-97.2129
 11
-34.4013
 21
-97.3671
  0
LINE
  8
0
 10
-34.4013
 20
-97.3671
 11
-34.6154
 21
-97.4908
  0
LINE
  8
0
 10
-34.6154
 20
-97.4908
 11
-34.8456
 21
-97.5811
  0
LINE
  8
0
 10
-34.8456
 20
-97.5811
 11
-35.0867
 21
-97.6362
  0
LINE
  8
0
 10
-35.0867
 20
-97.6362
 11
-35.3333
 21
-97.6546
  0
LINE
  8
0
 10
-35.3333
 20
-97.6546
 11
-35.58
 21
-97.6362
  0
LINE
  8
0
 10
89.7534
 20
-97.6362
 11
89.5123
 21
-97.5811
  0
LINE
  8
0
 10
89.5123
 20
-97.5811
 11
89.2821
 21
-97.4908
  0
LINE
  8
0
 10
89.2821
 20
-97.4908
 11
89.0679
 21
-97.3671
  0
LINE
  8
0
 10
89.0679
 20
-97.3671
 11
88.8746
 21
-97.2129
  0
LINE
  8
0
 10
88.8746
 20
-97.2129
 11
88.7064
 21
-97.0316
  0
LINE
  8
0
 10
88.7064
 20
-97.0316
 11
88.567
 21
-96.8273
  0
LINE
  8
0
 10
88.567
 20
-96.8273
 11
88.4597
 21
-96.6045
  0
LINE
  8
0
 10
88.4597
 20
-96.6045
 11
88.3869
 21
-96.3682
  0
LINE
  8
0
 10
88.3869
 20
-96.3682
 11
88.35
 21
-96.1237
  0
LINE
  8
0
 10
88.35
 20
-96.1237
 11
88.35
 21
-95.8764
  0
LINE
  8
0
 10
88.35
 20
-95.8764
 11
88.3869
 21
-95.6318
  0
LINE
  8
0
 10
88.3869
 20
-95.6318
 11
88.4597
 21
-95.3955
  0
LINE
  8
0
 10
88.4597
 20
-95.3955
 11
88.567
 21
-95.1727
  0
LINE
  8
0
 10
88.567
 20
-95.1727
 11
88.7064
 21
-94.9684
  0
LINE
  8
0
 10
88.7064
 20
-94.9684
 11
88.8746
 21
-94.7871
  0
LINE
  8
0
 10
88.8746
 20
-94.7871
 11
89.0679
 21
-94.6329
  0
LINE
  8
0
 10
89.0679
 20
-94.6329
 11
89.2821
 21
-94.5092
  0
LINE
  8
0
 10
89.2821
 20
-94.5092
 11
89.5123
 21
-94.4189
  0
LINE
  8
0
 10
89.5123
 20
-94.4189
 11
89.7534
 21
-94.3639
  0
LINE
  8
0
 10
89.7534
 20
-94.3639
 11
90
 21
-94.3454
  0
LINE
  8
0
 10
90
 20
-94.3454
 11
90.2466
 21
-94.3639
  0
LINE
  8
0
 10
90.2466
 20
-94.3639
 11
90.4877
 21
-94.4189
  0
LINE
  8
0
 10
90.4877
 20
-94.4189
 11
90.7179
 21
-94.5092
  0
LINE
  8
0
 10
90.7179
 20
-94.5092
 11
90.9321
 21
-94.6329
  0
LINE
  8
0
 10
90.9321
 20
-94.6329
 11
91.1254
 21
-94.7871
  0
LINE
  8
0
 10
91.1254
 20
-94.7871
 11
91.2936
 21
-94.9684
  0
LINE
  8
0
 10
91.2936
 20
-94.9684
 11
91.4329
 21
-95.1727
  0
LINE
  8
0
 10
91.4329
 20
-95.1727
 11
91.5402
 21
-95.3955
  0
LINE
  8
0
 10
91.5402
 20
-95.3955
 11
91.6131
 21
-95.6318
  0
LINE
  8
0
 10
91.6131
 20
-95.6318
 11
91.65
 21
-95.8764
  0
LINE
  8
0
 10
91.65
 20
-95.8764
 11
91.65
 21
-96.1237
  0
LINE
  8
0
 10
91.65
 20
-96.1237
 11
91.6131
 21
-96.3682
  0
LINE
  8
0
 10
91.6131
 20
-96.3682
 11
91.5402
 21
-96.6045
  0
LINE
  8
0
 10
91.5402
 20
-96.6045
 11
91.4329
 21
-96.8273
  0
LINE
  8
0
 10
91.4329
 20
-96.8273
 11
91.2936
 21
-97.0316
  0
LINE
  8
0
 10
91.2936
 20
-97.0316
 11
91.1254
 21
-97.2129
  0
LINE
  8
0
 10
91.1254
 20
-97.2129
 11
90.9321
 21
-97.3671
  0
LINE
  8
0
 10
90.9321
 20
-97.3671
 11
90.7179
 21
-97.4908
  0
LINE
  8
0
 10
90.7179
 20
-97.4908
 11
90.4877
 21
-97.5811
  0
LINE
  8
0
 10
90.4877
 20
-97.5811
 11
90.2466
 21
-97.6362
  0
LINE
  8
0
 10
90.2466
 20
-97.6362
 11
90
 21
-97.6546
  0
LINE
  8
0
 10
90
 20
-97.6546
 11
89.7534
 21
-97.6362
  0
LINE
  8
0
 10
-90.2466
 20
-97.6362
 11
-90.4877
 21
-97.5811
  0
LINE
  8
0
 10
-90.4877
 20
-97.5811
 11
-90.7179
 21
-97.4908
  0
LINE
  8
0
 10
-90.7179
 20
-97.4908
 11
-90.9321
 21
-97.3671
  0
LINE
  8
0
 10
-90.9321
 20
-97.3671
 11
-91.1254
 21
-97.2129
  0
LINE
  8
0
 10
-91.1254
 20
-97.2129
 11
-91.2936
 21
-97.0316
  0
LINE
  8
0
 10
-91.2936
 20
-97.0316
 11
-91.433
 21
-96.8273
  0
LINE
  8
0
 10
-91.433
 20
-96.8273
 11
-91.5403
 21
-96.6045
  0
LINE
  8
0
 10
-91.5403
 20
-96.6045
 11
-91.6131
 21
-96.3682
  0
LINE
  8
0
 10
-91.6131
 20
-96.3682
 11
-91.65
 21
-96.1237
  0
LINE
  8
0
 10
-91.65
 20
-96.1237
 11
-91.65
 21
-95.8764
  0
LINE
  8
0
 10
-91.65
 20
-95.8764
 11
-91.6131
 21
-95.6318
  0
LINE
  8
0
 10
-91.6131
 20
-95.6318
 11
-91.5403
 21
-95.3955
  0
LINE
  8
0
 10
-91.5403
 20
-95.3955
 11
-91.433
 21
-95.1727
  0
LINE
  8
0
 10
-91.433
 20
-95.1727
 11
-91.2936
 21
-94.9684
  0
LINE
  8
0
 10
-91.2936
 20
-94.9684
 11
-91.1254
 21
-94.7871
  0
LINE
  8
0
 10
-91.1254
 20
-94.7871
 11
-90.9321
 21
-94.6329
  0
LINE
  8
0
 10
-90.9321
 20
-94.6329
 11
-90.7179
 21
-94.5092
  0
LINE
  8
0
 10
-90.7179
 20
-94.5092
 11
-90.4877
 21
-94.4189
  0
LINE
  8
0
 10
-90.4877
 20
-94.4189
 11
-90.2466
 21
-94.3639
  0
LINE
  8
0
 10
-90.2466
 20
-94.3639
 11
-90
 21
-94.3454
  0
LINE
  8
0
 10
-90
 20
-94.3454
 11
-89.7534
 21
-94.3639
  0
LINE
  8
0
 10
-89.7534
 20
-94.3639
 11
-89.5123
 21
-94.4189
  0
LINE
  8
0
 10
-89.5123
 20
-94.4189
 11
-89.2821
 21
-94.5092
  0
LINE
  8
0
 10
-89.2821
 20
-94.5092
 11
-89.0679
 21
-94.6329
  0
LINE
  8
0
 10
-89.0679
 20
-94.6329
 11
-88.8746
 21
-94.7871
  0
LINE
  8
0
 10
-88.8746
 20
-94.7871
 11
-88.7064
 21
-94.9684
  0
LINE
  8
0
 10
-88.7064
 20
-94.9684
 11
-88.5671
 21
-95.1727
  0
LINE
  8
0
 10
-88.5671
 20
-95.1727
 11
-88.4598
 21
-95.3955
  0
LINE
  8
0
 10
-88.4598
 20
-95.3955
 11
-88.3869
 21
-95.6318
  0
LINE
  8
0
 10
-88.3869
 20
-95.6318
 11
-88.35
 21
-95.8764
  0
LINE
  8
0
 10
-88.35
 20
-95.8764
 11
-88.35
 21
-96.1237
  0
LINE
  8
0
 10
-88.35
 20
-96.1237
 11
-88.3869
 21
-96.3682
  0
LINE
  8
0
 10
-88.3869
 20
-96.3682
 11
-88.4598
 21
-96.6045
  0
LINE
  8
0
 10
-88.4598
 20
-96.6045
 11
-88.5671
 21
-96.8273
  0
LINE
  8
0
 10
-88.5671
 20
-96.8273
 11
-88.7064
 21
-97.0316
  0
LINE
  8
0
 10
-88.7064
 20
-97.0316
 11
-88.8746
 21
-97.2129
  0
LINE
  8
0
 10
-88.8746
 20
-97.2129
 11
-89.0679
 21
-97.3671
  0
LINE
  8
0
 10
-89.0679
 20
-97.3671
 11
-89.2821
 21
-97.4908
  0
LINE
  8
0
 10
-89.2821
 20
-97.4908
 11
-89.5123
 21
-97.5811
  0
LINE
  8
0
 10
-89.5123
 20
-97.5811
 11
-89.7534
 21
-97.6362
  0
LINE
  8
0
 10
-89.7534
 20
-97.6362
 11
-90
 21
-97.6546
  0
LINE
  8
0
 10
-90
 20
-97.6546
 11
-90.2466
 21
-97.6362
  0
ENDSEC
  0
SECTION
  2
OBJECTS
  0
DICTIONARY
  0
ENDSEC
  0
EOF
