  0
SECTION
  2
HEADER
  9
$ACADVER
  1
AC1027
  9
$ACADMAINTVER
 70
105
  9
$DWGCODEPAGE
  3
ANSI_1252
  9
$LASTSAVEDBY
  1
ezdxf
  9
$REQUIREDVERSIONS
160
0
  9
$INSBASE
 10
0.0
 20
0.0
 30
0.0
  9
$EXTMIN
 10
1e+20
 20
1e+20
 30
1e+20
  9
$EXTMAX
 10
-1e+20
 20
-1e+20
 30
-1e+20
  9
$LIMMIN
 10
0.0
 20
0.0
  9
$LIMMAX
 10
420.0
 20
297.0
  9
$ORTHOMODE
 70
0
  9
$REGENMODE
 70
1
  9
$FILLMODE
 70
1
  9
$QTEXTMODE
 70
0
  9
$MIRRTEXT
 70
1
  9
$LTSCALE
 40
1.0
  9
$ATTMODE
 70
1
  9
$TEXTSIZE
 40
2.5
  9
$TRACEWID
 40
1.0
  9
$TEXTSTYLE
  7
Standard
  9
$CLAYER
  8
0
  9
$CELTYPE
  6
ByLayer
  9
$CECOLOR
 62
256
  9
$CELTSCALE
 40
1.0
  9
$DISPSILH
 70
0
  9
$DIMSCALE
 40
1.0
  9
$DIMASZ
 40
2.5
  9
$DIMEXO
 40
0.625
  9
$DIMDLI
 40
3.75
  9
$DIMRND
 40
0.0
  9
$DIMDLE
 40
0.0
  9
$DIMEXE
 40
1.25
  9
$DIMTP
 40
0.0
  9
$DIMTM
 40
0.0
  9
$DIMTXT
 40
2.5
  9
$DIMCEN
 40
2.5
  9
$DIMTSZ
 40
0.0
  9
$DIMTOL
 70
0
  9
$DIMLIM
 70
0
  9
$DIMTIH
 70
0
  9
$DIMTOH
 70
0
  9
$DIMSE1
 70
0
  9
$DIMSE2
 70
0
  9
$DIMTAD
 70
1
  9
$DIMZIN
 70
8
  9
$DIMBLK
  1

  9
$DIMASO
 70
1
  9
$DIMSHO
 70
1
  9
$DIMPOST
  1

  9
$DIMAPOST
  1

  9
$DIMALT
 70
0
  9
$DIMALTD
 70
3
  9
$DIMALTF
 40
0.03937007874
  9
$DIMLFAC
 40
1.0
  9
$DIMTOFL
 70
1
  9
$DIMTVP
 40
0.0
  9
$DIMTIX
 70
0
  9
$DIMSOXD
 70
0
  9
$DIMSAH
 70
0
  9
$DIMBLK1
  1

  9
$DIMBLK2
  1

  9
$DIMSTYLE
  2
ISO-25
  9
$DIMCLRD
 70
0
  9
$DIMCLRE
 70
0
  9
$DIMCLRT
 70
0
  9
$DIMTFAC
 40
1.0
  9
$DIMGAP
 40
0.625
  9
$DIMJUST
 70
0
  9
$DIMSD1
 70
0
  9
$DIMSD2
 70
0
  9
$DIMTOLJ
 70
0
  9
$DIMTZIN
 70
8
  9
$DIMALTZ
 70
0
  9
$DIMALTTZ
 70
0
  9
$DIMUPT
 70
0
  9
$DIMDEC
 70
2
  9
$DIMTDEC
 70
2
  9
$DIMALTU
 70
2
  9
$DIMALTTD
 70
3
  9
$DIMTXSTY
  7
Standard
  9
$DIMAUNIT
 70
0
  9
$DIMADEC
 70
0
  9
$DIMALTRND
 40
0.0
  9
$DIMAZIN
 70
0
  9
$DIMDSEP
 70
44
  9
$DIMATFIT
 70
3
  9
$DIMFRAC
 70
0
  9
$DIMLDRBLK
  1

  9
$DIMLUNIT
 70
2
  9
$DIMLWD
 70
-2
  9
$DIMLWE
 70
-2
  9
$DIMTMOVE
 70
0
  9
$DIMFXL
 40
1.0
  9
$DIMFXLON
 70
0
  9
$DIMJOGANG
 40
0.785398163397
  9
$DIMTFILL
 70
0
  9
$DIMTFILLCLR
 70
0
  9
$DIMARCSYM
 70
0
  9
$DIMLTYPE
  6

  9
$DIMLTEX1
  6

  9
$DIMLTEX2
  6

  9
$DIMTXTDIRECTION
 70
0
  9
$LUNITS
 70
2
  9
$LUPREC
 70
4
  9
$SKETCHINC
 40
1.0
  9
$FILLETRAD
 40
10.0
  9
$AUNITS
 70
0
  9
$AUPREC
 70
2
  9
$MENU
  1
.
  9
$ELEVATION
 40
0.0
  9
$PELEVATION
 40
0.0
  9
$THICKNESS
 40
0.0
  9
$LIMCHECK
 70
0
  9
$CHAMFERA
 40
0.0
  9
$CHAMFERB
 40
0.0
  9
$CHAMFERC
 40
0.0
  9
$CHAMFERD
 40
0.0
  9
$SKPOLY
 70
0
  9
$TDCREATE
 40
2460564.6686921297
  9
$TDUCREATE
 40
2458532.153996898
  9
$TDUPDATE
 40
2460564.6686921297
  9
$TDUUPDATE
 40
2458532.1544311
  9
$TDINDWG
 40
0.0
  9
$TDUSRTIMER
 40
0.0
  9
$USRTIMER
 70
1
  9
$ANGBASE
 50
0.0
  9
$ANGDIR
 70
0
  9
$PDMODE
 70
0
  9
$PDSIZE
 40
0.0
  9
$PLINEWID
 40
0.0
  9
$SPLFRAME
 70
0
  9
$SPLINETYPE
 70
6
  9
$SPLINESEGS
 70
8
  9
$HANDSEED
  5
12D
  9
$SURFTAB1
 70
6
  9
$SURFTAB2
 70
6
  9
$SURFTYPE
 70
6
  9
$SURFU
 70
6
  9
$SURFV
 70
6
  9
$UCSBASE
  2

  9
$UCSNAME
  2

  9
$UCSORG
 10
0.0
 20
0.0
 30
0.0
  9
$UCSXDIR
 10
1.0
 20
0.0
 30
0.0
  9
$UCSYDIR
 10
0.0
 20
1.0
 30
0.0
  9
$UCSORTHOREF
  2

  9
$UCSORTHOVIEW
 70
0
  9
$UCSORGTOP
 10
0.0
 20
0.0
 30
0.0
  9
$UCSORGBOTTOM
 10
0.0
 20
0.0
 30
0.0
  9
$UCSORGLEFT
 10
0.0
 20
0.0
 30
0.0
  9
$UCSORGRIGHT
 10
0.0
 20
0.0
 30
0.0
  9
$UCSORGFRONT
 10
0.0
 20
0.0
 30
0.0
  9
$UCSORGBACK
 10
0.0
 20
0.0
 30
0.0
  9
$PUCSBASE
  2

  9
$PUCSNAME
  2

  9
$PUCSORG
 10
0.0
 20
0.0
 30
0.0
  9
$PUCSXDIR
 10
1.0
 20
0.0
 30
0.0
  9
$PUCSYDIR
 10
0.0
 20
1.0
 30
0.0
  9
$PUCSORTHOREF
  2

  9
$PUCSORTHOVIEW
 70
0
  9
$PUCSORGTOP
 10
0.0
 20
0.0
 30
0.0
  9
$PUCSORGBOTTOM
 10
0.0
 20
0.0
 30
0.0
  9
$PUCSORGLEFT
 10
0.0
 20
0.0
 30
0.0
  9
$PUCSORGRIGHT
 10
0.0
 20
0.0
 30
0.0
  9
$PUCSORGFRONT
 10
0.0
 20
0.0
 30
0.0
  9
$PUCSORGBACK
 10
0.0
 20
0.0
 30
0.0
  9
$USERI1
 70
0
  9
$USERI2
 70
0
  9
$USERI3
 70
0
  9
$USERI4
 70
0
  9
$USERI5
 70
0
  9
$USERR1
 40
0.0
  9
$USERR2
 40
0.0
  9
$USERR3
 40
0.0
  9
$USERR4
 40
0.0
  9
$USERR5
 40
0.0
  9
$WORLDVIEW
 70
1
  9
$SHADEDGE
 70
3
  9
$SHADEDIF
 70
70
  9
$TILEMODE
 70
1
  9
$MAXACTVP
 70
64
  9
$PINSBASE
 10
0.0
 20
0.0
 30
0.0
  9
$PLIMCHECK
 70
0
  9
$PEXTMIN
 10
1e+20
 20
1e+20
 30
1e+20
  9
$PEXTMAX
 10
-1e+20
 20
-1e+20
 30
-1e+20
  9
$PLIMMIN
 10
0.0
 20
0.0
  9
$PLIMMAX
 10
420.0
 20
297.0
  9
$UNITMODE
 70
0
  9
$VISRETAIN
 70
1
  9
$PLINEGEN
 70
0
  9
$PSLTSCALE
 70
1
  9
$TREEDEPTH
 70
3020
  9
$CMLSTYLE
  2
Standard
  9
$CMLJUST
 70
0
  9
$CMLSCALE
 40
20.0
  9
$PROXYGRAPHICS
 70
1
  9
$MEASUREMENT
 70
1
  9
$CELWEIGHT
370
-1
  9
$ENDCAPS
280
0
  9
$JOINSTYLE
280
0
  9
$LWDISPLAY
290
0
  9
$INSUNITS
 70
4
  9
$HYPERLINKBASE
  1

  9
$STYLESHEET
  1

  9
$XEDIT
290
1
  9
$CEPSNTYPE
380
0
  9
$PSTYLEMODE
290
1
  9
$FINGERPRINTGUID
  2
{1D9D7E76-5EC9-4E93-8390-51BADF07A73B}
  9
$VERSIONGUID
  2
{99F5C20C-8DEC-4CF2-B1B1-0F5AFBF8C156}
  9
$EXTNAMES
290
1
  9
$PSVPSCALE
 40
0.0
  9
$OLESTARTUP
290
0
  9
$SORTENTS
280
127
  9
$INDEXCTL
280
0
  9
$HIDETEXT
280
1
  9
$XCLIPFRAME
280
0
  9
$HALOGAP
280
0
  9
$OBSCOLOR
 70
257
  9
$OBSLTYPE
280
0
  9
$INTERSECTIONDISPLAY
280
0
  9
$INTERSECTIONCOLOR
 70
257
  9
$DIMASSOC
280
2
  9
$PROJECTNAME
  1

  9
$CAMERADISPLAY
290
0
  9
$LENSLENGTH
 40
50.0
  9
$CAMERAHEIGHT
 40
0.0
  9
$STEPSPERSEC
 40
24.0
  9
$STEPSIZE
 40
100.0
  9
$3DDWFPREC
 40
2.0
  9
$PSOLWIDTH
 40
0.005
  9
$PSOLHEIGHT
 40
0.08
  9
$LOFTANG1
 40
1.570796326795
  9
$LOFTANG2
 40
1.570796326795
  9
$LOFTMAG1
 40
0.0
  9
$LOFTMAG2
 40
0.0
  9
$LOFTPARAM
 70
7
  9
$LOFTNORMALS
280
1
  9
$LATITUDE
 40
37.795
  9
$LONGITUDE
 40
-122.394
  9
$NORTHDIRECTION
 40
0.0
  9
$TIMEZONE
 70
-8000
  9
$LIGHTGLYPHDISPLAY
280
1
  9
$TILEMODELIGHTSYNCH
280
1
  9
$CMATERIAL
347
20
  9
$SOLIDHIST
280
0
  9
$SHOWHIST
280
1
  9
$DWFFRAME
280
2
  9
$DGNFRAME
280
2
  9
$REALWORLDSCALE
290
1
  9
$INTERFERECOLOR
 62
256
  9
$CSHADOW
280
0
  9
$SHADOWPLANELOCATION
 40
0.0
  0
ENDSEC
  0
SECTION
  2
CLASSES
  0
CLASS
  1
ACDBDICTIONARYWDFLT
  2
AcDbDictionaryWithDefault
  3
ObjectDBX Classes
 90
0
 91
0
280
0
281
0
  0
CLASS
  1
SUN
  2
AcDbSun
  3
SCENEOE
 90
1153
 91
0
280
0
281
0
  0
CLASS
  1
VISUALSTYLE
  2
AcDbVisualStyle
  3
ObjectDBX Classes
 90
4095
 91
0
280
0
281
0
  0
CLASS
  1
MATERIAL
  2
AcDbMaterial
  3
ObjectDBX Classes
 90
1153
 91
0
280
0
281
0
  0
CLASS
  1
SCALE
  2
AcDbScale
  3
ObjectDBX Classes
 90
1153
 91
0
280
0
281
0
  0
CLASS
  1
TABLESTYLE
  2
AcDbTableStyle
  3
ObjectDBX Classes
 90
4095
 91
0
280
0
281
0
  0
CLASS
  1
MLEADERSTYLE
  2
AcDbMLeaderStyle
  3
ACDB_MLEADERSTYLE_CLASS
 90
4095
 91
0
280
0
281
0
  0
CLASS
  1
DICTIONARYVAR
  2
AcDbDictionaryVar
  3
ObjectDBX Classes
 90
0
 91
0
280
0
281
0
  0
CLASS
  1
CELLSTYLEMAP
  2
AcDbCellStyleMap
  3
ObjectDBX Classes
 90
1152
 91
0
280
0
281
0
  0
CLASS
  1
MENTALRAYRENDERSETTINGS
  2
AcDbMentalRayRenderSettings
  3
SCENEOE
 90
1024
 91
0
280
0
281
0
  0
CLASS
  1
ACDBDETAILVIEWSTYLE
  2
AcDbDetailViewStyle
  3
ObjectDBX Classes
 90
1025
 91
0
280
0
281
0
  0
CLASS
  1
ACDBSECTIONVIEWSTYLE
  2
AcDbSectionViewStyle
  3
ObjectDBX Classes
 90
1025
 91
0
280
0
281
0
  0
CLASS
  1
RASTERVARIABLES
  2
AcDbRasterVariables
  3
ISM
 90
0
 91
0
280
0
281
0
  0
CLASS
  1
LAYOUT
  2
AcDbLayout
  3
ObjectDBX Classes
 90
0
 91
0
280
0
281
0
  0
CLASS
  1
ACDBPLACEHOLDER
  2
AcDbPlaceHolder
  3
ObjectDBX Classes
 90
0
 91
0
280
0
281
0
  0
ENDSEC
  0
SECTION
  2
TABLES
  0
TABLE
  2
VPORT
  5
8
330
0
100
AcDbSymbolTable
 70
1
  0
VPORT
  5
129
330
8
100
AcDbSymbolTableRecord
100
AcDbViewportTableRecord
  2
*Active
 70
0
 10
0.0
 20
0.0
 11
1.0
 21
1.0
 12
110.0
 22
105.0
 13
0.0
 23
0.0
 14
0.5
 24
0.5
 15
0.5
 25
0.5
 16
0.0
 26
0.0
 36
1.0
 17
0.0
 27
0.0
 37
0.0
 40
210.0
 41
1.34
 42
50.0
 43
0.0
 44
0.0
 50
0.0
 51
0.0
 71
0
 72
1000
 73
1
 74
3
 75
0
 76
0
 77
0
 78
0
281
0
 65
1
110
0.0
120
0.0
130
0.0
111
1.0
121
0.0
131
0.0
112
0.0
122
1.0
132
0.0
 79
0
146
0.0
  0
ENDTAB
  0
TABLE
  2
LTYPE
  5
2
330
0
100
AcDbSymbolTable
 70
3
  0
LTYPE
  5
24
330
2
100
AcDbSymbolTableRecord
100
AcDbLinetypeTableRecord
  2
ByBlock
 70
0
  3

 72
65
 73
0
 40
0.0
  0
LTYPE
  5
25
330
2
100
AcDbSymbolTableRecord
100
AcDbLinetypeTableRecord
  2
ByLayer
 70
0
  3

 72
65
 73
0
 40
0.0
  0
LTYPE
  5
26
330
2
100
AcDbSymbolTableRecord
100
AcDbLinetypeTableRecord
  2
Continuous
 70
0
  3

 72
65
 73
0
 40
0.0
  0
ENDTAB
  0
TABLE
  2
LAYER
  5
1
330
0
100
AcDbSymbolTable
 70
2
  0
LAYER
  5
27
330
1
100
AcDbSymbolTableRecord
100
AcDbLayerTableRecord
  2
0
 70
0
 62
7
  6
Continuous
370
-3
390
13
347
21
  0
LAYER
  5
28
330
1
100
AcDbSymbolTableRecord
100
AcDbLayerTableRecord
  2
Defpoints
 70
0
 62
7
  6
Continuous
290
0
370
-3
390
13
347
21
  0
ENDTAB
  0
TABLE
  2
STYLE
  5
5
330
0
100
AcDbSymbolTable
 70
1
  0
STYLE
  5
29
330
5
100
AcDbSymbolTableRecord
100
AcDbTextStyleTableRecord
  2
Standard
 70
0
 40
0.0
 41
1.0
 50
0.0
 71
0
 42
2.5
  3
txt
  4

  0
ENDTAB
  0
TABLE
  2
VIEW
  5
7
330
0
100
AcDbSymbolTable
 70
0
  0
ENDTAB
  0
TABLE
  2
UCS
  5
6
330
0
100
AcDbSymbolTable
 70
0
  0
ENDTAB
  0
TABLE
  2
APPID
  5
3
330
0
100
AcDbSymbolTable
 70
3
  0
APPID
  5
2A
330
3
100
AcDbSymbolTableRecord
100
AcDbRegAppTableRecord
  2
ACAD
 70
0
  0
APPID
  5
12A
330
3
100
AcDbSymbolTableRecord
100
AcDbRegAppTableRecord
  2
HATCHBACKGROUNDCOLOR
 70
0
  0
APPID
  5
12B
330
3
100
AcDbSymbolTableRecord
100
AcDbRegAppTableRecord
  2
EZDXF
 70
0
  0
ENDTAB
  0
TABLE
  2
DIMSTYLE
  5
4
330
0
100
AcDbSymbolTable
 70
1
100
AcDbDimStyleTable
  0
DIMSTYLE
105
2B
330
4
100
AcDbSymbolTableRecord
100
AcDbDimStyleTableRecord
  2
Standard
 70
0
 40
1.0
 41
2.5
 42
0.625
 43
3.75
 44
1.25
 45
0.0
 46
0.0
 47
0.0
 48
0.0
 49
2.5
140
2.5
141
2.5
142
0.0
143
0.03937007874
144
1.0
145
0.0
146
1.0
147
0.625
148
0.0
 69
0
 70
0
 71
0
 72
0
 73
0
 74
0
 75
0
 76
0
 77
1
 78
8
 79
3
170
0
171
3
172
1
173
0
174
0
175
0
176
0
177
0
178
0
179
2
271
2
272
2
273
2
274
3
275
0
276
0
277
2
278
44
279
0
280
0
281
0
282
0
283
0
284
8
285
0
286
0
288
0
289
3
290
0
371
-2
372
-2
  0
ENDTAB
  0
TABLE
  2
BLOCK_RECORD
  5
9
330
0
100
AcDbSymbolTable
 70
2
  0
BLOCK_RECORD
  5
17
330
9
100
AcDbSymbolTableRecord
100
AcDbBlockTableRecord
  2
*Model_Space
340
1A
 70
0
280
1
281
0
  0
BLOCK_RECORD
  5
1B
330
9
100
AcDbSymbolTableRecord
100
AcDbBlockTableRecord
  2
*Paper_Space
340
1E
 70
0
280
1
281
0
  0
ENDTAB
  0
ENDSEC
  0
SECTION
  2
BLOCKS
  0
BLOCK
  5
18
330
17
100
AcDbEntity
  8
0
100
AcDbBlockBegin
  2
*Model_Space
 70
0
 10
0.0
 20
0.0
 30
0.0
  3
*Model_Space
  1

  0
ENDBLK
  5
19
330
17
100
AcDbEntity
  8
0
100
AcDbBlockEnd
  0
BLOCK
  5
1C
330
1B
100
AcDbEntity
  8
0
100
AcDbBlockBegin
  2
*Paper_Space
 70
0
 10
0.0
 20
0.0
 30
0.0
  3
*Paper_Space
  1

  0
ENDBLK
  5
1D
330
1B
100
AcDbEntity
  8
0
100
AcDbBlockEnd
  0
ENDSEC
  0
SECTION
  2
ENTITIES
  0
LINE
  5
2F
330
17
100
AcDbEntity
  8
0
100
AcDbLine
 10
0.3535533905932766
 20
60.025
 30
0.0
 11
3.0
 21
60.025
 31
0.0
  0
ARC
  5
30
330
17
100
AcDbEntity
  8
0
100
AcDbCircle
 10
0.3535533905932766
 20
60.275
 30
0.0
 40
0.25
100
AcDbArc
 50
-134.9999999999988
 51
-90.0
  0
LINE
  5
31
330
17
100
AcDbEntity
  8
0
100
AcDbLine
 10
0.1767766952966383
 20
60.09822330470335
 30
-4.440892098500626e-16
 11
0.0732233047033759
 21
60.201776695296616
 31
-4.440892098500626e-16
  0
ARC
  5
32
330
17
100
AcDbEntity
  8
0
100
AcDbCircle
 10
0.25
 20
60.378553390593254
 30
0.0
 40
0.25
100
AcDbArc
 50
-180.0
 51
-135.0
  0
LINE
  5
33
330
17
100
AcDbEntity
  8
0
100
AcDbLine
 10
0.0
 20
79.62144660940672
 30
0.0
 11
0.0
 21
60.378553390593254
 31
0.0
  0
ARC
  5
34
330
17
100
AcDbEntity
  8
0
100
AcDbCircle
 10
0.25
 20
79.6214466094067
 30
0.0
 40
0.25
100
AcDbArc
 50
134.99999999999943
 51
179.99999999999918
  0
LINE
  5
35
330
17
100
AcDbEntity
  8
0
100
AcDbLine
 10
0.07322330470334748
 20
79.79822330470336
 30
0.0
 11
0.1767766952966383
 21
79.90177669529665
 31
0.0
  0
ARC
  5
36
330
17
100
AcDbEntity
  8
0
100
AcDbCircle
 10
0.3535533905932766
 20
79.725
 30
0.0
 40
0.25
100
AcDbArc
 50
90.0
 51
134.99999999999943
  0
LINE
  5
37
330
17
100
AcDbEntity
  8
0
100
AcDbLine
 10
3.0
 20
79.975
 30
0.0
 11
0.3535533905932766
 21
79.975
 31
0.0
  0
ARC
  5
38
330
17
100
AcDbEntity
  8
0
100
AcDbCircle
 10
3.0
 20
81.725
 30
0.0
 40
1.75
100
AcDbArc
 50
270.0
 51
442.8192442185417
  0
ARC
  5
39
330
17
100
AcDbEntity
  8
0
100
AcDbCircle
 10
3.25
 20
83.70931348329844
 30
0.0
 40
0.25
100
AcDbArc
 50
180.0
 51
262.81924421854177
  0
LINE
  5
3A
330
17
100
AcDbEntity
  8
0
100
AcDbLine
 10
3.0
 20
96.29068651670156
 30
0.0
 11
3.0
 21
83.70931348329844
 31
0.0
  0
ARC
  5
3B
330
17
100
AcDbEntity
  8
0
100
AcDbCircle
 10
3.25
 20
96.29068651670156
 30
0.0
 40
0.25
100
AcDbArc
 50
97.1807557814583
 51
180.0
  0
ARC
  5
3C
330
17
100
AcDbEntity
  8
0
100
AcDbCircle
 10
3.0
 20
98.275
 30
0.0
 40
1.75
100
AcDbArc
 50
277.1807557814583
 51
450.0
  0
LINE
  5
3D
330
17
100
AcDbEntity
  8
0
100
AcDbLine
 10
0.3535533905932766
 20
100.025
 30
0.0
 11
3.0
 21
100.02499999999999
 31
0.0
  0
ARC
  5
3E
330
17
100
AcDbEntity
  8
0
100
AcDbCircle
 10
0.3535533905932766
 20
100.275
 30
0.0
 40
0.25
100
AcDbArc
 50
-134.99999999999955
 51
-90.0
  0
LINE
  5
3F
330
17
100
AcDbEntity
  8
0
100
AcDbLine
 10
0.1767766952966383
 20
100.09822330470335
 30
-4.440892098500626e-16
 11
0.07322330470336169
 21
100.20177669529663
 31
-4.440892098500626e-16
  0
ARC
  5
40
330
17
100
AcDbEntity
  8
0
100
AcDbCircle
 10
0.25
 20
100.37855339059325
 30
0.0
 40
0.25
100
AcDbArc
 50
-179.99999999999977
 51
-135.00000000000074
  0
LINE
  5
41
330
17
100
AcDbEntity
  8
0
100
AcDbLine
 10
0.0
 20
119.62144660940672
 30
0.0
 11
0.0
 21
100.37855339059325
 31
0.0
  0
ARC
  5
42
330
17
100
AcDbEntity
  8
0
100
AcDbCircle
 10
0.25
 20
119.62144660940672
 30
0.0
 40
0.25
100
AcDbArc
 50
134.99999999999943
 51
179.9999999999996
  0
LINE
  5
43
330
17
100
AcDbEntity
  8
0
100
AcDbLine
 10
0.07322330470334748
 20
119.79822330470336
 30
0.0
 11
0.1767766952966383
 21
119.90177669529665
 31
0.0
  0
ARC
  5
44
330
17
100
AcDbEntity
  8
0
100
AcDbCircle
 10
0.3535533905932766
 20
119.725
 30
0.0
 40
0.25
100
AcDbArc
 50
90.0
 51
134.99999999999943
  0
LINE
  5
45
330
17
100
AcDbEntity
  8
0
100
AcDbLine
 10
3.0
 20
119.975
 30
0.0
 11
0.3535533905932766
 21
119.975
 31
0.0
  0
ARC
  5
46
330
17
100
AcDbEntity
  8
0
100
AcDbCircle
 10
3.0
 20
121.725
 30
0.0
 40
1.75
100
AcDbArc
 50
270.0
 51
442.8192442185417
  0
ARC
  5
47
330
17
100
AcDbEntity
  8
0
100
AcDbCircle
 10
3.25
 20
123.70931348329844
 30
0.0
 40
0.25
100
AcDbArc
 50
180.0
 51
262.81924421854177
  0
LINE
  5
48
330
17
100
AcDbEntity
  8
0
100
AcDbLine
 10
3.0
 20
136.29068651670156
 30
0.0
 11
3.0
 21
123.70931348329844
 31
0.0
  0
ARC
  5
49
330
17
100
AcDbEntity
  8
0
100
AcDbCircle
 10
3.25
 20
136.29068651670156
 30
0.0
 40
0.25
100
AcDbArc
 50
97.18075578145825
 51
180.0
  0
ARC
  5
4A
330
17
100
AcDbEntity
  8
0
100
AcDbCircle
 10
3.0
 20
138.275
 30
0.0
 40
1.75
100
AcDbArc
 50
277.1807557814583
 51
450.0
  0
LINE
  5
4B
330
17
100
AcDbEntity
  8
0
100
AcDbLine
 10
0.3535533905932766
 20
140.025
 30
0.0
 11
3.0
 21
140.025
 31
0.0
  0
ARC
  5
4C
330
17
100
AcDbEntity
  8
0
100
AcDbCircle
 10
0.3535533905932766
 20
140.275
 30
0.0
 40
0.25
100
AcDbArc
 50
-134.9999999999988
 51
-90.0
  0
LINE
  5
4D
330
17
100
AcDbEntity
  8
0
100
AcDbLine
 10
0.1767766952966383
 20
140.09822330470337
 30
-4.440892098500626e-16
 11
0.07322330470336169
 21
140.20177669529664
 31
-4.440892098500626e-16
  0
ARC
  5
4E
330
17
100
AcDbEntity
  8
0
100
AcDbCircle
 10
0.25
 20
140.37855339059325
 30
0.0
 40
0.25
100
AcDbArc
 50
-180.0
 51
-135.0
  0
LINE
  5
4F
330
17
100
AcDbEntity
  8
0
100
AcDbLine
 10
0.0
 20
159.62144660940672
 30
0.0
 11
0.0
 21
140.37855339059325
 31
0.0
  0
ARC
  5
50
330
17
100
AcDbEntity
  8
0
100
AcDbCircle
 10
0.25
 20
159.62144660940672
 30
0.0
 40
0.25
100
AcDbArc
 50
135.0
 51
180.0
  0
LINE
  5
51
330
17
100
AcDbEntity
  8
0
100
AcDbLine
 10
0.07322330470334748
 20
159.79822330470336
 30
0.0
 11
0.1767766952966383
 21
159.90177669529663
 31
0.0
  0
ARC
  5
52
330
17
100
AcDbEntity
  8
0
100
AcDbCircle
 10
0.3535533905932766
 20
159.725
 30
0.0
 40
0.25
100
AcDbArc
 50
90.0
 51
134.99999999999883
  0
LINE
  5
53
330
17
100
AcDbEntity
  8
0
100
AcDbLine
 10
3.0
 20
159.975
 30
0.0
 11
0.3535533905932766
 21
159.975
 31
0.0
  0
ARC
  5
54
330
17
100
AcDbEntity
  8
0
100
AcDbCircle
 10
3.0
 20
161.725
 30
0.0
 40
1.75
100
AcDbArc
 50
270.0
 51
442.8192442185417
  0
ARC
  5
55
330
17
100
AcDbEntity
  8
0
100
AcDbCircle
 10
3.25
 20
163.70931348329844
 30
0.0
 40
0.25
100
AcDbArc
 50
180.0
 51
262.81924421854166
  0
LINE
  5
56
330
17
100
AcDbEntity
  8
0
100
AcDbLine
 10
3.0
 20
176.29068651670156
 30
0.0
 11
3.0
 21
163.70931348329844
 31
0.0
  0
ARC
  5
57
330
17
100
AcDbEntity
  8
0
100
AcDbCircle
 10
3.25
 20
176.29068651670156
 30
0.0
 40
0.25
100
AcDbArc
 50
97.18075578145815
 51
180.0
  0
ARC
  5
58
330
17
100
AcDbEntity
  8
0
100
AcDbCircle
 10
3.0
 20
178.275
 30
0.0
 40
1.75
100
AcDbArc
 50
277.1807557814583
 51
450.0
  0
LINE
  5
59
330
17
100
AcDbEntity
  8
0
100
AcDbLine
 10
0.3535533905932766
 20
180.025
 30
0.0
 11
3.0
 21
180.025
 31
0.0
  0
ARC
  5
5A
330
17
100
AcDbEntity
  8
0
100
AcDbCircle
 10
0.3535533905932766
 20
180.275
 30
0.0
 40
0.25
100
AcDbArc
 50
-135.0
 51
-90.0
  0
LINE
  5
5B
330
17
100
AcDbEntity
  8
0
100
AcDbLine
 10
0.1767766952966383
 20
180.09822330470337
 30
-4.440892098500626e-16
 11
0.07322330470336169
 21
180.20177669529664
 31
-4.440892098500626e-16
  0
ARC
  5
5C
330
17
100
AcDbEntity
  8
0
100
AcDbCircle
 10
0.25
 20
180.37855339059328
 30
0.0
 40
0.25
100
AcDbArc
 50
-180.0
 51
-135.0
  0
LINE
  5
5D
330
17
100
AcDbEntity
  8
0
100
AcDbLine
 10
0.0
 20
199.62144660940672
 30
0.0
 11
0.0
 21
180.37855339059328
 31
0.0
  0
ARC
  5
5E
330
17
100
AcDbEntity
  8
0
100
AcDbCircle
 10
0.25
 20
199.62144660940672
 30
0.0
 40
0.25
100
AcDbArc
 50
135.0
 51
180.0
  0
LINE
  5
5F
330
17
100
AcDbEntity
  8
0
100
AcDbLine
 10
0.07322330470336169
 20
199.79822330470336
 30
0.0
 11
0.1767766952966241
 21
199.90177669529663
 31
0.0
  0
ARC
  5
60
330
17
100
AcDbEntity
  8
0
100
AcDbCircle
 10
0.3535533905932624
 20
199.725
 30
0.0
 40
0.25
100
AcDbArc
 50
90.0
 51
135.0
  0
LINE
  5
61
330
17
100
AcDbEntity
  8
0
100
AcDbLine
 10
3.0
 20
199.975
 30
0.0
 11
0.3535533905932624
 21
199.975
 31
0.0
  0
ARC
  5
62
330
17
100
AcDbEntity
  8
0
100
AcDbCircle
 10
3.0
 20
201.725
 30
0.0
 40
1.75
100
AcDbArc
 50
270.0
 51
442.8192442185417
  0
ARC
  5
63
330
17
100
AcDbEntity
  8
0
100
AcDbCircle
 10
3.25
 20
203.70931348329844
 30
0.0
 40
0.25
100
AcDbArc
 50
180.0
 51
262.8192442185419
  0
LINE
  5
64
330
17
100
AcDbEntity
  8
0
100
AcDbLine
 10
3.0
 20
209.64644660940672
 30
0.0
 11
3.0
 21
203.70931348329844
 31
0.0
  0
ARC
  5
65
330
17
100
AcDbEntity
  8
0
100
AcDbCircle
 10
3.25
 20
209.64644660940672
 30
0.0
 40
0.25
100
AcDbArc
 50
-225.0
 51
-180.0
  0
LINE
  5
66
330
17
100
AcDbEntity
  8
0
100
AcDbLine
 10
3.0732233047033475
 20
209.82322330470333
 30
-4.440892098500626e-16
 11
3.1767766952966383
 21
209.92677669529664
 31
-4.440892098500626e-16
  0
ARC
  5
67
330
17
100
AcDbEntity
  8
0
100
AcDbCircle
 10
3.3535533905932624
 20
209.75
 30
0.0
 40
0.25
100
AcDbArc
 50
-270.00000000000324
 51
-225.00000000000227
  0
LINE
  5
68
330
17
100
AcDbEntity
  8
0
100
AcDbLine
 10
19.62144660940669
 20
210.0
 30
0.0
 11
3.3535533905932766
 21
210.0
 31
0.0
  0
ARC
  5
69
330
17
100
AcDbEntity
  8
0
100
AcDbCircle
 10
19.62144660940669
 20
209.75
 30
0.0
 40
0.25
100
AcDbArc
 50
45.0000000000023
 51
90.0
  0
LINE
  5
6A
330
17
100
AcDbEntity
  8
0
100
AcDbLine
 10
19.798223304703328
 20
209.92677669529667
 30
0.0
 11
19.901776695296633
 21
209.82322330470336
 31
0.0
  0
ARC
  5
6B
330
17
100
AcDbEntity
  8
0
100
AcDbCircle
 10
19.724999999999994
 20
209.64644660940672
 30
0.0
 40
0.25
100
AcDbArc
 50
0.0
 51
45.0
  0
LINE
  5
6C
330
17
100
AcDbEntity
  8
0
100
AcDbLine
 10
19.974999999999994
 20
207.0
 30
0.0
 11
19.974999999999994
 21
209.64644660940672
 31
0.0
  0
ARC
  5
6D
330
17
100
AcDbEntity
  8
0
100
AcDbCircle
 10
21.724999999999994
 20
207.0
 30
0.0
 40
1.75
100
AcDbArc
 50
180.0
 51
352.8192442185417
  0
ARC
  5
6E
330
17
100
AcDbEntity
  8
0
100
AcDbCircle
 10
23.709313483298445
 20
206.75
 30
0.0
 40
0.25
100
AcDbArc
 50
90.0
 51
172.81924421854185
  0
LINE
  5
6F
330
17
100
AcDbEntity
  8
0
100
AcDbLine
 10
36.290686516701555
 20
207.0
 30
0.0
 11
23.709313483298445
 21
207.0
 31
0.0
  0
ARC
  5
70
330
17
100
AcDbEntity
  8
0
100
AcDbCircle
 10
36.290686516701555
 20
206.75
 30
0.0
 40
0.25
100
AcDbArc
 50
7.180755781458157
 51
90.0
  0
ARC
  5
71
330
17
100
AcDbEntity
  8
0
100
AcDbCircle
 10
38.275000000000006
 20
207.0
 30
0.0
 40
1.75
100
AcDbArc
 50
187.18075578145826
 51
360.0
  0
LINE
  5
72
330
17
100
AcDbEntity
  8
0
100
AcDbLine
 10
40.025000000000006
 20
209.64644660940672
 30
0.0
 11
40.025000000000006
 21
207.0
 31
0.0
  0
ARC
  5
73
330
17
100
AcDbEntity
  8
0
100
AcDbCircle
 10
40.275000000000006
 20
209.64644660940672
 30
0.0
 40
0.25
100
AcDbArc
 50
-225.0
 51
-180.0
  0
LINE
  5
74
330
17
100
AcDbEntity
  8
0
100
AcDbLine
 10
40.09822330470337
 20
209.8232233047034
 30
-4.440892098500626e-16
 11
40.20177669529663
 21
209.92677669529664
 31
-4.440892098500626e-16
  0
ARC
  5
75
330
17
100
AcDbEntity
  8
0
100
AcDbCircle
 10
40.378553390593254
 20
209.75
 30
0.0
 40
0.25
100
AcDbArc
 50
-270.0
 51
-225.0
  0
LINE
  5
76
330
17
100
AcDbEntity
  8
0
100
AcDbLine
 10
59.62144660940669
 20
210.0
 30
0.0
 11
40.378553390593254
 21
210.0
 31
0.0
  0
ARC
  5
77
330
17
100
AcDbEntity
  8
0
100
AcDbCircle
 10
59.62144660940669
 20
209.75
 30
0.0
 40
0.25
100
AcDbArc
 50
44.9999999999977
 51
90.0
  0
LINE
  5
78
330
17
100
AcDbEntity
  8
0
100
AcDbLine
 10
59.79822330470335
 20
209.92677669529667
 30
0.0
 11
59.90177669529665
 21
209.82322330470336
 31
0.0
  0
ARC
  5
79
330
17
100
AcDbEntity
  8
0
100
AcDbCircle
 10
59.725
 20
209.64644660940672
 30
0.0
 40
0.25
100
AcDbArc
 50
0.0
 51
44.99999999999886
  0
LINE
  5
7A
330
17
100
AcDbEntity
  8
0
100
AcDbLine
 10
59.975
 20
207.0
 30
0.0
 11
59.975
 21
209.64644660940672
 31
0.0
  0
ARC
  5
7B
330
17
100
AcDbEntity
  8
0
100
AcDbCircle
 10
61.725
 20
207.0
 30
0.0
 40
1.75
100
AcDbArc
 50
180.0
 51
352.8192442185417
  0
ARC
  5
7C
330
17
100
AcDbEntity
  8
0
100
AcDbCircle
 10
63.709313483298445
 20
206.75
 30
0.0
 40
0.25
100
AcDbArc
 50
90.0
 51
172.81924421854166
  0
LINE
  5
7D
330
17
100
AcDbEntity
  8
0
100
AcDbLine
 10
76.29068651670156
 20
207.0
 30
0.0
 11
63.709313483298445
 21
207.0
 31
0.0
  0
ARC
  5
7E
330
17
100
AcDbEntity
  8
0
100
AcDbCircle
 10
76.29068651670156
 20
206.75
 30
0.0
 40
0.25
100
AcDbArc
 50
7.180755781458361
 51
90.0
  0
ARC
  5
7F
330
17
100
AcDbEntity
  8
0
100
AcDbCircle
 10
78.275
 20
207.0
 30
0.0
 40
1.75
100
AcDbArc
 50
187.18075578145826
 51
360.0
  0
LINE
  5
80
330
17
100
AcDbEntity
  8
0
100
AcDbLine
 10
80.025
 20
209.64644660940672
 30
0.0
 11
80.025
 21
207.0
 31
0.0
  0
ARC
  5
81
330
17
100
AcDbEntity
  8
0
100
AcDbCircle
 10
80.275
 20
209.64644660940672
 30
0.0
 40
0.25
100
AcDbArc
 50
-224.99999999999943
 51
-180.0
  0
LINE
  5
82
330
17
100
AcDbEntity
  8
0
100
AcDbLine
 10
80.09822330470335
 20
209.82322330470336
 30
-4.440892098500626e-16
 11
80.20177669529662
 21
209.9267766952966
 31
-4.440892098500626e-16
  0
ARC
  5
83
330
17
100
AcDbEntity
  8
0
100
AcDbCircle
 10
80.37855339059325
 20
209.75
 30
0.0
 40
0.25
100
AcDbArc
 50
-270.0000000000008
 51
-225.00000000000057
  0
LINE
  5
84
330
17
100
AcDbEntity
  8
0
100
AcDbLine
 10
99.6214466094067
 20
210.0
 30
0.0
 11
80.37855339059325
 21
210.0
 31
0.0
  0
ARC
  5
85
330
17
100
AcDbEntity
  8
0
100
AcDbCircle
 10
99.6214466094067
 20
209.75
 30
0.0
 40
0.25
100
AcDbArc
 50
44.99999999999943
 51
90.00000000000041
  0
LINE
  5
86
330
17
100
AcDbEntity
  8
0
100
AcDbLine
 10
99.79822330470336
 20
209.92677669529667
 30
0.0
 11
99.90177669529663
 21
209.8232233047034
 31
0.0
  0
ARC
  5
87
330
17
100
AcDbEntity
  8
0
100
AcDbCircle
 10
99.725
 20
209.64644660940672
 30
0.0
 40
0.25
100
AcDbArc
 50
0.0
 51
45.0
  0
LINE
  5
88
330
17
100
AcDbEntity
  8
0
100
AcDbLine
 10
99.975
 20
207.0
 30
0.0
 11
99.975
 21
209.64644660940672
 31
0.0
  0
ARC
  5
89
330
17
100
AcDbEntity
  8
0
100
AcDbCircle
 10
101.725
 20
207.0
 30
0.0
 40
1.75
100
AcDbArc
 50
180.0
 51
352.8192442185417
  0
ARC
  5
8A
330
17
100
AcDbEntity
  8
0
100
AcDbCircle
 10
103.70931348329844
 20
206.75
 30
0.0
 40
0.25
100
AcDbArc
 50
90.0
 51
172.8192442185417
  0
LINE
  5
8B
330
17
100
AcDbEntity
  8
0
100
AcDbLine
 10
116.29068651670156
 20
207.0
 30
0.0
 11
103.70931348329844
 21
207.0
 31
0.0
  0
ARC
  5
8C
330
17
100
AcDbEntity
  8
0
100
AcDbCircle
 10
116.29068651670156
 20
206.75
 30
0.0
 40
0.25
100
AcDbArc
 50
7.180755781458284
 51
90.0
  0
ARC
  5
8D
330
17
100
AcDbEntity
  8
0
100
AcDbCircle
 10
118.275
 20
207.0
 30
0.0
 40
1.75
100
AcDbArc
 50
187.1807557814583
 51
360.0
  0
LINE
  5
8E
330
17
100
AcDbEntity
  8
0
100
AcDbLine
 10
120.025
 20
209.64644660940672
 30
0.0
 11
120.025
 21
207.0
 31
0.0
  0
ARC
  5
8F
330
17
100
AcDbEntity
  8
0
100
AcDbCircle
 10
120.275
 20
209.64644660940672
 30
0.0
 40
0.25
100
AcDbArc
 50
-224.99999999999943
 51
-180.0
  0
LINE
  5
90
330
17
100
AcDbEntity
  8
0
100
AcDbLine
 10
120.09822330470337
 20
209.82322330470336
 30
-4.440892098500626e-16
 11
120.20177669529663
 21
209.92677669529664
 31
-4.440892098500626e-16
  0
ARC
  5
91
330
17
100
AcDbEntity
  8
0
100
AcDbCircle
 10
120.37855339059325
 20
209.75
 30
0.0
 40
0.25
100
AcDbArc
 50
-269.9999999999996
 51
-225.0000000000012
  0
LINE
  5
92
330
17
100
AcDbEntity
  8
0
100
AcDbLine
 10
139.62144660940672
 20
210.0
 30
0.0
 11
120.37855339059325
 21
210.0
 31
0.0
  0
ARC
  5
93
330
17
100
AcDbEntity
  8
0
100
AcDbCircle
 10
139.62144660940672
 20
209.75
 30
0.0
 40
0.25
100
AcDbArc
 50
44.99999999999943
 51
89.99999999999919
  0
LINE
  5
94
330
17
100
AcDbEntity
  8
0
100
AcDbLine
 10
139.79822330470336
 20
209.92677669529667
 30
0.0
 11
139.90177669529663
 21
209.8232233047034
 31
0.0
  0
ARC
  5
95
330
17
100
AcDbEntity
  8
0
100
AcDbCircle
 10
139.725
 20
209.64644660940672
 30
0.0
 40
0.25
100
AcDbArc
 50
0.0
 51
45.0
  0
LINE
  5
96
330
17
100
AcDbEntity
  8
0
100
AcDbLine
 10
139.975
 20
207.0
 30
0.0
 11
139.975
 21
209.64644660940672
 31
0.0
  0
ARC
  5
97
330
17
100
AcDbEntity
  8
0
100
AcDbCircle
 10
141.725
 20
207.0
 30
0.0
 40
1.75
100
AcDbArc
 50
180.0
 51
352.8192442185417
  0
ARC
  5
98
330
17
100
AcDbEntity
  8
0
100
AcDbCircle
 10
143.70931348329844
 20
206.75
 30
0.0
 40
0.25
100
AcDbArc
 50
90.0
 51
172.81924421854166
  0
LINE
  5
99
330
17
100
AcDbEntity
  8
0
100
AcDbLine
 10
156.29068651670156
 20
207.0
 30
0.0
 11
143.70931348329844
 21
207.0
 31
0.0
  0
ARC
  5
9A
330
17
100
AcDbEntity
  8
0
100
AcDbCircle
 10
156.29068651670156
 20
206.75
 30
0.0
 40
0.25
100
AcDbArc
 50
7.180755781458361
 51
90.0
  0
ARC
  5
9B
330
17
100
AcDbEntity
  8
0
100
AcDbCircle
 10
158.27499999999998
 20
207.0
 30
0.0
 40
1.75
100
AcDbArc
 50
187.18075578145826
 51
360.0
  0
LINE
  5
9C
330
17
100
AcDbEntity
  8
0
100
AcDbLine
 10
160.02499999999998
 20
209.64644660940672
 30
0.0
 11
160.02499999999998
 21
207.0
 31
0.0
  0
ARC
  5
9D
330
17
100
AcDbEntity
  8
0
100
AcDbCircle
 10
160.27499999999998
 20
209.64644660940672
 30
0.0
 40
0.25
100
AcDbArc
 50
-225.0
 51
-180.0
  0
LINE
  5
9E
330
17
100
AcDbEntity
  8
0
100
AcDbLine
 10
160.09822330470337
 20
209.82322330470336
 30
-4.440892098500626e-16
 11
160.20177669529664
 21
209.92677669529664
 31
-4.440892098500626e-16
  0
ARC
  5
9F
330
17
100
AcDbEntity
  8
0
100
AcDbCircle
 10
160.37855339059325
 20
209.75
 30
0.0
 40
0.25
100
AcDbArc
 50
-270.0
 51
-225.0
  0
LINE
  5
A0
330
17
100
AcDbEntity
  8
0
100
AcDbLine
 10
179.62144660940672
 20
210.0
 30
0.0
 11
160.37855339059325
 21
210.0
 31
0.0
  0
ARC
  5
A1
330
17
100
AcDbEntity
  8
0
100
AcDbCircle
 10
179.62144660940672
 20
209.75
 30
0.0
 40
0.25
100
AcDbArc
 50
45.0
 51
90.0
  0
LINE
  5
A2
330
17
100
AcDbEntity
  8
0
100
AcDbLine
 10
179.79822330470336
 20
209.92677669529667
 30
0.0
 11
179.90177669529663
 21
209.8232233047034
 31
0.0
  0
ARC
  5
A3
330
17
100
AcDbEntity
  8
0
100
AcDbCircle
 10
179.72500000000002
 20
209.64644660940672
 30
0.0
 40
0.25
100
AcDbArc
 50
0.0
 51
45.0
  0
LINE
  5
A4
330
17
100
AcDbEntity
  8
0
100
AcDbLine
 10
179.97500000000002
 20
207.0
 30
0.0
 11
179.97500000000002
 21
209.64644660940672
 31
0.0
  0
ARC
  5
A5
330
17
100
AcDbEntity
  8
0
100
AcDbCircle
 10
181.72500000000002
 20
207.0
 30
0.0
 40
1.75
100
AcDbArc
 50
180.0
 51
352.8192442185417
  0
ARC
  5
A6
330
17
100
AcDbEntity
  8
0
100
AcDbCircle
 10
183.70931348329844
 20
206.75
 30
0.0
 40
0.25
100
AcDbArc
 50
90.0
 51
172.81924421854185
  0
LINE
  5
A7
330
17
100
AcDbEntity
  8
0
100
AcDbLine
 10
196.29068651670158
 20
207.0
 30
0.0
 11
183.70931348329844
 21
207.0
 31
0.0
  0
ARC
  5
A8
330
17
100
AcDbEntity
  8
0
100
AcDbCircle
 10
196.29068651670156
 20
206.75
 30
0.0
 40
0.25
100
AcDbArc
 50
7.180755781458157
 51
90.0
  0
ARC
  5
A9
330
17
100
AcDbEntity
  8
0
100
AcDbCircle
 10
198.27500000000003
 20
207.0
 30
0.0
 40
1.75
100
AcDbArc
 50
187.18075578145826
 51
360.0
  0
LINE
  5
AA
330
17
100
AcDbEntity
  8
0
100
AcDbLine
 10
200.02500000000003
 20
209.64644660940672
 30
0.0
 11
200.02500000000003
 21
207.0
 31
0.0
  0
ARC
  5
AB
330
17
100
AcDbEntity
  8
0
100
AcDbCircle
 10
200.27500000000003
 20
209.64644660940672
 30
0.0
 40
0.25
100
AcDbArc
 50
134.9999999999977
 51
180.0
  0
LINE
  5
AC
330
17
100
AcDbEntity
  8
0
100
AcDbLine
 10
200.0982233047034
 20
209.82322330470336
 30
-4.440892098500626e-16
 11
200.20177669529664
 21
209.92677669529664
 31
-4.440892098500626e-16
  0
ARC
  5
AD
330
17
100
AcDbEntity
  8
0
100
AcDbCircle
 10
200.3785533905933
 20
209.75
 30
0.0
 40
0.25
100
AcDbArc
 50
90.0
 51
135.0
  0
LINE
  5
AE
330
17
100
AcDbEntity
  8
0
100
AcDbLine
 10
216.64644660940672
 20
210.0
 30
0.0
 11
200.3785533905933
 21
210.0
 31
0.0
  0
ARC
  5
AF
330
17
100
AcDbEntity
  8
0
100
AcDbCircle
 10
216.64644660940672
 20
209.75
 30
0.0
 40
0.25
100
AcDbArc
 50
44.99999999999771
 51
90.0
  0
LINE
  5
B0
330
17
100
AcDbEntity
  8
0
100
AcDbLine
 10
216.82322330470336
 20
209.92677669529664
 30
0.0
 11
216.92677669529664
 21
209.82322330470336
 31
0.0
  0
ARC
  5
B1
330
17
100
AcDbEntity
  8
0
100
AcDbCircle
 10
216.75
 20
209.64644660940672
 30
0.0
 40
0.25
100
AcDbArc
 50
0.0
 51
45.0
  0
LINE
  5
B2
330
17
100
AcDbEntity
  8
0
100
AcDbLine
 10
217.0
 20
203.70931348329844
 30
0.0
 11
217.0
 21
209.64644660940672
 31
0.0
  0
ARC
  5
B3
330
17
100
AcDbEntity
  8
0
100
AcDbCircle
 10
216.75
 20
203.70931348329844
 30
0.0
 40
0.25
100
AcDbArc
 50
-82.81924421854185
 51
0.0
  0
ARC
  5
B4
330
17
100
AcDbEntity
  8
0
100
AcDbCircle
 10
217.0
 20
201.725
 30
0.0
 40
1.75
100
AcDbArc
 50
97.18075578145827
 51
270.0
  0
LINE
  5
B5
330
17
100
AcDbEntity
  8
0
100
AcDbLine
 10
219.64644660940672
 20
199.975
 30
0.0
 11
217.0
 21
199.975
 31
0.0
  0
ARC
  5
B6
330
17
100
AcDbEntity
  8
0
100
AcDbCircle
 10
219.64644660940672
 20
199.725
 30
0.0
 40
0.25
100
AcDbArc
 50
404.9999999999977
 51
450.0
  0
LINE
  5
B7
330
17
100
AcDbEntity
  8
0
100
AcDbLine
 10
219.82322330470336
 20
199.90177669529663
 30
-4.440892098500626e-16
 11
219.9267766952966
 21
199.79822330470338
 31
-4.440892098500626e-16
  0
ARC
  5
B8
330
17
100
AcDbEntity
  8
0
100
AcDbCircle
 10
219.75
 20
199.62144660940675
 30
0.0
 40
0.25
100
AcDbArc
 50
360.0
 51
405.0
  0
LINE
  5
B9
330
17
100
AcDbEntity
  8
0
100
AcDbLine
 10
220.0
 20
180.3785533905933
 30
0.0
 11
220.0
 21
199.62144660940675
 31
0.0
  0
ARC
  5
BA
330
17
100
AcDbEntity
  8
0
100
AcDbCircle
 10
219.75
 20
180.3785533905933
 30
0.0
 40
0.25
100
AcDbArc
 50
-44.9999999999977
 51
0.0
  0
LINE
  5
BB
330
17
100
AcDbEntity
  8
0
100
AcDbLine
 10
219.92677669529667
 20
180.20177669529667
 30
0.0
 11
219.82322330470336
 21
180.09822330470337
 31
0.0
  0
ARC
  5
BC
330
17
100
AcDbEntity
  8
0
100
AcDbCircle
 10
219.64644660940672
 20
180.275
 30
0.0
 40
0.25
100
AcDbArc
 50
-90.0
 51
-45.0
  0
LINE
  5
BD
330
17
100
AcDbEntity
  8
0
100
AcDbLine
 10
217.0
 20
180.025
 30
0.0
 11
219.64644660940672
 21
180.025
 31
0.0
  0
ARC
  5
BE
330
17
100
AcDbEntity
  8
0
100
AcDbCircle
 10
217.0
 20
178.275
 30
0.0
 40
1.75
100
AcDbArc
 50
89.99999999999999
 51
262.8192442185417
  0
ARC
  5
BF
330
17
100
AcDbEntity
  8
0
100
AcDbCircle
 10
216.75
 20
176.29068651670156
 30
0.0
 40
0.25
100
AcDbArc
 50
0.0
 51
82.81924421854183
  0
LINE
  5
C0
330
17
100
AcDbEntity
  8
0
100
AcDbLine
 10
217.0
 20
163.70931348329844
 30
0.0
 11
217.0
 21
176.29068651670156
 31
0.0
  0
ARC
  5
C1
330
17
100
AcDbEntity
  8
0
100
AcDbCircle
 10
216.75
 20
163.70931348329844
 30
0.0
 40
0.25
100
AcDbArc
 50
-82.81924421854166
 51
0.0
  0
ARC
  5
C2
330
17
100
AcDbEntity
  8
0
100
AcDbCircle
 10
217.0
 20
161.725
 30
0.0
 40
1.75
100
AcDbArc
 50
97.18075578145827
 51
270.0
  0
LINE
  5
C3
330
17
100
AcDbEntity
  8
0
100
AcDbLine
 10
219.64644660940672
 20
159.975
 30
0.0
 11
217.0
 21
159.975
 31
0.0
  0
ARC
  5
C4
330
17
100
AcDbEntity
  8
0
100
AcDbCircle
 10
219.64644660940672
 20
159.725
 30
0.0
 40
0.25
100
AcDbArc
 50
405.0
 51
450.0
  0
LINE
  5
C5
330
17
100
AcDbEntity
  8
0
100
AcDbLine
 10
219.82322330470336
 20
159.90177669529663
 30
-4.440892098500626e-16
 11
219.92677669529664
 21
159.79822330470338
 31
-4.440892098500626e-16
  0
ARC
  5
C6
330
17
100
AcDbEntity
  8
0
100
AcDbCircle
 10
219.75
 20
159.62144660940675
 30
0.0
 40
0.25
100
AcDbArc
 50
360.0
 51
405.0
  0
LINE
  5
C7
330
17
100
AcDbEntity
  8
0
100
AcDbLine
 10
220.0
 20
140.3785533905933
 30
0.0
 11
220.0
 21
159.62144660940675
 31
0.0
  0
ARC
  5
C8
330
17
100
AcDbEntity
  8
0
100
AcDbCircle
 10
219.75
 20
140.3785533905933
 30
0.0
 40
0.25
100
AcDbArc
 50
-45.000000000002295
 51
0.0
  0
LINE
  5
C9
330
17
100
AcDbEntity
  8
0
100
AcDbLine
 10
219.92677669529667
 20
140.20177669529664
 30
0.0
 11
219.82322330470336
 21
140.09822330470337
 31
0.0
  0
ARC
  5
CA
330
17
100
AcDbEntity
  8
0
100
AcDbCircle
 10
219.64644660940672
 20
140.275
 30
0.0
 40
0.25
100
AcDbArc
 50
-90.0
 51
-45.00000000000116
  0
LINE
  5
CB
330
17
100
AcDbEntity
  8
0
100
AcDbLine
 10
217.0
 20
140.025
 30
0.0
 11
219.64644660940672
 21
140.025
 31
0.0
  0
ARC
  5
CC
330
17
100
AcDbEntity
  8
0
100
AcDbCircle
 10
217.0
 20
138.275
 30
0.0
 40
1.75
100
AcDbArc
 50
89.99999999999999
 51
262.8192442185417
  0
ARC
  5
CD
330
17
100
AcDbEntity
  8
0
100
AcDbCircle
 10
216.75
 20
136.29068651670156
 30
0.0
 40
0.25
100
AcDbArc
 50
0.0
 51
82.81924421854173
  0
LINE
  5
CE
330
17
100
AcDbEntity
  8
0
100
AcDbLine
 10
217.0
 20
123.70931348329844
 30
0.0
 11
217.0
 21
136.29068651670156
 31
0.0
  0
ARC
  5
CF
330
17
100
AcDbEntity
  8
0
100
AcDbCircle
 10
216.75
 20
123.70931348329844
 30
0.0
 40
0.25
100
AcDbArc
 50
-82.81924421854175
 51
0.0
  0
ARC
  5
D0
330
17
100
AcDbEntity
  8
0
100
AcDbCircle
 10
217.0
 20
121.725
 30
0.0
 40
1.75
100
AcDbArc
 50
97.18075578145827
 51
270.0
  0
LINE
  5
D1
330
17
100
AcDbEntity
  8
0
100
AcDbLine
 10
219.64644660940672
 20
119.97500000000001
 30
0.0
 11
217.0
 21
119.97500000000001
 31
0.0
  0
ARC
  5
D2
330
17
100
AcDbEntity
  8
0
100
AcDbCircle
 10
219.64644660940672
 20
119.725
 30
0.0
 40
0.25
100
AcDbArc
 50
405.00000000000057
 51
450.0
  0
LINE
  5
D3
330
17
100
AcDbEntity
  8
0
100
AcDbLine
 10
219.82322330470336
 20
119.90177669529665
 30
-4.440892098500626e-16
 11
219.92677669529664
 21
119.79822330470337
 31
-4.440892098500626e-16
  0
ARC
  5
D4
330
17
100
AcDbEntity
  8
0
100
AcDbCircle
 10
219.75
 20
119.62144660940675
 30
0.0
 40
0.25
100
AcDbArc
 50
360.0000000000004
 51
404.99999999999915
  0
LINE
  5
D5
330
17
100
AcDbEntity
  8
0
100
AcDbLine
 10
220.0
 20
100.37855339059328
 30
0.0
 11
220.0
 21
119.62144660940675
 31
0.0
  0
ARC
  5
D6
330
17
100
AcDbEntity
  8
0
100
AcDbCircle
 10
219.75
 20
100.37855339059328
 30
0.0
 40
0.25
100
AcDbArc
 50
-45.000000000000725
 51
-6.106664988409952e-13
  0
LINE
  5
D7
330
17
100
AcDbEntity
  8
0
100
AcDbLine
 10
219.92677669529667
 20
100.20177669529664
 30
0.0
 11
219.82322330470336
 21
100.09822330470335
 31
0.0
  0
ARC
  5
D8
330
17
100
AcDbEntity
  8
0
100
AcDbCircle
 10
219.64644660940672
 20
100.275
 30
0.0
 40
0.25
100
AcDbArc
 50
-90.0
 51
-45.000000000000426
  0
LINE
  5
D9
330
17
100
AcDbEntity
  8
0
100
AcDbLine
 10
217.0
 20
100.02499999999999
 30
0.0
 11
219.64644660940672
 21
100.02499999999999
 31
0.0
  0
ARC
  5
DA
330
17
100
AcDbEntity
  8
0
100
AcDbCircle
 10
217.0
 20
98.275
 30
0.0
 40
1.75
100
AcDbArc
 50
89.99999999999999
 51
262.8192442185417
  0
ARC
  5
DB
330
17
100
AcDbEntity
  8
0
100
AcDbCircle
 10
216.75
 20
96.29068651670156
 30
0.0
 40
0.25
100
AcDbArc
 50
0.0
 51
82.81924421854168
  0
LINE
  5
DC
330
17
100
AcDbEntity
  8
0
100
AcDbLine
 10
217.0
 20
83.70931348329844
 30
0.0
 11
217.0
 21
96.29068651670156
 31
0.0
  0
ARC
  5
DD
330
17
100
AcDbEntity
  8
0
100
AcDbCircle
 10
216.75
 20
83.70931348329844
 30
0.0
 40
0.25
100
AcDbArc
 50
-82.81924421854175
 51
0.0
  0
ARC
  5
DE
330
17
100
AcDbEntity
  8
0
100
AcDbCircle
 10
217.0
 20
81.725
 30
0.0
 40
1.75
100
AcDbArc
 50
97.18075578145827
 51
270.0
  0
LINE
  5
DF
330
17
100
AcDbEntity
  8
0
100
AcDbLine
 10
219.64644660940672
 20
79.975
 30
0.0
 11
217.0
 21
79.975
 31
0.0
  0
ARC
  5
E0
330
17
100
AcDbEntity
  8
0
100
AcDbCircle
 10
219.64644660940672
 20
79.725
 30
0.0
 40
0.25
100
AcDbArc
 50
405.00000000000057
 51
450.0
  0
LINE
  5
E1
330
17
100
AcDbEntity
  8
0
100
AcDbLine
 10
219.82322330470336
 20
79.90177669529665
 30
-4.440892098500626e-16
 11
219.92677669529664
 21
79.79822330470338
 31
-4.440892098500626e-16
  0
ARC
  5
E2
330
17
100
AcDbEntity
  8
0
100
AcDbCircle
 10
219.75
 20
79.62144660940675
 30
0.0
 40
0.25
100
AcDbArc
 50
360.0000000000008
 51
404.99999999999943
  0
LINE
  5
E3
330
17
100
AcDbEntity
  8
0
100
AcDbLine
 10
220.0
 20
60.37855339059328
 30
0.0
 11
220.0
 21
79.62144660940675
 31
0.0
  0
ARC
  5
E4
330
17
100
AcDbEntity
  8
0
100
AcDbCircle
 10
219.75
 20
60.37855339059328
 30
0.0
 40
0.25
100
AcDbArc
 50
-45.0
 51
0.0
  0
LINE
  5
E5
330
17
100
AcDbEntity
  8
0
100
AcDbLine
 10
219.92677669529667
 20
60.201776695296644
 30
0.0
 11
219.82322330470336
 21
60.09822330470336
 31
0.0
  0
ARC
  5
E6
330
17
100
AcDbEntity
  8
0
100
AcDbCircle
 10
219.64644660940672
 20
60.275
 30
0.0
 40
0.25
100
AcDbArc
 50
-90.0
 51
-45.0
  0
LINE
  5
E7
330
17
100
AcDbEntity
  8
0
100
AcDbLine
 10
217.0
 20
60.025
 30
0.0
 11
219.64644660940672
 21
60.025
 31
0.0
  0
ARC
  5
E8
330
17
100
AcDbEntity
  8
0
100
AcDbCircle
 10
217.0
 20
58.275
 30
0.0
 40
1.75
100
AcDbArc
 50
89.99999999999999
 51
262.8192442185417
  0
ARC
  5
E9
330
17
100
AcDbEntity
  8
0
100
AcDbCircle
 10
216.75
 20
56.290686516701555
 30
0.0
 40
0.25
100
AcDbArc
 50
0.0
 51
82.81924421854163
  0
LINE
  5
EA
330
17
100
AcDbEntity
  8
0
100
AcDbLine
 10
217.0
 20
43.709313483298445
 30
0.0
 11
217.0
 21
56.290686516701555
 31
0.0
  0
ARC
  5
EB
330
17
100
AcDbEntity
  8
0
100
AcDbCircle
 10
216.75
 20
43.709313483298445
 30
0.0
 40
0.25
100
AcDbArc
 50
-82.81924421854166
 51
0.0
  0
ARC
  5
EC
330
17
100
AcDbEntity
  8
0
100
AcDbCircle
 10
217.0
 20
41.725
 30
0.0
 40
1.75
100
AcDbArc
 50
97.18075578145827
 51
270.0
  0
LINE
  5
ED
330
17
100
AcDbEntity
  8
0
100
AcDbLine
 10
219.64644660940672
 20
39.974999999999994
 30
0.0
 11
217.0
 21
39.974999999999994
 31
0.0
  0
ARC
  5
EE
330
17
100
AcDbEntity
  8
0
100
AcDbCircle
 10
219.64644660940672
 20
39.724999999999994
 30
0.0
 40
0.25
100
AcDbArc
 50
405.0
 51
450.0
  0
LINE
  5
EF
330
17
100
AcDbEntity
  8
0
100
AcDbLine
 10
219.82322330470336
 20
39.90177669529663
 30
-4.440892098500626e-16
 11
219.92677669529664
 21
39.798223304703356
 31
-4.440892098500626e-16
  0
ARC
  5
F0
330
17
100
AcDbEntity
  8
0
100
AcDbCircle
 10
219.75
 20
39.62144660940672
 30
0.0
 40
0.25
100
AcDbArc
 50
360.0
 51
405.0
  0
LINE
  5
F1
330
17
100
AcDbEntity
  8
0
100
AcDbLine
 10
220.0
 20
20.378553390593282
 30
0.0
 11
220.0
 21
39.62144660940672
 31
0.0
  0
ARC
  5
F2
330
17
100
AcDbEntity
  8
0
100
AcDbCircle
 10
219.75
 20
20.378553390593282
 30
0.0
 40
0.25
100
AcDbArc
 50
-45.0
 51
0.0
  0
LINE
  5
F3
330
17
100
AcDbEntity
  8
0
100
AcDbLine
 10
219.92677669529664
 20
20.20177669529663
 30
0.0
 11
219.8232233047034
 21
20.098223304703367
 31
0.0
  0
ARC
  5
F4
330
17
100
AcDbEntity
  8
0
100
AcDbCircle
 10
219.64644660940672
 20
20.275000000000006
 30
0.0
 40
0.25
100
AcDbArc
 50
-90.0
 51
-45.0
  0
LINE
  5
F5
330
17
100
AcDbEntity
  8
0
100
AcDbLine
 10
217.0
 20
20.025000000000006
 30
0.0
 11
219.64644660940672
 21
20.025000000000006
 31
0.0
  0
ARC
  5
F6
330
17
100
AcDbEntity
  8
0
100
AcDbCircle
 10
217.0
 20
18.275000000000006
 30
0.0
 40
1.75
100
AcDbArc
 50
89.99999999999999
 51
262.8192442185417
  0
ARC
  5
F7
330
17
100
AcDbEntity
  8
0
100
AcDbCircle
 10
216.75
 20
16.290686516701555
 30
0.0
 40
0.25
100
AcDbArc
 50
0.0
 51
82.81924421854183
  0
LINE
  5
F8
330
17
100
AcDbEntity
  8
0
100
AcDbLine
 10
217.0
 20
0.35355339059329083
 30
0.0
 11
217.0
 21
16.290686516701555
 31
0.0
  0
ARC
  5
F9
330
17
100
AcDbEntity
  8
0
100
AcDbCircle
 10
216.75
 20
0.35355339059329083
 30
0.0
 40
0.25
100
AcDbArc
 50
315.0
 51
360.0
  0
LINE
  5
FA
330
17
100
AcDbEntity
  8
0
100
AcDbLine
 10
216.82322330470336
 20
0.07322330470336169
 30
-4.440892098500626e-16
 11
216.92677669529667
 21
0.17677669529665252
 31
-4.440892098500626e-16
  0
ARC
  5
FB
330
17
100
AcDbEntity
  8
0
100
AcDbCircle
 10
216.64644660940672
 20
0.25
 30
0.0
 40
0.25
100
AcDbArc
 50
269.99999999999676
 51
314.9999999999977
  0
LINE
  5
FC
330
17
100
AcDbEntity
  8
0
100
AcDbLine
 10
3.353553390593291
 20
0.0
 30
0.0
 11
216.64644660940672
 21
0.0
 31
0.0
  0
ARC
  5
FD
330
17
100
AcDbEntity
  8
0
100
AcDbCircle
 10
3.353553390593291
 20
0.25
 30
0.0
 40
0.25
100
AcDbArc
 50
224.99999999999773
 51
270.0
  0
LINE
  5
FE
330
17
100
AcDbEntity
  8
0
100
AcDbLine
 10
3.1767766952966383
 20
0.07322330470336169
 30
0.0
 11
3.0732233047033617
 21
0.1767766952966383
 31
0.0
  0
ARC
  5
FF
330
17
100
AcDbEntity
  8
0
100
AcDbCircle
 10
3.25
 20
0.3535533905932766
 30
0.0
 40
0.25
100
AcDbArc
 50
180.0
 51
225.0
  0
LINE
  5
100
330
17
100
AcDbEntity
  8
0
100
AcDbLine
 10
3.0
 20
16.290686516701555
 30
0.0
 11
3.0
 21
0.3535533905932766
 31
0.0
  0
ARC
  5
101
330
17
100
AcDbEntity
  8
0
100
AcDbCircle
 10
3.25
 20
16.290686516701555
 30
0.0
 40
0.25
100
AcDbArc
 50
97.18075578145815
 51
180.0
  0
ARC
  5
102
330
17
100
AcDbEntity
  8
0
100
AcDbCircle
 10
3.0
 20
18.275000000000006
 30
0.0
 40
1.75
100
AcDbArc
 50
277.1807557814583
 51
450.0
  0
LINE
  5
103
330
17
100
AcDbEntity
  8
0
100
AcDbLine
 10
0.3535533905932766
 20
20.025000000000006
 30
0.0
 11
3.0
 21
20.025000000000006
 31
0.0
  0
ARC
  5
104
330
17
100
AcDbEntity
  8
0
100
AcDbCircle
 10
0.3535533905932766
 20
20.275000000000006
 30
0.0
 40
0.25
100
AcDbArc
 50
225.0
 51
270.0
  0
LINE
  5
105
330
17
100
AcDbEntity
  8
0
100
AcDbLine
 10
0.1767766952966241
 20
20.098223304703367
 30
-4.440892098500626e-16
 11
0.07322330470336169
 21
20.20177669529663
 31
-4.440892098500626e-16
  0
ARC
  5
106
330
17
100
AcDbEntity
  8
0
100
AcDbCircle
 10
0.25
 20
20.378553390593254
 30
0.0
 40
0.25
100
AcDbArc
 50
180.0
 51
225.0
  0
LINE
  5
107
330
17
100
AcDbEntity
  8
0
100
AcDbLine
 10
0.0
 20
39.62144660940669
 30
0.0
 11
0.0
 21
20.378553390593254
 31
0.0
  0
ARC
  5
108
330
17
100
AcDbEntity
  8
0
100
AcDbCircle
 10
0.25
 20
39.62144660940669
 30
0.0
 40
0.25
100
AcDbArc
 50
134.9999999999977
 51
180.0
  0
LINE
  5
109
330
17
100
AcDbEntity
  8
0
100
AcDbLine
 10
0.07322330470334748
 20
39.798223304703356
 30
0.0
 11
0.1767766952966383
 21
39.90177669529663
 31
0.0
  0
ARC
  5
10A
330
17
100
AcDbEntity
  8
0
100
AcDbCircle
 10
0.3535533905932766
 20
39.724999999999994
 30
0.0
 40
0.25
100
AcDbArc
 50
90.0
 51
135.0
  0
LINE
  5
10B
330
17
100
AcDbEntity
  8
0
100
AcDbLine
 10
3.0
 20
39.974999999999994
 30
0.0
 11
0.3535533905932766
 21
39.974999999999994
 31
0.0
  0
ARC
  5
10C
330
17
100
AcDbEntity
  8
0
100
AcDbCircle
 10
3.0
 20
41.725
 30
0.0
 40
1.75
100
AcDbArc
 50
270.0
 51
442.8192442185417
  0
ARC
  5
10D
330
17
100
AcDbEntity
  8
0
100
AcDbCircle
 10
3.25
 20
43.709313483298445
 30
0.0
 40
0.25
100
AcDbArc
 50
180.0
 51
262.81924421854166
  0
LINE
  5
10E
330
17
100
AcDbEntity
  8
0
100
AcDbLine
 10
3.0
 20
56.290686516701555
 30
0.0
 11
3.0
 21
43.70931348329844
 31
0.0
  0
ARC
  5
10F
330
17
100
AcDbEntity
  8
0
100
AcDbCircle
 10
3.25
 20
56.290686516701555
 30
0.0
 40
0.25
100
AcDbArc
 50
97.18075578145834
 51
180.0
  0
ARC
  5
110
330
17
100
AcDbEntity
  8
0
100
AcDbCircle
 10
3.0
 20
58.275
 30
0.0
 40
1.75
100
AcDbArc
 50
277.1807557814583
 51
450.0
  0
CIRCLE
  5
111
330
17
100
AcDbEntity
  8
0
100
AcDbCircle
 10
8.0
 20
6.0
 30
0.0
 40
1.65
  0
CIRCLE
  5
112
330
17
100
AcDbEntity
  8
0
100
AcDbCircle
 10
30.0
 20
15.0
 30
0.0
 40
1.65
  0
CIRCLE
  5
113
330
17
100
AcDbEntity
  8
0
100
AcDbCircle
 10
46.0
 20
14.0
 30
0.0
 40
2.65
  0
CIRCLE
  5
114
330
17
100
AcDbEntity
  8
0
100
AcDbCircle
 10
8.0
 20
30.0
 30
0.0
 40
1.65
  0
CIRCLE
  5
115
330
17
100
AcDbEntity
  8
0
100
AcDbCircle
 10
78.0
 20
14.0
 30
0.0
 40
2.65
  0
CIRCLE
  5
116
330
17
100
AcDbEntity
  8
0
100
AcDbCircle
 10
87.75
 20
39.5
 30
0.0
 40
1.65
  0
CIRCLE
  5
117
330
17
100
AcDbEntity
  8
0
100
AcDbCircle
 10
142.0
 20
14.0
 30
0.0
 40
2.65
  0
CIRCLE
  5
118
330
17
100
AcDbEntity
  8
0
100
AcDbCircle
 10
132.25
 20
39.5
 30
0.0
 40
1.65
  0
CIRCLE
  5
119
330
17
100
AcDbEntity
  8
0
100
AcDbCircle
 10
174.0
 20
14.0
 30
0.0
 40
2.65
  0
CIRCLE
  5
11A
330
17
100
AcDbEntity
  8
0
100
AcDbCircle
 10
190.0
 20
15.0
 30
0.0
 40
1.65
  0
CIRCLE
  5
11B
330
17
100
AcDbEntity
  8
0
100
AcDbCircle
 10
212.0
 20
6.0
 30
0.0
 40
1.65
  0
CIRCLE
  5
11C
330
17
100
AcDbEntity
  8
0
100
AcDbCircle
 10
212.0
 20
30.0
 30
0.0
 40
1.65
  0
CIRCLE
  5
11D
330
17
100
AcDbEntity
  8
0
100
AcDbCircle
 10
8.0
 20
110.0
 30
0.0
 40
1.65
  0
CIRCLE
  5
11E
330
17
100
AcDbEntity
  8
0
100
AcDbCircle
 10
37.0
 20
166.5
 30
0.0
 40
1.65
  0
CIRCLE
  5
11F
330
17
100
AcDbEntity
  8
0
100
AcDbCircle
 10
8.0
 20
202.0
 30
0.0
 40
1.65
  0
CIRCLE
  5
120
330
17
100
AcDbEntity
  8
0
100
AcDbCircle
 10
46.0
 20
200.0
 30
0.0
 40
2.65
  0
CIRCLE
  5
121
330
17
100
AcDbEntity
  8
0
100
AcDbCircle
 10
78.0
 20
200.0
 30
0.0
 40
2.65
  0
CIRCLE
  5
122
330
17
100
AcDbEntity
  8
0
100
AcDbCircle
 10
95.0
 20
202.0
 30
0.0
 40
1.65
  0
CIRCLE
  5
123
330
17
100
AcDbEntity
  8
0
100
AcDbCircle
 10
212.0
 20
110.0
 30
0.0
 40
1.65
  0
CIRCLE
  5
124
330
17
100
AcDbEntity
  8
0
100
AcDbCircle
 10
125.0
 20
202.0
 30
0.0
 40
1.65
  0
CIRCLE
  5
125
330
17
100
AcDbEntity
  8
0
100
AcDbCircle
 10
142.0
 20
200.0
 30
0.0
 40
2.65
  0
CIRCLE
  5
126
330
17
100
AcDbEntity
  8
0
100
AcDbCircle
 10
183.0
 20
166.5
 30
0.0
 40
1.65
  0
CIRCLE
  5
127
330
17
100
AcDbEntity
  8
0
100
AcDbCircle
 10
174.0
 20
200.0
 30
0.0
 40
2.65
  0
CIRCLE
  5
128
330
17
100
AcDbEntity
  8
0
100
AcDbCircle
 10
212.0
 20
202.0
 30
0.0
 40
1.65
  0
ENDSEC
  0
SECTION
  2
OBJECTS
  0
DICTIONARY
  5
A
330
0
100
AcDbDictionary
280
0
281
1
  3
ACAD_COLOR
350
B
  3
ACAD_GROUP
350
C
  3
ACAD_LAYOUT
350
D
  3
ACAD_MATERIAL
350
E
  3
ACAD_MLEADERSTYLE
350
F
  3
ACAD_MLINESTYLE
350
10
  3
ACAD_PLOTSETTINGS
350
11
  3
ACAD_PLOTSTYLENAME
350
12
  3
ACAD_SCALELIST
350
14
  3
ACAD_TABLESTYLE
350
15
  3
ACAD_VISUALSTYLE
350
16
  3
EZDXF_META
350
2D
  0
DICTIONARY
  5
B
330
A
100
AcDbDictionary
280
0
281
1
  0
DICTIONARY
  5
C
330
A
100
AcDbDictionary
280
0
281
1
  0
DICTIONARY
  5
D
330
A
100
AcDbDictionary
280
0
281
1
  3
Model
350
1A
  3
Layout1
350
1E
  0
DICTIONARY
  5
E
330
A
100
AcDbDictionary
280
0
281
1
  3
ByBlock
350
1F
  3
ByLayer
350
20
  3
Global
350
21
  0
DICTIONARY
  5
F
330
A
100
AcDbDictionary
280
0
281
1
  3
Standard
350
2C
  0
DICTIONARY
  5
10
330
A
100
AcDbDictionary
280
0
281
1
  3
Standard
350
22
  0
DICTIONARY
  5
11
330
A
100
AcDbDictionary
280
0
281
1
  0
ACDBDICTIONARYWDFLT
  5
12
330
A
100
AcDbDictionary
280
0
281
1
  3
Normal
350
13
100
AcDbDictionaryWithDefault
340
13
  0
ACDBPLACEHOLDER
  5
13
330
12
  0
DICTIONARY
  5
14
330
A
100
AcDbDictionary
280
0
281
1
  0
DICTIONARY
  5
15
330
A
100
AcDbDictionary
280
0
281
1
  0
DICTIONARY
  5
16
330
A
100
AcDbDictionary
280
0
281
1
  0
LAYOUT
  5
1A
330
D
100
AcDbPlotSettings
  1

  2
Adobe PDF
  4
A3
  6

 40
7.5
 41
20.0
 42
7.5
 43
20.0
 44
420.0
 45
297.0
 46
0.0
 47
0.0
 48
0.0
 49
0.0
140
0.0
141
0.0
142
1.0
143
1.0
 70
1024
 72
1
 73
0
 74
5
  7

 75
16
 76
0
 77
2
 78
300
147
1.0
148
0.0
149
0.0
100
AcDbLayout
  1
Model
 70
1
 71
0
 10
0.0
 20
0.0
 11
420.0
 21
297.0
 12
0.0
 22
0.0
 32
0.0
 14
1e+20
 24
1e+20
 34
1e+20
 15
-1e+20
 25
-1e+20
 35
-1e+20
146
0.0
 13
0.0
 23
0.0
 33
0.0
 16
1.0
 26
0.0
 36
0.0
 17
0.0
 27
1.0
 37
0.0
 76
1
330
17
  0
LAYOUT
  5
1E
330
D
100
AcDbPlotSettings
  1

  2
Adobe PDF
  4
A3
  6

 40
7.5
 41
20.0
 42
7.5
 43
20.0
 44
420.0
 45
297.0
 46
0.0
 47
0.0
 48
0.0
 49
0.0
140
0.0
141
0.0
142
1.0
143
1.0
 70
0
 72
1
 73
0
 74
5
  7

 75
16
 76
0
 77
2
 78
300
147
1.0
148
0.0
149
0.0
100
AcDbLayout
  1
Layout1
 70
1
 71
1
 10
0.0
 20
0.0
 11
420.0
 21
297.0
 12
0.0
 22
0.0
 32
0.0
 14
1e+20
 24
1e+20
 34
1e+20
 15
-1e+20
 25
-1e+20
 35
-1e+20
146
0.0
 13
0.0
 23
0.0
 33
0.0
 16
1.0
 26
0.0
 36
0.0
 17
0.0
 27
1.0
 37
0.0
 76
1
330
1B
  0
MATERIAL
  5
1F
102
{ACAD_REACTORS
330
E
102
}
330
E
100
AcDbMaterial
  1
ByBlock
  2

 70
0
 40
1.0
 71
1
 41
1.0
 91
-1023410177
 42
1.0
 72
1
  3

 73
1
 74
1
 75
1
 44
0.5
 73
0
 45
1.0
 46
1.0
 77
1
  4

 78
1
 79
1
170
1
 48
1.0
171
1
  6

172
1
173
1
174
1
140
1.0
141
1.0
175
1
  7

176
1
177
1
178
1
143
1.0
179
1
  8

270
1
271
1
272
1
145
1.0
146
1.0
273
1
  9

274
1
275
1
276
1
 42
1.0
 72
1
  3

 73
1
 74
1
 75
1
 94
63
  0
MATERIAL
  5
20
102
{ACAD_REACTORS
330
E
102
}
330
E
100
AcDbMaterial
  1
ByLayer
  2

 70
0
 40
1.0
 71
1
 41
1.0
 91
-1023410177
 42
1.0
 72
1
  3

 73
1
 74
1
 75
1
 44
0.5
 73
0
 45
1.0
 46
1.0
 77
1
  4

 78
1
 79
1
170
1
 48
1.0
171
1
  6

172
1
173
1
174
1
140
1.0
141
1.0
175
1
  7

176
1
177
1
178
1
143
1.0
179
1
  8

270
1
271
1
272
1
145
1.0
146
1.0
273
1
  9

274
1
275
1
276
1
 42
1.0
 72
1
  3

 73
1
 74
1
 75
1
 94
63
  0
MATERIAL
  5
21
102
{ACAD_REACTORS
330
E
102
}
330
E
100
AcDbMaterial
  1
Global
  2

 70
0
 40
1.0
 71
1
 41
1.0
 91
-1023410177
 42
1.0
 72
1
  3

 73
1
 74
1
 75
1
 44
0.5
 73
0
 45
1.0
 46
1.0
 77
1
  4

 78
1
 79
1
170
1
 48
1.0
171
1
  6

172
1
173
1
174
1
140
1.0
141
1.0
175
1
  7

176
1
177
1
178
1
143
1.0
179
1
  8

270
1
271
1
272
1
145
1.0
146
1.0
273
1
  9

274
1
275
1
276
1
 42
1.0
 72
1
  3

 73
1
 74
1
 75
1
 94
63
  0
MLINESTYLE
  5
22
102
{ACAD_REACTORS
330
10
102
}
330
10
100
AcDbMlineStyle
  2
Standard
 70
0
  3

 62
256
 51
90.0
 52
90.0
 71
2
 49
0.5
 62
256
  6
BYLAYER
 49
-0.5
 62
256
  6
BYLAYER
  0
MLEADERSTYLE
  5
2C
102
{ACAD_REACTORS
330
F
102
}
330
F
100
AcDbMLeaderStyle
179
2
170
2
171
1
172
0
 90
2
 40
0.0
 41
0.0
173
1
 91
-1056964608
 92
-2
290
1
 42
2.0
291
1
 43
8.0
  3
Standard
 44
4.0
300

342
29
174
1
175
1
176
0
178
1
 93
-1056964608
 45
4.0
292
0
297
0
 46
4.0
 94
-1056964608
 47
1.0
 49
1.0
140
1.0
294
1
141
0.0
177
0
142
1.0
295
0
296
0
143
3.75
271
0
272
9
273
9
  0
DICTIONARY
  5
2D
330
A
100
AcDbDictionary
281
1
  3
CREATED_BY_EZDXF
350
2E
  3
WRITTEN_BY_EZDXF
350
12C
  0
DICTIONARYVAR
  5
2E
330
2D
100
DictionaryVariables
280
0
  1
1.0.3 @ 2024-09-10T15:02:55.732935+00:00
  0
DICTIONARYVAR
  5
12C
330
2D
100
DictionaryVariables
280
0
  1
1.0.3 @ 2024-09-10T15:02:55.772292+00:00
  0
ENDSEC
  0
EOF
