  0
SECTION
  2
HEADER
  9
$ACADVER
  1
AC1027
  9
$ACADMAINTVER
 70
105
  9
$DWGCODEPAGE
  3
ANSI_1252
  9
$LASTSAVEDBY
  1
ezdxf
  9
$REQUIREDVERSIONS
160
0
  9
$INSBASE
 10
0.0
 20
0.0
 30
0.0
  9
$EXTMIN
 10
1e+20
 20
1e+20
 30
1e+20
  9
$EXTMAX
 10
-1e+20
 20
-1e+20
 30
-1e+20
  9
$LIMMIN
 10
0.0
 20
0.0
  9
$LIMMAX
 10
420.0
 20
297.0
  9
$ORTHOMODE
 70
0
  9
$REGENMODE
 70
1
  9
$FILLMODE
 70
1
  9
$QTEXTMODE
 70
0
  9
$MIRRTEXT
 70
1
  9
$LTSCALE
 40
1.0
  9
$ATTMODE
 70
1
  9
$TEXTSIZE
 40
2.5
  9
$TRACEWID
 40
1.0
  9
$TEXTSTYLE
  7
Standard
  9
$CLAYER
  8
0
  9
$CELTYPE
  6
ByLayer
  9
$CECOLOR
 62
256
  9
$CELTSCALE
 40
1.0
  9
$DISPSILH
 70
0
  9
$DIMSCALE
 40
1.0
  9
$DIMASZ
 40
2.5
  9
$DIMEXO
 40
0.625
  9
$DIMDLI
 40
3.75
  9
$DIMRND
 40
0.0
  9
$DIMDLE
 40
0.0
  9
$DIMEXE
 40
1.25
  9
$DIMTP
 40
0.0
  9
$DIMTM
 40
0.0
  9
$DIMTXT
 40
2.5
  9
$DIMCEN
 40
2.5
  9
$DIMTSZ
 40
0.0
  9
$DIMTOL
 70
0
  9
$DIMLIM
 70
0
  9
$DIMTIH
 70
0
  9
$DIMTOH
 70
0
  9
$DIMSE1
 70
0
  9
$DIMSE2
 70
0
  9
$DIMTAD
 70
1
  9
$DIMZIN
 70
8
  9
$DIMBLK
  1

  9
$DIMASO
 70
1
  9
$DIMSHO
 70
1
  9
$DIMPOST
  1

  9
$DIMAPOST
  1

  9
$DIMALT
 70
0
  9
$DIMALTD
 70
3
  9
$DIMALTF
 40
0.03937007874
  9
$DIMLFAC
 40
1.0
  9
$DIMTOFL
 70
1
  9
$DIMTVP
 40
0.0
  9
$DIMTIX
 70
0
  9
$DIMSOXD
 70
0
  9
$DIMSAH
 70
0
  9
$DIMBLK1
  1

  9
$DIMBLK2
  1

  9
$DIMSTYLE
  2
ISO-25
  9
$DIMCLRD
 70
0
  9
$DIMCLRE
 70
0
  9
$DIMCLRT
 70
0
  9
$DIMTFAC
 40
1.0
  9
$DIMGAP
 40
0.625
  9
$DIMJUST
 70
0
  9
$DIMSD1
 70
0
  9
$DIMSD2
 70
0
  9
$DIMTOLJ
 70
0
  9
$DIMTZIN
 70
8
  9
$DIMALTZ
 70
0
  9
$DIMALTTZ
 70
0
  9
$DIMUPT
 70
0
  9
$DIMDEC
 70
2
  9
$DIMTDEC
 70
2
  9
$DIMALTU
 70
2
  9
$DIMALTTD
 70
3
  9
$DIMTXSTY
  7
Standard
  9
$DIMAUNIT
 70
0
  9
$DIMADEC
 70
0
  9
$DIMALTRND
 40
0.0
  9
$DIMAZIN
 70
0
  9
$DIMDSEP
 70
44
  9
$DIMATFIT
 70
3
  9
$DIMFRAC
 70
0
  9
$DIMLDRBLK
  1

  9
$DIMLUNIT
 70
2
  9
$DIMLWD
 70
-2
  9
$DIMLWE
 70
-2
  9
$DIMTMOVE
 70
0
  9
$DIMFXL
 40
1.0
  9
$DIMFXLON
 70
0
  9
$DIMJOGANG
 40
0.785398163397
  9
$DIMTFILL
 70
0
  9
$DIMTFILLCLR
 70
0
  9
$DIMARCSYM
 70
0
  9
$DIMLTYPE
  6

  9
$DIMLTEX1
  6

  9
$DIMLTEX2
  6

  9
$DIMTXTDIRECTION
 70
0
  9
$LUNITS
 70
2
  9
$LUPREC
 70
4
  9
$SKETCHINC
 40
1.0
  9
$FILLETRAD
 40
10.0
  9
$AUNITS
 70
0
  9
$AUPREC
 70
2
  9
$MENU
  1
.
  9
$ELEVATION
 40
0.0
  9
$PELEVATION
 40
0.0
  9
$THICKNESS
 40
0.0
  9
$LIMCHECK
 70
0
  9
$CHAMFERA
 40
0.0
  9
$CHAMFERB
 40
0.0
  9
$CHAMFERC
 40
0.0
  9
$CHAMFERD
 40
0.0
  9
$SKPOLY
 70
0
  9
$TDCREATE
 40
2460564.698946759
  9
$TDUCREATE
 40
2458532.153996898
  9
$TDUPDATE
 40
2460564.698946759
  9
$TDUUPDATE
 40
2458532.1544311
  9
$TDINDWG
 40
0.0
  9
$TDUSRTIMER
 40
0.0
  9
$USRTIMER
 70
1
  9
$ANGBASE
 50
0.0
  9
$ANGDIR
 70
0
  9
$PDMODE
 70
0
  9
$PDSIZE
 40
0.0
  9
$PLINEWID
 40
0.0
  9
$SPLFRAME
 70
0
  9
$SPLINETYPE
 70
6
  9
$SPLINESEGS
 70
8
  9
$HANDSEED
  5
D5
  9
$SURFTAB1
 70
6
  9
$SURFTAB2
 70
6
  9
$SURFTYPE
 70
6
  9
$SURFU
 70
6
  9
$SURFV
 70
6
  9
$UCSBASE
  2

  9
$UCSNAME
  2

  9
$UCSORG
 10
0.0
 20
0.0
 30
0.0
  9
$UCSXDIR
 10
1.0
 20
0.0
 30
0.0
  9
$UCSYDIR
 10
0.0
 20
1.0
 30
0.0
  9
$UCSORTHOREF
  2

  9
$UCSORTHOVIEW
 70
0
  9
$UCSORGTOP
 10
0.0
 20
0.0
 30
0.0
  9
$UCSORGBOTTOM
 10
0.0
 20
0.0
 30
0.0
  9
$UCSORGLEFT
 10
0.0
 20
0.0
 30
0.0
  9
$UCSORGRIGHT
 10
0.0
 20
0.0
 30
0.0
  9
$UCSORGFRONT
 10
0.0
 20
0.0
 30
0.0
  9
$UCSORGBACK
 10
0.0
 20
0.0
 30
0.0
  9
$PUCSBASE
  2

  9
$PUCSNAME
  2

  9
$PUCSORG
 10
0.0
 20
0.0
 30
0.0
  9
$PUCSXDIR
 10
1.0
 20
0.0
 30
0.0
  9
$PUCSYDIR
 10
0.0
 20
1.0
 30
0.0
  9
$PUCSORTHOREF
  2

  9
$PUCSORTHOVIEW
 70
0
  9
$PUCSORGTOP
 10
0.0
 20
0.0
 30
0.0
  9
$PUCSORGBOTTOM
 10
0.0
 20
0.0
 30
0.0
  9
$PUCSORGLEFT
 10
0.0
 20
0.0
 30
0.0
  9
$PUCSORGRIGHT
 10
0.0
 20
0.0
 30
0.0
  9
$PUCSORGFRONT
 10
0.0
 20
0.0
 30
0.0
  9
$PUCSORGBACK
 10
0.0
 20
0.0
 30
0.0
  9
$USERI1
 70
0
  9
$USERI2
 70
0
  9
$USERI3
 70
0
  9
$USERI4
 70
0
  9
$USERI5
 70
0
  9
$USERR1
 40
0.0
  9
$USERR2
 40
0.0
  9
$USERR3
 40
0.0
  9
$USERR4
 40
0.0
  9
$USERR5
 40
0.0
  9
$WORLDVIEW
 70
1
  9
$SHADEDGE
 70
3
  9
$SHADEDIF
 70
70
  9
$TILEMODE
 70
1
  9
$MAXACTVP
 70
64
  9
$PINSBASE
 10
0.0
 20
0.0
 30
0.0
  9
$PLIMCHECK
 70
0
  9
$PEXTMIN
 10
1e+20
 20
1e+20
 30
1e+20
  9
$PEXTMAX
 10
-1e+20
 20
-1e+20
 30
-1e+20
  9
$PLIMMIN
 10
0.0
 20
0.0
  9
$PLIMMAX
 10
420.0
 20
297.0
  9
$UNITMODE
 70
0
  9
$VISRETAIN
 70
1
  9
$PLINEGEN
 70
0
  9
$PSLTSCALE
 70
1
  9
$TREEDEPTH
 70
3020
  9
$CMLSTYLE
  2
Standard
  9
$CMLJUST
 70
0
  9
$CMLSCALE
 40
20.0
  9
$PROXYGRAPHICS
 70
1
  9
$MEASUREMENT
 70
1
  9
$CELWEIGHT
370
-1
  9
$ENDCAPS
280
0
  9
$JOINSTYLE
280
0
  9
$LWDISPLAY
290
0
  9
$INSUNITS
 70
4
  9
$HYPERLINKBASE
  1

  9
$STYLESHEET
  1

  9
$XEDIT
290
1
  9
$CEPSNTYPE
380
0
  9
$PSTYLEMODE
290
1
  9
$FINGERPRINTGUID
  2
{DB48AF3F-10C6-49E2-9DFB-08E414FBEA29}
  9
$VERSIONGUID
  2
{6928DCA0-B5E2-4D83-8CD8-4DF6ED26C8FB}
  9
$EXTNAMES
290
1
  9
$PSVPSCALE
 40
0.0
  9
$OLESTARTUP
290
0
  9
$SORTENTS
280
127
  9
$INDEXCTL
280
0
  9
$HIDETEXT
280
1
  9
$XCLIPFRAME
280
0
  9
$HALOGAP
280
0
  9
$OBSCOLOR
 70
257
  9
$OBSLTYPE
280
0
  9
$INTERSECTIONDISPLAY
280
0
  9
$INTERSECTIONCOLOR
 70
257
  9
$DIMASSOC
280
2
  9
$PROJECTNAME
  1

  9
$CAMERADISPLAY
290
0
  9
$LENSLENGTH
 40
50.0
  9
$CAMERAHEIGHT
 40
0.0
  9
$STEPSPERSEC
 40
24.0
  9
$STEPSIZE
 40
100.0
  9
$3DDWFPREC
 40
2.0
  9
$PSOLWIDTH
 40
0.005
  9
$PSOLHEIGHT
 40
0.08
  9
$LOFTANG1
 40
1.570796326795
  9
$LOFTANG2
 40
1.570796326795
  9
$LOFTMAG1
 40
0.0
  9
$LOFTMAG2
 40
0.0
  9
$LOFTPARAM
 70
7
  9
$LOFTNORMALS
280
1
  9
$LATITUDE
 40
37.795
  9
$LONGITUDE
 40
-122.394
  9
$NORTHDIRECTION
 40
0.0
  9
$TIMEZONE
 70
-8000
  9
$LIGHTGLYPHDISPLAY
280
1
  9
$TILEMODELIGHTSYNCH
280
1
  9
$CMATERIAL
347
20
  9
$SOLIDHIST
280
0
  9
$SHOWHIST
280
1
  9
$DWFFRAME
280
2
  9
$DGNFRAME
280
2
  9
$REALWORLDSCALE
290
1
  9
$INTERFERECOLOR
 62
256
  9
$CSHADOW
280
0
  9
$SHADOWPLANELOCATION
 40
0.0
  0
ENDSEC
  0
SECTION
  2
CLASSES
  0
CLASS
  1
ACDBDICTIONARYWDFLT
  2
AcDbDictionaryWithDefault
  3
ObjectDBX Classes
 90
0
 91
0
280
0
281
0
  0
CLASS
  1
SUN
  2
AcDbSun
  3
SCENEOE
 90
1153
 91
0
280
0
281
0
  0
CLASS
  1
VISUALSTYLE
  2
AcDbVisualStyle
  3
ObjectDBX Classes
 90
4095
 91
0
280
0
281
0
  0
CLASS
  1
MATERIAL
  2
AcDbMaterial
  3
ObjectDBX Classes
 90
1153
 91
0
280
0
281
0
  0
CLASS
  1
SCALE
  2
AcDbScale
  3
ObjectDBX Classes
 90
1153
 91
0
280
0
281
0
  0
CLASS
  1
TABLESTYLE
  2
AcDbTableStyle
  3
ObjectDBX Classes
 90
4095
 91
0
280
0
281
0
  0
CLASS
  1
MLEADERSTYLE
  2
AcDbMLeaderStyle
  3
ACDB_MLEADERSTYLE_CLASS
 90
4095
 91
0
280
0
281
0
  0
CLASS
  1
DICTIONARYVAR
  2
AcDbDictionaryVar
  3
ObjectDBX Classes
 90
0
 91
0
280
0
281
0
  0
CLASS
  1
CELLSTYLEMAP
  2
AcDbCellStyleMap
  3
ObjectDBX Classes
 90
1152
 91
0
280
0
281
0
  0
CLASS
  1
MENTALRAYRENDERSETTINGS
  2
AcDbMentalRayRenderSettings
  3
SCENEOE
 90
1024
 91
0
280
0
281
0
  0
CLASS
  1
ACDBDETAILVIEWSTYLE
  2
AcDbDetailViewStyle
  3
ObjectDBX Classes
 90
1025
 91
0
280
0
281
0
  0
CLASS
  1
ACDBSECTIONVIEWSTYLE
  2
AcDbSectionViewStyle
  3
ObjectDBX Classes
 90
1025
 91
0
280
0
281
0
  0
CLASS
  1
RASTERVARIABLES
  2
AcDbRasterVariables
  3
ISM
 90
0
 91
0
280
0
281
0
  0
CLASS
  1
LAYOUT
  2
AcDbLayout
  3
ObjectDBX Classes
 90
0
 91
0
280
0
281
0
  0
CLASS
  1
ACDBPLACEHOLDER
  2
AcDbPlaceHolder
  3
ObjectDBX Classes
 90
0
 91
0
280
0
281
0
  0
ENDSEC
  0
SECTION
  2
TABLES
  0
TABLE
  2
VPORT
  5
8
330
0
100
AcDbSymbolTable
 70
1
  0
VPORT
  5
D1
330
8
100
AcDbSymbolTableRecord
100
AcDbViewportTableRecord
  2
*Active
 70
0
 10
0.0
 20
0.0
 11
1.0
 21
1.0
 12
60.0
 22
-40.0
 13
0.0
 23
0.0
 14
0.5
 24
0.5
 15
0.5
 25
0.5
 16
0.0
 26
0.0
 36
1.0
 17
0.0
 27
0.0
 37
0.0
 40
80.0
 41
1.34
 42
50.0
 43
0.0
 44
0.0
 50
0.0
 51
0.0
 71
0
 72
1000
 73
1
 74
3
 75
0
 76
0
 77
0
 78
0
281
0
 65
1
110
0.0
120
0.0
130
0.0
111
1.0
121
0.0
131
0.0
112
0.0
122
1.0
132
0.0
 79
0
146
0.0
  0
ENDTAB
  0
TABLE
  2
LTYPE
  5
2
330
0
100
AcDbSymbolTable
 70
3
  0
LTYPE
  5
24
330
2
100
AcDbSymbolTableRecord
100
AcDbLinetypeTableRecord
  2
ByBlock
 70
0
  3

 72
65
 73
0
 40
0.0
  0
LTYPE
  5
25
330
2
100
AcDbSymbolTableRecord
100
AcDbLinetypeTableRecord
  2
ByLayer
 70
0
  3

 72
65
 73
0
 40
0.0
  0
LTYPE
  5
26
330
2
100
AcDbSymbolTableRecord
100
AcDbLinetypeTableRecord
  2
Continuous
 70
0
  3

 72
65
 73
0
 40
0.0
  0
ENDTAB
  0
TABLE
  2
LAYER
  5
1
330
0
100
AcDbSymbolTable
 70
2
  0
LAYER
  5
27
330
1
100
AcDbSymbolTableRecord
100
AcDbLayerTableRecord
  2
0
 70
0
 62
7
  6
Continuous
370
-3
390
13
347
21
  0
LAYER
  5
28
330
1
100
AcDbSymbolTableRecord
100
AcDbLayerTableRecord
  2
Defpoints
 70
0
 62
7
  6
Continuous
290
0
370
-3
390
13
347
21
  0
ENDTAB
  0
TABLE
  2
STYLE
  5
5
330
0
100
AcDbSymbolTable
 70
1
  0
STYLE
  5
29
330
5
100
AcDbSymbolTableRecord
100
AcDbTextStyleTableRecord
  2
Standard
 70
0
 40
0.0
 41
1.0
 50
0.0
 71
0
 42
2.5
  3
txt
  4

  0
ENDTAB
  0
TABLE
  2
VIEW
  5
7
330
0
100
AcDbSymbolTable
 70
0
  0
ENDTAB
  0
TABLE
  2
UCS
  5
6
330
0
100
AcDbSymbolTable
 70
0
  0
ENDTAB
  0
TABLE
  2
APPID
  5
3
330
0
100
AcDbSymbolTable
 70
3
  0
APPID
  5
2A
330
3
100
AcDbSymbolTableRecord
100
AcDbRegAppTableRecord
  2
ACAD
 70
0
  0
APPID
  5
D2
330
3
100
AcDbSymbolTableRecord
100
AcDbRegAppTableRecord
  2
HATCHBACKGROUNDCOLOR
 70
0
  0
APPID
  5
D3
330
3
100
AcDbSymbolTableRecord
100
AcDbRegAppTableRecord
  2
EZDXF
 70
0
  0
ENDTAB
  0
TABLE
  2
DIMSTYLE
  5
4
330
0
100
AcDbSymbolTable
 70
1
100
AcDbDimStyleTable
  0
DIMSTYLE
105
2B
330
4
100
AcDbSymbolTableRecord
100
AcDbDimStyleTableRecord
  2
Standard
 70
0
 40
1.0
 41
2.5
 42
0.625
 43
3.75
 44
1.25
 45
0.0
 46
0.0
 47
0.0
 48
0.0
 49
2.5
140
2.5
141
2.5
142
0.0
143
0.03937007874
144
1.0
145
0.0
146
1.0
147
0.625
148
0.0
 69
0
 70
0
 71
0
 72
0
 73
0
 74
0
 75
0
 76
0
 77
1
 78
8
 79
3
170
0
171
3
172
1
173
0
174
0
175
0
176
0
177
0
178
0
179
2
271
2
272
2
273
2
274
3
275
0
276
0
277
2
278
44
279
0
280
0
281
0
282
0
283
0
284
8
285
0
286
0
288
0
289
3
290
0
371
-2
372
-2
  0
ENDTAB
  0
TABLE
  2
BLOCK_RECORD
  5
9
330
0
100
AcDbSymbolTable
 70
2
  0
BLOCK_RECORD
  5
17
330
9
100
AcDbSymbolTableRecord
100
AcDbBlockTableRecord
  2
*Model_Space
340
1A
 70
0
280
1
281
0
  0
BLOCK_RECORD
  5
1B
330
9
100
AcDbSymbolTableRecord
100
AcDbBlockTableRecord
  2
*Paper_Space
340
1E
 70
0
280
1
281
0
  0
ENDTAB
  0
ENDSEC
  0
SECTION
  2
BLOCKS
  0
BLOCK
  5
18
330
17
100
AcDbEntity
  8
0
100
AcDbBlockBegin
  2
*Model_Space
 70
0
 10
0.0
 20
0.0
 30
0.0
  3
*Model_Space
  1

  0
ENDBLK
  5
19
330
17
100
AcDbEntity
  8
0
100
AcDbBlockEnd
  0
BLOCK
  5
1C
330
1B
100
AcDbEntity
  8
0
100
AcDbBlockBegin
  2
*Paper_Space
 70
0
 10
0.0
 20
0.0
 30
0.0
  3
*Paper_Space
  1

  0
ENDBLK
  5
1D
330
1B
100
AcDbEntity
  8
0
100
AcDbBlockEnd
  0
ENDSEC
  0
SECTION
  2
ENTITIES
  0
LINE
  5
2F
330
17
100
AcDbEntity
  8
0
100
AcDbLine
 10
0.3535533905932766
 20
-69.9625
 30
0.0
 11
3.0
 21
-69.9625
 31
0.0
  0
ARC
  5
30
330
17
100
AcDbEntity
  8
0
100
AcDbCircle
 10
0.3535533905932766
 20
-69.7125
 30
0.0
 40
0.25
100
AcDbArc
 50
-134.99999999999943
 51
-90.0
  0
LINE
  5
31
330
17
100
AcDbEntity
  8
0
100
AcDbLine
 10
0.1767766952966312
 20
-69.88927669529664
 30
-4.440892098500626e-16
 11
0.0732233047033688
 21
-69.78572330470338
 31
-4.440892098500626e-16
  0
ARC
  5
32
330
17
100
AcDbEntity
  8
0
100
AcDbCircle
 10
0.25
 20
-69.60894660940674
 30
0.0
 40
0.25
100
AcDbArc
 50
-180.0000000000008
 51
-135.00000000000057
  0
LINE
  5
33
330
17
100
AcDbEntity
  8
0
100
AcDbLine
 10
0.0
 20
-50.391053390593285
 30
0.0
 11
0.0
 21
-69.60894660940674
 31
0.0
  0
ARC
  5
34
330
17
100
AcDbEntity
  8
0
100
AcDbCircle
 10
0.25
 20
-50.391053390593285
 30
0.0
 40
0.25
100
AcDbArc
 50
134.99999999999972
 51
180.0
  0
LINE
  5
35
330
17
100
AcDbEntity
  8
0
100
AcDbLine
 10
0.07322330470336169
 20
-50.21427669529664
 30
0.0
 11
0.1767766952966383
 21
-50.11072330470336
 31
0.0
  0
ARC
  5
36
330
17
100
AcDbEntity
  8
0
100
AcDbCircle
 10
0.3535533905932766
 20
-50.2875
 30
0.0
 40
0.25
100
AcDbArc
 50
90.0
 51
135.00000000000028
  0
LINE
  5
37
330
17
100
AcDbEntity
  8
0
100
AcDbLine
 10
3.0
 20
-50.0375
 30
0.0
 11
0.3535533905932766
 21
-50.0375
 31
0.0
  0
ARC
  5
38
330
17
100
AcDbEntity
  8
0
100
AcDbCircle
 10
3.0
 20
-48.2875
 30
0.0
 40
1.75
100
AcDbArc
 50
270.0
 51
442.8192442185417
  0
ARC
  5
39
330
17
100
AcDbEntity
  8
0
100
AcDbCircle
 10
3.25
 20
-46.30318651670156
 30
0.0
 40
0.25
100
AcDbArc
 50
180.0
 51
262.8192442185417
  0
LINE
  5
3A
330
17
100
AcDbEntity
  8
0
100
AcDbLine
 10
3.0
 20
-33.69681348329844
 30
0.0
 11
3.0
 21
-46.30318651670156
 31
0.0
  0
ARC
  5
3B
330
17
100
AcDbEntity
  8
0
100
AcDbCircle
 10
3.25
 20
-33.69681348329844
 30
0.0
 40
0.25
100
AcDbArc
 50
97.18075578145827
 51
180.0
  0
ARC
  5
3C
330
17
100
AcDbEntity
  8
0
100
AcDbCircle
 10
3.0
 20
-31.7125
 30
0.0
 40
1.75
100
AcDbArc
 50
277.1807557814583
 51
450.0
  0
LINE
  5
3D
330
17
100
AcDbEntity
  8
0
100
AcDbLine
 10
0.3535533905932766
 20
-29.9625
 30
0.0
 11
3.0
 21
-29.9625
 31
0.0
  0
ARC
  5
3E
330
17
100
AcDbEntity
  8
0
100
AcDbCircle
 10
0.3535533905932766
 20
-29.7125
 30
0.0
 40
0.25
100
AcDbArc
 50
-135.00000000000023
 51
-90.0
  0
LINE
  5
3F
330
17
100
AcDbEntity
  8
0
100
AcDbLine
 10
0.1767766952966383
 20
-29.889276695296637
 30
-4.440892098500626e-16
 11
0.07322330470336169
 21
-29.78572330470336
 31
-4.440892098500626e-16
  0
ARC
  5
40
330
17
100
AcDbEntity
  8
0
100
AcDbCircle
 10
0.25
 20
-29.60894660940673
 30
0.0
 40
0.25
100
AcDbArc
 50
-179.9999999999996
 51
-135.00000000000023
  0
LINE
  5
41
330
17
100
AcDbEntity
  8
0
100
AcDbLine
 10
0.0
 20
-10.391053390593274
 30
0.0
 11
0.0
 21
-29.60894660940673
 31
0.0
  0
ARC
  5
42
330
17
100
AcDbEntity
  8
0
100
AcDbCircle
 10
0.25
 20
-10.391053390593274
 30
0.0
 40
0.25
100
AcDbArc
 50
134.99999999999943
 51
180.0
  0
LINE
  5
43
330
17
100
AcDbEntity
  8
0
100
AcDbLine
 10
0.07322330470336169
 20
-10.214276695296629
 30
0.0
 11
0.1767766952966312
 21
-10.110723304703356
 31
0.0
  0
ARC
  5
44
330
17
100
AcDbEntity
  8
0
100
AcDbCircle
 10
0.3535533905932766
 20
-10.287500000000001
 30
0.0
 40
0.25
100
AcDbArc
 50
90.0
 51
134.99999999999943
  0
LINE
  5
45
330
17
100
AcDbEntity
  8
0
100
AcDbLine
 10
3.0
 20
-10.037500000000001
 30
0.0
 11
0.3535533905932766
 21
-10.037500000000001
 31
0.0
  0
ARC
  5
46
330
17
100
AcDbEntity
  8
0
100
AcDbCircle
 10
3.0
 20
-8.287500000000001
 30
0.0
 40
1.75
100
AcDbArc
 50
270.0
 51
442.8192442185417
  0
ARC
  5
47
330
17
100
AcDbEntity
  8
0
100
AcDbCircle
 10
3.25
 20
-6.303186516701565
 30
0.0
 40
0.25
100
AcDbArc
 50
180.0
 51
262.81924421854166
  0
LINE
  5
48
330
17
100
AcDbEntity
  8
0
100
AcDbLine
 10
3.0
 20
-3.3535533905932695
 30
0.0
 11
3.0
 21
-6.303186516701572
 31
0.0
  0
ARC
  5
49
330
17
100
AcDbEntity
  8
0
100
AcDbCircle
 10
3.25
 20
-3.3535533905932695
 30
0.0
 40
0.25
100
AcDbArc
 50
-224.9999999999988
 51
-180.0
  0
LINE
  5
4A
330
17
100
AcDbEntity
  8
0
100
AcDbLine
 10
3.0732233047033617
 20
-3.1767766952966383
 30
-4.440892098500626e-16
 11
3.1767766952966383
 21
-3.0732233047033617
 31
-4.440892098500626e-16
  0
ARC
  5
4B
330
17
100
AcDbEntity
  8
0
100
AcDbCircle
 10
3.3535533905932766
 20
-3.25
 30
0.0
 40
0.25
100
AcDbArc
 50
-270.0
 51
-225.0
  0
LINE
  5
4C
330
17
100
AcDbEntity
  8
0
100
AcDbLine
 10
6.315686516701561
 20
-3.0
 30
0.0
 11
3.3535533905932766
 21
-3.0
 31
0.0
  0
ARC
  5
4D
330
17
100
AcDbEntity
  8
0
100
AcDbCircle
 10
6.315686516701561
 20
-3.25
 30
0.0
 40
0.25
100
AcDbArc
 50
7.180755781458361
 51
90.0
  0
ARC
  5
4E
330
17
100
AcDbEntity
  8
0
100
AcDbCircle
 10
8.299999999999997
 20
-3.0
 30
0.0
 40
1.75
100
AcDbArc
 50
187.18075578145826
 51
360.0
  0
LINE
  5
4F
330
17
100
AcDbEntity
  8
0
100
AcDbLine
 10
10.049999999999997
 20
-0.3535533905932766
 30
0.0
 11
10.049999999999997
 21
-3.0
 31
0.0
  0
ARC
  5
50
330
17
100
AcDbEntity
  8
0
100
AcDbCircle
 10
10.299999999999997
 20
-0.3535533905932766
 30
0.0
 40
0.25
100
AcDbArc
 50
-225.0
 51
-180.0
  0
LINE
  5
51
330
17
100
AcDbEntity
  8
0
100
AcDbLine
 10
10.123223304703352
 20
-0.1767766952966383
 30
-4.440892098500626e-16
 11
10.226776695296621
 21
-0.0732233047033688
 31
-4.440892098500626e-16
  0
ARC
  5
52
330
17
100
AcDbEntity
  8
0
100
AcDbCircle
 10
10.40355339059326
 20
-0.25
 30
0.0
 40
0.25
100
AcDbArc
 50
-270.0
 51
-225.0
  0
LINE
  5
53
330
17
100
AcDbEntity
  8
0
100
AcDbLine
 10
29.596446609406712
 20
0.0
 30
0.0
 11
10.40355339059326
 21
0.0
 31
0.0
  0
ARC
  5
54
330
17
100
AcDbEntity
  8
0
100
AcDbCircle
 10
29.596446609406716
 20
-0.25
 30
0.0
 40
0.25
100
AcDbArc
 50
44.99999999999943
 51
90.00000000000081
  0
LINE
  5
55
330
17
100
AcDbEntity
  8
0
100
AcDbLine
 10
29.77322330470336
 20
-0.07322330470336169
 30
0.0
 11
29.87677669529664
 21
-0.1767766952966383
 31
0.0
  0
ARC
  5
56
330
17
100
AcDbEntity
  8
0
100
AcDbCircle
 10
29.7
 20
-0.3535533905932766
 30
0.0
 40
0.25
100
AcDbArc
 50
0.0
 51
44.99999999999943
  0
LINE
  5
57
330
17
100
AcDbEntity
  8
0
100
AcDbLine
 10
29.95
 20
-3.0
 30
0.0
 11
29.95
 21
-0.3535533905932766
 31
0.0
  0
ARC
  5
58
330
17
100
AcDbEntity
  8
0
100
AcDbCircle
 10
31.7
 20
-3.0
 30
0.0
 40
1.75
100
AcDbArc
 50
180.0
 51
352.8192442185417
  0
ARC
  5
59
330
17
100
AcDbEntity
  8
0
100
AcDbCircle
 10
33.68431348329844
 20
-3.25
 30
0.0
 40
0.25
100
AcDbArc
 50
90.0
 51
172.81924421854177
  0
LINE
  5
5A
330
17
100
AcDbEntity
  8
0
100
AcDbLine
 10
46.31568651670156
 20
-3.0
 30
0.0
 11
33.68431348329844
 21
-3.0
 31
0.0
  0
ARC
  5
5B
330
17
100
AcDbEntity
  8
0
100
AcDbCircle
 10
46.31568651670156
 20
-3.25
 30
0.0
 40
0.25
100
AcDbArc
 50
7.18075578145831
 51
90.0
  0
ARC
  5
5C
330
17
100
AcDbEntity
  8
0
100
AcDbCircle
 10
48.3
 20
-3.0
 30
0.0
 40
1.75
100
AcDbArc
 50
187.1807557814583
 51
360.0
  0
LINE
  5
5D
330
17
100
AcDbEntity
  8
0
100
AcDbLine
 10
50.05
 20
-0.3535533905932766
 30
0.0
 11
50.05
 21
-3.0
 31
0.0
  0
ARC
  5
5E
330
17
100
AcDbEntity
  8
0
100
AcDbCircle
 10
50.3
 20
-0.3535533905932766
 30
0.0
 40
0.25
100
AcDbArc
 50
-225.0
 51
-180.0
  0
LINE
  5
5F
330
17
100
AcDbEntity
  8
0
100
AcDbLine
 10
50.12322330470336
 20
-0.1767766952966312
 30
-4.440892098500626e-16
 11
50.22677669529662
 21
-0.0732233047033688
 31
-4.440892098500626e-16
  0
ARC
  5
60
330
17
100
AcDbEntity
  8
0
100
AcDbCircle
 10
50.40355339059326
 20
-0.25
 30
0.0
 40
0.25
100
AcDbArc
 50
-270.0000000000004
 51
-225.00000000000057
  0
LINE
  5
61
330
17
100
AcDbEntity
  8
0
100
AcDbLine
 10
69.59644660940673
 20
0.0
 30
0.0
 11
50.40355339059326
 21
0.0
 31
0.0
  0
ARC
  5
62
330
17
100
AcDbEntity
  8
0
100
AcDbCircle
 10
69.59644660940673
 20
-0.25
 30
0.0
 40
0.25
100
AcDbArc
 50
44.999999999999716
 51
89.99999999999959
  0
LINE
  5
63
330
17
100
AcDbEntity
  8
0
100
AcDbLine
 10
69.77322330470336
 20
-0.07322330470335459
 30
0.0
 11
69.87677669529664
 21
-0.1767766952966312
 31
0.0
  0
ARC
  5
64
330
17
100
AcDbEntity
  8
0
100
AcDbCircle
 10
69.7
 20
-0.3535533905932766
 30
0.0
 40
0.25
100
AcDbArc
 50
0.0
 51
45.0
  0
LINE
  5
65
330
17
100
AcDbEntity
  8
0
100
AcDbLine
 10
69.95
 20
-3.0
 30
0.0
 11
69.95
 21
-0.3535533905932766
 31
0.0
  0
ARC
  5
66
330
17
100
AcDbEntity
  8
0
100
AcDbCircle
 10
71.7
 20
-3.0
 30
0.0
 40
1.75
100
AcDbArc
 50
180.0
 51
352.8192442185417
  0
ARC
  5
67
330
17
100
AcDbEntity
  8
0
100
AcDbCircle
 10
73.68431348329844
 20
-3.25
 30
0.0
 40
0.25
100
AcDbArc
 50
90.0
 51
172.8192442185417
  0
LINE
  5
68
330
17
100
AcDbEntity
  8
0
100
AcDbLine
 10
86.31568651670156
 20
-3.0
 30
0.0
 11
73.68431348329844
 21
-3.0
 31
0.0
  0
ARC
  5
69
330
17
100
AcDbEntity
  8
0
100
AcDbCircle
 10
86.31568651670156
 20
-3.25
 30
0.0
 40
0.25
100
AcDbArc
 50
7.180755781458259
 51
90.0
  0
ARC
  5
6A
330
17
100
AcDbEntity
  8
0
100
AcDbCircle
 10
88.3
 20
-3.0
 30
0.0
 40
1.75
100
AcDbArc
 50
187.1807557814583
 51
360.0
  0
LINE
  5
6B
330
17
100
AcDbEntity
  8
0
100
AcDbLine
 10
90.05
 20
-0.3535533905932766
 30
0.0
 11
90.05
 21
-3.0
 31
0.0
  0
ARC
  5
6C
330
17
100
AcDbEntity
  8
0
100
AcDbCircle
 10
90.3
 20
-0.3535533905932766
 30
0.0
 40
0.25
100
AcDbArc
 50
-225.0
 51
-180.0
  0
LINE
  5
6D
330
17
100
AcDbEntity
  8
0
100
AcDbLine
 10
90.12322330470336
 20
-0.1767766952966383
 30
-4.440892098500626e-16
 11
90.22677669529664
 21
-0.07322330470336169
 31
-4.440892098500626e-16
  0
ARC
  5
6E
330
17
100
AcDbEntity
  8
0
100
AcDbCircle
 10
90.40355339059326
 20
-0.25
 30
0.0
 40
0.25
100
AcDbArc
 50
-270.0
 51
-225.0
  0
LINE
  5
6F
330
17
100
AcDbEntity
  8
0
100
AcDbLine
 10
109.59644660940673
 20
0.0
 30
0.0
 11
90.40355339059326
 21
0.0
 31
0.0
  0
ARC
  5
70
330
17
100
AcDbEntity
  8
0
100
AcDbCircle
 10
109.59644660940673
 20
-0.25
 30
0.0
 40
0.25
100
AcDbArc
 50
45.0
 51
90.0
  0
LINE
  5
71
330
17
100
AcDbEntity
  8
0
100
AcDbLine
 10
109.77322330470336
 20
-0.07322330470336169
 30
0.0
 11
109.87677669529664
 21
-0.1767766952966312
 31
0.0
  0
ARC
  5
72
330
17
100
AcDbEntity
  8
0
100
AcDbCircle
 10
109.7
 20
-0.3535533905932766
 30
0.0
 40
0.25
100
AcDbArc
 50
0.0
 51
45.0
  0
LINE
  5
73
330
17
100
AcDbEntity
  8
0
100
AcDbLine
 10
109.95
 20
-3.0
 30
0.0
 11
109.95
 21
-0.3535533905932766
 31
0.0
  0
ARC
  5
74
330
17
100
AcDbEntity
  8
0
100
AcDbCircle
 10
111.7
 20
-3.0
 30
0.0
 40
1.75
100
AcDbArc
 50
180.0
 51
352.8192442185417
  0
ARC
  5
75
330
17
100
AcDbEntity
  8
0
100
AcDbCircle
 10
113.68431348329844
 20
-3.25
 30
0.0
 40
0.25
100
AcDbArc
 50
90.0
 51
172.81924421854166
  0
LINE
  5
76
330
17
100
AcDbEntity
  8
0
100
AcDbLine
 10
116.64644660940672
 20
-3.0
 30
0.0
 11
113.68431348329844
 21
-3.0
 31
0.0
  0
ARC
  5
77
330
17
100
AcDbEntity
  8
0
100
AcDbCircle
 10
116.64644660940672
 20
-3.25
 30
0.0
 40
0.25
100
AcDbArc
 50
45.0
 51
90.0
  0
LINE
  5
78
330
17
100
AcDbEntity
  8
0
100
AcDbLine
 10
116.82322330470336
 20
-3.0732233047033617
 30
0.0
 11
116.92677669529664
 21
-3.1767766952966383
 31
0.0
  0
ARC
  5
79
330
17
100
AcDbEntity
  8
0
100
AcDbCircle
 10
116.75
 20
-3.3535533905932766
 30
0.0
 40
0.25
100
AcDbArc
 50
0.0
 51
45.0
  0
LINE
  5
7A
330
17
100
AcDbEntity
  8
0
100
AcDbLine
 10
117.0
 20
-6.2781865167015525
 30
0.0
 11
117.0
 21
-3.3535533905932766
 31
0.0
  0
ARC
  5
7B
330
17
100
AcDbEntity
  8
0
100
AcDbCircle
 10
116.75
 20
-6.278186516701545
 30
0.0
 40
0.25
100
AcDbArc
 50
-82.81924421854166
 51
0.0
  0
ARC
  5
7C
330
17
100
AcDbEntity
  8
0
100
AcDbCircle
 10
117.0
 20
-8.262499999999996
 30
0.0
 40
1.75
100
AcDbArc
 50
97.18075578145827
 51
270.0
  0
LINE
  5
7D
330
17
100
AcDbEntity
  8
0
100
AcDbLine
 10
119.64644660940672
 20
-10.012499999999996
 30
0.0
 11
117.0
 21
-10.012499999999996
 31
0.0
  0
ARC
  5
7E
330
17
100
AcDbEntity
  8
0
100
AcDbCircle
 10
119.64644660940672
 20
-10.262499999999996
 30
0.0
 40
0.25
100
AcDbArc
 50
405.0
 51
450.0
  0
LINE
  5
7F
330
17
100
AcDbEntity
  8
0
100
AcDbLine
 10
119.82322330470336
 20
-10.085723304703354
 30
-4.440892098500626e-16
 11
119.92677669529662
 21
-10.189276695296616
 31
-4.440892098500626e-16
  0
ARC
  5
80
330
17
100
AcDbEntity
  8
0
100
AcDbCircle
 10
119.75
 20
-10.366053390593247
 30
0.0
 40
0.25
100
AcDbArc
 50
359.9999999999992
 51
405.00000000000057
  0
LINE
  5
81
330
17
100
AcDbEntity
  8
0
100
AcDbLine
 10
120.0
 20
-29.63394660940672
 30
0.0
 11
120.0
 21
-10.366053390593251
 31
0.0
  0
ARC
  5
82
330
17
100
AcDbEntity
  8
0
100
AcDbCircle
 10
119.75
 20
-29.63394660940672
 30
0.0
 40
0.25
100
AcDbArc
 50
-45.000000000000576
 51
0.0
  0
LINE
  5
83
330
17
100
AcDbEntity
  8
0
100
AcDbLine
 10
119.92677669529664
 20
-29.810723304703366
 30
0.0
 11
119.82322330470336
 21
-29.914276695296643
 31
0.0
  0
ARC
  5
84
330
17
100
AcDbEntity
  8
0
100
AcDbCircle
 10
119.64644660940672
 20
-29.737500000000004
 30
0.0
 40
0.25
100
AcDbArc
 50
-90.0
 51
-44.99999999999971
  0
LINE
  5
85
330
17
100
AcDbEntity
  8
0
100
AcDbLine
 10
117.0
 20
-29.987500000000004
 30
0.0
 11
119.64644660940672
 21
-29.987500000000004
 31
0.0
  0
ARC
  5
86
330
17
100
AcDbEntity
  8
0
100
AcDbCircle
 10
117.0
 20
-31.737500000000004
 30
0.0
 40
1.75
100
AcDbArc
 50
89.99999999999999
 51
262.8192442185417
  0
ARC
  5
87
330
17
100
AcDbEntity
  8
0
100
AcDbCircle
 10
116.75
 20
-33.72181348329844
 30
0.0
 40
0.25
100
AcDbArc
 50
0.0
 51
82.8192442185417
  0
LINE
  5
88
330
17
100
AcDbEntity
  8
0
100
AcDbLine
 10
117.0
 20
-46.27818651670155
 30
0.0
 11
117.0
 21
-33.72181348329844
 31
0.0
  0
ARC
  5
89
330
17
100
AcDbEntity
  8
0
100
AcDbCircle
 10
116.75
 20
-46.27818651670155
 30
0.0
 40
0.25
100
AcDbArc
 50
-82.81924421854173
 51
0.0
  0
ARC
  5
8A
330
17
100
AcDbEntity
  8
0
100
AcDbCircle
 10
117.0
 20
-48.2625
 30
0.0
 40
1.75
100
AcDbArc
 50
97.18075578145827
 51
270.0
  0
LINE
  5
8B
330
17
100
AcDbEntity
  8
0
100
AcDbLine
 10
119.64644660940672
 20
-50.0125
 30
0.0
 11
117.0
 21
-50.0125
 31
0.0
  0
ARC
  5
8C
330
17
100
AcDbEntity
  8
0
100
AcDbCircle
 10
119.64644660940672
 20
-50.2625
 30
0.0
 40
0.25
100
AcDbArc
 50
405.0
 51
450.0
  0
LINE
  5
8D
330
17
100
AcDbEntity
  8
0
100
AcDbLine
 10
119.82322330470336
 20
-50.08572330470336
 30
-4.440892098500626e-16
 11
119.92677669529664
 21
-50.189276695296634
 31
-4.440892098500626e-16
  0
ARC
  5
8E
330
17
100
AcDbEntity
  8
0
100
AcDbCircle
 10
119.75
 20
-50.366053390593265
 30
0.0
 40
0.25
100
AcDbArc
 50
360.0
 51
404.99999999999943
  0
LINE
  5
8F
330
17
100
AcDbEntity
  8
0
100
AcDbLine
 10
120.0
 20
-69.63394660940672
 30
0.0
 11
120.0
 21
-50.366053390593265
 31
0.0
  0
ARC
  5
90
330
17
100
AcDbEntity
  8
0
100
AcDbCircle
 10
119.75
 20
-69.63394660940672
 30
0.0
 40
0.25
100
AcDbArc
 50
-45.000000000000576
 51
0.0
  0
LINE
  5
91
330
17
100
AcDbEntity
  8
0
100
AcDbLine
 10
119.92677669529664
 20
-69.81072330470337
 30
0.0
 11
119.82322330470336
 21
-69.91427669529664
 31
0.0
  0
ARC
  5
92
330
17
100
AcDbEntity
  8
0
100
AcDbCircle
 10
119.64644660940672
 20
-69.7375
 30
0.0
 40
0.25
100
AcDbArc
 50
-90.0
 51
-45.0
  0
LINE
  5
93
330
17
100
AcDbEntity
  8
0
100
AcDbLine
 10
117.0
 20
-69.9875
 30
0.0
 11
119.64644660940672
 21
-69.9875
 31
0.0
  0
ARC
  5
94
330
17
100
AcDbEntity
  8
0
100
AcDbCircle
 10
117.0
 20
-71.7375
 30
0.0
 40
1.75
100
AcDbArc
 50
89.99999999999999
 51
262.8192442185417
  0
ARC
  5
95
330
17
100
AcDbEntity
  8
0
100
AcDbCircle
 10
116.75
 20
-73.72181348329843
 30
0.0
 40
0.25
100
AcDbArc
 50
0.0
 51
82.81924421854163
  0
LINE
  5
96
330
17
100
AcDbEntity
  8
0
100
AcDbLine
 10
117.0
 20
-76.64644660940672
 30
0.0
 11
117.0
 21
-73.72181348329843
 31
0.0
  0
ARC
  5
97
330
17
100
AcDbEntity
  8
0
100
AcDbCircle
 10
116.75
 20
-76.64644660940672
 30
0.0
 40
0.25
100
AcDbArc
 50
315.0
 51
360.0
  0
LINE
  5
98
330
17
100
AcDbEntity
  8
0
100
AcDbLine
 10
116.92677669529664
 20
-76.82322330470336
 30
-4.440892098500626e-16
 11
116.82322330470336
 21
-76.92677669529664
 31
-4.440892098500626e-16
  0
ARC
  5
99
330
17
100
AcDbEntity
  8
0
100
AcDbCircle
 10
116.64644660940672
 20
-76.75
 30
0.0
 40
0.25
100
AcDbArc
 50
270.0
 51
315.0
  0
LINE
  5
9A
330
17
100
AcDbEntity
  8
0
100
AcDbLine
 10
113.70931348329843
 20
-77.0
 30
0.0
 11
116.64644660940672
 21
-77.0
 31
0.0
  0
ARC
  5
9B
330
17
100
AcDbEntity
  8
0
100
AcDbCircle
 10
113.70931348329844
 20
-76.75
 30
0.0
 40
0.25
100
AcDbArc
 50
-172.81924421854163
 51
-90.0
  0
ARC
  5
9C
330
17
100
AcDbEntity
  8
0
100
AcDbCircle
 10
111.725
 20
-77.0
 30
0.0
 40
1.75
100
AcDbArc
 50
7.180755781458259
 51
180.0
  0
LINE
  5
9D
330
17
100
AcDbEntity
  8
0
100
AcDbLine
 10
109.975
 20
-79.64644660940672
 30
0.0
 11
109.975
 21
-77.0
 31
0.0
  0
ARC
  5
9E
330
17
100
AcDbEntity
  8
0
100
AcDbCircle
 10
109.725
 20
-79.64644660940672
 30
0.0
 40
0.25
100
AcDbArc
 50
315.0
 51
360.0
  0
LINE
  5
9F
330
17
100
AcDbEntity
  8
0
100
AcDbLine
 10
109.90177669529663
 20
-79.82322330470336
 30
-4.440892098500626e-16
 11
109.79822330470337
 21
-79.92677669529662
 31
-4.440892098500626e-16
  0
ARC
  5
A0
330
17
100
AcDbEntity
  8
0
100
AcDbCircle
 10
109.62144660940675
 20
-79.75
 30
0.0
 40
0.25
100
AcDbArc
 50
270.00000000000165
 51
315.0
  0
LINE
  5
A1
330
17
100
AcDbEntity
  8
0
100
AcDbLine
 10
90.3785533905933
 20
-80.0
 30
0.0
 11
109.62144660940675
 21
-80.0
 31
0.0
  0
ARC
  5
A2
330
17
100
AcDbEntity
  8
0
100
AcDbCircle
 10
90.3785533905933
 20
-79.75
 30
0.0
 40
0.25
100
AcDbArc
 50
225.00000000000057
 51
270.0000000000008
  0
LINE
  5
A3
330
17
100
AcDbEntity
  8
0
100
AcDbLine
 10
90.20177669529664
 20
-79.92677669529665
 30
0.0
 11
90.09822330470337
 21
-79.82322330470336
 31
0.0
  0
ARC
  5
A4
330
17
100
AcDbEntity
  8
0
100
AcDbCircle
 10
90.275
 20
-79.64644660940672
 30
0.0
 40
0.25
100
AcDbArc
 50
180.0
 51
225.00000000000057
  0
LINE
  5
A5
330
17
100
AcDbEntity
  8
0
100
AcDbLine
 10
90.025
 20
-77.0
 30
0.0
 11
90.025
 21
-79.64644660940672
 31
0.0
  0
ARC
  5
A6
330
17
100
AcDbEntity
  8
0
100
AcDbCircle
 10
88.275
 20
-77.0
 30
0.0
 40
1.75
100
AcDbArc
 50
0.0
 51
172.8192442185417
  0
ARC
  5
A7
330
17
100
AcDbEntity
  8
0
100
AcDbCircle
 10
86.29068651670156
 20
-76.75
 30
0.0
 40
0.25
100
AcDbArc
 50
-90.0
 51
-7.180755781458259
  0
LINE
  5
A8
330
17
100
AcDbEntity
  8
0
100
AcDbLine
 10
73.70931348329843
 20
-77.0
 30
0.0
 11
86.29068651670156
 21
-77.0
 31
0.0
  0
ARC
  5
A9
330
17
100
AcDbEntity
  8
0
100
AcDbCircle
 10
73.70931348329844
 20
-76.75
 30
0.0
 40
0.25
100
AcDbArc
 50
-172.81924421854168
 51
-90.0
  0
ARC
  5
AA
330
17
100
AcDbEntity
  8
0
100
AcDbCircle
 10
71.725
 20
-77.0
 30
0.0
 40
1.75
100
AcDbArc
 50
7.180755781458284
 51
180.0
  0
LINE
  5
AB
330
17
100
AcDbEntity
  8
0
100
AcDbLine
 10
69.975
 20
-79.64644660940672
 30
0.0
 11
69.975
 21
-77.0
 31
0.0
  0
ARC
  5
AC
330
17
100
AcDbEntity
  8
0
100
AcDbCircle
 10
69.725
 20
-79.64644660940672
 30
0.0
 40
0.25
100
AcDbArc
 50
315.0
 51
360.0
  0
LINE
  5
AD
330
17
100
AcDbEntity
  8
0
100
AcDbLine
 10
69.90177669529663
 20
-79.82322330470336
 30
-4.440892098500626e-16
 11
69.79822330470336
 21
-79.92677669529664
 31
-4.440892098500626e-16
  0
ARC
  5
AE
330
17
100
AcDbEntity
  8
0
100
AcDbCircle
 10
69.62144660940673
 20
-79.75
 30
0.0
 40
0.25
100
AcDbArc
 50
269.9999999999996
 51
314.99999999999915
  0
LINE
  5
AF
330
17
100
AcDbEntity
  8
0
100
AcDbLine
 10
50.37855339059328
 20
-80.0
 30
0.0
 11
69.62144660940673
 21
-80.0
 31
0.0
  0
ARC
  5
B0
330
17
100
AcDbEntity
  8
0
100
AcDbCircle
 10
50.37855339059328
 20
-79.75
 30
0.0
 40
0.25
100
AcDbArc
 50
225.0
 51
270.0000000000004
  0
LINE
  5
B1
330
17
100
AcDbEntity
  8
0
100
AcDbLine
 10
50.20177669529664
 20
-79.92677669529664
 30
0.0
 11
50.09822330470335
 21
-79.82322330470336
 31
0.0
  0
ARC
  5
B2
330
17
100
AcDbEntity
  8
0
100
AcDbCircle
 10
50.275
 20
-79.64644660940672
 30
0.0
 40
0.25
100
AcDbArc
 50
180.0
 51
225.0
  0
LINE
  5
B3
330
17
100
AcDbEntity
  8
0
100
AcDbLine
 10
50.025
 20
-77.0
 30
0.0
 11
50.025
 21
-79.64644660940672
 31
0.0
  0
ARC
  5
B4
330
17
100
AcDbEntity
  8
0
100
AcDbCircle
 10
48.275
 20
-77.0
 30
0.0
 40
1.75
100
AcDbArc
 50
0.0
 51
172.8192442185417
  0
ARC
  5
B5
330
17
100
AcDbEntity
  8
0
100
AcDbCircle
 10
46.290686516701555
 20
-76.75
 30
0.0
 40
0.25
100
AcDbArc
 50
-90.0
 51
-7.18075578145831
  0
LINE
  5
B6
330
17
100
AcDbEntity
  8
0
100
AcDbLine
 10
33.709313483298445
 20
-77.0
 30
0.0
 11
46.290686516701555
 21
-77.0
 31
0.0
  0
ARC
  5
B7
330
17
100
AcDbEntity
  8
0
100
AcDbCircle
 10
33.709313483298445
 20
-76.75
 30
0.0
 40
0.25
100
AcDbArc
 50
-172.81924421854174
 51
-90.0
  0
ARC
  5
B8
330
17
100
AcDbEntity
  8
0
100
AcDbCircle
 10
31.725
 20
-77.0
 30
0.0
 40
1.75
100
AcDbArc
 50
7.180755781458284
 51
180.0
  0
LINE
  5
B9
330
17
100
AcDbEntity
  8
0
100
AcDbLine
 10
29.975
 20
-79.64644660940672
 30
0.0
 11
29.975
 21
-77.0
 31
0.0
  0
ARC
  5
BA
330
17
100
AcDbEntity
  8
0
100
AcDbCircle
 10
29.725
 20
-79.64644660940672
 30
0.0
 40
0.25
100
AcDbArc
 50
315.00000000000057
 51
360.0
  0
LINE
  5
BB
330
17
100
AcDbEntity
  8
0
100
AcDbLine
 10
29.79822330470337
 20
-79.92677669529664
 30
-4.440892098500626e-16
 11
29.901776695296647
 21
-79.82322330470336
 31
-4.440892098500626e-16
  0
ARC
  5
BC
330
17
100
AcDbEntity
  8
0
100
AcDbCircle
 10
29.621446609406732
 20
-79.75
 30
0.0
 40
0.25
100
AcDbArc
 50
270.0
 51
315.0
  0
LINE
  5
BD
330
17
100
AcDbEntity
  8
0
100
AcDbLine
 10
10.378553390593282
 20
-80.0
 30
0.0
 11
29.621446609406732
 21
-80.0
 31
0.0
  0
ARC
  5
BE
330
17
100
AcDbEntity
  8
0
100
AcDbCircle
 10
10.378553390593282
 20
-79.75
 30
0.0
 40
0.25
100
AcDbArc
 50
225.0
 51
270.0
  0
LINE
  5
BF
330
17
100
AcDbEntity
  8
0
100
AcDbLine
 10
10.201776695296637
 20
-79.92677669529664
 30
0.0
 11
10.09822330470336
 21
-79.82322330470336
 31
0.0
  0
ARC
  5
C0
330
17
100
AcDbEntity
  8
0
100
AcDbCircle
 10
10.274999999999999
 20
-79.64644660940672
 30
0.0
 40
0.25
100
AcDbArc
 50
180.0
 51
225.0
  0
LINE
  5
C1
330
17
100
AcDbEntity
  8
0
100
AcDbLine
 10
10.024999999999999
 20
-77.0
 30
0.0
 11
10.024999999999999
 21
-79.64644660940672
 31
0.0
  0
ARC
  5
C2
330
17
100
AcDbEntity
  8
0
100
AcDbCircle
 10
8.274999999999999
 20
-77.0
 30
0.0
 40
1.75
100
AcDbArc
 50
0.0
 51
172.8192442185417
  0
ARC
  5
C3
330
17
100
AcDbEntity
  8
0
100
AcDbCircle
 10
6.290686516701555
 20
-76.75
 30
0.0
 40
0.25
100
AcDbArc
 50
-90.0
 51
-7.180755781458361
  0
LINE
  5
C4
330
17
100
AcDbEntity
  8
0
100
AcDbLine
 10
3.3535533905932766
 20
-77.0
 30
0.0
 11
6.290686516701555
 21
-77.0
 31
0.0
  0
ARC
  5
C5
330
17
100
AcDbEntity
  8
0
100
AcDbCircle
 10
3.3535533905932766
 20
-76.75
 30
0.0
 40
0.25
100
AcDbArc
 50
225.0
 51
270.0
  0
LINE
  5
C6
330
17
100
AcDbEntity
  8
0
100
AcDbLine
 10
3.1767766952966383
 20
-76.92677669529664
 30
0.0
 11
3.073223304703369
 21
-76.82322330470336
 31
0.0
  0
ARC
  5
C7
330
17
100
AcDbEntity
  8
0
100
AcDbCircle
 10
3.25
 20
-76.64644660940672
 30
0.0
 40
0.25
100
AcDbArc
 50
180.0
 51
225.0
  0
LINE
  5
C8
330
17
100
AcDbEntity
  8
0
100
AcDbLine
 10
3.0
 20
-73.69681348329844
 30
0.0
 11
3.0
 21
-76.64644660940672
 31
0.0
  0
ARC
  5
C9
330
17
100
AcDbEntity
  8
0
100
AcDbCircle
 10
3.25
 20
-73.69681348329844
 30
0.0
 40
0.25
100
AcDbArc
 50
97.18075578145834
 51
180.0
  0
ARC
  5
CA
330
17
100
AcDbEntity
  8
0
100
AcDbCircle
 10
3.0
 20
-71.7125
 30
0.0
 40
1.75
100
AcDbArc
 50
277.1807557814583
 51
450.0
  0
CIRCLE
  5
CB
330
17
100
AcDbEntity
  8
0
100
AcDbCircle
 10
20.0
 20
-60.0
 30
0.0
 40
2.35
  0
CIRCLE
  5
CC
330
17
100
AcDbEntity
  8
0
100
AcDbCircle
 10
40.0
 20
-60.0
 30
0.0
 40
1.5
  0
CIRCLE
  5
CD
330
17
100
AcDbEntity
  8
0
100
AcDbCircle
 10
60.0
 20
-60.0
 30
0.0
 40
1.65
  0
CIRCLE
  5
CE
330
17
100
AcDbEntity
  8
0
100
AcDbCircle
 10
80.0
 20
-60.0
 30
0.0
 40
2.5
  0
CIRCLE
  5
CF
330
17
100
AcDbEntity
  8
0
100
AcDbCircle
 10
20.0
 20
-40.0
 30
0.0
 40
1.5
  0
CIRCLE
  5
D0
330
17
100
AcDbEntity
  8
0
100
AcDbCircle
 10
20.0
 20
-20.0
 30
0.0
 40
1.35
  0
ENDSEC
  0
SECTION
  2
OBJECTS
  0
DICTIONARY
  5
A
330
0
100
AcDbDictionary
280
0
281
1
  3
ACAD_COLOR
350
B
  3
ACAD_GROUP
350
C
  3
ACAD_LAYOUT
350
D
  3
ACAD_MATERIAL
350
E
  3
ACAD_MLEADERSTYLE
350
F
  3
ACAD_MLINESTYLE
350
10
  3
ACAD_PLOTSETTINGS
350
11
  3
ACAD_PLOTSTYLENAME
350
12
  3
ACAD_SCALELIST
350
14
  3
ACAD_TABLESTYLE
350
15
  3
ACAD_VISUALSTYLE
350
16
  3
EZDXF_META
350
2D
  0
DICTIONARY
  5
B
330
A
100
AcDbDictionary
280
0
281
1
  0
DICTIONARY
  5
C
330
A
100
AcDbDictionary
280
0
281
1
  0
DICTIONARY
  5
D
330
A
100
AcDbDictionary
280
0
281
1
  3
Model
350
1A
  3
Layout1
350
1E
  0
DICTIONARY
  5
E
330
A
100
AcDbDictionary
280
0
281
1
  3
ByBlock
350
1F
  3
ByLayer
350
20
  3
Global
350
21
  0
DICTIONARY
  5
F
330
A
100
AcDbDictionary
280
0
281
1
  3
Standard
350
2C
  0
DICTIONARY
  5
10
330
A
100
AcDbDictionary
280
0
281
1
  3
Standard
350
22
  0
DICTIONARY
  5
11
330
A
100
AcDbDictionary
280
0
281
1
  0
ACDBDICTIONARYWDFLT
  5
12
330
A
100
AcDbDictionary
280
0
281
1
  3
Normal
350
13
100
AcDbDictionaryWithDefault
340
13
  0
ACDBPLACEHOLDER
  5
13
330
12
  0
DICTIONARY
  5
14
330
A
100
AcDbDictionary
280
0
281
1
  0
DICTIONARY
  5
15
330
A
100
AcDbDictionary
280
0
281
1
  0
DICTIONARY
  5
16
330
A
100
AcDbDictionary
280
0
281
1
  0
LAYOUT
  5
1A
330
D
100
AcDbPlotSettings
  1

  2
Adobe PDF
  4
A3
  6

 40
7.5
 41
20.0
 42
7.5
 43
20.0
 44
420.0
 45
297.0
 46
0.0
 47
0.0
 48
0.0
 49
0.0
140
0.0
141
0.0
142
1.0
143
1.0
 70
1024
 72
1
 73
0
 74
5
  7

 75
16
 76
0
 77
2
 78
300
147
1.0
148
0.0
149
0.0
100
AcDbLayout
  1
Model
 70
1
 71
0
 10
0.0
 20
0.0
 11
420.0
 21
297.0
 12
0.0
 22
0.0
 32
0.0
 14
1e+20
 24
1e+20
 34
1e+20
 15
-1e+20
 25
-1e+20
 35
-1e+20
146
0.0
 13
0.0
 23
0.0
 33
0.0
 16
1.0
 26
0.0
 36
0.0
 17
0.0
 27
1.0
 37
0.0
 76
1
330
17
  0
LAYOUT
  5
1E
330
D
100
AcDbPlotSettings
  1

  2
Adobe PDF
  4
A3
  6

 40
7.5
 41
20.0
 42
7.5
 43
20.0
 44
420.0
 45
297.0
 46
0.0
 47
0.0
 48
0.0
 49
0.0
140
0.0
141
0.0
142
1.0
143
1.0
 70
0
 72
1
 73
0
 74
5
  7

 75
16
 76
0
 77
2
 78
300
147
1.0
148
0.0
149
0.0
100
AcDbLayout
  1
Layout1
 70
1
 71
1
 10
0.0
 20
0.0
 11
420.0
 21
297.0
 12
0.0
 22
0.0
 32
0.0
 14
1e+20
 24
1e+20
 34
1e+20
 15
-1e+20
 25
-1e+20
 35
-1e+20
146
0.0
 13
0.0
 23
0.0
 33
0.0
 16
1.0
 26
0.0
 36
0.0
 17
0.0
 27
1.0
 37
0.0
 76
1
330
1B
  0
MATERIAL
  5
1F
102
{ACAD_REACTORS
330
E
102
}
330
E
100
AcDbMaterial
  1
ByBlock
  2

 70
0
 40
1.0
 71
1
 41
1.0
 91
-1023410177
 42
1.0
 72
1
  3

 73
1
 74
1
 75
1
 44
0.5
 73
0
 45
1.0
 46
1.0
 77
1
  4

 78
1
 79
1
170
1
 48
1.0
171
1
  6

172
1
173
1
174
1
140
1.0
141
1.0
175
1
  7

176
1
177
1
178
1
143
1.0
179
1
  8

270
1
271
1
272
1
145
1.0
146
1.0
273
1
  9

274
1
275
1
276
1
 42
1.0
 72
1
  3

 73
1
 74
1
 75
1
 94
63
  0
MATERIAL
  5
20
102
{ACAD_REACTORS
330
E
102
}
330
E
100
AcDbMaterial
  1
ByLayer
  2

 70
0
 40
1.0
 71
1
 41
1.0
 91
-1023410177
 42
1.0
 72
1
  3

 73
1
 74
1
 75
1
 44
0.5
 73
0
 45
1.0
 46
1.0
 77
1
  4

 78
1
 79
1
170
1
 48
1.0
171
1
  6

172
1
173
1
174
1
140
1.0
141
1.0
175
1
  7

176
1
177
1
178
1
143
1.0
179
1
  8

270
1
271
1
272
1
145
1.0
146
1.0
273
1
  9

274
1
275
1
276
1
 42
1.0
 72
1
  3

 73
1
 74
1
 75
1
 94
63
  0
MATERIAL
  5
21
102
{ACAD_REACTORS
330
E
102
}
330
E
100
AcDbMaterial
  1
Global
  2

 70
0
 40
1.0
 71
1
 41
1.0
 91
-1023410177
 42
1.0
 72
1
  3

 73
1
 74
1
 75
1
 44
0.5
 73
0
 45
1.0
 46
1.0
 77
1
  4

 78
1
 79
1
170
1
 48
1.0
171
1
  6

172
1
173
1
174
1
140
1.0
141
1.0
175
1
  7

176
1
177
1
178
1
143
1.0
179
1
  8

270
1
271
1
272
1
145
1.0
146
1.0
273
1
  9

274
1
275
1
276
1
 42
1.0
 72
1
  3

 73
1
 74
1
 75
1
 94
63
  0
MLINESTYLE
  5
22
102
{ACAD_REACTORS
330
10
102
}
330
10
100
AcDbMlineStyle
  2
Standard
 70
0
  3

 62
256
 51
90.0
 52
90.0
 71
2
 49
0.5
 62
256
  6
BYLAYER
 49
-0.5
 62
256
  6
BYLAYER
  0
MLEADERSTYLE
  5
2C
102
{ACAD_REACTORS
330
F
102
}
330
F
100
AcDbMLeaderStyle
179
2
170
2
171
1
172
0
 90
2
 40
0.0
 41
0.0
173
1
 91
-1056964608
 92
-2
290
1
 42
2.0
291
1
 43
8.0
  3
Standard
 44
4.0
300

342
29
174
1
175
1
176
0
178
1
 93
-1056964608
 45
4.0
292
0
297
0
 46
4.0
 94
-1056964608
 47
1.0
 49
1.0
140
1.0
294
1
141
0.0
177
0
142
1.0
295
0
296
0
143
3.75
271
0
272
9
273
9
  0
DICTIONARY
  5
2D
330
A
100
AcDbDictionary
281
1
  3
CREATED_BY_EZDXF
350
2E
  3
WRITTEN_BY_EZDXF
350
D4
  0
DICTIONARYVAR
  5
2E
330
2D
100
DictionaryVariables
280
0
  1
1.0.3 @ 2024-09-10T15:46:29.643148+00:00
  0
DICTIONARYVAR
  5
D4
330
2D
100
DictionaryVariables
280
0
  1
1.0.3 @ 2024-09-10T15:46:29.690154+00:00
  0
ENDSEC
  0
EOF
